G04 EAGLE Gerber RS-274X export*
G75*
%MOMM*%
%FSLAX34Y34*%
%LPD*%
%INSolderpaste Bottom*%
%IPPOS*%
%AMOC8*
5,1,8,0,0,1.08239X$1,22.5*%
G01*
%ADD10R,1.400000X1.800000*%
%ADD11R,1.900000X1.400000*%
%ADD12R,1.500000X0.800000*%


D10*
X178880Y154970D03*
X178880Y97970D03*
D11*
X47380Y81970D03*
X37380Y213470D03*
D12*
X75880Y166870D03*
X79880Y155870D03*
X75880Y144870D03*
X73880Y133870D03*
X75880Y122870D03*
X73880Y111870D03*
X75880Y100870D03*
X75880Y89870D03*
D10*
X412560Y154970D03*
X412560Y97970D03*
D11*
X281060Y81970D03*
X271060Y213470D03*
D12*
X309560Y166870D03*
X313560Y155870D03*
X309560Y144870D03*
X307560Y133870D03*
X309560Y122870D03*
X307560Y111870D03*
X309560Y100870D03*
X309560Y89870D03*
D10*
X646240Y154970D03*
X646240Y97970D03*
D11*
X514740Y81970D03*
X504740Y213470D03*
D12*
X543240Y166870D03*
X547240Y155870D03*
X543240Y144870D03*
X541240Y133870D03*
X543240Y122870D03*
X541240Y111870D03*
X543240Y100870D03*
X543240Y89870D03*
D10*
X879920Y154970D03*
X879920Y97970D03*
D11*
X748420Y81970D03*
X738420Y213470D03*
D12*
X776920Y166870D03*
X780920Y155870D03*
X776920Y144870D03*
X774920Y133870D03*
X776920Y122870D03*
X774920Y111870D03*
X776920Y100870D03*
X776920Y89870D03*
D10*
X1113600Y154970D03*
X1113600Y97970D03*
D11*
X982100Y81970D03*
X972100Y213470D03*
D12*
X1010600Y166870D03*
X1014600Y155870D03*
X1010600Y144870D03*
X1008600Y133870D03*
X1010600Y122870D03*
X1008600Y111870D03*
X1010600Y100870D03*
X1010600Y89870D03*
D10*
X178880Y769650D03*
X178880Y712650D03*
D11*
X47380Y696650D03*
X37380Y828150D03*
D12*
X75880Y781550D03*
X79880Y770550D03*
X75880Y759550D03*
X73880Y748550D03*
X75880Y737550D03*
X73880Y726550D03*
X75880Y715550D03*
X75880Y704550D03*
D10*
X412560Y769650D03*
X412560Y712650D03*
D11*
X281060Y696650D03*
X271060Y828150D03*
D12*
X309560Y781550D03*
X313560Y770550D03*
X309560Y759550D03*
X307560Y748550D03*
X309560Y737550D03*
X307560Y726550D03*
X309560Y715550D03*
X309560Y704550D03*
D10*
X646240Y769650D03*
X646240Y712650D03*
D11*
X514740Y696650D03*
X504740Y828150D03*
D12*
X543240Y781550D03*
X547240Y770550D03*
X543240Y759550D03*
X541240Y748550D03*
X543240Y737550D03*
X541240Y726550D03*
X543240Y715550D03*
X543240Y704550D03*
D10*
X879920Y769650D03*
X879920Y712650D03*
D11*
X748420Y696650D03*
X738420Y828150D03*
D12*
X776920Y781550D03*
X780920Y770550D03*
X776920Y759550D03*
X774920Y748550D03*
X776920Y737550D03*
X774920Y726550D03*
X776920Y715550D03*
X776920Y704550D03*
D10*
X1113600Y769650D03*
X1113600Y712650D03*
D11*
X982100Y696650D03*
X972100Y828150D03*
D12*
X1010600Y781550D03*
X1014600Y770550D03*
X1010600Y759550D03*
X1008600Y748550D03*
X1010600Y737550D03*
X1008600Y726550D03*
X1010600Y715550D03*
X1010600Y704550D03*
M02*
