G04 EAGLE Gerber RS-274X export*
G75*
%MOMM*%
%FSLAX34Y34*%
%LPD*%
%INSoldermask Top*%
%IPPOS*%
%AMOC8*
5,1,8,0,0,1.08239X$1,22.5*%
G01*
%ADD10R,0.803200X0.803200*%
%ADD11R,0.753200X1.403200*%
%ADD12C,0.505344*%
%ADD13R,1.303200X1.203200*%
%ADD14R,0.863200X0.503200*%
%ADD15R,2.203200X1.403200*%
%ADD16R,1.553200X0.803200*%
%ADD17C,0.838200*%
%ADD18C,3.251200*%
%ADD19R,1.103200X1.203200*%
%ADD20R,1.703200X1.103200*%
%ADD21R,1.103200X1.703200*%
%ADD22R,6.203200X6.203200*%
%ADD23R,1.103200X1.003200*%
%ADD24C,2.082800*%
%ADD25R,0.503200X1.203200*%
%ADD26R,0.803200X1.203200*%
%ADD27C,0.853200*%
%ADD28R,0.833200X1.033200*%
%ADD29R,0.803200X1.403200*%
%ADD30R,0.440000X0.840000*%
%ADD31R,1.520000X0.940000*%
%ADD32R,1.403200X0.753200*%
%ADD33R,0.903200X0.903200*%
%ADD34R,4.803200X1.203200*%
%ADD35R,3.603200X1.803200*%
%ADD36C,1.203200*%
%ADD37C,1.270000*%
%ADD38C,1.703200*%

G36*
X859824Y657563D02*
X859824Y657563D01*
X859830Y657569D01*
X859835Y657565D01*
X861065Y657930D01*
X861070Y657937D01*
X861075Y657935D01*
X862194Y658565D01*
X862197Y658572D01*
X862203Y658571D01*
X863153Y659434D01*
X863154Y659442D01*
X863160Y659442D01*
X863894Y660495D01*
X863894Y660503D01*
X863899Y660505D01*
X864381Y661695D01*
X864379Y661700D01*
X864383Y661703D01*
X864382Y661704D01*
X864384Y661705D01*
X864589Y662972D01*
X864586Y662977D01*
X864589Y662980D01*
X864589Y674980D01*
X864586Y674984D01*
X864589Y674987D01*
X864434Y676109D01*
X864429Y676114D01*
X864432Y676118D01*
X864061Y677189D01*
X864055Y677193D01*
X864057Y677198D01*
X863484Y678175D01*
X863478Y678178D01*
X863479Y678183D01*
X862726Y679030D01*
X862719Y679032D01*
X862719Y679037D01*
X861816Y679721D01*
X861809Y679721D01*
X861808Y679726D01*
X860789Y680221D01*
X860782Y680219D01*
X860780Y680224D01*
X859683Y680511D01*
X859677Y680508D01*
X859674Y680512D01*
X858543Y680579D01*
X858537Y680579D01*
X857406Y680512D01*
X857401Y680507D01*
X857397Y680511D01*
X856300Y680224D01*
X856296Y680218D01*
X856291Y680221D01*
X855272Y679726D01*
X855269Y679720D01*
X855264Y679721D01*
X854361Y679037D01*
X854359Y679030D01*
X854354Y679030D01*
X853601Y678183D01*
X853601Y678176D01*
X853596Y678175D01*
X853023Y677198D01*
X853024Y677195D01*
X853023Y677194D01*
X853024Y677193D01*
X853024Y677191D01*
X853019Y677189D01*
X852648Y676118D01*
X852650Y676113D01*
X852647Y676111D01*
X852647Y676110D01*
X852646Y676109D01*
X852491Y674987D01*
X852494Y674982D01*
X852491Y674980D01*
X852491Y662980D01*
X852494Y662975D01*
X852491Y662972D01*
X852696Y661705D01*
X852702Y661699D01*
X852699Y661695D01*
X853181Y660505D01*
X853188Y660501D01*
X853186Y660495D01*
X853920Y659442D01*
X853928Y659440D01*
X853927Y659434D01*
X854877Y658571D01*
X854886Y658570D01*
X854886Y658565D01*
X856005Y657935D01*
X856013Y657936D01*
X856015Y657930D01*
X857245Y657565D01*
X857253Y657568D01*
X857256Y657563D01*
X858537Y657481D01*
X858541Y657484D01*
X858543Y657481D01*
X859824Y657563D01*
G37*
G36*
X72384Y657563D02*
X72384Y657563D01*
X72390Y657569D01*
X72395Y657565D01*
X73625Y657930D01*
X73630Y657937D01*
X73635Y657935D01*
X74754Y658565D01*
X74757Y658572D01*
X74763Y658571D01*
X75713Y659434D01*
X75714Y659442D01*
X75720Y659442D01*
X76454Y660495D01*
X76454Y660503D01*
X76459Y660505D01*
X76941Y661695D01*
X76939Y661700D01*
X76943Y661703D01*
X76942Y661704D01*
X76944Y661705D01*
X77149Y662972D01*
X77146Y662977D01*
X77149Y662980D01*
X77149Y674980D01*
X77146Y674984D01*
X77149Y674987D01*
X76994Y676109D01*
X76989Y676114D01*
X76992Y676118D01*
X76621Y677189D01*
X76615Y677193D01*
X76617Y677198D01*
X76044Y678175D01*
X76038Y678178D01*
X76039Y678183D01*
X75286Y679030D01*
X75279Y679032D01*
X75279Y679037D01*
X74376Y679721D01*
X74369Y679721D01*
X74368Y679726D01*
X73349Y680221D01*
X73342Y680219D01*
X73340Y680224D01*
X72243Y680511D01*
X72237Y680508D01*
X72234Y680512D01*
X71103Y680579D01*
X71097Y680579D01*
X69966Y680512D01*
X69961Y680507D01*
X69957Y680511D01*
X68860Y680224D01*
X68856Y680218D01*
X68851Y680221D01*
X67832Y679726D01*
X67829Y679720D01*
X67824Y679721D01*
X66921Y679037D01*
X66919Y679030D01*
X66914Y679030D01*
X66161Y678183D01*
X66161Y678176D01*
X66156Y678175D01*
X65583Y677198D01*
X65584Y677195D01*
X65583Y677194D01*
X65584Y677193D01*
X65584Y677191D01*
X65579Y677189D01*
X65208Y676118D01*
X65210Y676113D01*
X65207Y676111D01*
X65207Y676110D01*
X65206Y676109D01*
X65051Y674987D01*
X65054Y674982D01*
X65051Y674980D01*
X65051Y662980D01*
X65054Y662975D01*
X65051Y662972D01*
X65256Y661705D01*
X65262Y661699D01*
X65259Y661695D01*
X65741Y660505D01*
X65748Y660501D01*
X65746Y660495D01*
X66480Y659442D01*
X66488Y659440D01*
X66487Y659434D01*
X67437Y658571D01*
X67446Y658570D01*
X67446Y658565D01*
X68565Y657935D01*
X68573Y657936D01*
X68575Y657930D01*
X69805Y657565D01*
X69813Y657568D01*
X69816Y657563D01*
X71097Y657481D01*
X71101Y657484D01*
X71103Y657481D01*
X72384Y657563D01*
G37*
G36*
X1007104Y657563D02*
X1007104Y657563D01*
X1007110Y657569D01*
X1007115Y657565D01*
X1008345Y657930D01*
X1008350Y657937D01*
X1008355Y657935D01*
X1009474Y658565D01*
X1009477Y658572D01*
X1009483Y658571D01*
X1010433Y659434D01*
X1010434Y659442D01*
X1010440Y659442D01*
X1011174Y660495D01*
X1011174Y660503D01*
X1011179Y660505D01*
X1011661Y661695D01*
X1011659Y661700D01*
X1011663Y661703D01*
X1011662Y661704D01*
X1011664Y661705D01*
X1011869Y662972D01*
X1011866Y662977D01*
X1011869Y662980D01*
X1011869Y674980D01*
X1011866Y674984D01*
X1011869Y674987D01*
X1011714Y676109D01*
X1011709Y676114D01*
X1011712Y676118D01*
X1011341Y677189D01*
X1011335Y677193D01*
X1011337Y677198D01*
X1010764Y678175D01*
X1010758Y678178D01*
X1010759Y678183D01*
X1010006Y679030D01*
X1009999Y679032D01*
X1009999Y679037D01*
X1009096Y679721D01*
X1009089Y679721D01*
X1009088Y679726D01*
X1008069Y680221D01*
X1008062Y680219D01*
X1008060Y680224D01*
X1006963Y680511D01*
X1006957Y680508D01*
X1006954Y680512D01*
X1005823Y680579D01*
X1005817Y680579D01*
X1004686Y680512D01*
X1004681Y680507D01*
X1004677Y680511D01*
X1003580Y680224D01*
X1003576Y680218D01*
X1003571Y680221D01*
X1002552Y679726D01*
X1002549Y679720D01*
X1002544Y679721D01*
X1001641Y679037D01*
X1001639Y679030D01*
X1001634Y679030D01*
X1000881Y678183D01*
X1000881Y678176D01*
X1000876Y678175D01*
X1000303Y677198D01*
X1000304Y677195D01*
X1000303Y677194D01*
X1000304Y677193D01*
X1000304Y677191D01*
X1000299Y677189D01*
X999928Y676118D01*
X999930Y676113D01*
X999927Y676111D01*
X999927Y676110D01*
X999926Y676109D01*
X999771Y674987D01*
X999774Y674982D01*
X999771Y674980D01*
X999771Y662980D01*
X999774Y662975D01*
X999771Y662972D01*
X999976Y661705D01*
X999982Y661699D01*
X999979Y661695D01*
X1000461Y660505D01*
X1000468Y660501D01*
X1000466Y660495D01*
X1001200Y659442D01*
X1001208Y659440D01*
X1001207Y659434D01*
X1002157Y658571D01*
X1002166Y658570D01*
X1002166Y658565D01*
X1003285Y657935D01*
X1003293Y657936D01*
X1003295Y657930D01*
X1004525Y657565D01*
X1004533Y657568D01*
X1004536Y657563D01*
X1005817Y657481D01*
X1005821Y657484D01*
X1005823Y657481D01*
X1007104Y657563D01*
G37*
G36*
X1093504Y657563D02*
X1093504Y657563D01*
X1093510Y657569D01*
X1093515Y657565D01*
X1094745Y657930D01*
X1094750Y657937D01*
X1094755Y657935D01*
X1095874Y658565D01*
X1095877Y658572D01*
X1095883Y658571D01*
X1096833Y659434D01*
X1096834Y659442D01*
X1096840Y659442D01*
X1097574Y660495D01*
X1097574Y660503D01*
X1097579Y660505D01*
X1098061Y661695D01*
X1098059Y661700D01*
X1098063Y661703D01*
X1098062Y661704D01*
X1098064Y661705D01*
X1098269Y662972D01*
X1098266Y662977D01*
X1098269Y662980D01*
X1098269Y674980D01*
X1098266Y674984D01*
X1098269Y674987D01*
X1098114Y676109D01*
X1098109Y676114D01*
X1098112Y676118D01*
X1097741Y677189D01*
X1097735Y677193D01*
X1097737Y677198D01*
X1097164Y678175D01*
X1097158Y678178D01*
X1097159Y678183D01*
X1096406Y679030D01*
X1096399Y679032D01*
X1096399Y679037D01*
X1095496Y679721D01*
X1095489Y679721D01*
X1095488Y679726D01*
X1094469Y680221D01*
X1094462Y680219D01*
X1094460Y680224D01*
X1093363Y680511D01*
X1093357Y680508D01*
X1093354Y680512D01*
X1092223Y680579D01*
X1092217Y680579D01*
X1091086Y680512D01*
X1091081Y680507D01*
X1091077Y680511D01*
X1089980Y680224D01*
X1089976Y680218D01*
X1089971Y680221D01*
X1088952Y679726D01*
X1088949Y679720D01*
X1088944Y679721D01*
X1088041Y679037D01*
X1088039Y679030D01*
X1088034Y679030D01*
X1087281Y678183D01*
X1087281Y678176D01*
X1087276Y678175D01*
X1086703Y677198D01*
X1086704Y677195D01*
X1086703Y677194D01*
X1086704Y677193D01*
X1086704Y677191D01*
X1086699Y677189D01*
X1086328Y676118D01*
X1086330Y676113D01*
X1086327Y676111D01*
X1086327Y676110D01*
X1086326Y676109D01*
X1086171Y674987D01*
X1086174Y674982D01*
X1086171Y674980D01*
X1086171Y662980D01*
X1086174Y662975D01*
X1086171Y662972D01*
X1086376Y661705D01*
X1086382Y661699D01*
X1086379Y661695D01*
X1086861Y660505D01*
X1086868Y660501D01*
X1086866Y660495D01*
X1087600Y659442D01*
X1087608Y659440D01*
X1087607Y659434D01*
X1088557Y658571D01*
X1088566Y658570D01*
X1088566Y658565D01*
X1089685Y657935D01*
X1089693Y657936D01*
X1089695Y657930D01*
X1090925Y657565D01*
X1090933Y657568D01*
X1090936Y657563D01*
X1092217Y657481D01*
X1092221Y657484D01*
X1092223Y657481D01*
X1093504Y657563D01*
G37*
G36*
X626144Y657563D02*
X626144Y657563D01*
X626150Y657569D01*
X626155Y657565D01*
X627385Y657930D01*
X627390Y657937D01*
X627395Y657935D01*
X628514Y658565D01*
X628517Y658572D01*
X628523Y658571D01*
X629473Y659434D01*
X629474Y659442D01*
X629480Y659442D01*
X630214Y660495D01*
X630214Y660503D01*
X630219Y660505D01*
X630701Y661695D01*
X630699Y661700D01*
X630703Y661703D01*
X630702Y661704D01*
X630704Y661705D01*
X630909Y662972D01*
X630906Y662977D01*
X630909Y662980D01*
X630909Y674980D01*
X630906Y674984D01*
X630909Y674987D01*
X630754Y676109D01*
X630749Y676114D01*
X630752Y676118D01*
X630381Y677189D01*
X630375Y677193D01*
X630377Y677198D01*
X629804Y678175D01*
X629798Y678178D01*
X629799Y678183D01*
X629046Y679030D01*
X629039Y679032D01*
X629039Y679037D01*
X628136Y679721D01*
X628129Y679721D01*
X628128Y679726D01*
X627109Y680221D01*
X627102Y680219D01*
X627100Y680224D01*
X626003Y680511D01*
X625997Y680508D01*
X625994Y680512D01*
X624863Y680579D01*
X624857Y680579D01*
X623726Y680512D01*
X623721Y680507D01*
X623717Y680511D01*
X622620Y680224D01*
X622616Y680218D01*
X622611Y680221D01*
X621592Y679726D01*
X621589Y679720D01*
X621584Y679721D01*
X620681Y679037D01*
X620679Y679030D01*
X620674Y679030D01*
X619921Y678183D01*
X619921Y678176D01*
X619916Y678175D01*
X619343Y677198D01*
X619344Y677195D01*
X619343Y677194D01*
X619344Y677193D01*
X619344Y677191D01*
X619339Y677189D01*
X618968Y676118D01*
X618970Y676113D01*
X618967Y676111D01*
X618967Y676110D01*
X618966Y676109D01*
X618811Y674987D01*
X618814Y674982D01*
X618811Y674980D01*
X618811Y662980D01*
X618814Y662975D01*
X618811Y662972D01*
X619016Y661705D01*
X619022Y661699D01*
X619019Y661695D01*
X619501Y660505D01*
X619508Y660501D01*
X619506Y660495D01*
X620240Y659442D01*
X620248Y659440D01*
X620247Y659434D01*
X621197Y658571D01*
X621206Y658570D01*
X621206Y658565D01*
X622325Y657935D01*
X622333Y657936D01*
X622335Y657930D01*
X623565Y657565D01*
X623573Y657568D01*
X623576Y657563D01*
X624857Y657481D01*
X624861Y657484D01*
X624863Y657481D01*
X626144Y657563D01*
G37*
G36*
X392464Y657563D02*
X392464Y657563D01*
X392470Y657569D01*
X392475Y657565D01*
X393705Y657930D01*
X393710Y657937D01*
X393715Y657935D01*
X394834Y658565D01*
X394837Y658572D01*
X394843Y658571D01*
X395793Y659434D01*
X395794Y659442D01*
X395800Y659442D01*
X396534Y660495D01*
X396534Y660503D01*
X396539Y660505D01*
X397021Y661695D01*
X397019Y661700D01*
X397023Y661703D01*
X397022Y661704D01*
X397024Y661705D01*
X397229Y662972D01*
X397226Y662977D01*
X397229Y662980D01*
X397229Y674980D01*
X397226Y674984D01*
X397229Y674987D01*
X397074Y676109D01*
X397069Y676114D01*
X397072Y676118D01*
X396701Y677189D01*
X396695Y677193D01*
X396697Y677198D01*
X396124Y678175D01*
X396118Y678178D01*
X396119Y678183D01*
X395366Y679030D01*
X395359Y679032D01*
X395359Y679037D01*
X394456Y679721D01*
X394449Y679721D01*
X394448Y679726D01*
X393429Y680221D01*
X393422Y680219D01*
X393420Y680224D01*
X392323Y680511D01*
X392317Y680508D01*
X392314Y680512D01*
X391183Y680579D01*
X391177Y680579D01*
X390046Y680512D01*
X390041Y680507D01*
X390037Y680511D01*
X388940Y680224D01*
X388936Y680218D01*
X388931Y680221D01*
X387912Y679726D01*
X387909Y679720D01*
X387904Y679721D01*
X387001Y679037D01*
X386999Y679030D01*
X386994Y679030D01*
X386241Y678183D01*
X386241Y678176D01*
X386236Y678175D01*
X385663Y677198D01*
X385664Y677195D01*
X385663Y677194D01*
X385664Y677193D01*
X385664Y677191D01*
X385659Y677189D01*
X385288Y676118D01*
X385290Y676113D01*
X385287Y676111D01*
X385287Y676110D01*
X385286Y676109D01*
X385131Y674987D01*
X385134Y674982D01*
X385131Y674980D01*
X385131Y662980D01*
X385134Y662975D01*
X385131Y662972D01*
X385336Y661705D01*
X385342Y661699D01*
X385339Y661695D01*
X385821Y660505D01*
X385828Y660501D01*
X385826Y660495D01*
X386560Y659442D01*
X386568Y659440D01*
X386567Y659434D01*
X387517Y658571D01*
X387526Y658570D01*
X387526Y658565D01*
X388645Y657935D01*
X388653Y657936D01*
X388655Y657930D01*
X389885Y657565D01*
X389893Y657568D01*
X389896Y657563D01*
X391177Y657481D01*
X391181Y657484D01*
X391183Y657481D01*
X392464Y657563D01*
G37*
G36*
X158784Y657563D02*
X158784Y657563D01*
X158790Y657569D01*
X158795Y657565D01*
X160025Y657930D01*
X160030Y657937D01*
X160035Y657935D01*
X161154Y658565D01*
X161157Y658572D01*
X161163Y658571D01*
X162113Y659434D01*
X162114Y659442D01*
X162120Y659442D01*
X162854Y660495D01*
X162854Y660503D01*
X162859Y660505D01*
X163341Y661695D01*
X163339Y661700D01*
X163343Y661703D01*
X163342Y661704D01*
X163344Y661705D01*
X163549Y662972D01*
X163546Y662977D01*
X163549Y662980D01*
X163549Y674980D01*
X163546Y674984D01*
X163549Y674987D01*
X163394Y676109D01*
X163389Y676114D01*
X163392Y676118D01*
X163021Y677189D01*
X163015Y677193D01*
X163017Y677198D01*
X162444Y678175D01*
X162438Y678178D01*
X162439Y678183D01*
X161686Y679030D01*
X161679Y679032D01*
X161679Y679037D01*
X160776Y679721D01*
X160769Y679721D01*
X160768Y679726D01*
X159749Y680221D01*
X159742Y680219D01*
X159740Y680224D01*
X158643Y680511D01*
X158637Y680508D01*
X158634Y680512D01*
X157503Y680579D01*
X157497Y680579D01*
X156366Y680512D01*
X156361Y680507D01*
X156357Y680511D01*
X155260Y680224D01*
X155256Y680218D01*
X155251Y680221D01*
X154232Y679726D01*
X154229Y679720D01*
X154224Y679721D01*
X153321Y679037D01*
X153319Y679030D01*
X153314Y679030D01*
X152561Y678183D01*
X152561Y678176D01*
X152556Y678175D01*
X151983Y677198D01*
X151984Y677195D01*
X151983Y677194D01*
X151984Y677193D01*
X151984Y677191D01*
X151979Y677189D01*
X151608Y676118D01*
X151610Y676113D01*
X151607Y676111D01*
X151607Y676110D01*
X151606Y676109D01*
X151451Y674987D01*
X151454Y674982D01*
X151451Y674980D01*
X151451Y662980D01*
X151454Y662975D01*
X151451Y662972D01*
X151656Y661705D01*
X151662Y661699D01*
X151659Y661695D01*
X152141Y660505D01*
X152148Y660501D01*
X152146Y660495D01*
X152880Y659442D01*
X152888Y659440D01*
X152887Y659434D01*
X153837Y658571D01*
X153846Y658570D01*
X153846Y658565D01*
X154965Y657935D01*
X154973Y657936D01*
X154975Y657930D01*
X156205Y657565D01*
X156213Y657568D01*
X156216Y657563D01*
X157497Y657481D01*
X157501Y657484D01*
X157503Y657481D01*
X158784Y657563D01*
G37*
G36*
X306064Y657563D02*
X306064Y657563D01*
X306070Y657569D01*
X306075Y657565D01*
X307305Y657930D01*
X307310Y657937D01*
X307315Y657935D01*
X308434Y658565D01*
X308437Y658572D01*
X308443Y658571D01*
X309393Y659434D01*
X309394Y659442D01*
X309400Y659442D01*
X310134Y660495D01*
X310134Y660503D01*
X310139Y660505D01*
X310621Y661695D01*
X310619Y661700D01*
X310623Y661703D01*
X310622Y661704D01*
X310624Y661705D01*
X310829Y662972D01*
X310826Y662977D01*
X310829Y662980D01*
X310829Y674980D01*
X310826Y674984D01*
X310829Y674987D01*
X310674Y676109D01*
X310669Y676114D01*
X310672Y676118D01*
X310301Y677189D01*
X310295Y677193D01*
X310297Y677198D01*
X309724Y678175D01*
X309718Y678178D01*
X309719Y678183D01*
X308966Y679030D01*
X308959Y679032D01*
X308959Y679037D01*
X308056Y679721D01*
X308049Y679721D01*
X308048Y679726D01*
X307029Y680221D01*
X307022Y680219D01*
X307020Y680224D01*
X305923Y680511D01*
X305917Y680508D01*
X305914Y680512D01*
X304783Y680579D01*
X304777Y680579D01*
X303646Y680512D01*
X303641Y680507D01*
X303637Y680511D01*
X302540Y680224D01*
X302536Y680218D01*
X302531Y680221D01*
X301512Y679726D01*
X301509Y679720D01*
X301504Y679721D01*
X300601Y679037D01*
X300599Y679030D01*
X300594Y679030D01*
X299841Y678183D01*
X299841Y678176D01*
X299836Y678175D01*
X299263Y677198D01*
X299264Y677195D01*
X299263Y677194D01*
X299264Y677193D01*
X299264Y677191D01*
X299259Y677189D01*
X298888Y676118D01*
X298890Y676113D01*
X298887Y676111D01*
X298887Y676110D01*
X298886Y676109D01*
X298731Y674987D01*
X298734Y674982D01*
X298731Y674980D01*
X298731Y662980D01*
X298734Y662975D01*
X298731Y662972D01*
X298936Y661705D01*
X298942Y661699D01*
X298939Y661695D01*
X299421Y660505D01*
X299428Y660501D01*
X299426Y660495D01*
X300160Y659442D01*
X300168Y659440D01*
X300167Y659434D01*
X301117Y658571D01*
X301126Y658570D01*
X301126Y658565D01*
X302245Y657935D01*
X302253Y657936D01*
X302255Y657930D01*
X303485Y657565D01*
X303493Y657568D01*
X303496Y657563D01*
X304777Y657481D01*
X304781Y657484D01*
X304783Y657481D01*
X306064Y657563D01*
G37*
G36*
X773424Y657563D02*
X773424Y657563D01*
X773430Y657569D01*
X773435Y657565D01*
X774665Y657930D01*
X774670Y657937D01*
X774675Y657935D01*
X775794Y658565D01*
X775797Y658572D01*
X775803Y658571D01*
X776753Y659434D01*
X776754Y659442D01*
X776760Y659442D01*
X777494Y660495D01*
X777494Y660503D01*
X777499Y660505D01*
X777981Y661695D01*
X777979Y661700D01*
X777983Y661703D01*
X777982Y661704D01*
X777984Y661705D01*
X778189Y662972D01*
X778186Y662977D01*
X778189Y662980D01*
X778189Y674980D01*
X778186Y674984D01*
X778189Y674987D01*
X778034Y676109D01*
X778029Y676114D01*
X778032Y676118D01*
X777661Y677189D01*
X777655Y677193D01*
X777657Y677198D01*
X777084Y678175D01*
X777078Y678178D01*
X777079Y678183D01*
X776326Y679030D01*
X776319Y679032D01*
X776319Y679037D01*
X775416Y679721D01*
X775409Y679721D01*
X775408Y679726D01*
X774389Y680221D01*
X774382Y680219D01*
X774380Y680224D01*
X773283Y680511D01*
X773277Y680508D01*
X773274Y680512D01*
X772143Y680579D01*
X772137Y680579D01*
X771006Y680512D01*
X771001Y680507D01*
X770997Y680511D01*
X769900Y680224D01*
X769896Y680218D01*
X769891Y680221D01*
X768872Y679726D01*
X768869Y679720D01*
X768864Y679721D01*
X767961Y679037D01*
X767959Y679030D01*
X767954Y679030D01*
X767201Y678183D01*
X767201Y678176D01*
X767196Y678175D01*
X766623Y677198D01*
X766624Y677195D01*
X766623Y677194D01*
X766624Y677193D01*
X766624Y677191D01*
X766619Y677189D01*
X766248Y676118D01*
X766250Y676113D01*
X766247Y676111D01*
X766247Y676110D01*
X766246Y676109D01*
X766091Y674987D01*
X766094Y674982D01*
X766091Y674980D01*
X766091Y662980D01*
X766094Y662975D01*
X766091Y662972D01*
X766296Y661705D01*
X766302Y661699D01*
X766299Y661695D01*
X766781Y660505D01*
X766788Y660501D01*
X766786Y660495D01*
X767520Y659442D01*
X767528Y659440D01*
X767527Y659434D01*
X768477Y658571D01*
X768486Y658570D01*
X768486Y658565D01*
X769605Y657935D01*
X769613Y657936D01*
X769615Y657930D01*
X770845Y657565D01*
X770853Y657568D01*
X770856Y657563D01*
X772137Y657481D01*
X772141Y657484D01*
X772143Y657481D01*
X773424Y657563D01*
G37*
G36*
X539744Y657563D02*
X539744Y657563D01*
X539750Y657569D01*
X539755Y657565D01*
X540985Y657930D01*
X540990Y657937D01*
X540995Y657935D01*
X542114Y658565D01*
X542117Y658572D01*
X542123Y658571D01*
X543073Y659434D01*
X543074Y659442D01*
X543080Y659442D01*
X543814Y660495D01*
X543814Y660503D01*
X543819Y660505D01*
X544301Y661695D01*
X544299Y661700D01*
X544303Y661703D01*
X544302Y661704D01*
X544304Y661705D01*
X544509Y662972D01*
X544506Y662977D01*
X544509Y662980D01*
X544509Y674980D01*
X544506Y674984D01*
X544509Y674987D01*
X544354Y676109D01*
X544349Y676114D01*
X544352Y676118D01*
X543981Y677189D01*
X543975Y677193D01*
X543977Y677198D01*
X543404Y678175D01*
X543398Y678178D01*
X543399Y678183D01*
X542646Y679030D01*
X542639Y679032D01*
X542639Y679037D01*
X541736Y679721D01*
X541729Y679721D01*
X541728Y679726D01*
X540709Y680221D01*
X540702Y680219D01*
X540700Y680224D01*
X539603Y680511D01*
X539597Y680508D01*
X539594Y680512D01*
X538463Y680579D01*
X538457Y680579D01*
X537326Y680512D01*
X537321Y680507D01*
X537317Y680511D01*
X536220Y680224D01*
X536216Y680218D01*
X536211Y680221D01*
X535192Y679726D01*
X535189Y679720D01*
X535184Y679721D01*
X534281Y679037D01*
X534279Y679030D01*
X534274Y679030D01*
X533521Y678183D01*
X533521Y678176D01*
X533516Y678175D01*
X532943Y677198D01*
X532944Y677195D01*
X532943Y677194D01*
X532944Y677193D01*
X532944Y677191D01*
X532939Y677189D01*
X532568Y676118D01*
X532570Y676113D01*
X532567Y676111D01*
X532567Y676110D01*
X532566Y676109D01*
X532411Y674987D01*
X532414Y674982D01*
X532411Y674980D01*
X532411Y662980D01*
X532414Y662975D01*
X532411Y662972D01*
X532616Y661705D01*
X532622Y661699D01*
X532619Y661695D01*
X533101Y660505D01*
X533108Y660501D01*
X533106Y660495D01*
X533840Y659442D01*
X533848Y659440D01*
X533847Y659434D01*
X534797Y658571D01*
X534806Y658570D01*
X534806Y658565D01*
X535925Y657935D01*
X535933Y657936D01*
X535935Y657930D01*
X537165Y657565D01*
X537173Y657568D01*
X537176Y657563D01*
X538457Y657481D01*
X538461Y657484D01*
X538463Y657481D01*
X539744Y657563D01*
G37*
G36*
X773424Y42883D02*
X773424Y42883D01*
X773430Y42889D01*
X773435Y42885D01*
X774665Y43250D01*
X774670Y43257D01*
X774675Y43255D01*
X775794Y43885D01*
X775797Y43892D01*
X775803Y43891D01*
X776753Y44754D01*
X776754Y44762D01*
X776760Y44762D01*
X777494Y45815D01*
X777494Y45823D01*
X777499Y45825D01*
X777981Y47015D01*
X777979Y47020D01*
X777983Y47023D01*
X777982Y47024D01*
X777984Y47025D01*
X778189Y48292D01*
X778186Y48297D01*
X778189Y48300D01*
X778189Y60300D01*
X778186Y60304D01*
X778189Y60307D01*
X778034Y61429D01*
X778029Y61434D01*
X778032Y61438D01*
X777661Y62509D01*
X777655Y62513D01*
X777657Y62518D01*
X777084Y63495D01*
X777078Y63498D01*
X777079Y63503D01*
X776326Y64350D01*
X776319Y64352D01*
X776319Y64357D01*
X775416Y65041D01*
X775409Y65041D01*
X775408Y65046D01*
X774389Y65541D01*
X774382Y65539D01*
X774380Y65544D01*
X773283Y65831D01*
X773277Y65828D01*
X773274Y65832D01*
X772143Y65899D01*
X772137Y65899D01*
X771006Y65832D01*
X771001Y65827D01*
X770997Y65831D01*
X769900Y65544D01*
X769896Y65538D01*
X769891Y65541D01*
X768872Y65046D01*
X768869Y65040D01*
X768864Y65041D01*
X767961Y64357D01*
X767959Y64350D01*
X767954Y64350D01*
X767201Y63503D01*
X767201Y63496D01*
X767196Y63495D01*
X766623Y62518D01*
X766624Y62515D01*
X766623Y62514D01*
X766624Y62513D01*
X766624Y62511D01*
X766619Y62509D01*
X766248Y61438D01*
X766250Y61433D01*
X766247Y61431D01*
X766247Y61430D01*
X766246Y61429D01*
X766091Y60307D01*
X766094Y60302D01*
X766091Y60300D01*
X766091Y48300D01*
X766094Y48295D01*
X766091Y48292D01*
X766296Y47025D01*
X766302Y47019D01*
X766299Y47015D01*
X766781Y45825D01*
X766788Y45821D01*
X766786Y45815D01*
X767520Y44762D01*
X767528Y44760D01*
X767527Y44754D01*
X768477Y43891D01*
X768486Y43890D01*
X768486Y43885D01*
X769605Y43255D01*
X769613Y43256D01*
X769615Y43250D01*
X770845Y42885D01*
X770853Y42888D01*
X770856Y42883D01*
X772137Y42801D01*
X772141Y42804D01*
X772143Y42801D01*
X773424Y42883D01*
G37*
G36*
X1093504Y42883D02*
X1093504Y42883D01*
X1093510Y42889D01*
X1093515Y42885D01*
X1094745Y43250D01*
X1094750Y43257D01*
X1094755Y43255D01*
X1095874Y43885D01*
X1095877Y43892D01*
X1095883Y43891D01*
X1096833Y44754D01*
X1096834Y44762D01*
X1096840Y44762D01*
X1097574Y45815D01*
X1097574Y45823D01*
X1097579Y45825D01*
X1098061Y47015D01*
X1098059Y47020D01*
X1098063Y47023D01*
X1098062Y47024D01*
X1098064Y47025D01*
X1098269Y48292D01*
X1098266Y48297D01*
X1098269Y48300D01*
X1098269Y60300D01*
X1098266Y60304D01*
X1098269Y60307D01*
X1098114Y61429D01*
X1098109Y61434D01*
X1098112Y61438D01*
X1097741Y62509D01*
X1097735Y62513D01*
X1097737Y62518D01*
X1097164Y63495D01*
X1097158Y63498D01*
X1097159Y63503D01*
X1096406Y64350D01*
X1096399Y64352D01*
X1096399Y64357D01*
X1095496Y65041D01*
X1095489Y65041D01*
X1095488Y65046D01*
X1094469Y65541D01*
X1094462Y65539D01*
X1094460Y65544D01*
X1093363Y65831D01*
X1093357Y65828D01*
X1093354Y65832D01*
X1092223Y65899D01*
X1092217Y65899D01*
X1091086Y65832D01*
X1091081Y65827D01*
X1091077Y65831D01*
X1089980Y65544D01*
X1089976Y65538D01*
X1089971Y65541D01*
X1088952Y65046D01*
X1088949Y65040D01*
X1088944Y65041D01*
X1088041Y64357D01*
X1088039Y64350D01*
X1088034Y64350D01*
X1087281Y63503D01*
X1087281Y63496D01*
X1087276Y63495D01*
X1086703Y62518D01*
X1086704Y62515D01*
X1086703Y62514D01*
X1086704Y62513D01*
X1086704Y62511D01*
X1086699Y62509D01*
X1086328Y61438D01*
X1086330Y61433D01*
X1086327Y61431D01*
X1086327Y61430D01*
X1086326Y61429D01*
X1086171Y60307D01*
X1086174Y60302D01*
X1086171Y60300D01*
X1086171Y48300D01*
X1086174Y48295D01*
X1086171Y48292D01*
X1086376Y47025D01*
X1086382Y47019D01*
X1086379Y47015D01*
X1086861Y45825D01*
X1086868Y45821D01*
X1086866Y45815D01*
X1087600Y44762D01*
X1087608Y44760D01*
X1087607Y44754D01*
X1088557Y43891D01*
X1088566Y43890D01*
X1088566Y43885D01*
X1089685Y43255D01*
X1089693Y43256D01*
X1089695Y43250D01*
X1090925Y42885D01*
X1090933Y42888D01*
X1090936Y42883D01*
X1092217Y42801D01*
X1092221Y42804D01*
X1092223Y42801D01*
X1093504Y42883D01*
G37*
G36*
X392464Y42883D02*
X392464Y42883D01*
X392470Y42889D01*
X392475Y42885D01*
X393705Y43250D01*
X393710Y43257D01*
X393715Y43255D01*
X394834Y43885D01*
X394837Y43892D01*
X394843Y43891D01*
X395793Y44754D01*
X395794Y44762D01*
X395800Y44762D01*
X396534Y45815D01*
X396534Y45823D01*
X396539Y45825D01*
X397021Y47015D01*
X397019Y47020D01*
X397023Y47023D01*
X397022Y47024D01*
X397024Y47025D01*
X397229Y48292D01*
X397226Y48297D01*
X397229Y48300D01*
X397229Y60300D01*
X397226Y60304D01*
X397229Y60307D01*
X397074Y61429D01*
X397069Y61434D01*
X397072Y61438D01*
X396701Y62509D01*
X396695Y62513D01*
X396697Y62518D01*
X396124Y63495D01*
X396118Y63498D01*
X396119Y63503D01*
X395366Y64350D01*
X395359Y64352D01*
X395359Y64357D01*
X394456Y65041D01*
X394449Y65041D01*
X394448Y65046D01*
X393429Y65541D01*
X393422Y65539D01*
X393420Y65544D01*
X392323Y65831D01*
X392317Y65828D01*
X392314Y65832D01*
X391183Y65899D01*
X391177Y65899D01*
X390046Y65832D01*
X390041Y65827D01*
X390037Y65831D01*
X388940Y65544D01*
X388936Y65538D01*
X388931Y65541D01*
X387912Y65046D01*
X387909Y65040D01*
X387904Y65041D01*
X387001Y64357D01*
X386999Y64350D01*
X386994Y64350D01*
X386241Y63503D01*
X386241Y63496D01*
X386236Y63495D01*
X385663Y62518D01*
X385664Y62515D01*
X385663Y62514D01*
X385664Y62513D01*
X385664Y62511D01*
X385659Y62509D01*
X385288Y61438D01*
X385290Y61433D01*
X385287Y61431D01*
X385287Y61430D01*
X385286Y61429D01*
X385131Y60307D01*
X385134Y60302D01*
X385131Y60300D01*
X385131Y48300D01*
X385134Y48295D01*
X385131Y48292D01*
X385336Y47025D01*
X385342Y47019D01*
X385339Y47015D01*
X385821Y45825D01*
X385828Y45821D01*
X385826Y45815D01*
X386560Y44762D01*
X386568Y44760D01*
X386567Y44754D01*
X387517Y43891D01*
X387526Y43890D01*
X387526Y43885D01*
X388645Y43255D01*
X388653Y43256D01*
X388655Y43250D01*
X389885Y42885D01*
X389893Y42888D01*
X389896Y42883D01*
X391177Y42801D01*
X391181Y42804D01*
X391183Y42801D01*
X392464Y42883D01*
G37*
G36*
X859824Y42883D02*
X859824Y42883D01*
X859830Y42889D01*
X859835Y42885D01*
X861065Y43250D01*
X861070Y43257D01*
X861075Y43255D01*
X862194Y43885D01*
X862197Y43892D01*
X862203Y43891D01*
X863153Y44754D01*
X863154Y44762D01*
X863160Y44762D01*
X863894Y45815D01*
X863894Y45823D01*
X863899Y45825D01*
X864381Y47015D01*
X864379Y47020D01*
X864383Y47023D01*
X864382Y47024D01*
X864384Y47025D01*
X864589Y48292D01*
X864586Y48297D01*
X864589Y48300D01*
X864589Y60300D01*
X864586Y60304D01*
X864589Y60307D01*
X864434Y61429D01*
X864429Y61434D01*
X864432Y61438D01*
X864061Y62509D01*
X864055Y62513D01*
X864057Y62518D01*
X863484Y63495D01*
X863478Y63498D01*
X863479Y63503D01*
X862726Y64350D01*
X862719Y64352D01*
X862719Y64357D01*
X861816Y65041D01*
X861809Y65041D01*
X861808Y65046D01*
X860789Y65541D01*
X860782Y65539D01*
X860780Y65544D01*
X859683Y65831D01*
X859677Y65828D01*
X859674Y65832D01*
X858543Y65899D01*
X858537Y65899D01*
X857406Y65832D01*
X857401Y65827D01*
X857397Y65831D01*
X856300Y65544D01*
X856296Y65538D01*
X856291Y65541D01*
X855272Y65046D01*
X855269Y65040D01*
X855264Y65041D01*
X854361Y64357D01*
X854359Y64350D01*
X854354Y64350D01*
X853601Y63503D01*
X853601Y63496D01*
X853596Y63495D01*
X853023Y62518D01*
X853024Y62515D01*
X853023Y62514D01*
X853024Y62513D01*
X853024Y62511D01*
X853019Y62509D01*
X852648Y61438D01*
X852650Y61433D01*
X852647Y61431D01*
X852647Y61430D01*
X852646Y61429D01*
X852491Y60307D01*
X852494Y60302D01*
X852491Y60300D01*
X852491Y48300D01*
X852494Y48295D01*
X852491Y48292D01*
X852696Y47025D01*
X852702Y47019D01*
X852699Y47015D01*
X853181Y45825D01*
X853188Y45821D01*
X853186Y45815D01*
X853920Y44762D01*
X853928Y44760D01*
X853927Y44754D01*
X854877Y43891D01*
X854886Y43890D01*
X854886Y43885D01*
X856005Y43255D01*
X856013Y43256D01*
X856015Y43250D01*
X857245Y42885D01*
X857253Y42888D01*
X857256Y42883D01*
X858537Y42801D01*
X858541Y42804D01*
X858543Y42801D01*
X859824Y42883D01*
G37*
G36*
X306064Y42883D02*
X306064Y42883D01*
X306070Y42889D01*
X306075Y42885D01*
X307305Y43250D01*
X307310Y43257D01*
X307315Y43255D01*
X308434Y43885D01*
X308437Y43892D01*
X308443Y43891D01*
X309393Y44754D01*
X309394Y44762D01*
X309400Y44762D01*
X310134Y45815D01*
X310134Y45823D01*
X310139Y45825D01*
X310621Y47015D01*
X310619Y47020D01*
X310623Y47023D01*
X310622Y47024D01*
X310624Y47025D01*
X310829Y48292D01*
X310826Y48297D01*
X310829Y48300D01*
X310829Y60300D01*
X310826Y60304D01*
X310829Y60307D01*
X310674Y61429D01*
X310669Y61434D01*
X310672Y61438D01*
X310301Y62509D01*
X310295Y62513D01*
X310297Y62518D01*
X309724Y63495D01*
X309718Y63498D01*
X309719Y63503D01*
X308966Y64350D01*
X308959Y64352D01*
X308959Y64357D01*
X308056Y65041D01*
X308049Y65041D01*
X308048Y65046D01*
X307029Y65541D01*
X307022Y65539D01*
X307020Y65544D01*
X305923Y65831D01*
X305917Y65828D01*
X305914Y65832D01*
X304783Y65899D01*
X304777Y65899D01*
X303646Y65832D01*
X303641Y65827D01*
X303637Y65831D01*
X302540Y65544D01*
X302536Y65538D01*
X302531Y65541D01*
X301512Y65046D01*
X301509Y65040D01*
X301504Y65041D01*
X300601Y64357D01*
X300599Y64350D01*
X300594Y64350D01*
X299841Y63503D01*
X299841Y63496D01*
X299836Y63495D01*
X299263Y62518D01*
X299264Y62515D01*
X299263Y62514D01*
X299264Y62513D01*
X299264Y62511D01*
X299259Y62509D01*
X298888Y61438D01*
X298890Y61433D01*
X298887Y61431D01*
X298887Y61430D01*
X298886Y61429D01*
X298731Y60307D01*
X298734Y60302D01*
X298731Y60300D01*
X298731Y48300D01*
X298734Y48295D01*
X298731Y48292D01*
X298936Y47025D01*
X298942Y47019D01*
X298939Y47015D01*
X299421Y45825D01*
X299428Y45821D01*
X299426Y45815D01*
X300160Y44762D01*
X300168Y44760D01*
X300167Y44754D01*
X301117Y43891D01*
X301126Y43890D01*
X301126Y43885D01*
X302245Y43255D01*
X302253Y43256D01*
X302255Y43250D01*
X303485Y42885D01*
X303493Y42888D01*
X303496Y42883D01*
X304777Y42801D01*
X304781Y42804D01*
X304783Y42801D01*
X306064Y42883D01*
G37*
G36*
X1007104Y42883D02*
X1007104Y42883D01*
X1007110Y42889D01*
X1007115Y42885D01*
X1008345Y43250D01*
X1008350Y43257D01*
X1008355Y43255D01*
X1009474Y43885D01*
X1009477Y43892D01*
X1009483Y43891D01*
X1010433Y44754D01*
X1010434Y44762D01*
X1010440Y44762D01*
X1011174Y45815D01*
X1011174Y45823D01*
X1011179Y45825D01*
X1011661Y47015D01*
X1011659Y47020D01*
X1011663Y47023D01*
X1011662Y47024D01*
X1011664Y47025D01*
X1011869Y48292D01*
X1011866Y48297D01*
X1011869Y48300D01*
X1011869Y60300D01*
X1011866Y60304D01*
X1011869Y60307D01*
X1011714Y61429D01*
X1011709Y61434D01*
X1011712Y61438D01*
X1011341Y62509D01*
X1011335Y62513D01*
X1011337Y62518D01*
X1010764Y63495D01*
X1010758Y63498D01*
X1010759Y63503D01*
X1010006Y64350D01*
X1009999Y64352D01*
X1009999Y64357D01*
X1009096Y65041D01*
X1009089Y65041D01*
X1009088Y65046D01*
X1008069Y65541D01*
X1008062Y65539D01*
X1008060Y65544D01*
X1006963Y65831D01*
X1006957Y65828D01*
X1006954Y65832D01*
X1005823Y65899D01*
X1005817Y65899D01*
X1004686Y65832D01*
X1004681Y65827D01*
X1004677Y65831D01*
X1003580Y65544D01*
X1003576Y65538D01*
X1003571Y65541D01*
X1002552Y65046D01*
X1002549Y65040D01*
X1002544Y65041D01*
X1001641Y64357D01*
X1001639Y64350D01*
X1001634Y64350D01*
X1000881Y63503D01*
X1000881Y63496D01*
X1000876Y63495D01*
X1000303Y62518D01*
X1000304Y62515D01*
X1000303Y62514D01*
X1000304Y62513D01*
X1000304Y62511D01*
X1000299Y62509D01*
X999928Y61438D01*
X999930Y61433D01*
X999927Y61431D01*
X999927Y61430D01*
X999926Y61429D01*
X999771Y60307D01*
X999774Y60302D01*
X999771Y60300D01*
X999771Y48300D01*
X999774Y48295D01*
X999771Y48292D01*
X999976Y47025D01*
X999982Y47019D01*
X999979Y47015D01*
X1000461Y45825D01*
X1000468Y45821D01*
X1000466Y45815D01*
X1001200Y44762D01*
X1001208Y44760D01*
X1001207Y44754D01*
X1002157Y43891D01*
X1002166Y43890D01*
X1002166Y43885D01*
X1003285Y43255D01*
X1003293Y43256D01*
X1003295Y43250D01*
X1004525Y42885D01*
X1004533Y42888D01*
X1004536Y42883D01*
X1005817Y42801D01*
X1005821Y42804D01*
X1005823Y42801D01*
X1007104Y42883D01*
G37*
G36*
X539744Y42883D02*
X539744Y42883D01*
X539750Y42889D01*
X539755Y42885D01*
X540985Y43250D01*
X540990Y43257D01*
X540995Y43255D01*
X542114Y43885D01*
X542117Y43892D01*
X542123Y43891D01*
X543073Y44754D01*
X543074Y44762D01*
X543080Y44762D01*
X543814Y45815D01*
X543814Y45823D01*
X543819Y45825D01*
X544301Y47015D01*
X544299Y47020D01*
X544303Y47023D01*
X544302Y47024D01*
X544304Y47025D01*
X544509Y48292D01*
X544506Y48297D01*
X544509Y48300D01*
X544509Y60300D01*
X544506Y60304D01*
X544509Y60307D01*
X544354Y61429D01*
X544349Y61434D01*
X544352Y61438D01*
X543981Y62509D01*
X543975Y62513D01*
X543977Y62518D01*
X543404Y63495D01*
X543398Y63498D01*
X543399Y63503D01*
X542646Y64350D01*
X542639Y64352D01*
X542639Y64357D01*
X541736Y65041D01*
X541729Y65041D01*
X541728Y65046D01*
X540709Y65541D01*
X540702Y65539D01*
X540700Y65544D01*
X539603Y65831D01*
X539597Y65828D01*
X539594Y65832D01*
X538463Y65899D01*
X538457Y65899D01*
X537326Y65832D01*
X537321Y65827D01*
X537317Y65831D01*
X536220Y65544D01*
X536216Y65538D01*
X536211Y65541D01*
X535192Y65046D01*
X535189Y65040D01*
X535184Y65041D01*
X534281Y64357D01*
X534279Y64350D01*
X534274Y64350D01*
X533521Y63503D01*
X533521Y63496D01*
X533516Y63495D01*
X532943Y62518D01*
X532944Y62515D01*
X532943Y62514D01*
X532944Y62513D01*
X532944Y62511D01*
X532939Y62509D01*
X532568Y61438D01*
X532570Y61433D01*
X532567Y61431D01*
X532567Y61430D01*
X532566Y61429D01*
X532411Y60307D01*
X532414Y60302D01*
X532411Y60300D01*
X532411Y48300D01*
X532414Y48295D01*
X532411Y48292D01*
X532616Y47025D01*
X532622Y47019D01*
X532619Y47015D01*
X533101Y45825D01*
X533108Y45821D01*
X533106Y45815D01*
X533840Y44762D01*
X533848Y44760D01*
X533847Y44754D01*
X534797Y43891D01*
X534806Y43890D01*
X534806Y43885D01*
X535925Y43255D01*
X535933Y43256D01*
X535935Y43250D01*
X537165Y42885D01*
X537173Y42888D01*
X537176Y42883D01*
X538457Y42801D01*
X538461Y42804D01*
X538463Y42801D01*
X539744Y42883D01*
G37*
G36*
X158784Y42883D02*
X158784Y42883D01*
X158790Y42889D01*
X158795Y42885D01*
X160025Y43250D01*
X160030Y43257D01*
X160035Y43255D01*
X161154Y43885D01*
X161157Y43892D01*
X161163Y43891D01*
X162113Y44754D01*
X162114Y44762D01*
X162120Y44762D01*
X162854Y45815D01*
X162854Y45823D01*
X162859Y45825D01*
X163341Y47015D01*
X163339Y47020D01*
X163343Y47023D01*
X163342Y47024D01*
X163344Y47025D01*
X163549Y48292D01*
X163546Y48297D01*
X163549Y48300D01*
X163549Y60300D01*
X163546Y60304D01*
X163549Y60307D01*
X163394Y61429D01*
X163389Y61434D01*
X163392Y61438D01*
X163021Y62509D01*
X163015Y62513D01*
X163017Y62518D01*
X162444Y63495D01*
X162438Y63498D01*
X162439Y63503D01*
X161686Y64350D01*
X161679Y64352D01*
X161679Y64357D01*
X160776Y65041D01*
X160769Y65041D01*
X160768Y65046D01*
X159749Y65541D01*
X159742Y65539D01*
X159740Y65544D01*
X158643Y65831D01*
X158637Y65828D01*
X158634Y65832D01*
X157503Y65899D01*
X157497Y65899D01*
X156366Y65832D01*
X156361Y65827D01*
X156357Y65831D01*
X155260Y65544D01*
X155256Y65538D01*
X155251Y65541D01*
X154232Y65046D01*
X154229Y65040D01*
X154224Y65041D01*
X153321Y64357D01*
X153319Y64350D01*
X153314Y64350D01*
X152561Y63503D01*
X152561Y63496D01*
X152556Y63495D01*
X151983Y62518D01*
X151984Y62515D01*
X151983Y62514D01*
X151984Y62513D01*
X151984Y62511D01*
X151979Y62509D01*
X151608Y61438D01*
X151610Y61433D01*
X151607Y61431D01*
X151607Y61430D01*
X151606Y61429D01*
X151451Y60307D01*
X151454Y60302D01*
X151451Y60300D01*
X151451Y48300D01*
X151454Y48295D01*
X151451Y48292D01*
X151656Y47025D01*
X151662Y47019D01*
X151659Y47015D01*
X152141Y45825D01*
X152148Y45821D01*
X152146Y45815D01*
X152880Y44762D01*
X152888Y44760D01*
X152887Y44754D01*
X153837Y43891D01*
X153846Y43890D01*
X153846Y43885D01*
X154965Y43255D01*
X154973Y43256D01*
X154975Y43250D01*
X156205Y42885D01*
X156213Y42888D01*
X156216Y42883D01*
X157497Y42801D01*
X157501Y42804D01*
X157503Y42801D01*
X158784Y42883D01*
G37*
G36*
X626144Y42883D02*
X626144Y42883D01*
X626150Y42889D01*
X626155Y42885D01*
X627385Y43250D01*
X627390Y43257D01*
X627395Y43255D01*
X628514Y43885D01*
X628517Y43892D01*
X628523Y43891D01*
X629473Y44754D01*
X629474Y44762D01*
X629480Y44762D01*
X630214Y45815D01*
X630214Y45823D01*
X630219Y45825D01*
X630701Y47015D01*
X630699Y47020D01*
X630703Y47023D01*
X630702Y47024D01*
X630704Y47025D01*
X630909Y48292D01*
X630906Y48297D01*
X630909Y48300D01*
X630909Y60300D01*
X630906Y60304D01*
X630909Y60307D01*
X630754Y61429D01*
X630749Y61434D01*
X630752Y61438D01*
X630381Y62509D01*
X630375Y62513D01*
X630377Y62518D01*
X629804Y63495D01*
X629798Y63498D01*
X629799Y63503D01*
X629046Y64350D01*
X629039Y64352D01*
X629039Y64357D01*
X628136Y65041D01*
X628129Y65041D01*
X628128Y65046D01*
X627109Y65541D01*
X627102Y65539D01*
X627100Y65544D01*
X626003Y65831D01*
X625997Y65828D01*
X625994Y65832D01*
X624863Y65899D01*
X624857Y65899D01*
X623726Y65832D01*
X623721Y65827D01*
X623717Y65831D01*
X622620Y65544D01*
X622616Y65538D01*
X622611Y65541D01*
X621592Y65046D01*
X621589Y65040D01*
X621584Y65041D01*
X620681Y64357D01*
X620679Y64350D01*
X620674Y64350D01*
X619921Y63503D01*
X619921Y63496D01*
X619916Y63495D01*
X619343Y62518D01*
X619344Y62515D01*
X619343Y62514D01*
X619344Y62513D01*
X619344Y62511D01*
X619339Y62509D01*
X618968Y61438D01*
X618970Y61433D01*
X618967Y61431D01*
X618967Y61430D01*
X618966Y61429D01*
X618811Y60307D01*
X618814Y60302D01*
X618811Y60300D01*
X618811Y48300D01*
X618814Y48295D01*
X618811Y48292D01*
X619016Y47025D01*
X619022Y47019D01*
X619019Y47015D01*
X619501Y45825D01*
X619508Y45821D01*
X619506Y45815D01*
X620240Y44762D01*
X620248Y44760D01*
X620247Y44754D01*
X621197Y43891D01*
X621206Y43890D01*
X621206Y43885D01*
X622325Y43255D01*
X622333Y43256D01*
X622335Y43250D01*
X623565Y42885D01*
X623573Y42888D01*
X623576Y42883D01*
X624857Y42801D01*
X624861Y42804D01*
X624863Y42801D01*
X626144Y42883D01*
G37*
G36*
X72384Y42883D02*
X72384Y42883D01*
X72390Y42889D01*
X72395Y42885D01*
X73625Y43250D01*
X73630Y43257D01*
X73635Y43255D01*
X74754Y43885D01*
X74757Y43892D01*
X74763Y43891D01*
X75713Y44754D01*
X75714Y44762D01*
X75720Y44762D01*
X76454Y45815D01*
X76454Y45823D01*
X76459Y45825D01*
X76941Y47015D01*
X76939Y47020D01*
X76943Y47023D01*
X76942Y47024D01*
X76944Y47025D01*
X77149Y48292D01*
X77146Y48297D01*
X77149Y48300D01*
X77149Y60300D01*
X77146Y60304D01*
X77149Y60307D01*
X76994Y61429D01*
X76989Y61434D01*
X76992Y61438D01*
X76621Y62509D01*
X76615Y62513D01*
X76617Y62518D01*
X76044Y63495D01*
X76038Y63498D01*
X76039Y63503D01*
X75286Y64350D01*
X75279Y64352D01*
X75279Y64357D01*
X74376Y65041D01*
X74369Y65041D01*
X74368Y65046D01*
X73349Y65541D01*
X73342Y65539D01*
X73340Y65544D01*
X72243Y65831D01*
X72237Y65828D01*
X72234Y65832D01*
X71103Y65899D01*
X71097Y65899D01*
X69966Y65832D01*
X69961Y65827D01*
X69957Y65831D01*
X68860Y65544D01*
X68856Y65538D01*
X68851Y65541D01*
X67832Y65046D01*
X67829Y65040D01*
X67824Y65041D01*
X66921Y64357D01*
X66919Y64350D01*
X66914Y64350D01*
X66161Y63503D01*
X66161Y63496D01*
X66156Y63495D01*
X65583Y62518D01*
X65584Y62515D01*
X65583Y62514D01*
X65584Y62513D01*
X65584Y62511D01*
X65579Y62509D01*
X65208Y61438D01*
X65210Y61433D01*
X65207Y61431D01*
X65207Y61430D01*
X65206Y61429D01*
X65051Y60307D01*
X65054Y60302D01*
X65051Y60300D01*
X65051Y48300D01*
X65054Y48295D01*
X65051Y48292D01*
X65256Y47025D01*
X65262Y47019D01*
X65259Y47015D01*
X65741Y45825D01*
X65748Y45821D01*
X65746Y45815D01*
X66480Y44762D01*
X66488Y44760D01*
X66487Y44754D01*
X67437Y43891D01*
X67446Y43890D01*
X67446Y43885D01*
X68565Y43255D01*
X68573Y43256D01*
X68575Y43250D01*
X69805Y42885D01*
X69813Y42888D01*
X69816Y42883D01*
X71097Y42801D01*
X71101Y42804D01*
X71103Y42801D01*
X72384Y42883D01*
G37*
G36*
X859711Y618291D02*
X859711Y618291D01*
X859716Y618296D01*
X859720Y618293D01*
X860843Y618628D01*
X860847Y618634D01*
X860851Y618632D01*
X861887Y619180D01*
X861890Y619186D01*
X861895Y619185D01*
X862803Y619924D01*
X862805Y619931D01*
X862810Y619931D01*
X863557Y620833D01*
X863557Y620841D01*
X863563Y620841D01*
X864119Y621872D01*
X864118Y621879D01*
X864123Y621881D01*
X864467Y623000D01*
X864465Y623007D01*
X864469Y623010D01*
X864589Y624175D01*
X864587Y624178D01*
X864589Y624180D01*
X864589Y630180D01*
X864587Y630183D01*
X864589Y630185D01*
X864478Y631361D01*
X864473Y631366D01*
X864476Y631370D01*
X864138Y632502D01*
X864132Y632506D01*
X864134Y632511D01*
X863582Y633555D01*
X863575Y633558D01*
X863577Y633563D01*
X862831Y634479D01*
X862824Y634480D01*
X862824Y634486D01*
X861915Y635239D01*
X861907Y635239D01*
X861907Y635244D01*
X860867Y635805D01*
X860860Y635804D01*
X860858Y635809D01*
X859729Y636156D01*
X859723Y636154D01*
X859720Y636158D01*
X858545Y636279D01*
X858538Y636275D01*
X858534Y636279D01*
X857194Y636122D01*
X857188Y636117D01*
X857183Y636120D01*
X855912Y635669D01*
X855907Y635662D01*
X855902Y635664D01*
X854763Y634942D01*
X854760Y634934D01*
X854754Y634935D01*
X853804Y633977D01*
X853803Y633969D01*
X853797Y633968D01*
X853084Y632823D01*
X853085Y632815D01*
X853079Y632813D01*
X852639Y631537D01*
X852641Y631530D01*
X852637Y631527D01*
X852491Y630185D01*
X852493Y630182D01*
X852491Y630180D01*
X852491Y624180D01*
X852493Y624177D01*
X852491Y624174D01*
X852646Y622845D01*
X852652Y622839D01*
X852649Y622835D01*
X853096Y621574D01*
X853103Y621569D01*
X853101Y621564D01*
X853818Y620434D01*
X853825Y620431D01*
X853824Y620425D01*
X854775Y619483D01*
X854783Y619482D01*
X854783Y619476D01*
X855919Y618769D01*
X855927Y618770D01*
X855929Y618764D01*
X857194Y618328D01*
X857199Y618329D01*
X857200Y618329D01*
X857203Y618329D01*
X857205Y618325D01*
X858535Y618181D01*
X858541Y618185D01*
X858545Y618181D01*
X859711Y618291D01*
G37*
G36*
X392351Y618291D02*
X392351Y618291D01*
X392356Y618296D01*
X392360Y618293D01*
X393483Y618628D01*
X393487Y618634D01*
X393491Y618632D01*
X394527Y619180D01*
X394530Y619186D01*
X394535Y619185D01*
X395443Y619924D01*
X395445Y619931D01*
X395450Y619931D01*
X396197Y620833D01*
X396197Y620841D01*
X396203Y620841D01*
X396759Y621872D01*
X396758Y621879D01*
X396763Y621881D01*
X397107Y623000D01*
X397105Y623007D01*
X397109Y623010D01*
X397229Y624175D01*
X397227Y624178D01*
X397229Y624180D01*
X397229Y630180D01*
X397227Y630183D01*
X397229Y630185D01*
X397118Y631361D01*
X397113Y631366D01*
X397116Y631370D01*
X396778Y632502D01*
X396772Y632506D01*
X396774Y632511D01*
X396222Y633555D01*
X396215Y633558D01*
X396217Y633563D01*
X395471Y634479D01*
X395464Y634480D01*
X395464Y634486D01*
X394555Y635239D01*
X394547Y635239D01*
X394547Y635244D01*
X393507Y635805D01*
X393500Y635804D01*
X393498Y635809D01*
X392369Y636156D01*
X392363Y636154D01*
X392360Y636158D01*
X391185Y636279D01*
X391178Y636275D01*
X391174Y636279D01*
X389834Y636122D01*
X389828Y636117D01*
X389823Y636120D01*
X388552Y635669D01*
X388547Y635662D01*
X388542Y635664D01*
X387403Y634942D01*
X387400Y634934D01*
X387394Y634935D01*
X386444Y633977D01*
X386443Y633969D01*
X386437Y633968D01*
X385724Y632823D01*
X385725Y632815D01*
X385719Y632813D01*
X385279Y631537D01*
X385281Y631530D01*
X385277Y631527D01*
X385131Y630185D01*
X385133Y630182D01*
X385131Y630180D01*
X385131Y624180D01*
X385133Y624177D01*
X385131Y624174D01*
X385286Y622845D01*
X385292Y622839D01*
X385289Y622835D01*
X385736Y621574D01*
X385743Y621569D01*
X385741Y621564D01*
X386458Y620434D01*
X386465Y620431D01*
X386464Y620425D01*
X387415Y619483D01*
X387423Y619482D01*
X387423Y619476D01*
X388559Y618769D01*
X388567Y618770D01*
X388569Y618764D01*
X389834Y618328D01*
X389839Y618329D01*
X389840Y618329D01*
X389843Y618329D01*
X389845Y618325D01*
X391175Y618181D01*
X391181Y618185D01*
X391185Y618181D01*
X392351Y618291D01*
G37*
G36*
X158671Y618291D02*
X158671Y618291D01*
X158676Y618296D01*
X158680Y618293D01*
X159803Y618628D01*
X159807Y618634D01*
X159811Y618632D01*
X160847Y619180D01*
X160850Y619186D01*
X160855Y619185D01*
X161763Y619924D01*
X161765Y619931D01*
X161770Y619931D01*
X162517Y620833D01*
X162517Y620841D01*
X162523Y620841D01*
X163079Y621872D01*
X163078Y621879D01*
X163083Y621881D01*
X163427Y623000D01*
X163425Y623007D01*
X163429Y623010D01*
X163549Y624175D01*
X163547Y624178D01*
X163549Y624180D01*
X163549Y630180D01*
X163547Y630183D01*
X163549Y630185D01*
X163438Y631361D01*
X163433Y631366D01*
X163436Y631370D01*
X163098Y632502D01*
X163092Y632506D01*
X163094Y632511D01*
X162542Y633555D01*
X162535Y633558D01*
X162537Y633563D01*
X161791Y634479D01*
X161784Y634480D01*
X161784Y634486D01*
X160875Y635239D01*
X160867Y635239D01*
X160867Y635244D01*
X159827Y635805D01*
X159820Y635804D01*
X159818Y635809D01*
X158689Y636156D01*
X158683Y636154D01*
X158680Y636158D01*
X157505Y636279D01*
X157498Y636275D01*
X157494Y636279D01*
X156154Y636122D01*
X156148Y636117D01*
X156143Y636120D01*
X154872Y635669D01*
X154867Y635662D01*
X154862Y635664D01*
X153723Y634942D01*
X153720Y634934D01*
X153714Y634935D01*
X152764Y633977D01*
X152763Y633969D01*
X152757Y633968D01*
X152044Y632823D01*
X152045Y632815D01*
X152039Y632813D01*
X151599Y631537D01*
X151601Y631530D01*
X151597Y631527D01*
X151451Y630185D01*
X151453Y630182D01*
X151451Y630180D01*
X151451Y624180D01*
X151453Y624177D01*
X151451Y624174D01*
X151606Y622845D01*
X151612Y622839D01*
X151609Y622835D01*
X152056Y621574D01*
X152063Y621569D01*
X152061Y621564D01*
X152778Y620434D01*
X152785Y620431D01*
X152784Y620425D01*
X153735Y619483D01*
X153743Y619482D01*
X153743Y619476D01*
X154879Y618769D01*
X154887Y618770D01*
X154889Y618764D01*
X156154Y618328D01*
X156159Y618329D01*
X156160Y618329D01*
X156163Y618329D01*
X156165Y618325D01*
X157495Y618181D01*
X157501Y618185D01*
X157505Y618181D01*
X158671Y618291D01*
G37*
G36*
X539631Y618291D02*
X539631Y618291D01*
X539636Y618296D01*
X539640Y618293D01*
X540763Y618628D01*
X540767Y618634D01*
X540771Y618632D01*
X541807Y619180D01*
X541810Y619186D01*
X541815Y619185D01*
X542723Y619924D01*
X542725Y619931D01*
X542730Y619931D01*
X543477Y620833D01*
X543477Y620841D01*
X543483Y620841D01*
X544039Y621872D01*
X544038Y621879D01*
X544043Y621881D01*
X544387Y623000D01*
X544385Y623007D01*
X544389Y623010D01*
X544509Y624175D01*
X544507Y624178D01*
X544509Y624180D01*
X544509Y630180D01*
X544507Y630183D01*
X544509Y630185D01*
X544398Y631361D01*
X544393Y631366D01*
X544396Y631370D01*
X544058Y632502D01*
X544052Y632506D01*
X544054Y632511D01*
X543502Y633555D01*
X543495Y633558D01*
X543497Y633563D01*
X542751Y634479D01*
X542744Y634480D01*
X542744Y634486D01*
X541835Y635239D01*
X541827Y635239D01*
X541827Y635244D01*
X540787Y635805D01*
X540780Y635804D01*
X540778Y635809D01*
X539649Y636156D01*
X539643Y636154D01*
X539640Y636158D01*
X538465Y636279D01*
X538458Y636275D01*
X538454Y636279D01*
X537114Y636122D01*
X537108Y636117D01*
X537103Y636120D01*
X535832Y635669D01*
X535827Y635662D01*
X535822Y635664D01*
X534683Y634942D01*
X534680Y634934D01*
X534674Y634935D01*
X533724Y633977D01*
X533723Y633969D01*
X533717Y633968D01*
X533004Y632823D01*
X533005Y632815D01*
X532999Y632813D01*
X532559Y631537D01*
X532561Y631530D01*
X532557Y631527D01*
X532411Y630185D01*
X532413Y630182D01*
X532411Y630180D01*
X532411Y624180D01*
X532413Y624177D01*
X532411Y624174D01*
X532566Y622845D01*
X532572Y622839D01*
X532569Y622835D01*
X533016Y621574D01*
X533023Y621569D01*
X533021Y621564D01*
X533738Y620434D01*
X533745Y620431D01*
X533744Y620425D01*
X534695Y619483D01*
X534703Y619482D01*
X534703Y619476D01*
X535839Y618769D01*
X535847Y618770D01*
X535849Y618764D01*
X537114Y618328D01*
X537119Y618329D01*
X537120Y618329D01*
X537123Y618329D01*
X537125Y618325D01*
X538455Y618181D01*
X538461Y618185D01*
X538465Y618181D01*
X539631Y618291D01*
G37*
G36*
X773311Y618291D02*
X773311Y618291D01*
X773316Y618296D01*
X773320Y618293D01*
X774443Y618628D01*
X774447Y618634D01*
X774451Y618632D01*
X775487Y619180D01*
X775490Y619186D01*
X775495Y619185D01*
X776403Y619924D01*
X776405Y619931D01*
X776410Y619931D01*
X777157Y620833D01*
X777157Y620841D01*
X777163Y620841D01*
X777719Y621872D01*
X777718Y621879D01*
X777723Y621881D01*
X778067Y623000D01*
X778065Y623007D01*
X778069Y623010D01*
X778189Y624175D01*
X778187Y624178D01*
X778189Y624180D01*
X778189Y630180D01*
X778187Y630183D01*
X778189Y630185D01*
X778078Y631361D01*
X778073Y631366D01*
X778076Y631370D01*
X777738Y632502D01*
X777732Y632506D01*
X777734Y632511D01*
X777182Y633555D01*
X777175Y633558D01*
X777177Y633563D01*
X776431Y634479D01*
X776424Y634480D01*
X776424Y634486D01*
X775515Y635239D01*
X775507Y635239D01*
X775507Y635244D01*
X774467Y635805D01*
X774460Y635804D01*
X774458Y635809D01*
X773329Y636156D01*
X773323Y636154D01*
X773320Y636158D01*
X772145Y636279D01*
X772138Y636275D01*
X772134Y636279D01*
X770794Y636122D01*
X770788Y636117D01*
X770783Y636120D01*
X769512Y635669D01*
X769507Y635662D01*
X769502Y635664D01*
X768363Y634942D01*
X768360Y634934D01*
X768354Y634935D01*
X767404Y633977D01*
X767403Y633969D01*
X767397Y633968D01*
X766684Y632823D01*
X766685Y632815D01*
X766679Y632813D01*
X766239Y631537D01*
X766241Y631530D01*
X766237Y631527D01*
X766091Y630185D01*
X766093Y630182D01*
X766091Y630180D01*
X766091Y624180D01*
X766093Y624177D01*
X766091Y624174D01*
X766246Y622845D01*
X766252Y622839D01*
X766249Y622835D01*
X766696Y621574D01*
X766703Y621569D01*
X766701Y621564D01*
X767418Y620434D01*
X767425Y620431D01*
X767424Y620425D01*
X768375Y619483D01*
X768383Y619482D01*
X768383Y619476D01*
X769519Y618769D01*
X769527Y618770D01*
X769529Y618764D01*
X770794Y618328D01*
X770799Y618329D01*
X770800Y618329D01*
X770803Y618329D01*
X770805Y618325D01*
X772135Y618181D01*
X772141Y618185D01*
X772145Y618181D01*
X773311Y618291D01*
G37*
G36*
X626031Y618291D02*
X626031Y618291D01*
X626036Y618296D01*
X626040Y618293D01*
X627163Y618628D01*
X627167Y618634D01*
X627171Y618632D01*
X628207Y619180D01*
X628210Y619186D01*
X628215Y619185D01*
X629123Y619924D01*
X629125Y619931D01*
X629130Y619931D01*
X629877Y620833D01*
X629877Y620841D01*
X629883Y620841D01*
X630439Y621872D01*
X630438Y621879D01*
X630443Y621881D01*
X630787Y623000D01*
X630785Y623007D01*
X630789Y623010D01*
X630909Y624175D01*
X630907Y624178D01*
X630909Y624180D01*
X630909Y630180D01*
X630907Y630183D01*
X630909Y630185D01*
X630798Y631361D01*
X630793Y631366D01*
X630796Y631370D01*
X630458Y632502D01*
X630452Y632506D01*
X630454Y632511D01*
X629902Y633555D01*
X629895Y633558D01*
X629897Y633563D01*
X629151Y634479D01*
X629144Y634480D01*
X629144Y634486D01*
X628235Y635239D01*
X628227Y635239D01*
X628227Y635244D01*
X627187Y635805D01*
X627180Y635804D01*
X627178Y635809D01*
X626049Y636156D01*
X626043Y636154D01*
X626040Y636158D01*
X624865Y636279D01*
X624858Y636275D01*
X624854Y636279D01*
X623514Y636122D01*
X623508Y636117D01*
X623503Y636120D01*
X622232Y635669D01*
X622227Y635662D01*
X622222Y635664D01*
X621083Y634942D01*
X621080Y634934D01*
X621074Y634935D01*
X620124Y633977D01*
X620123Y633969D01*
X620117Y633968D01*
X619404Y632823D01*
X619405Y632815D01*
X619399Y632813D01*
X618959Y631537D01*
X618961Y631530D01*
X618957Y631527D01*
X618811Y630185D01*
X618813Y630182D01*
X618811Y630180D01*
X618811Y624180D01*
X618813Y624177D01*
X618811Y624174D01*
X618966Y622845D01*
X618972Y622839D01*
X618969Y622835D01*
X619416Y621574D01*
X619423Y621569D01*
X619421Y621564D01*
X620138Y620434D01*
X620145Y620431D01*
X620144Y620425D01*
X621095Y619483D01*
X621103Y619482D01*
X621103Y619476D01*
X622239Y618769D01*
X622247Y618770D01*
X622249Y618764D01*
X623514Y618328D01*
X623519Y618329D01*
X623520Y618329D01*
X623523Y618329D01*
X623525Y618325D01*
X624855Y618181D01*
X624861Y618185D01*
X624865Y618181D01*
X626031Y618291D01*
G37*
G36*
X1006991Y618291D02*
X1006991Y618291D01*
X1006996Y618296D01*
X1007000Y618293D01*
X1008123Y618628D01*
X1008127Y618634D01*
X1008131Y618632D01*
X1009167Y619180D01*
X1009170Y619186D01*
X1009175Y619185D01*
X1010083Y619924D01*
X1010085Y619931D01*
X1010090Y619931D01*
X1010837Y620833D01*
X1010837Y620841D01*
X1010843Y620841D01*
X1011399Y621872D01*
X1011398Y621879D01*
X1011403Y621881D01*
X1011747Y623000D01*
X1011745Y623007D01*
X1011749Y623010D01*
X1011869Y624175D01*
X1011867Y624178D01*
X1011869Y624180D01*
X1011869Y630180D01*
X1011867Y630183D01*
X1011869Y630185D01*
X1011758Y631361D01*
X1011753Y631366D01*
X1011756Y631370D01*
X1011418Y632502D01*
X1011412Y632506D01*
X1011414Y632511D01*
X1010862Y633555D01*
X1010855Y633558D01*
X1010857Y633563D01*
X1010111Y634479D01*
X1010104Y634480D01*
X1010104Y634486D01*
X1009195Y635239D01*
X1009187Y635239D01*
X1009187Y635244D01*
X1008147Y635805D01*
X1008140Y635804D01*
X1008138Y635809D01*
X1007009Y636156D01*
X1007003Y636154D01*
X1007000Y636158D01*
X1005825Y636279D01*
X1005818Y636275D01*
X1005814Y636279D01*
X1004474Y636122D01*
X1004468Y636117D01*
X1004463Y636120D01*
X1003192Y635669D01*
X1003187Y635662D01*
X1003182Y635664D01*
X1002043Y634942D01*
X1002040Y634934D01*
X1002034Y634935D01*
X1001084Y633977D01*
X1001083Y633969D01*
X1001077Y633968D01*
X1000364Y632823D01*
X1000365Y632815D01*
X1000359Y632813D01*
X999919Y631537D01*
X999921Y631530D01*
X999917Y631527D01*
X999771Y630185D01*
X999773Y630182D01*
X999771Y630180D01*
X999771Y624180D01*
X999773Y624177D01*
X999771Y624174D01*
X999926Y622845D01*
X999932Y622839D01*
X999929Y622835D01*
X1000376Y621574D01*
X1000383Y621569D01*
X1000381Y621564D01*
X1001098Y620434D01*
X1001105Y620431D01*
X1001104Y620425D01*
X1002055Y619483D01*
X1002063Y619482D01*
X1002063Y619476D01*
X1003199Y618769D01*
X1003207Y618770D01*
X1003209Y618764D01*
X1004474Y618328D01*
X1004479Y618329D01*
X1004480Y618329D01*
X1004483Y618329D01*
X1004485Y618325D01*
X1005815Y618181D01*
X1005821Y618185D01*
X1005825Y618181D01*
X1006991Y618291D01*
G37*
G36*
X72271Y618291D02*
X72271Y618291D01*
X72276Y618296D01*
X72280Y618293D01*
X73403Y618628D01*
X73407Y618634D01*
X73411Y618632D01*
X74447Y619180D01*
X74450Y619186D01*
X74455Y619185D01*
X75363Y619924D01*
X75365Y619931D01*
X75370Y619931D01*
X76117Y620833D01*
X76117Y620841D01*
X76123Y620841D01*
X76679Y621872D01*
X76678Y621879D01*
X76683Y621881D01*
X77027Y623000D01*
X77025Y623007D01*
X77029Y623010D01*
X77149Y624175D01*
X77147Y624178D01*
X77149Y624180D01*
X77149Y630180D01*
X77147Y630183D01*
X77149Y630185D01*
X77038Y631361D01*
X77033Y631366D01*
X77036Y631370D01*
X76698Y632502D01*
X76692Y632506D01*
X76694Y632511D01*
X76142Y633555D01*
X76135Y633558D01*
X76137Y633563D01*
X75391Y634479D01*
X75384Y634480D01*
X75384Y634486D01*
X74475Y635239D01*
X74467Y635239D01*
X74467Y635244D01*
X73427Y635805D01*
X73420Y635804D01*
X73418Y635809D01*
X72289Y636156D01*
X72283Y636154D01*
X72280Y636158D01*
X71105Y636279D01*
X71098Y636275D01*
X71094Y636279D01*
X69754Y636122D01*
X69748Y636117D01*
X69743Y636120D01*
X68472Y635669D01*
X68467Y635662D01*
X68462Y635664D01*
X67323Y634942D01*
X67320Y634934D01*
X67314Y634935D01*
X66364Y633977D01*
X66363Y633969D01*
X66357Y633968D01*
X65644Y632823D01*
X65645Y632815D01*
X65639Y632813D01*
X65199Y631537D01*
X65201Y631530D01*
X65197Y631527D01*
X65051Y630185D01*
X65053Y630182D01*
X65051Y630180D01*
X65051Y624180D01*
X65053Y624177D01*
X65051Y624174D01*
X65206Y622845D01*
X65212Y622839D01*
X65209Y622835D01*
X65656Y621574D01*
X65663Y621569D01*
X65661Y621564D01*
X66378Y620434D01*
X66385Y620431D01*
X66384Y620425D01*
X67335Y619483D01*
X67343Y619482D01*
X67343Y619476D01*
X68479Y618769D01*
X68487Y618770D01*
X68489Y618764D01*
X69754Y618328D01*
X69759Y618329D01*
X69760Y618329D01*
X69763Y618329D01*
X69765Y618325D01*
X71095Y618181D01*
X71101Y618185D01*
X71105Y618181D01*
X72271Y618291D01*
G37*
G36*
X305951Y618291D02*
X305951Y618291D01*
X305956Y618296D01*
X305960Y618293D01*
X307083Y618628D01*
X307087Y618634D01*
X307091Y618632D01*
X308127Y619180D01*
X308130Y619186D01*
X308135Y619185D01*
X309043Y619924D01*
X309045Y619931D01*
X309050Y619931D01*
X309797Y620833D01*
X309797Y620841D01*
X309803Y620841D01*
X310359Y621872D01*
X310358Y621879D01*
X310363Y621881D01*
X310707Y623000D01*
X310705Y623007D01*
X310709Y623010D01*
X310829Y624175D01*
X310827Y624178D01*
X310829Y624180D01*
X310829Y630180D01*
X310827Y630183D01*
X310829Y630185D01*
X310718Y631361D01*
X310713Y631366D01*
X310716Y631370D01*
X310378Y632502D01*
X310372Y632506D01*
X310374Y632511D01*
X309822Y633555D01*
X309815Y633558D01*
X309817Y633563D01*
X309071Y634479D01*
X309064Y634480D01*
X309064Y634486D01*
X308155Y635239D01*
X308147Y635239D01*
X308147Y635244D01*
X307107Y635805D01*
X307100Y635804D01*
X307098Y635809D01*
X305969Y636156D01*
X305963Y636154D01*
X305960Y636158D01*
X304785Y636279D01*
X304778Y636275D01*
X304774Y636279D01*
X303434Y636122D01*
X303428Y636117D01*
X303423Y636120D01*
X302152Y635669D01*
X302147Y635662D01*
X302142Y635664D01*
X301003Y634942D01*
X301000Y634934D01*
X300994Y634935D01*
X300044Y633977D01*
X300043Y633969D01*
X300037Y633968D01*
X299324Y632823D01*
X299325Y632815D01*
X299319Y632813D01*
X298879Y631537D01*
X298881Y631530D01*
X298877Y631527D01*
X298731Y630185D01*
X298733Y630182D01*
X298731Y630180D01*
X298731Y624180D01*
X298733Y624177D01*
X298731Y624174D01*
X298886Y622845D01*
X298892Y622839D01*
X298889Y622835D01*
X299336Y621574D01*
X299343Y621569D01*
X299341Y621564D01*
X300058Y620434D01*
X300065Y620431D01*
X300064Y620425D01*
X301015Y619483D01*
X301023Y619482D01*
X301023Y619476D01*
X302159Y618769D01*
X302167Y618770D01*
X302169Y618764D01*
X303434Y618328D01*
X303439Y618329D01*
X303440Y618329D01*
X303443Y618329D01*
X303445Y618325D01*
X304775Y618181D01*
X304781Y618185D01*
X304785Y618181D01*
X305951Y618291D01*
G37*
G36*
X1093391Y618291D02*
X1093391Y618291D01*
X1093396Y618296D01*
X1093400Y618293D01*
X1094523Y618628D01*
X1094527Y618634D01*
X1094531Y618632D01*
X1095567Y619180D01*
X1095570Y619186D01*
X1095575Y619185D01*
X1096483Y619924D01*
X1096485Y619931D01*
X1096490Y619931D01*
X1097237Y620833D01*
X1097237Y620841D01*
X1097243Y620841D01*
X1097799Y621872D01*
X1097798Y621879D01*
X1097803Y621881D01*
X1098147Y623000D01*
X1098145Y623007D01*
X1098149Y623010D01*
X1098269Y624175D01*
X1098267Y624178D01*
X1098269Y624180D01*
X1098269Y630180D01*
X1098267Y630183D01*
X1098269Y630185D01*
X1098158Y631361D01*
X1098153Y631366D01*
X1098156Y631370D01*
X1097818Y632502D01*
X1097812Y632506D01*
X1097814Y632511D01*
X1097262Y633555D01*
X1097255Y633558D01*
X1097257Y633563D01*
X1096511Y634479D01*
X1096504Y634480D01*
X1096504Y634486D01*
X1095595Y635239D01*
X1095587Y635239D01*
X1095587Y635244D01*
X1094547Y635805D01*
X1094540Y635804D01*
X1094538Y635809D01*
X1093409Y636156D01*
X1093403Y636154D01*
X1093400Y636158D01*
X1092225Y636279D01*
X1092218Y636275D01*
X1092214Y636279D01*
X1090874Y636122D01*
X1090868Y636117D01*
X1090863Y636120D01*
X1089592Y635669D01*
X1089587Y635662D01*
X1089582Y635664D01*
X1088443Y634942D01*
X1088440Y634934D01*
X1088434Y634935D01*
X1087484Y633977D01*
X1087483Y633969D01*
X1087477Y633968D01*
X1086764Y632823D01*
X1086765Y632815D01*
X1086759Y632813D01*
X1086319Y631537D01*
X1086321Y631530D01*
X1086317Y631527D01*
X1086171Y630185D01*
X1086173Y630182D01*
X1086171Y630180D01*
X1086171Y624180D01*
X1086173Y624177D01*
X1086171Y624174D01*
X1086326Y622845D01*
X1086332Y622839D01*
X1086329Y622835D01*
X1086776Y621574D01*
X1086783Y621569D01*
X1086781Y621564D01*
X1087498Y620434D01*
X1087505Y620431D01*
X1087504Y620425D01*
X1088455Y619483D01*
X1088463Y619482D01*
X1088463Y619476D01*
X1089599Y618769D01*
X1089607Y618770D01*
X1089609Y618764D01*
X1090874Y618328D01*
X1090879Y618329D01*
X1090880Y618329D01*
X1090883Y618329D01*
X1090885Y618325D01*
X1092215Y618181D01*
X1092221Y618185D01*
X1092225Y618181D01*
X1093391Y618291D01*
G37*
G36*
X1006991Y3611D02*
X1006991Y3611D01*
X1006996Y3616D01*
X1007000Y3613D01*
X1008123Y3948D01*
X1008127Y3954D01*
X1008131Y3952D01*
X1009167Y4500D01*
X1009170Y4506D01*
X1009175Y4505D01*
X1010083Y5244D01*
X1010085Y5251D01*
X1010090Y5251D01*
X1010837Y6153D01*
X1010837Y6161D01*
X1010843Y6161D01*
X1011399Y7192D01*
X1011398Y7199D01*
X1011403Y7201D01*
X1011747Y8320D01*
X1011745Y8327D01*
X1011749Y8330D01*
X1011869Y9495D01*
X1011867Y9498D01*
X1011869Y9500D01*
X1011869Y15500D01*
X1011867Y15503D01*
X1011869Y15505D01*
X1011758Y16681D01*
X1011753Y16686D01*
X1011756Y16690D01*
X1011418Y17822D01*
X1011412Y17826D01*
X1011414Y17831D01*
X1010862Y18875D01*
X1010855Y18878D01*
X1010857Y18883D01*
X1010111Y19799D01*
X1010104Y19800D01*
X1010104Y19806D01*
X1009195Y20559D01*
X1009187Y20559D01*
X1009187Y20564D01*
X1008147Y21125D01*
X1008140Y21124D01*
X1008138Y21129D01*
X1007009Y21476D01*
X1007003Y21474D01*
X1007000Y21478D01*
X1005825Y21599D01*
X1005818Y21595D01*
X1005814Y21599D01*
X1004474Y21442D01*
X1004468Y21437D01*
X1004463Y21440D01*
X1003192Y20989D01*
X1003187Y20982D01*
X1003182Y20984D01*
X1002043Y20262D01*
X1002040Y20254D01*
X1002034Y20255D01*
X1001084Y19297D01*
X1001083Y19289D01*
X1001077Y19288D01*
X1000364Y18143D01*
X1000365Y18135D01*
X1000359Y18133D01*
X999919Y16857D01*
X999921Y16850D01*
X999917Y16847D01*
X999771Y15505D01*
X999773Y15502D01*
X999771Y15500D01*
X999771Y9500D01*
X999773Y9497D01*
X999771Y9494D01*
X999926Y8165D01*
X999932Y8159D01*
X999929Y8155D01*
X1000376Y6894D01*
X1000383Y6889D01*
X1000381Y6884D01*
X1001098Y5754D01*
X1001105Y5751D01*
X1001104Y5745D01*
X1002055Y4803D01*
X1002063Y4802D01*
X1002063Y4796D01*
X1003199Y4089D01*
X1003207Y4090D01*
X1003209Y4084D01*
X1004474Y3648D01*
X1004479Y3649D01*
X1004480Y3649D01*
X1004483Y3649D01*
X1004485Y3645D01*
X1005815Y3501D01*
X1005821Y3505D01*
X1005825Y3501D01*
X1006991Y3611D01*
G37*
G36*
X626031Y3611D02*
X626031Y3611D01*
X626036Y3616D01*
X626040Y3613D01*
X627163Y3948D01*
X627167Y3954D01*
X627171Y3952D01*
X628207Y4500D01*
X628210Y4506D01*
X628215Y4505D01*
X629123Y5244D01*
X629125Y5251D01*
X629130Y5251D01*
X629877Y6153D01*
X629877Y6161D01*
X629883Y6161D01*
X630439Y7192D01*
X630438Y7199D01*
X630443Y7201D01*
X630787Y8320D01*
X630785Y8327D01*
X630789Y8330D01*
X630909Y9495D01*
X630907Y9498D01*
X630909Y9500D01*
X630909Y15500D01*
X630907Y15503D01*
X630909Y15505D01*
X630798Y16681D01*
X630793Y16686D01*
X630796Y16690D01*
X630458Y17822D01*
X630452Y17826D01*
X630454Y17831D01*
X629902Y18875D01*
X629895Y18878D01*
X629897Y18883D01*
X629151Y19799D01*
X629144Y19800D01*
X629144Y19806D01*
X628235Y20559D01*
X628227Y20559D01*
X628227Y20564D01*
X627187Y21125D01*
X627180Y21124D01*
X627178Y21129D01*
X626049Y21476D01*
X626043Y21474D01*
X626040Y21478D01*
X624865Y21599D01*
X624858Y21595D01*
X624854Y21599D01*
X623514Y21442D01*
X623508Y21437D01*
X623503Y21440D01*
X622232Y20989D01*
X622227Y20982D01*
X622222Y20984D01*
X621083Y20262D01*
X621080Y20254D01*
X621074Y20255D01*
X620124Y19297D01*
X620123Y19289D01*
X620117Y19288D01*
X619404Y18143D01*
X619405Y18135D01*
X619399Y18133D01*
X618959Y16857D01*
X618961Y16850D01*
X618957Y16847D01*
X618811Y15505D01*
X618813Y15502D01*
X618811Y15500D01*
X618811Y9500D01*
X618813Y9497D01*
X618811Y9494D01*
X618966Y8165D01*
X618972Y8159D01*
X618969Y8155D01*
X619416Y6894D01*
X619423Y6889D01*
X619421Y6884D01*
X620138Y5754D01*
X620145Y5751D01*
X620144Y5745D01*
X621095Y4803D01*
X621103Y4802D01*
X621103Y4796D01*
X622239Y4089D01*
X622247Y4090D01*
X622249Y4084D01*
X623514Y3648D01*
X623519Y3649D01*
X623520Y3649D01*
X623523Y3649D01*
X623525Y3645D01*
X624855Y3501D01*
X624861Y3505D01*
X624865Y3501D01*
X626031Y3611D01*
G37*
G36*
X859711Y3611D02*
X859711Y3611D01*
X859716Y3616D01*
X859720Y3613D01*
X860843Y3948D01*
X860847Y3954D01*
X860851Y3952D01*
X861887Y4500D01*
X861890Y4506D01*
X861895Y4505D01*
X862803Y5244D01*
X862805Y5251D01*
X862810Y5251D01*
X863557Y6153D01*
X863557Y6161D01*
X863563Y6161D01*
X864119Y7192D01*
X864118Y7199D01*
X864123Y7201D01*
X864467Y8320D01*
X864465Y8327D01*
X864469Y8330D01*
X864589Y9495D01*
X864587Y9498D01*
X864589Y9500D01*
X864589Y15500D01*
X864587Y15503D01*
X864589Y15505D01*
X864478Y16681D01*
X864473Y16686D01*
X864476Y16690D01*
X864138Y17822D01*
X864132Y17826D01*
X864134Y17831D01*
X863582Y18875D01*
X863575Y18878D01*
X863577Y18883D01*
X862831Y19799D01*
X862824Y19800D01*
X862824Y19806D01*
X861915Y20559D01*
X861907Y20559D01*
X861907Y20564D01*
X860867Y21125D01*
X860860Y21124D01*
X860858Y21129D01*
X859729Y21476D01*
X859723Y21474D01*
X859720Y21478D01*
X858545Y21599D01*
X858538Y21595D01*
X858534Y21599D01*
X857194Y21442D01*
X857188Y21437D01*
X857183Y21440D01*
X855912Y20989D01*
X855907Y20982D01*
X855902Y20984D01*
X854763Y20262D01*
X854760Y20254D01*
X854754Y20255D01*
X853804Y19297D01*
X853803Y19289D01*
X853797Y19288D01*
X853084Y18143D01*
X853085Y18135D01*
X853079Y18133D01*
X852639Y16857D01*
X852641Y16850D01*
X852637Y16847D01*
X852491Y15505D01*
X852493Y15502D01*
X852491Y15500D01*
X852491Y9500D01*
X852493Y9497D01*
X852491Y9494D01*
X852646Y8165D01*
X852652Y8159D01*
X852649Y8155D01*
X853096Y6894D01*
X853103Y6889D01*
X853101Y6884D01*
X853818Y5754D01*
X853825Y5751D01*
X853824Y5745D01*
X854775Y4803D01*
X854783Y4802D01*
X854783Y4796D01*
X855919Y4089D01*
X855927Y4090D01*
X855929Y4084D01*
X857194Y3648D01*
X857199Y3649D01*
X857200Y3649D01*
X857203Y3649D01*
X857205Y3645D01*
X858535Y3501D01*
X858541Y3505D01*
X858545Y3501D01*
X859711Y3611D01*
G37*
G36*
X1093391Y3611D02*
X1093391Y3611D01*
X1093396Y3616D01*
X1093400Y3613D01*
X1094523Y3948D01*
X1094527Y3954D01*
X1094531Y3952D01*
X1095567Y4500D01*
X1095570Y4506D01*
X1095575Y4505D01*
X1096483Y5244D01*
X1096485Y5251D01*
X1096490Y5251D01*
X1097237Y6153D01*
X1097237Y6161D01*
X1097243Y6161D01*
X1097799Y7192D01*
X1097798Y7199D01*
X1097803Y7201D01*
X1098147Y8320D01*
X1098145Y8327D01*
X1098149Y8330D01*
X1098269Y9495D01*
X1098267Y9498D01*
X1098269Y9500D01*
X1098269Y15500D01*
X1098267Y15503D01*
X1098269Y15505D01*
X1098158Y16681D01*
X1098153Y16686D01*
X1098156Y16690D01*
X1097818Y17822D01*
X1097812Y17826D01*
X1097814Y17831D01*
X1097262Y18875D01*
X1097255Y18878D01*
X1097257Y18883D01*
X1096511Y19799D01*
X1096504Y19800D01*
X1096504Y19806D01*
X1095595Y20559D01*
X1095587Y20559D01*
X1095587Y20564D01*
X1094547Y21125D01*
X1094540Y21124D01*
X1094538Y21129D01*
X1093409Y21476D01*
X1093403Y21474D01*
X1093400Y21478D01*
X1092225Y21599D01*
X1092218Y21595D01*
X1092214Y21599D01*
X1090874Y21442D01*
X1090868Y21437D01*
X1090863Y21440D01*
X1089592Y20989D01*
X1089587Y20982D01*
X1089582Y20984D01*
X1088443Y20262D01*
X1088440Y20254D01*
X1088434Y20255D01*
X1087484Y19297D01*
X1087483Y19289D01*
X1087477Y19288D01*
X1086764Y18143D01*
X1086765Y18135D01*
X1086759Y18133D01*
X1086319Y16857D01*
X1086321Y16850D01*
X1086317Y16847D01*
X1086171Y15505D01*
X1086173Y15502D01*
X1086171Y15500D01*
X1086171Y9500D01*
X1086173Y9497D01*
X1086171Y9494D01*
X1086326Y8165D01*
X1086332Y8159D01*
X1086329Y8155D01*
X1086776Y6894D01*
X1086783Y6889D01*
X1086781Y6884D01*
X1087498Y5754D01*
X1087505Y5751D01*
X1087504Y5745D01*
X1088455Y4803D01*
X1088463Y4802D01*
X1088463Y4796D01*
X1089599Y4089D01*
X1089607Y4090D01*
X1089609Y4084D01*
X1090874Y3648D01*
X1090879Y3649D01*
X1090880Y3649D01*
X1090883Y3649D01*
X1090885Y3645D01*
X1092215Y3501D01*
X1092221Y3505D01*
X1092225Y3501D01*
X1093391Y3611D01*
G37*
G36*
X158671Y3611D02*
X158671Y3611D01*
X158676Y3616D01*
X158680Y3613D01*
X159803Y3948D01*
X159807Y3954D01*
X159811Y3952D01*
X160847Y4500D01*
X160850Y4506D01*
X160855Y4505D01*
X161763Y5244D01*
X161765Y5251D01*
X161770Y5251D01*
X162517Y6153D01*
X162517Y6161D01*
X162523Y6161D01*
X163079Y7192D01*
X163078Y7199D01*
X163083Y7201D01*
X163427Y8320D01*
X163425Y8327D01*
X163429Y8330D01*
X163549Y9495D01*
X163547Y9498D01*
X163549Y9500D01*
X163549Y15500D01*
X163547Y15503D01*
X163549Y15505D01*
X163438Y16681D01*
X163433Y16686D01*
X163436Y16690D01*
X163098Y17822D01*
X163092Y17826D01*
X163094Y17831D01*
X162542Y18875D01*
X162535Y18878D01*
X162537Y18883D01*
X161791Y19799D01*
X161784Y19800D01*
X161784Y19806D01*
X160875Y20559D01*
X160867Y20559D01*
X160867Y20564D01*
X159827Y21125D01*
X159820Y21124D01*
X159818Y21129D01*
X158689Y21476D01*
X158683Y21474D01*
X158680Y21478D01*
X157505Y21599D01*
X157498Y21595D01*
X157494Y21599D01*
X156154Y21442D01*
X156148Y21437D01*
X156143Y21440D01*
X154872Y20989D01*
X154867Y20982D01*
X154862Y20984D01*
X153723Y20262D01*
X153720Y20254D01*
X153714Y20255D01*
X152764Y19297D01*
X152763Y19289D01*
X152757Y19288D01*
X152044Y18143D01*
X152045Y18135D01*
X152039Y18133D01*
X151599Y16857D01*
X151601Y16850D01*
X151597Y16847D01*
X151451Y15505D01*
X151453Y15502D01*
X151451Y15500D01*
X151451Y9500D01*
X151453Y9497D01*
X151451Y9494D01*
X151606Y8165D01*
X151612Y8159D01*
X151609Y8155D01*
X152056Y6894D01*
X152063Y6889D01*
X152061Y6884D01*
X152778Y5754D01*
X152785Y5751D01*
X152784Y5745D01*
X153735Y4803D01*
X153743Y4802D01*
X153743Y4796D01*
X154879Y4089D01*
X154887Y4090D01*
X154889Y4084D01*
X156154Y3648D01*
X156159Y3649D01*
X156160Y3649D01*
X156163Y3649D01*
X156165Y3645D01*
X157495Y3501D01*
X157501Y3505D01*
X157505Y3501D01*
X158671Y3611D01*
G37*
G36*
X773311Y3611D02*
X773311Y3611D01*
X773316Y3616D01*
X773320Y3613D01*
X774443Y3948D01*
X774447Y3954D01*
X774451Y3952D01*
X775487Y4500D01*
X775490Y4506D01*
X775495Y4505D01*
X776403Y5244D01*
X776405Y5251D01*
X776410Y5251D01*
X777157Y6153D01*
X777157Y6161D01*
X777163Y6161D01*
X777719Y7192D01*
X777718Y7199D01*
X777723Y7201D01*
X778067Y8320D01*
X778065Y8327D01*
X778069Y8330D01*
X778189Y9495D01*
X778187Y9498D01*
X778189Y9500D01*
X778189Y15500D01*
X778187Y15503D01*
X778189Y15505D01*
X778078Y16681D01*
X778073Y16686D01*
X778076Y16690D01*
X777738Y17822D01*
X777732Y17826D01*
X777734Y17831D01*
X777182Y18875D01*
X777175Y18878D01*
X777177Y18883D01*
X776431Y19799D01*
X776424Y19800D01*
X776424Y19806D01*
X775515Y20559D01*
X775507Y20559D01*
X775507Y20564D01*
X774467Y21125D01*
X774460Y21124D01*
X774458Y21129D01*
X773329Y21476D01*
X773323Y21474D01*
X773320Y21478D01*
X772145Y21599D01*
X772138Y21595D01*
X772134Y21599D01*
X770794Y21442D01*
X770788Y21437D01*
X770783Y21440D01*
X769512Y20989D01*
X769507Y20982D01*
X769502Y20984D01*
X768363Y20262D01*
X768360Y20254D01*
X768354Y20255D01*
X767404Y19297D01*
X767403Y19289D01*
X767397Y19288D01*
X766684Y18143D01*
X766685Y18135D01*
X766679Y18133D01*
X766239Y16857D01*
X766241Y16850D01*
X766237Y16847D01*
X766091Y15505D01*
X766093Y15502D01*
X766091Y15500D01*
X766091Y9500D01*
X766093Y9497D01*
X766091Y9494D01*
X766246Y8165D01*
X766252Y8159D01*
X766249Y8155D01*
X766696Y6894D01*
X766703Y6889D01*
X766701Y6884D01*
X767418Y5754D01*
X767425Y5751D01*
X767424Y5745D01*
X768375Y4803D01*
X768383Y4802D01*
X768383Y4796D01*
X769519Y4089D01*
X769527Y4090D01*
X769529Y4084D01*
X770794Y3648D01*
X770799Y3649D01*
X770800Y3649D01*
X770803Y3649D01*
X770805Y3645D01*
X772135Y3501D01*
X772141Y3505D01*
X772145Y3501D01*
X773311Y3611D01*
G37*
G36*
X392351Y3611D02*
X392351Y3611D01*
X392356Y3616D01*
X392360Y3613D01*
X393483Y3948D01*
X393487Y3954D01*
X393491Y3952D01*
X394527Y4500D01*
X394530Y4506D01*
X394535Y4505D01*
X395443Y5244D01*
X395445Y5251D01*
X395450Y5251D01*
X396197Y6153D01*
X396197Y6161D01*
X396203Y6161D01*
X396759Y7192D01*
X396758Y7199D01*
X396763Y7201D01*
X397107Y8320D01*
X397105Y8327D01*
X397109Y8330D01*
X397229Y9495D01*
X397227Y9498D01*
X397229Y9500D01*
X397229Y15500D01*
X397227Y15503D01*
X397229Y15505D01*
X397118Y16681D01*
X397113Y16686D01*
X397116Y16690D01*
X396778Y17822D01*
X396772Y17826D01*
X396774Y17831D01*
X396222Y18875D01*
X396215Y18878D01*
X396217Y18883D01*
X395471Y19799D01*
X395464Y19800D01*
X395464Y19806D01*
X394555Y20559D01*
X394547Y20559D01*
X394547Y20564D01*
X393507Y21125D01*
X393500Y21124D01*
X393498Y21129D01*
X392369Y21476D01*
X392363Y21474D01*
X392360Y21478D01*
X391185Y21599D01*
X391178Y21595D01*
X391174Y21599D01*
X389834Y21442D01*
X389828Y21437D01*
X389823Y21440D01*
X388552Y20989D01*
X388547Y20982D01*
X388542Y20984D01*
X387403Y20262D01*
X387400Y20254D01*
X387394Y20255D01*
X386444Y19297D01*
X386443Y19289D01*
X386437Y19288D01*
X385724Y18143D01*
X385725Y18135D01*
X385719Y18133D01*
X385279Y16857D01*
X385281Y16850D01*
X385277Y16847D01*
X385131Y15505D01*
X385133Y15502D01*
X385131Y15500D01*
X385131Y9500D01*
X385133Y9497D01*
X385131Y9494D01*
X385286Y8165D01*
X385292Y8159D01*
X385289Y8155D01*
X385736Y6894D01*
X385743Y6889D01*
X385741Y6884D01*
X386458Y5754D01*
X386465Y5751D01*
X386464Y5745D01*
X387415Y4803D01*
X387423Y4802D01*
X387423Y4796D01*
X388559Y4089D01*
X388567Y4090D01*
X388569Y4084D01*
X389834Y3648D01*
X389839Y3649D01*
X389840Y3649D01*
X389843Y3649D01*
X389845Y3645D01*
X391175Y3501D01*
X391181Y3505D01*
X391185Y3501D01*
X392351Y3611D01*
G37*
G36*
X72271Y3611D02*
X72271Y3611D01*
X72276Y3616D01*
X72280Y3613D01*
X73403Y3948D01*
X73407Y3954D01*
X73411Y3952D01*
X74447Y4500D01*
X74450Y4506D01*
X74455Y4505D01*
X75363Y5244D01*
X75365Y5251D01*
X75370Y5251D01*
X76117Y6153D01*
X76117Y6161D01*
X76123Y6161D01*
X76679Y7192D01*
X76678Y7199D01*
X76683Y7201D01*
X77027Y8320D01*
X77025Y8327D01*
X77029Y8330D01*
X77149Y9495D01*
X77147Y9498D01*
X77149Y9500D01*
X77149Y15500D01*
X77147Y15503D01*
X77149Y15505D01*
X77038Y16681D01*
X77033Y16686D01*
X77036Y16690D01*
X76698Y17822D01*
X76692Y17826D01*
X76694Y17831D01*
X76142Y18875D01*
X76135Y18878D01*
X76137Y18883D01*
X75391Y19799D01*
X75384Y19800D01*
X75384Y19806D01*
X74475Y20559D01*
X74467Y20559D01*
X74467Y20564D01*
X73427Y21125D01*
X73420Y21124D01*
X73418Y21129D01*
X72289Y21476D01*
X72283Y21474D01*
X72280Y21478D01*
X71105Y21599D01*
X71098Y21595D01*
X71094Y21599D01*
X69754Y21442D01*
X69748Y21437D01*
X69743Y21440D01*
X68472Y20989D01*
X68467Y20982D01*
X68462Y20984D01*
X67323Y20262D01*
X67320Y20254D01*
X67314Y20255D01*
X66364Y19297D01*
X66363Y19289D01*
X66357Y19288D01*
X65644Y18143D01*
X65645Y18135D01*
X65639Y18133D01*
X65199Y16857D01*
X65201Y16850D01*
X65197Y16847D01*
X65051Y15505D01*
X65053Y15502D01*
X65051Y15500D01*
X65051Y9500D01*
X65053Y9497D01*
X65051Y9494D01*
X65206Y8165D01*
X65212Y8159D01*
X65209Y8155D01*
X65656Y6894D01*
X65663Y6889D01*
X65661Y6884D01*
X66378Y5754D01*
X66385Y5751D01*
X66384Y5745D01*
X67335Y4803D01*
X67343Y4802D01*
X67343Y4796D01*
X68479Y4089D01*
X68487Y4090D01*
X68489Y4084D01*
X69754Y3648D01*
X69759Y3649D01*
X69760Y3649D01*
X69763Y3649D01*
X69765Y3645D01*
X71095Y3501D01*
X71101Y3505D01*
X71105Y3501D01*
X72271Y3611D01*
G37*
G36*
X539631Y3611D02*
X539631Y3611D01*
X539636Y3616D01*
X539640Y3613D01*
X540763Y3948D01*
X540767Y3954D01*
X540771Y3952D01*
X541807Y4500D01*
X541810Y4506D01*
X541815Y4505D01*
X542723Y5244D01*
X542725Y5251D01*
X542730Y5251D01*
X543477Y6153D01*
X543477Y6161D01*
X543483Y6161D01*
X544039Y7192D01*
X544038Y7199D01*
X544043Y7201D01*
X544387Y8320D01*
X544385Y8327D01*
X544389Y8330D01*
X544509Y9495D01*
X544507Y9498D01*
X544509Y9500D01*
X544509Y15500D01*
X544507Y15503D01*
X544509Y15505D01*
X544398Y16681D01*
X544393Y16686D01*
X544396Y16690D01*
X544058Y17822D01*
X544052Y17826D01*
X544054Y17831D01*
X543502Y18875D01*
X543495Y18878D01*
X543497Y18883D01*
X542751Y19799D01*
X542744Y19800D01*
X542744Y19806D01*
X541835Y20559D01*
X541827Y20559D01*
X541827Y20564D01*
X540787Y21125D01*
X540780Y21124D01*
X540778Y21129D01*
X539649Y21476D01*
X539643Y21474D01*
X539640Y21478D01*
X538465Y21599D01*
X538458Y21595D01*
X538454Y21599D01*
X537114Y21442D01*
X537108Y21437D01*
X537103Y21440D01*
X535832Y20989D01*
X535827Y20982D01*
X535822Y20984D01*
X534683Y20262D01*
X534680Y20254D01*
X534674Y20255D01*
X533724Y19297D01*
X533723Y19289D01*
X533717Y19288D01*
X533004Y18143D01*
X533005Y18135D01*
X532999Y18133D01*
X532559Y16857D01*
X532561Y16850D01*
X532557Y16847D01*
X532411Y15505D01*
X532413Y15502D01*
X532411Y15500D01*
X532411Y9500D01*
X532413Y9497D01*
X532411Y9494D01*
X532566Y8165D01*
X532572Y8159D01*
X532569Y8155D01*
X533016Y6894D01*
X533023Y6889D01*
X533021Y6884D01*
X533738Y5754D01*
X533745Y5751D01*
X533744Y5745D01*
X534695Y4803D01*
X534703Y4802D01*
X534703Y4796D01*
X535839Y4089D01*
X535847Y4090D01*
X535849Y4084D01*
X537114Y3648D01*
X537119Y3649D01*
X537120Y3649D01*
X537123Y3649D01*
X537125Y3645D01*
X538455Y3501D01*
X538461Y3505D01*
X538465Y3501D01*
X539631Y3611D01*
G37*
G36*
X305951Y3611D02*
X305951Y3611D01*
X305956Y3616D01*
X305960Y3613D01*
X307083Y3948D01*
X307087Y3954D01*
X307091Y3952D01*
X308127Y4500D01*
X308130Y4506D01*
X308135Y4505D01*
X309043Y5244D01*
X309045Y5251D01*
X309050Y5251D01*
X309797Y6153D01*
X309797Y6161D01*
X309803Y6161D01*
X310359Y7192D01*
X310358Y7199D01*
X310363Y7201D01*
X310707Y8320D01*
X310705Y8327D01*
X310709Y8330D01*
X310829Y9495D01*
X310827Y9498D01*
X310829Y9500D01*
X310829Y15500D01*
X310827Y15503D01*
X310829Y15505D01*
X310718Y16681D01*
X310713Y16686D01*
X310716Y16690D01*
X310378Y17822D01*
X310372Y17826D01*
X310374Y17831D01*
X309822Y18875D01*
X309815Y18878D01*
X309817Y18883D01*
X309071Y19799D01*
X309064Y19800D01*
X309064Y19806D01*
X308155Y20559D01*
X308147Y20559D01*
X308147Y20564D01*
X307107Y21125D01*
X307100Y21124D01*
X307098Y21129D01*
X305969Y21476D01*
X305963Y21474D01*
X305960Y21478D01*
X304785Y21599D01*
X304778Y21595D01*
X304774Y21599D01*
X303434Y21442D01*
X303428Y21437D01*
X303423Y21440D01*
X302152Y20989D01*
X302147Y20982D01*
X302142Y20984D01*
X301003Y20262D01*
X301000Y20254D01*
X300994Y20255D01*
X300044Y19297D01*
X300043Y19289D01*
X300037Y19288D01*
X299324Y18143D01*
X299325Y18135D01*
X299319Y18133D01*
X298879Y16857D01*
X298881Y16850D01*
X298877Y16847D01*
X298731Y15505D01*
X298733Y15502D01*
X298731Y15500D01*
X298731Y9500D01*
X298733Y9497D01*
X298731Y9494D01*
X298886Y8165D01*
X298892Y8159D01*
X298889Y8155D01*
X299336Y6894D01*
X299343Y6889D01*
X299341Y6884D01*
X300058Y5754D01*
X300065Y5751D01*
X300064Y5745D01*
X301015Y4803D01*
X301023Y4802D01*
X301023Y4796D01*
X302159Y4089D01*
X302167Y4090D01*
X302169Y4084D01*
X303434Y3648D01*
X303439Y3649D01*
X303440Y3649D01*
X303443Y3649D01*
X303445Y3645D01*
X304775Y3501D01*
X304781Y3505D01*
X304785Y3501D01*
X305951Y3611D01*
G37*
D10*
X88900Y210900D03*
X88900Y220900D03*
X109300Y254000D03*
X119300Y254000D03*
D11*
X54000Y228299D03*
X63500Y228299D03*
X73000Y228299D03*
X73000Y254301D03*
X54000Y254301D03*
D10*
X71200Y203200D03*
X81200Y203200D03*
X119300Y152400D03*
X109300Y152400D03*
D12*
X119580Y288610D02*
X119580Y295590D01*
X126560Y295590D01*
X126560Y288610D01*
X119580Y288610D01*
X119580Y293410D02*
X126560Y293410D01*
X102040Y295590D02*
X102040Y288610D01*
X102040Y295590D02*
X109020Y295590D01*
X109020Y288610D01*
X102040Y288610D01*
X102040Y293410D02*
X109020Y293410D01*
D10*
X83900Y292100D03*
X93900Y292100D03*
D11*
X104800Y215599D03*
X114300Y215599D03*
X123800Y215599D03*
X123800Y241601D03*
X104800Y241601D03*
D13*
X72000Y266700D03*
X55000Y266700D03*
X194700Y63500D03*
X211700Y63500D03*
D10*
X195500Y82550D03*
X185500Y82550D03*
X185500Y120650D03*
X195500Y120650D03*
D14*
X181300Y108100D03*
X199700Y101600D03*
X199700Y95100D03*
X199700Y108100D03*
X181300Y101600D03*
X181300Y95100D03*
D15*
X14050Y116900D03*
X14050Y60900D03*
D16*
X50800Y103900D03*
X50800Y93900D03*
X50800Y83900D03*
X50800Y73900D03*
D10*
X177800Y147400D03*
X177800Y157400D03*
X88900Y236300D03*
X88900Y246300D03*
D12*
X119580Y307660D02*
X119580Y314640D01*
X126560Y314640D01*
X126560Y307660D01*
X119580Y307660D01*
X119580Y312460D02*
X126560Y312460D01*
X102040Y314640D02*
X102040Y307660D01*
X102040Y314640D02*
X109020Y314640D01*
X109020Y307660D01*
X102040Y307660D01*
X102040Y312460D02*
X109020Y312460D01*
D10*
X83900Y311150D03*
X93900Y311150D03*
X144700Y228600D03*
X134700Y228600D03*
D17*
X12700Y558800D03*
X222250Y33020D03*
D18*
X25400Y25400D03*
X203200Y25400D03*
D19*
X144600Y199010D03*
X144600Y215010D03*
X185600Y215010D03*
X185600Y199010D03*
X144600Y243460D03*
X144600Y259460D03*
X185600Y259460D03*
X185600Y243460D03*
D20*
X31920Y508800D03*
X31920Y496100D03*
X31920Y483400D03*
X31920Y470700D03*
X31920Y458000D03*
X31920Y445300D03*
X31920Y432600D03*
X31920Y419900D03*
X31920Y407200D03*
X31920Y394500D03*
X31920Y381800D03*
X31920Y369100D03*
X31920Y356400D03*
X31920Y343700D03*
D21*
X57150Y328800D03*
X69850Y328800D03*
X82550Y328800D03*
X95250Y328800D03*
X107950Y328800D03*
X120650Y328800D03*
X133350Y328800D03*
X146050Y328800D03*
X158750Y328800D03*
X171450Y328800D03*
D20*
X196680Y343700D03*
X196680Y356400D03*
X196680Y369100D03*
X196680Y381800D03*
X196680Y394500D03*
X196680Y407200D03*
X196680Y419900D03*
X196680Y432600D03*
X196680Y445300D03*
X196680Y458000D03*
X196680Y470700D03*
X196680Y483400D03*
X196680Y496100D03*
X196680Y508800D03*
D22*
X114300Y431800D03*
D23*
X124300Y181000D03*
X124300Y200000D03*
X103300Y190500D03*
D24*
X215900Y139700D03*
X215900Y165100D03*
X215900Y190500D03*
X215900Y215900D03*
X215900Y241300D03*
X215900Y266700D03*
X215900Y292100D03*
X215900Y317500D03*
X215900Y342900D03*
X215900Y368300D03*
X215900Y393700D03*
X215900Y419100D03*
X215900Y444500D03*
X215900Y469900D03*
X215900Y495300D03*
X215900Y520700D03*
X12700Y241300D03*
X12700Y266700D03*
X12700Y292100D03*
X12700Y317500D03*
X12700Y342900D03*
X12700Y368300D03*
X12700Y393700D03*
X12700Y419100D03*
X12700Y444500D03*
X12700Y469900D03*
X12700Y495300D03*
X12700Y520700D03*
D25*
X121800Y60100D03*
X116800Y60100D03*
D26*
X146550Y60100D03*
X138800Y60100D03*
D25*
X131800Y60100D03*
X126800Y60100D03*
X106800Y60100D03*
X111800Y60100D03*
D26*
X82050Y60100D03*
X89800Y60100D03*
D25*
X96800Y60100D03*
X101800Y60100D03*
D27*
X85400Y49050D03*
X143200Y49050D03*
D10*
X165100Y26750D03*
X165100Y36750D03*
X63500Y26750D03*
X63500Y36750D03*
D28*
X125800Y165100D03*
X102800Y165100D03*
D29*
X69850Y73600D03*
X82550Y73600D03*
X95250Y73600D03*
X107950Y73600D03*
X120650Y73600D03*
X133350Y73600D03*
X146050Y73600D03*
X158750Y73600D03*
X158750Y129600D03*
X146050Y129600D03*
X133350Y129600D03*
X120650Y129600D03*
X107950Y129600D03*
X95250Y129600D03*
X82550Y129600D03*
X69850Y129600D03*
D10*
X55800Y127000D03*
X45800Y127000D03*
X83900Y273050D03*
X93900Y273050D03*
D12*
X119580Y269560D02*
X119580Y276540D01*
X126560Y276540D01*
X126560Y269560D01*
X119580Y269560D01*
X119580Y274360D02*
X126560Y274360D01*
X102040Y276540D02*
X102040Y269560D01*
X102040Y276540D02*
X109020Y276540D01*
X109020Y269560D01*
X102040Y269560D01*
X102040Y274360D02*
X109020Y274360D01*
D30*
X56000Y302000D03*
X61000Y302000D03*
X66000Y302000D03*
X71000Y302000D03*
X71000Y282000D03*
X66000Y282000D03*
X61000Y282000D03*
X56000Y282000D03*
D31*
X63500Y292100D03*
D10*
X83900Y254000D03*
X93900Y254000D03*
X157400Y172720D03*
X147400Y172720D03*
D32*
X139399Y161900D03*
X139399Y152400D03*
X139399Y142900D03*
X165401Y142900D03*
X165401Y161900D03*
D10*
X71200Y152400D03*
X81200Y152400D03*
D33*
X211670Y562870D03*
X222670Y562870D03*
X222670Y544570D03*
X211670Y544570D03*
D10*
X222170Y535940D03*
X212170Y535940D03*
D34*
X72560Y167800D03*
X72560Y187800D03*
D35*
X20560Y143800D03*
X20560Y211800D03*
D10*
X322580Y210900D03*
X322580Y220900D03*
X342980Y254000D03*
X352980Y254000D03*
D11*
X287680Y228299D03*
X297180Y228299D03*
X306680Y228299D03*
X306680Y254301D03*
X287680Y254301D03*
D10*
X304880Y203200D03*
X314880Y203200D03*
X352980Y152400D03*
X342980Y152400D03*
D12*
X353260Y288610D02*
X353260Y295590D01*
X360240Y295590D01*
X360240Y288610D01*
X353260Y288610D01*
X353260Y293410D02*
X360240Y293410D01*
X335720Y295590D02*
X335720Y288610D01*
X335720Y295590D02*
X342700Y295590D01*
X342700Y288610D01*
X335720Y288610D01*
X335720Y293410D02*
X342700Y293410D01*
D10*
X317580Y292100D03*
X327580Y292100D03*
D11*
X338480Y215599D03*
X347980Y215599D03*
X357480Y215599D03*
X357480Y241601D03*
X338480Y241601D03*
D13*
X305680Y266700D03*
X288680Y266700D03*
X428380Y63500D03*
X445380Y63500D03*
D10*
X429180Y82550D03*
X419180Y82550D03*
X419180Y120650D03*
X429180Y120650D03*
D14*
X414980Y108100D03*
X433380Y101600D03*
X433380Y95100D03*
X433380Y108100D03*
X414980Y101600D03*
X414980Y95100D03*
D15*
X247730Y116900D03*
X247730Y60900D03*
D16*
X284480Y103900D03*
X284480Y93900D03*
X284480Y83900D03*
X284480Y73900D03*
D10*
X411480Y147400D03*
X411480Y157400D03*
X322580Y236300D03*
X322580Y246300D03*
D12*
X353260Y307660D02*
X353260Y314640D01*
X360240Y314640D01*
X360240Y307660D01*
X353260Y307660D01*
X353260Y312460D02*
X360240Y312460D01*
X335720Y314640D02*
X335720Y307660D01*
X335720Y314640D02*
X342700Y314640D01*
X342700Y307660D01*
X335720Y307660D01*
X335720Y312460D02*
X342700Y312460D01*
D10*
X317580Y311150D03*
X327580Y311150D03*
X378380Y228600D03*
X368380Y228600D03*
D17*
X246380Y558800D03*
X455930Y33020D03*
D18*
X259080Y25400D03*
X436880Y25400D03*
D19*
X378280Y199010D03*
X378280Y215010D03*
X419280Y215010D03*
X419280Y199010D03*
X378280Y243460D03*
X378280Y259460D03*
X419280Y259460D03*
X419280Y243460D03*
D20*
X265600Y508800D03*
X265600Y496100D03*
X265600Y483400D03*
X265600Y470700D03*
X265600Y458000D03*
X265600Y445300D03*
X265600Y432600D03*
X265600Y419900D03*
X265600Y407200D03*
X265600Y394500D03*
X265600Y381800D03*
X265600Y369100D03*
X265600Y356400D03*
X265600Y343700D03*
D21*
X290830Y328800D03*
X303530Y328800D03*
X316230Y328800D03*
X328930Y328800D03*
X341630Y328800D03*
X354330Y328800D03*
X367030Y328800D03*
X379730Y328800D03*
X392430Y328800D03*
X405130Y328800D03*
D20*
X430360Y343700D03*
X430360Y356400D03*
X430360Y369100D03*
X430360Y381800D03*
X430360Y394500D03*
X430360Y407200D03*
X430360Y419900D03*
X430360Y432600D03*
X430360Y445300D03*
X430360Y458000D03*
X430360Y470700D03*
X430360Y483400D03*
X430360Y496100D03*
X430360Y508800D03*
D22*
X347980Y431800D03*
D23*
X357980Y181000D03*
X357980Y200000D03*
X336980Y190500D03*
D24*
X449580Y139700D03*
X449580Y165100D03*
X449580Y190500D03*
X449580Y215900D03*
X449580Y241300D03*
X449580Y266700D03*
X449580Y292100D03*
X449580Y317500D03*
X449580Y342900D03*
X449580Y368300D03*
X449580Y393700D03*
X449580Y419100D03*
X449580Y444500D03*
X449580Y469900D03*
X449580Y495300D03*
X449580Y520700D03*
X246380Y241300D03*
X246380Y266700D03*
X246380Y292100D03*
X246380Y317500D03*
X246380Y342900D03*
X246380Y368300D03*
X246380Y393700D03*
X246380Y419100D03*
X246380Y444500D03*
X246380Y469900D03*
X246380Y495300D03*
X246380Y520700D03*
D25*
X355480Y60100D03*
X350480Y60100D03*
D26*
X380230Y60100D03*
X372480Y60100D03*
D25*
X365480Y60100D03*
X360480Y60100D03*
X340480Y60100D03*
X345480Y60100D03*
D26*
X315730Y60100D03*
X323480Y60100D03*
D25*
X330480Y60100D03*
X335480Y60100D03*
D27*
X319080Y49050D03*
X376880Y49050D03*
D10*
X398780Y26750D03*
X398780Y36750D03*
X297180Y26750D03*
X297180Y36750D03*
D28*
X359480Y165100D03*
X336480Y165100D03*
D29*
X303530Y73600D03*
X316230Y73600D03*
X328930Y73600D03*
X341630Y73600D03*
X354330Y73600D03*
X367030Y73600D03*
X379730Y73600D03*
X392430Y73600D03*
X392430Y129600D03*
X379730Y129600D03*
X367030Y129600D03*
X354330Y129600D03*
X341630Y129600D03*
X328930Y129600D03*
X316230Y129600D03*
X303530Y129600D03*
D10*
X289480Y127000D03*
X279480Y127000D03*
X317580Y273050D03*
X327580Y273050D03*
D12*
X353260Y269560D02*
X353260Y276540D01*
X360240Y276540D01*
X360240Y269560D01*
X353260Y269560D01*
X353260Y274360D02*
X360240Y274360D01*
X335720Y276540D02*
X335720Y269560D01*
X335720Y276540D02*
X342700Y276540D01*
X342700Y269560D01*
X335720Y269560D01*
X335720Y274360D02*
X342700Y274360D01*
D30*
X289680Y302000D03*
X294680Y302000D03*
X299680Y302000D03*
X304680Y302000D03*
X304680Y282000D03*
X299680Y282000D03*
X294680Y282000D03*
X289680Y282000D03*
D31*
X297180Y292100D03*
D10*
X317580Y254000D03*
X327580Y254000D03*
X391080Y172720D03*
X381080Y172720D03*
D32*
X373079Y161900D03*
X373079Y152400D03*
X373079Y142900D03*
X399081Y142900D03*
X399081Y161900D03*
D10*
X304880Y152400D03*
X314880Y152400D03*
D33*
X445350Y562870D03*
X456350Y562870D03*
X456350Y544570D03*
X445350Y544570D03*
D10*
X455850Y535940D03*
X445850Y535940D03*
D34*
X306240Y167800D03*
X306240Y187800D03*
D35*
X254240Y143800D03*
X254240Y211800D03*
D10*
X556260Y210900D03*
X556260Y220900D03*
X576660Y254000D03*
X586660Y254000D03*
D11*
X521360Y228299D03*
X530860Y228299D03*
X540360Y228299D03*
X540360Y254301D03*
X521360Y254301D03*
D10*
X538560Y203200D03*
X548560Y203200D03*
X586660Y152400D03*
X576660Y152400D03*
D12*
X586940Y288610D02*
X586940Y295590D01*
X593920Y295590D01*
X593920Y288610D01*
X586940Y288610D01*
X586940Y293410D02*
X593920Y293410D01*
X569400Y295590D02*
X569400Y288610D01*
X569400Y295590D02*
X576380Y295590D01*
X576380Y288610D01*
X569400Y288610D01*
X569400Y293410D02*
X576380Y293410D01*
D10*
X551260Y292100D03*
X561260Y292100D03*
D11*
X572160Y215599D03*
X581660Y215599D03*
X591160Y215599D03*
X591160Y241601D03*
X572160Y241601D03*
D13*
X539360Y266700D03*
X522360Y266700D03*
X662060Y63500D03*
X679060Y63500D03*
D10*
X662860Y82550D03*
X652860Y82550D03*
X652860Y120650D03*
X662860Y120650D03*
D14*
X648660Y108100D03*
X667060Y101600D03*
X667060Y95100D03*
X667060Y108100D03*
X648660Y101600D03*
X648660Y95100D03*
D15*
X481410Y116900D03*
X481410Y60900D03*
D16*
X518160Y103900D03*
X518160Y93900D03*
X518160Y83900D03*
X518160Y73900D03*
D10*
X645160Y147400D03*
X645160Y157400D03*
X556260Y236300D03*
X556260Y246300D03*
D12*
X586940Y307660D02*
X586940Y314640D01*
X593920Y314640D01*
X593920Y307660D01*
X586940Y307660D01*
X586940Y312460D02*
X593920Y312460D01*
X569400Y314640D02*
X569400Y307660D01*
X569400Y314640D02*
X576380Y314640D01*
X576380Y307660D01*
X569400Y307660D01*
X569400Y312460D02*
X576380Y312460D01*
D10*
X551260Y311150D03*
X561260Y311150D03*
X612060Y228600D03*
X602060Y228600D03*
D17*
X480060Y558800D03*
X689610Y33020D03*
D18*
X492760Y25400D03*
X670560Y25400D03*
D19*
X611960Y199010D03*
X611960Y215010D03*
X652960Y215010D03*
X652960Y199010D03*
X611960Y243460D03*
X611960Y259460D03*
X652960Y259460D03*
X652960Y243460D03*
D20*
X499280Y508800D03*
X499280Y496100D03*
X499280Y483400D03*
X499280Y470700D03*
X499280Y458000D03*
X499280Y445300D03*
X499280Y432600D03*
X499280Y419900D03*
X499280Y407200D03*
X499280Y394500D03*
X499280Y381800D03*
X499280Y369100D03*
X499280Y356400D03*
X499280Y343700D03*
D21*
X524510Y328800D03*
X537210Y328800D03*
X549910Y328800D03*
X562610Y328800D03*
X575310Y328800D03*
X588010Y328800D03*
X600710Y328800D03*
X613410Y328800D03*
X626110Y328800D03*
X638810Y328800D03*
D20*
X664040Y343700D03*
X664040Y356400D03*
X664040Y369100D03*
X664040Y381800D03*
X664040Y394500D03*
X664040Y407200D03*
X664040Y419900D03*
X664040Y432600D03*
X664040Y445300D03*
X664040Y458000D03*
X664040Y470700D03*
X664040Y483400D03*
X664040Y496100D03*
X664040Y508800D03*
D22*
X581660Y431800D03*
D23*
X591660Y181000D03*
X591660Y200000D03*
X570660Y190500D03*
D24*
X683260Y139700D03*
X683260Y165100D03*
X683260Y190500D03*
X683260Y215900D03*
X683260Y241300D03*
X683260Y266700D03*
X683260Y292100D03*
X683260Y317500D03*
X683260Y342900D03*
X683260Y368300D03*
X683260Y393700D03*
X683260Y419100D03*
X683260Y444500D03*
X683260Y469900D03*
X683260Y495300D03*
X683260Y520700D03*
X480060Y241300D03*
X480060Y266700D03*
X480060Y292100D03*
X480060Y317500D03*
X480060Y342900D03*
X480060Y368300D03*
X480060Y393700D03*
X480060Y419100D03*
X480060Y444500D03*
X480060Y469900D03*
X480060Y495300D03*
X480060Y520700D03*
D25*
X589160Y60100D03*
X584160Y60100D03*
D26*
X613910Y60100D03*
X606160Y60100D03*
D25*
X599160Y60100D03*
X594160Y60100D03*
X574160Y60100D03*
X579160Y60100D03*
D26*
X549410Y60100D03*
X557160Y60100D03*
D25*
X564160Y60100D03*
X569160Y60100D03*
D27*
X552760Y49050D03*
X610560Y49050D03*
D10*
X632460Y26750D03*
X632460Y36750D03*
X530860Y26750D03*
X530860Y36750D03*
D28*
X593160Y165100D03*
X570160Y165100D03*
D29*
X537210Y73600D03*
X549910Y73600D03*
X562610Y73600D03*
X575310Y73600D03*
X588010Y73600D03*
X600710Y73600D03*
X613410Y73600D03*
X626110Y73600D03*
X626110Y129600D03*
X613410Y129600D03*
X600710Y129600D03*
X588010Y129600D03*
X575310Y129600D03*
X562610Y129600D03*
X549910Y129600D03*
X537210Y129600D03*
D10*
X523160Y127000D03*
X513160Y127000D03*
X551260Y273050D03*
X561260Y273050D03*
D12*
X586940Y269560D02*
X586940Y276540D01*
X593920Y276540D01*
X593920Y269560D01*
X586940Y269560D01*
X586940Y274360D02*
X593920Y274360D01*
X569400Y276540D02*
X569400Y269560D01*
X569400Y276540D02*
X576380Y276540D01*
X576380Y269560D01*
X569400Y269560D01*
X569400Y274360D02*
X576380Y274360D01*
D30*
X523360Y302000D03*
X528360Y302000D03*
X533360Y302000D03*
X538360Y302000D03*
X538360Y282000D03*
X533360Y282000D03*
X528360Y282000D03*
X523360Y282000D03*
D31*
X530860Y292100D03*
D10*
X551260Y254000D03*
X561260Y254000D03*
X624760Y172720D03*
X614760Y172720D03*
D32*
X606759Y161900D03*
X606759Y152400D03*
X606759Y142900D03*
X632761Y142900D03*
X632761Y161900D03*
D10*
X538560Y152400D03*
X548560Y152400D03*
D33*
X679030Y562870D03*
X690030Y562870D03*
X690030Y544570D03*
X679030Y544570D03*
D10*
X689530Y535940D03*
X679530Y535940D03*
D34*
X539920Y167800D03*
X539920Y187800D03*
D35*
X487920Y143800D03*
X487920Y211800D03*
D10*
X789940Y210900D03*
X789940Y220900D03*
X810340Y254000D03*
X820340Y254000D03*
D11*
X755040Y228299D03*
X764540Y228299D03*
X774040Y228299D03*
X774040Y254301D03*
X755040Y254301D03*
D10*
X772240Y203200D03*
X782240Y203200D03*
X820340Y152400D03*
X810340Y152400D03*
D12*
X820620Y288610D02*
X820620Y295590D01*
X827600Y295590D01*
X827600Y288610D01*
X820620Y288610D01*
X820620Y293410D02*
X827600Y293410D01*
X803080Y295590D02*
X803080Y288610D01*
X803080Y295590D02*
X810060Y295590D01*
X810060Y288610D01*
X803080Y288610D01*
X803080Y293410D02*
X810060Y293410D01*
D10*
X784940Y292100D03*
X794940Y292100D03*
D11*
X805840Y215599D03*
X815340Y215599D03*
X824840Y215599D03*
X824840Y241601D03*
X805840Y241601D03*
D13*
X773040Y266700D03*
X756040Y266700D03*
X895740Y63500D03*
X912740Y63500D03*
D10*
X896540Y82550D03*
X886540Y82550D03*
X886540Y120650D03*
X896540Y120650D03*
D14*
X882340Y108100D03*
X900740Y101600D03*
X900740Y95100D03*
X900740Y108100D03*
X882340Y101600D03*
X882340Y95100D03*
D15*
X715090Y116900D03*
X715090Y60900D03*
D16*
X751840Y103900D03*
X751840Y93900D03*
X751840Y83900D03*
X751840Y73900D03*
D10*
X878840Y147400D03*
X878840Y157400D03*
X789940Y236300D03*
X789940Y246300D03*
D12*
X820620Y307660D02*
X820620Y314640D01*
X827600Y314640D01*
X827600Y307660D01*
X820620Y307660D01*
X820620Y312460D02*
X827600Y312460D01*
X803080Y314640D02*
X803080Y307660D01*
X803080Y314640D02*
X810060Y314640D01*
X810060Y307660D01*
X803080Y307660D01*
X803080Y312460D02*
X810060Y312460D01*
D10*
X784940Y311150D03*
X794940Y311150D03*
X845740Y228600D03*
X835740Y228600D03*
D17*
X713740Y558800D03*
X923290Y33020D03*
D18*
X726440Y25400D03*
X904240Y25400D03*
D19*
X845640Y199010D03*
X845640Y215010D03*
X886640Y215010D03*
X886640Y199010D03*
X845640Y243460D03*
X845640Y259460D03*
X886640Y259460D03*
X886640Y243460D03*
D20*
X732960Y508800D03*
X732960Y496100D03*
X732960Y483400D03*
X732960Y470700D03*
X732960Y458000D03*
X732960Y445300D03*
X732960Y432600D03*
X732960Y419900D03*
X732960Y407200D03*
X732960Y394500D03*
X732960Y381800D03*
X732960Y369100D03*
X732960Y356400D03*
X732960Y343700D03*
D21*
X758190Y328800D03*
X770890Y328800D03*
X783590Y328800D03*
X796290Y328800D03*
X808990Y328800D03*
X821690Y328800D03*
X834390Y328800D03*
X847090Y328800D03*
X859790Y328800D03*
X872490Y328800D03*
D20*
X897720Y343700D03*
X897720Y356400D03*
X897720Y369100D03*
X897720Y381800D03*
X897720Y394500D03*
X897720Y407200D03*
X897720Y419900D03*
X897720Y432600D03*
X897720Y445300D03*
X897720Y458000D03*
X897720Y470700D03*
X897720Y483400D03*
X897720Y496100D03*
X897720Y508800D03*
D22*
X815340Y431800D03*
D23*
X825340Y181000D03*
X825340Y200000D03*
X804340Y190500D03*
D24*
X916940Y139700D03*
X916940Y165100D03*
X916940Y190500D03*
X916940Y215900D03*
X916940Y241300D03*
X916940Y266700D03*
X916940Y292100D03*
X916940Y317500D03*
X916940Y342900D03*
X916940Y368300D03*
X916940Y393700D03*
X916940Y419100D03*
X916940Y444500D03*
X916940Y469900D03*
X916940Y495300D03*
X916940Y520700D03*
X713740Y241300D03*
X713740Y266700D03*
X713740Y292100D03*
X713740Y317500D03*
X713740Y342900D03*
X713740Y368300D03*
X713740Y393700D03*
X713740Y419100D03*
X713740Y444500D03*
X713740Y469900D03*
X713740Y495300D03*
X713740Y520700D03*
D25*
X822840Y60100D03*
X817840Y60100D03*
D26*
X847590Y60100D03*
X839840Y60100D03*
D25*
X832840Y60100D03*
X827840Y60100D03*
X807840Y60100D03*
X812840Y60100D03*
D26*
X783090Y60100D03*
X790840Y60100D03*
D25*
X797840Y60100D03*
X802840Y60100D03*
D27*
X786440Y49050D03*
X844240Y49050D03*
D10*
X866140Y26750D03*
X866140Y36750D03*
X764540Y26750D03*
X764540Y36750D03*
D28*
X826840Y165100D03*
X803840Y165100D03*
D29*
X770890Y73600D03*
X783590Y73600D03*
X796290Y73600D03*
X808990Y73600D03*
X821690Y73600D03*
X834390Y73600D03*
X847090Y73600D03*
X859790Y73600D03*
X859790Y129600D03*
X847090Y129600D03*
X834390Y129600D03*
X821690Y129600D03*
X808990Y129600D03*
X796290Y129600D03*
X783590Y129600D03*
X770890Y129600D03*
D10*
X756840Y127000D03*
X746840Y127000D03*
X784940Y273050D03*
X794940Y273050D03*
D12*
X820620Y269560D02*
X820620Y276540D01*
X827600Y276540D01*
X827600Y269560D01*
X820620Y269560D01*
X820620Y274360D02*
X827600Y274360D01*
X803080Y276540D02*
X803080Y269560D01*
X803080Y276540D02*
X810060Y276540D01*
X810060Y269560D01*
X803080Y269560D01*
X803080Y274360D02*
X810060Y274360D01*
D30*
X757040Y302000D03*
X762040Y302000D03*
X767040Y302000D03*
X772040Y302000D03*
X772040Y282000D03*
X767040Y282000D03*
X762040Y282000D03*
X757040Y282000D03*
D31*
X764540Y292100D03*
D10*
X784940Y254000D03*
X794940Y254000D03*
X858440Y172720D03*
X848440Y172720D03*
D32*
X840439Y161900D03*
X840439Y152400D03*
X840439Y142900D03*
X866441Y142900D03*
X866441Y161900D03*
D10*
X772240Y152400D03*
X782240Y152400D03*
D33*
X912710Y562870D03*
X923710Y562870D03*
X923710Y544570D03*
X912710Y544570D03*
D10*
X923210Y535940D03*
X913210Y535940D03*
D34*
X773600Y167800D03*
X773600Y187800D03*
D35*
X721600Y143800D03*
X721600Y211800D03*
D10*
X1023620Y210900D03*
X1023620Y220900D03*
X1044020Y254000D03*
X1054020Y254000D03*
D11*
X988720Y228299D03*
X998220Y228299D03*
X1007720Y228299D03*
X1007720Y254301D03*
X988720Y254301D03*
D10*
X1005920Y203200D03*
X1015920Y203200D03*
X1054020Y152400D03*
X1044020Y152400D03*
D12*
X1054300Y288610D02*
X1054300Y295590D01*
X1061280Y295590D01*
X1061280Y288610D01*
X1054300Y288610D01*
X1054300Y293410D02*
X1061280Y293410D01*
X1036760Y295590D02*
X1036760Y288610D01*
X1036760Y295590D02*
X1043740Y295590D01*
X1043740Y288610D01*
X1036760Y288610D01*
X1036760Y293410D02*
X1043740Y293410D01*
D10*
X1018620Y292100D03*
X1028620Y292100D03*
D11*
X1039520Y215599D03*
X1049020Y215599D03*
X1058520Y215599D03*
X1058520Y241601D03*
X1039520Y241601D03*
D13*
X1006720Y266700D03*
X989720Y266700D03*
X1129420Y63500D03*
X1146420Y63500D03*
D10*
X1130220Y82550D03*
X1120220Y82550D03*
X1120220Y120650D03*
X1130220Y120650D03*
D14*
X1116020Y108100D03*
X1134420Y101600D03*
X1134420Y95100D03*
X1134420Y108100D03*
X1116020Y101600D03*
X1116020Y95100D03*
D15*
X948770Y116900D03*
X948770Y60900D03*
D16*
X985520Y103900D03*
X985520Y93900D03*
X985520Y83900D03*
X985520Y73900D03*
D10*
X1112520Y147400D03*
X1112520Y157400D03*
X1023620Y236300D03*
X1023620Y246300D03*
D12*
X1054300Y307660D02*
X1054300Y314640D01*
X1061280Y314640D01*
X1061280Y307660D01*
X1054300Y307660D01*
X1054300Y312460D02*
X1061280Y312460D01*
X1036760Y314640D02*
X1036760Y307660D01*
X1036760Y314640D02*
X1043740Y314640D01*
X1043740Y307660D01*
X1036760Y307660D01*
X1036760Y312460D02*
X1043740Y312460D01*
D10*
X1018620Y311150D03*
X1028620Y311150D03*
X1079420Y228600D03*
X1069420Y228600D03*
D17*
X947420Y558800D03*
X1156970Y33020D03*
D18*
X960120Y25400D03*
X1137920Y25400D03*
D19*
X1079320Y199010D03*
X1079320Y215010D03*
X1120320Y215010D03*
X1120320Y199010D03*
X1079320Y243460D03*
X1079320Y259460D03*
X1120320Y259460D03*
X1120320Y243460D03*
D20*
X966640Y508800D03*
X966640Y496100D03*
X966640Y483400D03*
X966640Y470700D03*
X966640Y458000D03*
X966640Y445300D03*
X966640Y432600D03*
X966640Y419900D03*
X966640Y407200D03*
X966640Y394500D03*
X966640Y381800D03*
X966640Y369100D03*
X966640Y356400D03*
X966640Y343700D03*
D21*
X991870Y328800D03*
X1004570Y328800D03*
X1017270Y328800D03*
X1029970Y328800D03*
X1042670Y328800D03*
X1055370Y328800D03*
X1068070Y328800D03*
X1080770Y328800D03*
X1093470Y328800D03*
X1106170Y328800D03*
D20*
X1131400Y343700D03*
X1131400Y356400D03*
X1131400Y369100D03*
X1131400Y381800D03*
X1131400Y394500D03*
X1131400Y407200D03*
X1131400Y419900D03*
X1131400Y432600D03*
X1131400Y445300D03*
X1131400Y458000D03*
X1131400Y470700D03*
X1131400Y483400D03*
X1131400Y496100D03*
X1131400Y508800D03*
D22*
X1049020Y431800D03*
D23*
X1059020Y181000D03*
X1059020Y200000D03*
X1038020Y190500D03*
D24*
X1150620Y139700D03*
X1150620Y165100D03*
X1150620Y190500D03*
X1150620Y215900D03*
X1150620Y241300D03*
X1150620Y266700D03*
X1150620Y292100D03*
X1150620Y317500D03*
X1150620Y342900D03*
X1150620Y368300D03*
X1150620Y393700D03*
X1150620Y419100D03*
X1150620Y444500D03*
X1150620Y469900D03*
X1150620Y495300D03*
X1150620Y520700D03*
X947420Y241300D03*
X947420Y266700D03*
X947420Y292100D03*
X947420Y317500D03*
X947420Y342900D03*
X947420Y368300D03*
X947420Y393700D03*
X947420Y419100D03*
X947420Y444500D03*
X947420Y469900D03*
X947420Y495300D03*
X947420Y520700D03*
D25*
X1056520Y60100D03*
X1051520Y60100D03*
D26*
X1081270Y60100D03*
X1073520Y60100D03*
D25*
X1066520Y60100D03*
X1061520Y60100D03*
X1041520Y60100D03*
X1046520Y60100D03*
D26*
X1016770Y60100D03*
X1024520Y60100D03*
D25*
X1031520Y60100D03*
X1036520Y60100D03*
D27*
X1020120Y49050D03*
X1077920Y49050D03*
D10*
X1099820Y26750D03*
X1099820Y36750D03*
X998220Y26750D03*
X998220Y36750D03*
D28*
X1060520Y165100D03*
X1037520Y165100D03*
D29*
X1004570Y73600D03*
X1017270Y73600D03*
X1029970Y73600D03*
X1042670Y73600D03*
X1055370Y73600D03*
X1068070Y73600D03*
X1080770Y73600D03*
X1093470Y73600D03*
X1093470Y129600D03*
X1080770Y129600D03*
X1068070Y129600D03*
X1055370Y129600D03*
X1042670Y129600D03*
X1029970Y129600D03*
X1017270Y129600D03*
X1004570Y129600D03*
D10*
X990520Y127000D03*
X980520Y127000D03*
X1018620Y273050D03*
X1028620Y273050D03*
D12*
X1054300Y269560D02*
X1054300Y276540D01*
X1061280Y276540D01*
X1061280Y269560D01*
X1054300Y269560D01*
X1054300Y274360D02*
X1061280Y274360D01*
X1036760Y276540D02*
X1036760Y269560D01*
X1036760Y276540D02*
X1043740Y276540D01*
X1043740Y269560D01*
X1036760Y269560D01*
X1036760Y274360D02*
X1043740Y274360D01*
D30*
X990720Y302000D03*
X995720Y302000D03*
X1000720Y302000D03*
X1005720Y302000D03*
X1005720Y282000D03*
X1000720Y282000D03*
X995720Y282000D03*
X990720Y282000D03*
D31*
X998220Y292100D03*
D10*
X1018620Y254000D03*
X1028620Y254000D03*
X1092120Y172720D03*
X1082120Y172720D03*
D32*
X1074119Y161900D03*
X1074119Y152400D03*
X1074119Y142900D03*
X1100121Y142900D03*
X1100121Y161900D03*
D10*
X1005920Y152400D03*
X1015920Y152400D03*
D33*
X1146390Y562870D03*
X1157390Y562870D03*
X1157390Y544570D03*
X1146390Y544570D03*
D10*
X1156890Y535940D03*
X1146890Y535940D03*
D34*
X1007280Y167800D03*
X1007280Y187800D03*
D35*
X955280Y143800D03*
X955280Y211800D03*
D10*
X88900Y825580D03*
X88900Y835580D03*
X109300Y868680D03*
X119300Y868680D03*
D11*
X54000Y842979D03*
X63500Y842979D03*
X73000Y842979D03*
X73000Y868981D03*
X54000Y868981D03*
D10*
X71200Y817880D03*
X81200Y817880D03*
X119300Y767080D03*
X109300Y767080D03*
D12*
X119580Y903290D02*
X119580Y910270D01*
X126560Y910270D01*
X126560Y903290D01*
X119580Y903290D01*
X119580Y908090D02*
X126560Y908090D01*
X102040Y910270D02*
X102040Y903290D01*
X102040Y910270D02*
X109020Y910270D01*
X109020Y903290D01*
X102040Y903290D01*
X102040Y908090D02*
X109020Y908090D01*
D10*
X83900Y906780D03*
X93900Y906780D03*
D11*
X104800Y830279D03*
X114300Y830279D03*
X123800Y830279D03*
X123800Y856281D03*
X104800Y856281D03*
D13*
X72000Y881380D03*
X55000Y881380D03*
X194700Y678180D03*
X211700Y678180D03*
D10*
X195500Y697230D03*
X185500Y697230D03*
X185500Y735330D03*
X195500Y735330D03*
D14*
X181300Y722780D03*
X199700Y716280D03*
X199700Y709780D03*
X199700Y722780D03*
X181300Y716280D03*
X181300Y709780D03*
D15*
X14050Y731580D03*
X14050Y675580D03*
D16*
X50800Y718580D03*
X50800Y708580D03*
X50800Y698580D03*
X50800Y688580D03*
D10*
X177800Y762080D03*
X177800Y772080D03*
X88900Y850980D03*
X88900Y860980D03*
D12*
X119580Y922340D02*
X119580Y929320D01*
X126560Y929320D01*
X126560Y922340D01*
X119580Y922340D01*
X119580Y927140D02*
X126560Y927140D01*
X102040Y929320D02*
X102040Y922340D01*
X102040Y929320D02*
X109020Y929320D01*
X109020Y922340D01*
X102040Y922340D01*
X102040Y927140D02*
X109020Y927140D01*
D10*
X83900Y925830D03*
X93900Y925830D03*
X144700Y843280D03*
X134700Y843280D03*
D17*
X12700Y1173480D03*
X222250Y647700D03*
D18*
X25400Y640080D03*
X203200Y640080D03*
D19*
X144600Y813690D03*
X144600Y829690D03*
X185600Y829690D03*
X185600Y813690D03*
X144600Y858140D03*
X144600Y874140D03*
X185600Y874140D03*
X185600Y858140D03*
D20*
X31920Y1123480D03*
X31920Y1110780D03*
X31920Y1098080D03*
X31920Y1085380D03*
X31920Y1072680D03*
X31920Y1059980D03*
X31920Y1047280D03*
X31920Y1034580D03*
X31920Y1021880D03*
X31920Y1009180D03*
X31920Y996480D03*
X31920Y983780D03*
X31920Y971080D03*
X31920Y958380D03*
D21*
X57150Y943480D03*
X69850Y943480D03*
X82550Y943480D03*
X95250Y943480D03*
X107950Y943480D03*
X120650Y943480D03*
X133350Y943480D03*
X146050Y943480D03*
X158750Y943480D03*
X171450Y943480D03*
D20*
X196680Y958380D03*
X196680Y971080D03*
X196680Y983780D03*
X196680Y996480D03*
X196680Y1009180D03*
X196680Y1021880D03*
X196680Y1034580D03*
X196680Y1047280D03*
X196680Y1059980D03*
X196680Y1072680D03*
X196680Y1085380D03*
X196680Y1098080D03*
X196680Y1110780D03*
X196680Y1123480D03*
D22*
X114300Y1046480D03*
D23*
X124300Y795680D03*
X124300Y814680D03*
X103300Y805180D03*
D24*
X215900Y754380D03*
X215900Y779780D03*
X215900Y805180D03*
X215900Y830580D03*
X215900Y855980D03*
X215900Y881380D03*
X215900Y906780D03*
X215900Y932180D03*
X215900Y957580D03*
X215900Y982980D03*
X215900Y1008380D03*
X215900Y1033780D03*
X215900Y1059180D03*
X215900Y1084580D03*
X215900Y1109980D03*
X215900Y1135380D03*
X12700Y855980D03*
X12700Y881380D03*
X12700Y906780D03*
X12700Y932180D03*
X12700Y957580D03*
X12700Y982980D03*
X12700Y1008380D03*
X12700Y1033780D03*
X12700Y1059180D03*
X12700Y1084580D03*
X12700Y1109980D03*
X12700Y1135380D03*
D25*
X121800Y674780D03*
X116800Y674780D03*
D26*
X146550Y674780D03*
X138800Y674780D03*
D25*
X131800Y674780D03*
X126800Y674780D03*
X106800Y674780D03*
X111800Y674780D03*
D26*
X82050Y674780D03*
X89800Y674780D03*
D25*
X96800Y674780D03*
X101800Y674780D03*
D27*
X85400Y663730D03*
X143200Y663730D03*
D10*
X165100Y641430D03*
X165100Y651430D03*
X63500Y641430D03*
X63500Y651430D03*
D28*
X125800Y779780D03*
X102800Y779780D03*
D29*
X69850Y688280D03*
X82550Y688280D03*
X95250Y688280D03*
X107950Y688280D03*
X120650Y688280D03*
X133350Y688280D03*
X146050Y688280D03*
X158750Y688280D03*
X158750Y744280D03*
X146050Y744280D03*
X133350Y744280D03*
X120650Y744280D03*
X107950Y744280D03*
X95250Y744280D03*
X82550Y744280D03*
X69850Y744280D03*
D10*
X55800Y741680D03*
X45800Y741680D03*
X83900Y887730D03*
X93900Y887730D03*
D12*
X119580Y884240D02*
X119580Y891220D01*
X126560Y891220D01*
X126560Y884240D01*
X119580Y884240D01*
X119580Y889040D02*
X126560Y889040D01*
X102040Y891220D02*
X102040Y884240D01*
X102040Y891220D02*
X109020Y891220D01*
X109020Y884240D01*
X102040Y884240D01*
X102040Y889040D02*
X109020Y889040D01*
D30*
X56000Y916680D03*
X61000Y916680D03*
X66000Y916680D03*
X71000Y916680D03*
X71000Y896680D03*
X66000Y896680D03*
X61000Y896680D03*
X56000Y896680D03*
D31*
X63500Y906780D03*
D10*
X83900Y868680D03*
X93900Y868680D03*
X157400Y787400D03*
X147400Y787400D03*
D32*
X139399Y776580D03*
X139399Y767080D03*
X139399Y757580D03*
X165401Y757580D03*
X165401Y776580D03*
D10*
X71200Y767080D03*
X81200Y767080D03*
D33*
X211670Y1177550D03*
X222670Y1177550D03*
X222670Y1159250D03*
X211670Y1159250D03*
D10*
X222170Y1150620D03*
X212170Y1150620D03*
D34*
X72560Y782480D03*
X72560Y802480D03*
D35*
X20560Y758480D03*
X20560Y826480D03*
D10*
X322580Y825580D03*
X322580Y835580D03*
X342980Y868680D03*
X352980Y868680D03*
D11*
X287680Y842979D03*
X297180Y842979D03*
X306680Y842979D03*
X306680Y868981D03*
X287680Y868981D03*
D10*
X304880Y817880D03*
X314880Y817880D03*
X352980Y767080D03*
X342980Y767080D03*
D12*
X353260Y903290D02*
X353260Y910270D01*
X360240Y910270D01*
X360240Y903290D01*
X353260Y903290D01*
X353260Y908090D02*
X360240Y908090D01*
X335720Y910270D02*
X335720Y903290D01*
X335720Y910270D02*
X342700Y910270D01*
X342700Y903290D01*
X335720Y903290D01*
X335720Y908090D02*
X342700Y908090D01*
D10*
X317580Y906780D03*
X327580Y906780D03*
D11*
X338480Y830279D03*
X347980Y830279D03*
X357480Y830279D03*
X357480Y856281D03*
X338480Y856281D03*
D13*
X305680Y881380D03*
X288680Y881380D03*
X428380Y678180D03*
X445380Y678180D03*
D10*
X429180Y697230D03*
X419180Y697230D03*
X419180Y735330D03*
X429180Y735330D03*
D14*
X414980Y722780D03*
X433380Y716280D03*
X433380Y709780D03*
X433380Y722780D03*
X414980Y716280D03*
X414980Y709780D03*
D15*
X247730Y731580D03*
X247730Y675580D03*
D16*
X284480Y718580D03*
X284480Y708580D03*
X284480Y698580D03*
X284480Y688580D03*
D10*
X411480Y762080D03*
X411480Y772080D03*
X322580Y850980D03*
X322580Y860980D03*
D12*
X353260Y922340D02*
X353260Y929320D01*
X360240Y929320D01*
X360240Y922340D01*
X353260Y922340D01*
X353260Y927140D02*
X360240Y927140D01*
X335720Y929320D02*
X335720Y922340D01*
X335720Y929320D02*
X342700Y929320D01*
X342700Y922340D01*
X335720Y922340D01*
X335720Y927140D02*
X342700Y927140D01*
D10*
X317580Y925830D03*
X327580Y925830D03*
X378380Y843280D03*
X368380Y843280D03*
D17*
X246380Y1173480D03*
X455930Y647700D03*
D18*
X259080Y640080D03*
X436880Y640080D03*
D19*
X378280Y813690D03*
X378280Y829690D03*
X419280Y829690D03*
X419280Y813690D03*
X378280Y858140D03*
X378280Y874140D03*
X419280Y874140D03*
X419280Y858140D03*
D20*
X265600Y1123480D03*
X265600Y1110780D03*
X265600Y1098080D03*
X265600Y1085380D03*
X265600Y1072680D03*
X265600Y1059980D03*
X265600Y1047280D03*
X265600Y1034580D03*
X265600Y1021880D03*
X265600Y1009180D03*
X265600Y996480D03*
X265600Y983780D03*
X265600Y971080D03*
X265600Y958380D03*
D21*
X290830Y943480D03*
X303530Y943480D03*
X316230Y943480D03*
X328930Y943480D03*
X341630Y943480D03*
X354330Y943480D03*
X367030Y943480D03*
X379730Y943480D03*
X392430Y943480D03*
X405130Y943480D03*
D20*
X430360Y958380D03*
X430360Y971080D03*
X430360Y983780D03*
X430360Y996480D03*
X430360Y1009180D03*
X430360Y1021880D03*
X430360Y1034580D03*
X430360Y1047280D03*
X430360Y1059980D03*
X430360Y1072680D03*
X430360Y1085380D03*
X430360Y1098080D03*
X430360Y1110780D03*
X430360Y1123480D03*
D22*
X347980Y1046480D03*
D23*
X357980Y795680D03*
X357980Y814680D03*
X336980Y805180D03*
D24*
X449580Y754380D03*
X449580Y779780D03*
X449580Y805180D03*
X449580Y830580D03*
X449580Y855980D03*
X449580Y881380D03*
X449580Y906780D03*
X449580Y932180D03*
X449580Y957580D03*
X449580Y982980D03*
X449580Y1008380D03*
X449580Y1033780D03*
X449580Y1059180D03*
X449580Y1084580D03*
X449580Y1109980D03*
X449580Y1135380D03*
X246380Y855980D03*
X246380Y881380D03*
X246380Y906780D03*
X246380Y932180D03*
X246380Y957580D03*
X246380Y982980D03*
X246380Y1008380D03*
X246380Y1033780D03*
X246380Y1059180D03*
X246380Y1084580D03*
X246380Y1109980D03*
X246380Y1135380D03*
D25*
X355480Y674780D03*
X350480Y674780D03*
D26*
X380230Y674780D03*
X372480Y674780D03*
D25*
X365480Y674780D03*
X360480Y674780D03*
X340480Y674780D03*
X345480Y674780D03*
D26*
X315730Y674780D03*
X323480Y674780D03*
D25*
X330480Y674780D03*
X335480Y674780D03*
D27*
X319080Y663730D03*
X376880Y663730D03*
D10*
X398780Y641430D03*
X398780Y651430D03*
X297180Y641430D03*
X297180Y651430D03*
D28*
X359480Y779780D03*
X336480Y779780D03*
D29*
X303530Y688280D03*
X316230Y688280D03*
X328930Y688280D03*
X341630Y688280D03*
X354330Y688280D03*
X367030Y688280D03*
X379730Y688280D03*
X392430Y688280D03*
X392430Y744280D03*
X379730Y744280D03*
X367030Y744280D03*
X354330Y744280D03*
X341630Y744280D03*
X328930Y744280D03*
X316230Y744280D03*
X303530Y744280D03*
D10*
X289480Y741680D03*
X279480Y741680D03*
X317580Y887730D03*
X327580Y887730D03*
D12*
X353260Y884240D02*
X353260Y891220D01*
X360240Y891220D01*
X360240Y884240D01*
X353260Y884240D01*
X353260Y889040D02*
X360240Y889040D01*
X335720Y891220D02*
X335720Y884240D01*
X335720Y891220D02*
X342700Y891220D01*
X342700Y884240D01*
X335720Y884240D01*
X335720Y889040D02*
X342700Y889040D01*
D30*
X289680Y916680D03*
X294680Y916680D03*
X299680Y916680D03*
X304680Y916680D03*
X304680Y896680D03*
X299680Y896680D03*
X294680Y896680D03*
X289680Y896680D03*
D31*
X297180Y906780D03*
D10*
X317580Y868680D03*
X327580Y868680D03*
X391080Y787400D03*
X381080Y787400D03*
D32*
X373079Y776580D03*
X373079Y767080D03*
X373079Y757580D03*
X399081Y757580D03*
X399081Y776580D03*
D10*
X304880Y767080D03*
X314880Y767080D03*
D33*
X445350Y1177550D03*
X456350Y1177550D03*
X456350Y1159250D03*
X445350Y1159250D03*
D10*
X455850Y1150620D03*
X445850Y1150620D03*
D34*
X306240Y782480D03*
X306240Y802480D03*
D35*
X254240Y758480D03*
X254240Y826480D03*
D10*
X556260Y825580D03*
X556260Y835580D03*
X576660Y868680D03*
X586660Y868680D03*
D11*
X521360Y842979D03*
X530860Y842979D03*
X540360Y842979D03*
X540360Y868981D03*
X521360Y868981D03*
D10*
X538560Y817880D03*
X548560Y817880D03*
X586660Y767080D03*
X576660Y767080D03*
D12*
X586940Y903290D02*
X586940Y910270D01*
X593920Y910270D01*
X593920Y903290D01*
X586940Y903290D01*
X586940Y908090D02*
X593920Y908090D01*
X569400Y910270D02*
X569400Y903290D01*
X569400Y910270D02*
X576380Y910270D01*
X576380Y903290D01*
X569400Y903290D01*
X569400Y908090D02*
X576380Y908090D01*
D10*
X551260Y906780D03*
X561260Y906780D03*
D11*
X572160Y830279D03*
X581660Y830279D03*
X591160Y830279D03*
X591160Y856281D03*
X572160Y856281D03*
D13*
X539360Y881380D03*
X522360Y881380D03*
X662060Y678180D03*
X679060Y678180D03*
D10*
X662860Y697230D03*
X652860Y697230D03*
X652860Y735330D03*
X662860Y735330D03*
D14*
X648660Y722780D03*
X667060Y716280D03*
X667060Y709780D03*
X667060Y722780D03*
X648660Y716280D03*
X648660Y709780D03*
D15*
X481410Y731580D03*
X481410Y675580D03*
D16*
X518160Y718580D03*
X518160Y708580D03*
X518160Y698580D03*
X518160Y688580D03*
D10*
X645160Y762080D03*
X645160Y772080D03*
X556260Y850980D03*
X556260Y860980D03*
D12*
X586940Y922340D02*
X586940Y929320D01*
X593920Y929320D01*
X593920Y922340D01*
X586940Y922340D01*
X586940Y927140D02*
X593920Y927140D01*
X569400Y929320D02*
X569400Y922340D01*
X569400Y929320D02*
X576380Y929320D01*
X576380Y922340D01*
X569400Y922340D01*
X569400Y927140D02*
X576380Y927140D01*
D10*
X551260Y925830D03*
X561260Y925830D03*
X612060Y843280D03*
X602060Y843280D03*
D17*
X480060Y1173480D03*
X689610Y647700D03*
D18*
X492760Y640080D03*
X670560Y640080D03*
D19*
X611960Y813690D03*
X611960Y829690D03*
X652960Y829690D03*
X652960Y813690D03*
X611960Y858140D03*
X611960Y874140D03*
X652960Y874140D03*
X652960Y858140D03*
D20*
X499280Y1123480D03*
X499280Y1110780D03*
X499280Y1098080D03*
X499280Y1085380D03*
X499280Y1072680D03*
X499280Y1059980D03*
X499280Y1047280D03*
X499280Y1034580D03*
X499280Y1021880D03*
X499280Y1009180D03*
X499280Y996480D03*
X499280Y983780D03*
X499280Y971080D03*
X499280Y958380D03*
D21*
X524510Y943480D03*
X537210Y943480D03*
X549910Y943480D03*
X562610Y943480D03*
X575310Y943480D03*
X588010Y943480D03*
X600710Y943480D03*
X613410Y943480D03*
X626110Y943480D03*
X638810Y943480D03*
D20*
X664040Y958380D03*
X664040Y971080D03*
X664040Y983780D03*
X664040Y996480D03*
X664040Y1009180D03*
X664040Y1021880D03*
X664040Y1034580D03*
X664040Y1047280D03*
X664040Y1059980D03*
X664040Y1072680D03*
X664040Y1085380D03*
X664040Y1098080D03*
X664040Y1110780D03*
X664040Y1123480D03*
D22*
X581660Y1046480D03*
D23*
X591660Y795680D03*
X591660Y814680D03*
X570660Y805180D03*
D24*
X683260Y754380D03*
X683260Y779780D03*
X683260Y805180D03*
X683260Y830580D03*
X683260Y855980D03*
X683260Y881380D03*
X683260Y906780D03*
X683260Y932180D03*
X683260Y957580D03*
X683260Y982980D03*
X683260Y1008380D03*
X683260Y1033780D03*
X683260Y1059180D03*
X683260Y1084580D03*
X683260Y1109980D03*
X683260Y1135380D03*
X480060Y855980D03*
X480060Y881380D03*
X480060Y906780D03*
X480060Y932180D03*
X480060Y957580D03*
X480060Y982980D03*
X480060Y1008380D03*
X480060Y1033780D03*
X480060Y1059180D03*
X480060Y1084580D03*
X480060Y1109980D03*
X480060Y1135380D03*
D25*
X589160Y674780D03*
X584160Y674780D03*
D26*
X613910Y674780D03*
X606160Y674780D03*
D25*
X599160Y674780D03*
X594160Y674780D03*
X574160Y674780D03*
X579160Y674780D03*
D26*
X549410Y674780D03*
X557160Y674780D03*
D25*
X564160Y674780D03*
X569160Y674780D03*
D27*
X552760Y663730D03*
X610560Y663730D03*
D10*
X632460Y641430D03*
X632460Y651430D03*
X530860Y641430D03*
X530860Y651430D03*
D28*
X593160Y779780D03*
X570160Y779780D03*
D29*
X537210Y688280D03*
X549910Y688280D03*
X562610Y688280D03*
X575310Y688280D03*
X588010Y688280D03*
X600710Y688280D03*
X613410Y688280D03*
X626110Y688280D03*
X626110Y744280D03*
X613410Y744280D03*
X600710Y744280D03*
X588010Y744280D03*
X575310Y744280D03*
X562610Y744280D03*
X549910Y744280D03*
X537210Y744280D03*
D10*
X523160Y741680D03*
X513160Y741680D03*
X551260Y887730D03*
X561260Y887730D03*
D12*
X586940Y884240D02*
X586940Y891220D01*
X593920Y891220D01*
X593920Y884240D01*
X586940Y884240D01*
X586940Y889040D02*
X593920Y889040D01*
X569400Y891220D02*
X569400Y884240D01*
X569400Y891220D02*
X576380Y891220D01*
X576380Y884240D01*
X569400Y884240D01*
X569400Y889040D02*
X576380Y889040D01*
D30*
X523360Y916680D03*
X528360Y916680D03*
X533360Y916680D03*
X538360Y916680D03*
X538360Y896680D03*
X533360Y896680D03*
X528360Y896680D03*
X523360Y896680D03*
D31*
X530860Y906780D03*
D10*
X551260Y868680D03*
X561260Y868680D03*
X624760Y787400D03*
X614760Y787400D03*
D32*
X606759Y776580D03*
X606759Y767080D03*
X606759Y757580D03*
X632761Y757580D03*
X632761Y776580D03*
D10*
X538560Y767080D03*
X548560Y767080D03*
D33*
X679030Y1177550D03*
X690030Y1177550D03*
X690030Y1159250D03*
X679030Y1159250D03*
D10*
X689530Y1150620D03*
X679530Y1150620D03*
D34*
X539920Y782480D03*
X539920Y802480D03*
D35*
X487920Y758480D03*
X487920Y826480D03*
D10*
X789940Y825580D03*
X789940Y835580D03*
X810340Y868680D03*
X820340Y868680D03*
D11*
X755040Y842979D03*
X764540Y842979D03*
X774040Y842979D03*
X774040Y868981D03*
X755040Y868981D03*
D10*
X772240Y817880D03*
X782240Y817880D03*
X820340Y767080D03*
X810340Y767080D03*
D12*
X820620Y903290D02*
X820620Y910270D01*
X827600Y910270D01*
X827600Y903290D01*
X820620Y903290D01*
X820620Y908090D02*
X827600Y908090D01*
X803080Y910270D02*
X803080Y903290D01*
X803080Y910270D02*
X810060Y910270D01*
X810060Y903290D01*
X803080Y903290D01*
X803080Y908090D02*
X810060Y908090D01*
D10*
X784940Y906780D03*
X794940Y906780D03*
D11*
X805840Y830279D03*
X815340Y830279D03*
X824840Y830279D03*
X824840Y856281D03*
X805840Y856281D03*
D13*
X773040Y881380D03*
X756040Y881380D03*
X895740Y678180D03*
X912740Y678180D03*
D10*
X896540Y697230D03*
X886540Y697230D03*
X886540Y735330D03*
X896540Y735330D03*
D14*
X882340Y722780D03*
X900740Y716280D03*
X900740Y709780D03*
X900740Y722780D03*
X882340Y716280D03*
X882340Y709780D03*
D15*
X715090Y731580D03*
X715090Y675580D03*
D16*
X751840Y718580D03*
X751840Y708580D03*
X751840Y698580D03*
X751840Y688580D03*
D10*
X878840Y762080D03*
X878840Y772080D03*
X789940Y850980D03*
X789940Y860980D03*
D12*
X820620Y922340D02*
X820620Y929320D01*
X827600Y929320D01*
X827600Y922340D01*
X820620Y922340D01*
X820620Y927140D02*
X827600Y927140D01*
X803080Y929320D02*
X803080Y922340D01*
X803080Y929320D02*
X810060Y929320D01*
X810060Y922340D01*
X803080Y922340D01*
X803080Y927140D02*
X810060Y927140D01*
D10*
X784940Y925830D03*
X794940Y925830D03*
X845740Y843280D03*
X835740Y843280D03*
D17*
X713740Y1173480D03*
X923290Y647700D03*
D18*
X726440Y640080D03*
X904240Y640080D03*
D19*
X845640Y813690D03*
X845640Y829690D03*
X886640Y829690D03*
X886640Y813690D03*
X845640Y858140D03*
X845640Y874140D03*
X886640Y874140D03*
X886640Y858140D03*
D20*
X732960Y1123480D03*
X732960Y1110780D03*
X732960Y1098080D03*
X732960Y1085380D03*
X732960Y1072680D03*
X732960Y1059980D03*
X732960Y1047280D03*
X732960Y1034580D03*
X732960Y1021880D03*
X732960Y1009180D03*
X732960Y996480D03*
X732960Y983780D03*
X732960Y971080D03*
X732960Y958380D03*
D21*
X758190Y943480D03*
X770890Y943480D03*
X783590Y943480D03*
X796290Y943480D03*
X808990Y943480D03*
X821690Y943480D03*
X834390Y943480D03*
X847090Y943480D03*
X859790Y943480D03*
X872490Y943480D03*
D20*
X897720Y958380D03*
X897720Y971080D03*
X897720Y983780D03*
X897720Y996480D03*
X897720Y1009180D03*
X897720Y1021880D03*
X897720Y1034580D03*
X897720Y1047280D03*
X897720Y1059980D03*
X897720Y1072680D03*
X897720Y1085380D03*
X897720Y1098080D03*
X897720Y1110780D03*
X897720Y1123480D03*
D22*
X815340Y1046480D03*
D23*
X825340Y795680D03*
X825340Y814680D03*
X804340Y805180D03*
D24*
X916940Y754380D03*
X916940Y779780D03*
X916940Y805180D03*
X916940Y830580D03*
X916940Y855980D03*
X916940Y881380D03*
X916940Y906780D03*
X916940Y932180D03*
X916940Y957580D03*
X916940Y982980D03*
X916940Y1008380D03*
X916940Y1033780D03*
X916940Y1059180D03*
X916940Y1084580D03*
X916940Y1109980D03*
X916940Y1135380D03*
X713740Y855980D03*
X713740Y881380D03*
X713740Y906780D03*
X713740Y932180D03*
X713740Y957580D03*
X713740Y982980D03*
X713740Y1008380D03*
X713740Y1033780D03*
X713740Y1059180D03*
X713740Y1084580D03*
X713740Y1109980D03*
X713740Y1135380D03*
D25*
X822840Y674780D03*
X817840Y674780D03*
D26*
X847590Y674780D03*
X839840Y674780D03*
D25*
X832840Y674780D03*
X827840Y674780D03*
X807840Y674780D03*
X812840Y674780D03*
D26*
X783090Y674780D03*
X790840Y674780D03*
D25*
X797840Y674780D03*
X802840Y674780D03*
D27*
X786440Y663730D03*
X844240Y663730D03*
D10*
X866140Y641430D03*
X866140Y651430D03*
X764540Y641430D03*
X764540Y651430D03*
D28*
X826840Y779780D03*
X803840Y779780D03*
D29*
X770890Y688280D03*
X783590Y688280D03*
X796290Y688280D03*
X808990Y688280D03*
X821690Y688280D03*
X834390Y688280D03*
X847090Y688280D03*
X859790Y688280D03*
X859790Y744280D03*
X847090Y744280D03*
X834390Y744280D03*
X821690Y744280D03*
X808990Y744280D03*
X796290Y744280D03*
X783590Y744280D03*
X770890Y744280D03*
D10*
X756840Y741680D03*
X746840Y741680D03*
X784940Y887730D03*
X794940Y887730D03*
D12*
X820620Y884240D02*
X820620Y891220D01*
X827600Y891220D01*
X827600Y884240D01*
X820620Y884240D01*
X820620Y889040D02*
X827600Y889040D01*
X803080Y891220D02*
X803080Y884240D01*
X803080Y891220D02*
X810060Y891220D01*
X810060Y884240D01*
X803080Y884240D01*
X803080Y889040D02*
X810060Y889040D01*
D30*
X757040Y916680D03*
X762040Y916680D03*
X767040Y916680D03*
X772040Y916680D03*
X772040Y896680D03*
X767040Y896680D03*
X762040Y896680D03*
X757040Y896680D03*
D31*
X764540Y906780D03*
D10*
X784940Y868680D03*
X794940Y868680D03*
X858440Y787400D03*
X848440Y787400D03*
D32*
X840439Y776580D03*
X840439Y767080D03*
X840439Y757580D03*
X866441Y757580D03*
X866441Y776580D03*
D10*
X772240Y767080D03*
X782240Y767080D03*
D33*
X912710Y1177550D03*
X923710Y1177550D03*
X923710Y1159250D03*
X912710Y1159250D03*
D10*
X923210Y1150620D03*
X913210Y1150620D03*
D34*
X773600Y782480D03*
X773600Y802480D03*
D35*
X721600Y758480D03*
X721600Y826480D03*
D10*
X1023620Y825580D03*
X1023620Y835580D03*
X1044020Y868680D03*
X1054020Y868680D03*
D11*
X988720Y842979D03*
X998220Y842979D03*
X1007720Y842979D03*
X1007720Y868981D03*
X988720Y868981D03*
D10*
X1005920Y817880D03*
X1015920Y817880D03*
X1054020Y767080D03*
X1044020Y767080D03*
D12*
X1054300Y903290D02*
X1054300Y910270D01*
X1061280Y910270D01*
X1061280Y903290D01*
X1054300Y903290D01*
X1054300Y908090D02*
X1061280Y908090D01*
X1036760Y910270D02*
X1036760Y903290D01*
X1036760Y910270D02*
X1043740Y910270D01*
X1043740Y903290D01*
X1036760Y903290D01*
X1036760Y908090D02*
X1043740Y908090D01*
D10*
X1018620Y906780D03*
X1028620Y906780D03*
D11*
X1039520Y830279D03*
X1049020Y830279D03*
X1058520Y830279D03*
X1058520Y856281D03*
X1039520Y856281D03*
D13*
X1006720Y881380D03*
X989720Y881380D03*
X1129420Y678180D03*
X1146420Y678180D03*
D10*
X1130220Y697230D03*
X1120220Y697230D03*
X1120220Y735330D03*
X1130220Y735330D03*
D14*
X1116020Y722780D03*
X1134420Y716280D03*
X1134420Y709780D03*
X1134420Y722780D03*
X1116020Y716280D03*
X1116020Y709780D03*
D15*
X948770Y731580D03*
X948770Y675580D03*
D16*
X985520Y718580D03*
X985520Y708580D03*
X985520Y698580D03*
X985520Y688580D03*
D10*
X1112520Y762080D03*
X1112520Y772080D03*
X1023620Y850980D03*
X1023620Y860980D03*
D12*
X1054300Y922340D02*
X1054300Y929320D01*
X1061280Y929320D01*
X1061280Y922340D01*
X1054300Y922340D01*
X1054300Y927140D02*
X1061280Y927140D01*
X1036760Y929320D02*
X1036760Y922340D01*
X1036760Y929320D02*
X1043740Y929320D01*
X1043740Y922340D01*
X1036760Y922340D01*
X1036760Y927140D02*
X1043740Y927140D01*
D10*
X1018620Y925830D03*
X1028620Y925830D03*
X1079420Y843280D03*
X1069420Y843280D03*
D17*
X947420Y1173480D03*
X1156970Y647700D03*
D18*
X960120Y640080D03*
X1137920Y640080D03*
D19*
X1079320Y813690D03*
X1079320Y829690D03*
X1120320Y829690D03*
X1120320Y813690D03*
X1079320Y858140D03*
X1079320Y874140D03*
X1120320Y874140D03*
X1120320Y858140D03*
D20*
X966640Y1123480D03*
X966640Y1110780D03*
X966640Y1098080D03*
X966640Y1085380D03*
X966640Y1072680D03*
X966640Y1059980D03*
X966640Y1047280D03*
X966640Y1034580D03*
X966640Y1021880D03*
X966640Y1009180D03*
X966640Y996480D03*
X966640Y983780D03*
X966640Y971080D03*
X966640Y958380D03*
D21*
X991870Y943480D03*
X1004570Y943480D03*
X1017270Y943480D03*
X1029970Y943480D03*
X1042670Y943480D03*
X1055370Y943480D03*
X1068070Y943480D03*
X1080770Y943480D03*
X1093470Y943480D03*
X1106170Y943480D03*
D20*
X1131400Y958380D03*
X1131400Y971080D03*
X1131400Y983780D03*
X1131400Y996480D03*
X1131400Y1009180D03*
X1131400Y1021880D03*
X1131400Y1034580D03*
X1131400Y1047280D03*
X1131400Y1059980D03*
X1131400Y1072680D03*
X1131400Y1085380D03*
X1131400Y1098080D03*
X1131400Y1110780D03*
X1131400Y1123480D03*
D22*
X1049020Y1046480D03*
D23*
X1059020Y795680D03*
X1059020Y814680D03*
X1038020Y805180D03*
D24*
X1150620Y754380D03*
X1150620Y779780D03*
X1150620Y805180D03*
X1150620Y830580D03*
X1150620Y855980D03*
X1150620Y881380D03*
X1150620Y906780D03*
X1150620Y932180D03*
X1150620Y957580D03*
X1150620Y982980D03*
X1150620Y1008380D03*
X1150620Y1033780D03*
X1150620Y1059180D03*
X1150620Y1084580D03*
X1150620Y1109980D03*
X1150620Y1135380D03*
X947420Y855980D03*
X947420Y881380D03*
X947420Y906780D03*
X947420Y932180D03*
X947420Y957580D03*
X947420Y982980D03*
X947420Y1008380D03*
X947420Y1033780D03*
X947420Y1059180D03*
X947420Y1084580D03*
X947420Y1109980D03*
X947420Y1135380D03*
D25*
X1056520Y674780D03*
X1051520Y674780D03*
D26*
X1081270Y674780D03*
X1073520Y674780D03*
D25*
X1066520Y674780D03*
X1061520Y674780D03*
X1041520Y674780D03*
X1046520Y674780D03*
D26*
X1016770Y674780D03*
X1024520Y674780D03*
D25*
X1031520Y674780D03*
X1036520Y674780D03*
D27*
X1020120Y663730D03*
X1077920Y663730D03*
D10*
X1099820Y641430D03*
X1099820Y651430D03*
X998220Y641430D03*
X998220Y651430D03*
D28*
X1060520Y779780D03*
X1037520Y779780D03*
D29*
X1004570Y688280D03*
X1017270Y688280D03*
X1029970Y688280D03*
X1042670Y688280D03*
X1055370Y688280D03*
X1068070Y688280D03*
X1080770Y688280D03*
X1093470Y688280D03*
X1093470Y744280D03*
X1080770Y744280D03*
X1068070Y744280D03*
X1055370Y744280D03*
X1042670Y744280D03*
X1029970Y744280D03*
X1017270Y744280D03*
X1004570Y744280D03*
D10*
X990520Y741680D03*
X980520Y741680D03*
X1018620Y887730D03*
X1028620Y887730D03*
D12*
X1054300Y884240D02*
X1054300Y891220D01*
X1061280Y891220D01*
X1061280Y884240D01*
X1054300Y884240D01*
X1054300Y889040D02*
X1061280Y889040D01*
X1036760Y891220D02*
X1036760Y884240D01*
X1036760Y891220D02*
X1043740Y891220D01*
X1043740Y884240D01*
X1036760Y884240D01*
X1036760Y889040D02*
X1043740Y889040D01*
D30*
X990720Y916680D03*
X995720Y916680D03*
X1000720Y916680D03*
X1005720Y916680D03*
X1005720Y896680D03*
X1000720Y896680D03*
X995720Y896680D03*
X990720Y896680D03*
D31*
X998220Y906780D03*
D10*
X1018620Y868680D03*
X1028620Y868680D03*
X1092120Y787400D03*
X1082120Y787400D03*
D32*
X1074119Y776580D03*
X1074119Y767080D03*
X1074119Y757580D03*
X1100121Y757580D03*
X1100121Y776580D03*
D10*
X1005920Y767080D03*
X1015920Y767080D03*
D33*
X1146390Y1177550D03*
X1157390Y1177550D03*
X1157390Y1159250D03*
X1146390Y1159250D03*
D10*
X1156890Y1150620D03*
X1146890Y1150620D03*
D34*
X1007280Y782480D03*
X1007280Y802480D03*
D35*
X955280Y758480D03*
X955280Y826480D03*
D36*
X68580Y1245235D03*
X1094105Y1245235D03*
D37*
X59525Y-46355D02*
X59528Y-46133D01*
X59536Y-45911D01*
X59550Y-45689D01*
X59569Y-45467D01*
X59593Y-45247D01*
X59623Y-45026D01*
X59658Y-44807D01*
X59699Y-44588D01*
X59745Y-44371D01*
X59796Y-44155D01*
X59853Y-43940D01*
X59915Y-43726D01*
X59982Y-43515D01*
X60054Y-43304D01*
X60132Y-43096D01*
X60214Y-42890D01*
X60302Y-42686D01*
X60394Y-42483D01*
X60492Y-42284D01*
X60594Y-42087D01*
X60701Y-41892D01*
X60813Y-41700D01*
X60930Y-41511D01*
X61051Y-41324D01*
X61177Y-41141D01*
X61307Y-40961D01*
X61442Y-40784D01*
X61580Y-40611D01*
X61723Y-40441D01*
X61871Y-40274D01*
X62022Y-40111D01*
X62177Y-39952D01*
X62336Y-39797D01*
X62499Y-39646D01*
X62666Y-39498D01*
X62836Y-39355D01*
X63009Y-39217D01*
X63186Y-39082D01*
X63366Y-38952D01*
X63549Y-38826D01*
X63736Y-38705D01*
X63925Y-38588D01*
X64117Y-38476D01*
X64312Y-38369D01*
X64509Y-38267D01*
X64708Y-38169D01*
X64911Y-38077D01*
X65115Y-37989D01*
X65321Y-37907D01*
X65529Y-37829D01*
X65740Y-37757D01*
X65951Y-37690D01*
X66165Y-37628D01*
X66380Y-37571D01*
X66596Y-37520D01*
X66813Y-37474D01*
X67032Y-37433D01*
X67251Y-37398D01*
X67472Y-37368D01*
X67692Y-37344D01*
X67914Y-37325D01*
X68136Y-37311D01*
X68358Y-37303D01*
X68580Y-37300D01*
X68802Y-37303D01*
X69024Y-37311D01*
X69246Y-37325D01*
X69468Y-37344D01*
X69688Y-37368D01*
X69909Y-37398D01*
X70128Y-37433D01*
X70347Y-37474D01*
X70564Y-37520D01*
X70780Y-37571D01*
X70995Y-37628D01*
X71209Y-37690D01*
X71420Y-37757D01*
X71631Y-37829D01*
X71839Y-37907D01*
X72045Y-37989D01*
X72249Y-38077D01*
X72452Y-38169D01*
X72651Y-38267D01*
X72848Y-38369D01*
X73043Y-38476D01*
X73235Y-38588D01*
X73424Y-38705D01*
X73611Y-38826D01*
X73794Y-38952D01*
X73974Y-39082D01*
X74151Y-39217D01*
X74324Y-39355D01*
X74494Y-39498D01*
X74661Y-39646D01*
X74824Y-39797D01*
X74983Y-39952D01*
X75138Y-40111D01*
X75289Y-40274D01*
X75437Y-40441D01*
X75580Y-40611D01*
X75718Y-40784D01*
X75853Y-40961D01*
X75983Y-41141D01*
X76109Y-41324D01*
X76230Y-41511D01*
X76347Y-41700D01*
X76459Y-41892D01*
X76566Y-42087D01*
X76668Y-42284D01*
X76766Y-42483D01*
X76858Y-42686D01*
X76946Y-42890D01*
X77028Y-43096D01*
X77106Y-43304D01*
X77178Y-43515D01*
X77245Y-43726D01*
X77307Y-43940D01*
X77364Y-44155D01*
X77415Y-44371D01*
X77461Y-44588D01*
X77502Y-44807D01*
X77537Y-45026D01*
X77567Y-45247D01*
X77591Y-45467D01*
X77610Y-45689D01*
X77624Y-45911D01*
X77632Y-46133D01*
X77635Y-46355D01*
X77632Y-46577D01*
X77624Y-46799D01*
X77610Y-47021D01*
X77591Y-47243D01*
X77567Y-47463D01*
X77537Y-47684D01*
X77502Y-47903D01*
X77461Y-48122D01*
X77415Y-48339D01*
X77364Y-48555D01*
X77307Y-48770D01*
X77245Y-48984D01*
X77178Y-49195D01*
X77106Y-49406D01*
X77028Y-49614D01*
X76946Y-49820D01*
X76858Y-50024D01*
X76766Y-50227D01*
X76668Y-50426D01*
X76566Y-50623D01*
X76459Y-50818D01*
X76347Y-51010D01*
X76230Y-51199D01*
X76109Y-51386D01*
X75983Y-51569D01*
X75853Y-51749D01*
X75718Y-51926D01*
X75580Y-52099D01*
X75437Y-52269D01*
X75289Y-52436D01*
X75138Y-52599D01*
X74983Y-52758D01*
X74824Y-52913D01*
X74661Y-53064D01*
X74494Y-53212D01*
X74324Y-53355D01*
X74151Y-53493D01*
X73974Y-53628D01*
X73794Y-53758D01*
X73611Y-53884D01*
X73424Y-54005D01*
X73235Y-54122D01*
X73043Y-54234D01*
X72848Y-54341D01*
X72651Y-54443D01*
X72452Y-54541D01*
X72249Y-54633D01*
X72045Y-54721D01*
X71839Y-54803D01*
X71631Y-54881D01*
X71420Y-54953D01*
X71209Y-55020D01*
X70995Y-55082D01*
X70780Y-55139D01*
X70564Y-55190D01*
X70347Y-55236D01*
X70128Y-55277D01*
X69909Y-55312D01*
X69688Y-55342D01*
X69468Y-55366D01*
X69246Y-55385D01*
X69024Y-55399D01*
X68802Y-55407D01*
X68580Y-55410D01*
X68358Y-55407D01*
X68136Y-55399D01*
X67914Y-55385D01*
X67692Y-55366D01*
X67472Y-55342D01*
X67251Y-55312D01*
X67032Y-55277D01*
X66813Y-55236D01*
X66596Y-55190D01*
X66380Y-55139D01*
X66165Y-55082D01*
X65951Y-55020D01*
X65740Y-54953D01*
X65529Y-54881D01*
X65321Y-54803D01*
X65115Y-54721D01*
X64911Y-54633D01*
X64708Y-54541D01*
X64509Y-54443D01*
X64312Y-54341D01*
X64117Y-54234D01*
X63925Y-54122D01*
X63736Y-54005D01*
X63549Y-53884D01*
X63366Y-53758D01*
X63186Y-53628D01*
X63009Y-53493D01*
X62836Y-53355D01*
X62666Y-53212D01*
X62499Y-53064D01*
X62336Y-52913D01*
X62177Y-52758D01*
X62022Y-52599D01*
X61871Y-52436D01*
X61723Y-52269D01*
X61580Y-52099D01*
X61442Y-51926D01*
X61307Y-51749D01*
X61177Y-51569D01*
X61051Y-51386D01*
X60930Y-51199D01*
X60813Y-51010D01*
X60701Y-50818D01*
X60594Y-50623D01*
X60492Y-50426D01*
X60394Y-50227D01*
X60302Y-50024D01*
X60214Y-49820D01*
X60132Y-49614D01*
X60054Y-49406D01*
X59982Y-49195D01*
X59915Y-48984D01*
X59853Y-48770D01*
X59796Y-48555D01*
X59745Y-48339D01*
X59699Y-48122D01*
X59658Y-47903D01*
X59623Y-47684D01*
X59593Y-47463D01*
X59569Y-47243D01*
X59550Y-47021D01*
X59536Y-46799D01*
X59528Y-46577D01*
X59525Y-46355D01*
D38*
X68580Y-46355D03*
M02*
