G04 EAGLE Gerber RS-274X export*
G75*
%MOMM*%
%FSLAX34Y34*%
%LPD*%
%INSoldermask Bottom*%
%IPPOS*%
%AMOC8*
5,1,8,0,0,1.08239X$1,22.5*%
G01*
%ADD10C,0.838200*%
%ADD11C,1.473200*%
%ADD12C,3.251200*%
%ADD13C,2.082800*%
%ADD14C,0.853200*%
%ADD15R,0.863600X1.473200*%
%ADD16R,1.603200X2.003200*%
%ADD17R,2.103200X1.603200*%
%ADD18R,1.703200X1.003200*%
%ADD19C,1.203200*%
%ADD20C,1.270000*%
%ADD21C,1.703200*%

G36*
X1012890Y879487D02*
X1012890Y879487D01*
X1012956Y879489D01*
X1012999Y879507D01*
X1013046Y879515D01*
X1013103Y879549D01*
X1013163Y879574D01*
X1013198Y879605D01*
X1013239Y879630D01*
X1013281Y879681D01*
X1013329Y879725D01*
X1013351Y879767D01*
X1013380Y879804D01*
X1013401Y879866D01*
X1013432Y879925D01*
X1013440Y879979D01*
X1013452Y880016D01*
X1013451Y880056D01*
X1013459Y880110D01*
X1013459Y882650D01*
X1013448Y882715D01*
X1013446Y882781D01*
X1013428Y882824D01*
X1013420Y882871D01*
X1013386Y882928D01*
X1013361Y882988D01*
X1013330Y883023D01*
X1013305Y883064D01*
X1013254Y883106D01*
X1013210Y883154D01*
X1013168Y883176D01*
X1013131Y883205D01*
X1013069Y883226D01*
X1013010Y883257D01*
X1012956Y883265D01*
X1012919Y883277D01*
X1012879Y883276D01*
X1012825Y883284D01*
X1009015Y883284D01*
X1008950Y883273D01*
X1008884Y883271D01*
X1008841Y883253D01*
X1008794Y883245D01*
X1008737Y883211D01*
X1008677Y883186D01*
X1008642Y883155D01*
X1008601Y883130D01*
X1008560Y883079D01*
X1008511Y883035D01*
X1008489Y882993D01*
X1008460Y882956D01*
X1008439Y882894D01*
X1008408Y882835D01*
X1008400Y882781D01*
X1008388Y882744D01*
X1008388Y882741D01*
X1008389Y882704D01*
X1008381Y882650D01*
X1008381Y880110D01*
X1008392Y880045D01*
X1008394Y879979D01*
X1008412Y879936D01*
X1008420Y879889D01*
X1008454Y879832D01*
X1008479Y879772D01*
X1008510Y879737D01*
X1008535Y879696D01*
X1008586Y879655D01*
X1008630Y879606D01*
X1008672Y879584D01*
X1008709Y879555D01*
X1008771Y879534D01*
X1008830Y879503D01*
X1008884Y879495D01*
X1008921Y879483D01*
X1008961Y879484D01*
X1009015Y879476D01*
X1012825Y879476D01*
X1012890Y879487D01*
G37*
G36*
X779210Y879487D02*
X779210Y879487D01*
X779276Y879489D01*
X779319Y879507D01*
X779366Y879515D01*
X779423Y879549D01*
X779483Y879574D01*
X779518Y879605D01*
X779559Y879630D01*
X779601Y879681D01*
X779649Y879725D01*
X779671Y879767D01*
X779700Y879804D01*
X779721Y879866D01*
X779752Y879925D01*
X779760Y879979D01*
X779772Y880016D01*
X779771Y880056D01*
X779779Y880110D01*
X779779Y882650D01*
X779768Y882715D01*
X779766Y882781D01*
X779748Y882824D01*
X779740Y882871D01*
X779706Y882928D01*
X779681Y882988D01*
X779650Y883023D01*
X779625Y883064D01*
X779574Y883106D01*
X779530Y883154D01*
X779488Y883176D01*
X779451Y883205D01*
X779389Y883226D01*
X779330Y883257D01*
X779276Y883265D01*
X779239Y883277D01*
X779199Y883276D01*
X779145Y883284D01*
X775335Y883284D01*
X775270Y883273D01*
X775204Y883271D01*
X775161Y883253D01*
X775114Y883245D01*
X775057Y883211D01*
X774997Y883186D01*
X774962Y883155D01*
X774921Y883130D01*
X774880Y883079D01*
X774831Y883035D01*
X774809Y882993D01*
X774780Y882956D01*
X774759Y882894D01*
X774728Y882835D01*
X774720Y882781D01*
X774708Y882744D01*
X774708Y882741D01*
X774709Y882704D01*
X774701Y882650D01*
X774701Y880110D01*
X774712Y880045D01*
X774714Y879979D01*
X774732Y879936D01*
X774740Y879889D01*
X774774Y879832D01*
X774799Y879772D01*
X774830Y879737D01*
X774855Y879696D01*
X774906Y879655D01*
X774950Y879606D01*
X774992Y879584D01*
X775029Y879555D01*
X775091Y879534D01*
X775150Y879503D01*
X775204Y879495D01*
X775241Y879483D01*
X775281Y879484D01*
X775335Y879476D01*
X779145Y879476D01*
X779210Y879487D01*
G37*
G36*
X545530Y879487D02*
X545530Y879487D01*
X545596Y879489D01*
X545639Y879507D01*
X545686Y879515D01*
X545743Y879549D01*
X545803Y879574D01*
X545838Y879605D01*
X545879Y879630D01*
X545921Y879681D01*
X545969Y879725D01*
X545991Y879767D01*
X546020Y879804D01*
X546041Y879866D01*
X546072Y879925D01*
X546080Y879979D01*
X546092Y880016D01*
X546091Y880056D01*
X546099Y880110D01*
X546099Y882650D01*
X546088Y882715D01*
X546086Y882781D01*
X546068Y882824D01*
X546060Y882871D01*
X546026Y882928D01*
X546001Y882988D01*
X545970Y883023D01*
X545945Y883064D01*
X545894Y883106D01*
X545850Y883154D01*
X545808Y883176D01*
X545771Y883205D01*
X545709Y883226D01*
X545650Y883257D01*
X545596Y883265D01*
X545559Y883277D01*
X545519Y883276D01*
X545465Y883284D01*
X541655Y883284D01*
X541590Y883273D01*
X541524Y883271D01*
X541481Y883253D01*
X541434Y883245D01*
X541377Y883211D01*
X541317Y883186D01*
X541282Y883155D01*
X541241Y883130D01*
X541200Y883079D01*
X541151Y883035D01*
X541129Y882993D01*
X541100Y882956D01*
X541079Y882894D01*
X541048Y882835D01*
X541040Y882781D01*
X541028Y882744D01*
X541028Y882741D01*
X541029Y882704D01*
X541021Y882650D01*
X541021Y880110D01*
X541032Y880045D01*
X541034Y879979D01*
X541052Y879936D01*
X541060Y879889D01*
X541094Y879832D01*
X541119Y879772D01*
X541150Y879737D01*
X541175Y879696D01*
X541226Y879655D01*
X541270Y879606D01*
X541312Y879584D01*
X541349Y879555D01*
X541411Y879534D01*
X541470Y879503D01*
X541524Y879495D01*
X541561Y879483D01*
X541601Y879484D01*
X541655Y879476D01*
X545465Y879476D01*
X545530Y879487D01*
G37*
G36*
X311850Y879487D02*
X311850Y879487D01*
X311916Y879489D01*
X311959Y879507D01*
X312006Y879515D01*
X312063Y879549D01*
X312123Y879574D01*
X312158Y879605D01*
X312199Y879630D01*
X312241Y879681D01*
X312289Y879725D01*
X312311Y879767D01*
X312340Y879804D01*
X312361Y879866D01*
X312392Y879925D01*
X312400Y879979D01*
X312412Y880016D01*
X312411Y880056D01*
X312419Y880110D01*
X312419Y882650D01*
X312408Y882715D01*
X312406Y882781D01*
X312388Y882824D01*
X312380Y882871D01*
X312346Y882928D01*
X312321Y882988D01*
X312290Y883023D01*
X312265Y883064D01*
X312214Y883106D01*
X312170Y883154D01*
X312128Y883176D01*
X312091Y883205D01*
X312029Y883226D01*
X311970Y883257D01*
X311916Y883265D01*
X311879Y883277D01*
X311839Y883276D01*
X311785Y883284D01*
X307975Y883284D01*
X307910Y883273D01*
X307844Y883271D01*
X307801Y883253D01*
X307754Y883245D01*
X307697Y883211D01*
X307637Y883186D01*
X307602Y883155D01*
X307561Y883130D01*
X307520Y883079D01*
X307471Y883035D01*
X307449Y882993D01*
X307420Y882956D01*
X307399Y882894D01*
X307368Y882835D01*
X307360Y882781D01*
X307348Y882744D01*
X307348Y882741D01*
X307349Y882704D01*
X307341Y882650D01*
X307341Y880110D01*
X307352Y880045D01*
X307354Y879979D01*
X307372Y879936D01*
X307380Y879889D01*
X307414Y879832D01*
X307439Y879772D01*
X307470Y879737D01*
X307495Y879696D01*
X307546Y879655D01*
X307590Y879606D01*
X307632Y879584D01*
X307669Y879555D01*
X307731Y879534D01*
X307790Y879503D01*
X307844Y879495D01*
X307881Y879483D01*
X307921Y879484D01*
X307975Y879476D01*
X311785Y879476D01*
X311850Y879487D01*
G37*
G36*
X78170Y879487D02*
X78170Y879487D01*
X78236Y879489D01*
X78279Y879507D01*
X78326Y879515D01*
X78383Y879549D01*
X78443Y879574D01*
X78478Y879605D01*
X78519Y879630D01*
X78561Y879681D01*
X78609Y879725D01*
X78631Y879767D01*
X78660Y879804D01*
X78681Y879866D01*
X78712Y879925D01*
X78720Y879979D01*
X78732Y880016D01*
X78731Y880056D01*
X78739Y880110D01*
X78739Y882650D01*
X78728Y882715D01*
X78726Y882781D01*
X78708Y882824D01*
X78700Y882871D01*
X78666Y882928D01*
X78641Y882988D01*
X78610Y883023D01*
X78585Y883064D01*
X78534Y883106D01*
X78490Y883154D01*
X78448Y883176D01*
X78411Y883205D01*
X78349Y883226D01*
X78290Y883257D01*
X78236Y883265D01*
X78199Y883277D01*
X78159Y883276D01*
X78105Y883284D01*
X74295Y883284D01*
X74230Y883273D01*
X74164Y883271D01*
X74121Y883253D01*
X74074Y883245D01*
X74017Y883211D01*
X73957Y883186D01*
X73922Y883155D01*
X73881Y883130D01*
X73840Y883079D01*
X73791Y883035D01*
X73769Y882993D01*
X73740Y882956D01*
X73719Y882894D01*
X73688Y882835D01*
X73680Y882781D01*
X73668Y882744D01*
X73668Y882741D01*
X73669Y882704D01*
X73661Y882650D01*
X73661Y880110D01*
X73672Y880045D01*
X73674Y879979D01*
X73692Y879936D01*
X73700Y879889D01*
X73734Y879832D01*
X73759Y879772D01*
X73790Y879737D01*
X73815Y879696D01*
X73866Y879655D01*
X73910Y879606D01*
X73952Y879584D01*
X73989Y879555D01*
X74051Y879534D01*
X74110Y879503D01*
X74164Y879495D01*
X74201Y879483D01*
X74241Y879484D01*
X74295Y879476D01*
X78105Y879476D01*
X78170Y879487D01*
G37*
G36*
X1012890Y264807D02*
X1012890Y264807D01*
X1012956Y264809D01*
X1012999Y264827D01*
X1013046Y264835D01*
X1013103Y264869D01*
X1013163Y264894D01*
X1013198Y264925D01*
X1013239Y264950D01*
X1013281Y265001D01*
X1013329Y265045D01*
X1013351Y265087D01*
X1013380Y265124D01*
X1013401Y265186D01*
X1013432Y265245D01*
X1013440Y265299D01*
X1013452Y265336D01*
X1013451Y265376D01*
X1013459Y265430D01*
X1013459Y267970D01*
X1013448Y268035D01*
X1013446Y268101D01*
X1013428Y268144D01*
X1013420Y268191D01*
X1013386Y268248D01*
X1013361Y268308D01*
X1013330Y268343D01*
X1013305Y268384D01*
X1013254Y268426D01*
X1013210Y268474D01*
X1013168Y268496D01*
X1013131Y268525D01*
X1013069Y268546D01*
X1013010Y268577D01*
X1012956Y268585D01*
X1012919Y268597D01*
X1012879Y268596D01*
X1012825Y268604D01*
X1009015Y268604D01*
X1008950Y268593D01*
X1008884Y268591D01*
X1008841Y268573D01*
X1008794Y268565D01*
X1008737Y268531D01*
X1008677Y268506D01*
X1008642Y268475D01*
X1008601Y268450D01*
X1008560Y268399D01*
X1008511Y268355D01*
X1008489Y268313D01*
X1008460Y268276D01*
X1008439Y268214D01*
X1008408Y268155D01*
X1008400Y268101D01*
X1008388Y268064D01*
X1008388Y268061D01*
X1008389Y268024D01*
X1008381Y267970D01*
X1008381Y265430D01*
X1008392Y265365D01*
X1008394Y265299D01*
X1008412Y265256D01*
X1008420Y265209D01*
X1008454Y265152D01*
X1008479Y265092D01*
X1008510Y265057D01*
X1008535Y265016D01*
X1008586Y264975D01*
X1008630Y264926D01*
X1008672Y264904D01*
X1008709Y264875D01*
X1008771Y264854D01*
X1008830Y264823D01*
X1008884Y264815D01*
X1008921Y264803D01*
X1008961Y264804D01*
X1009015Y264796D01*
X1012825Y264796D01*
X1012890Y264807D01*
G37*
G36*
X779210Y264807D02*
X779210Y264807D01*
X779276Y264809D01*
X779319Y264827D01*
X779366Y264835D01*
X779423Y264869D01*
X779483Y264894D01*
X779518Y264925D01*
X779559Y264950D01*
X779601Y265001D01*
X779649Y265045D01*
X779671Y265087D01*
X779700Y265124D01*
X779721Y265186D01*
X779752Y265245D01*
X779760Y265299D01*
X779772Y265336D01*
X779771Y265376D01*
X779779Y265430D01*
X779779Y267970D01*
X779768Y268035D01*
X779766Y268101D01*
X779748Y268144D01*
X779740Y268191D01*
X779706Y268248D01*
X779681Y268308D01*
X779650Y268343D01*
X779625Y268384D01*
X779574Y268426D01*
X779530Y268474D01*
X779488Y268496D01*
X779451Y268525D01*
X779389Y268546D01*
X779330Y268577D01*
X779276Y268585D01*
X779239Y268597D01*
X779199Y268596D01*
X779145Y268604D01*
X775335Y268604D01*
X775270Y268593D01*
X775204Y268591D01*
X775161Y268573D01*
X775114Y268565D01*
X775057Y268531D01*
X774997Y268506D01*
X774962Y268475D01*
X774921Y268450D01*
X774880Y268399D01*
X774831Y268355D01*
X774809Y268313D01*
X774780Y268276D01*
X774759Y268214D01*
X774728Y268155D01*
X774720Y268101D01*
X774708Y268064D01*
X774708Y268061D01*
X774709Y268024D01*
X774701Y267970D01*
X774701Y265430D01*
X774712Y265365D01*
X774714Y265299D01*
X774732Y265256D01*
X774740Y265209D01*
X774774Y265152D01*
X774799Y265092D01*
X774830Y265057D01*
X774855Y265016D01*
X774906Y264975D01*
X774950Y264926D01*
X774992Y264904D01*
X775029Y264875D01*
X775091Y264854D01*
X775150Y264823D01*
X775204Y264815D01*
X775241Y264803D01*
X775281Y264804D01*
X775335Y264796D01*
X779145Y264796D01*
X779210Y264807D01*
G37*
G36*
X545530Y264807D02*
X545530Y264807D01*
X545596Y264809D01*
X545639Y264827D01*
X545686Y264835D01*
X545743Y264869D01*
X545803Y264894D01*
X545838Y264925D01*
X545879Y264950D01*
X545921Y265001D01*
X545969Y265045D01*
X545991Y265087D01*
X546020Y265124D01*
X546041Y265186D01*
X546072Y265245D01*
X546080Y265299D01*
X546092Y265336D01*
X546091Y265376D01*
X546099Y265430D01*
X546099Y267970D01*
X546088Y268035D01*
X546086Y268101D01*
X546068Y268144D01*
X546060Y268191D01*
X546026Y268248D01*
X546001Y268308D01*
X545970Y268343D01*
X545945Y268384D01*
X545894Y268426D01*
X545850Y268474D01*
X545808Y268496D01*
X545771Y268525D01*
X545709Y268546D01*
X545650Y268577D01*
X545596Y268585D01*
X545559Y268597D01*
X545519Y268596D01*
X545465Y268604D01*
X541655Y268604D01*
X541590Y268593D01*
X541524Y268591D01*
X541481Y268573D01*
X541434Y268565D01*
X541377Y268531D01*
X541317Y268506D01*
X541282Y268475D01*
X541241Y268450D01*
X541200Y268399D01*
X541151Y268355D01*
X541129Y268313D01*
X541100Y268276D01*
X541079Y268214D01*
X541048Y268155D01*
X541040Y268101D01*
X541028Y268064D01*
X541028Y268061D01*
X541029Y268024D01*
X541021Y267970D01*
X541021Y265430D01*
X541032Y265365D01*
X541034Y265299D01*
X541052Y265256D01*
X541060Y265209D01*
X541094Y265152D01*
X541119Y265092D01*
X541150Y265057D01*
X541175Y265016D01*
X541226Y264975D01*
X541270Y264926D01*
X541312Y264904D01*
X541349Y264875D01*
X541411Y264854D01*
X541470Y264823D01*
X541524Y264815D01*
X541561Y264803D01*
X541601Y264804D01*
X541655Y264796D01*
X545465Y264796D01*
X545530Y264807D01*
G37*
G36*
X311850Y264807D02*
X311850Y264807D01*
X311916Y264809D01*
X311959Y264827D01*
X312006Y264835D01*
X312063Y264869D01*
X312123Y264894D01*
X312158Y264925D01*
X312199Y264950D01*
X312241Y265001D01*
X312289Y265045D01*
X312311Y265087D01*
X312340Y265124D01*
X312361Y265186D01*
X312392Y265245D01*
X312400Y265299D01*
X312412Y265336D01*
X312411Y265376D01*
X312419Y265430D01*
X312419Y267970D01*
X312408Y268035D01*
X312406Y268101D01*
X312388Y268144D01*
X312380Y268191D01*
X312346Y268248D01*
X312321Y268308D01*
X312290Y268343D01*
X312265Y268384D01*
X312214Y268426D01*
X312170Y268474D01*
X312128Y268496D01*
X312091Y268525D01*
X312029Y268546D01*
X311970Y268577D01*
X311916Y268585D01*
X311879Y268597D01*
X311839Y268596D01*
X311785Y268604D01*
X307975Y268604D01*
X307910Y268593D01*
X307844Y268591D01*
X307801Y268573D01*
X307754Y268565D01*
X307697Y268531D01*
X307637Y268506D01*
X307602Y268475D01*
X307561Y268450D01*
X307520Y268399D01*
X307471Y268355D01*
X307449Y268313D01*
X307420Y268276D01*
X307399Y268214D01*
X307368Y268155D01*
X307360Y268101D01*
X307348Y268064D01*
X307348Y268061D01*
X307349Y268024D01*
X307341Y267970D01*
X307341Y265430D01*
X307352Y265365D01*
X307354Y265299D01*
X307372Y265256D01*
X307380Y265209D01*
X307414Y265152D01*
X307439Y265092D01*
X307470Y265057D01*
X307495Y265016D01*
X307546Y264975D01*
X307590Y264926D01*
X307632Y264904D01*
X307669Y264875D01*
X307731Y264854D01*
X307790Y264823D01*
X307844Y264815D01*
X307881Y264803D01*
X307921Y264804D01*
X307975Y264796D01*
X311785Y264796D01*
X311850Y264807D01*
G37*
G36*
X78170Y264807D02*
X78170Y264807D01*
X78236Y264809D01*
X78279Y264827D01*
X78326Y264835D01*
X78383Y264869D01*
X78443Y264894D01*
X78478Y264925D01*
X78519Y264950D01*
X78561Y265001D01*
X78609Y265045D01*
X78631Y265087D01*
X78660Y265124D01*
X78681Y265186D01*
X78712Y265245D01*
X78720Y265299D01*
X78732Y265336D01*
X78731Y265376D01*
X78739Y265430D01*
X78739Y267970D01*
X78728Y268035D01*
X78726Y268101D01*
X78708Y268144D01*
X78700Y268191D01*
X78666Y268248D01*
X78641Y268308D01*
X78610Y268343D01*
X78585Y268384D01*
X78534Y268426D01*
X78490Y268474D01*
X78448Y268496D01*
X78411Y268525D01*
X78349Y268546D01*
X78290Y268577D01*
X78236Y268585D01*
X78199Y268597D01*
X78159Y268596D01*
X78105Y268604D01*
X74295Y268604D01*
X74230Y268593D01*
X74164Y268591D01*
X74121Y268573D01*
X74074Y268565D01*
X74017Y268531D01*
X73957Y268506D01*
X73922Y268475D01*
X73881Y268450D01*
X73840Y268399D01*
X73791Y268355D01*
X73769Y268313D01*
X73740Y268276D01*
X73719Y268214D01*
X73688Y268155D01*
X73680Y268101D01*
X73668Y268064D01*
X73668Y268061D01*
X73669Y268024D01*
X73661Y267970D01*
X73661Y265430D01*
X73672Y265365D01*
X73674Y265299D01*
X73692Y265256D01*
X73700Y265209D01*
X73734Y265152D01*
X73759Y265092D01*
X73790Y265057D01*
X73815Y265016D01*
X73866Y264975D01*
X73910Y264926D01*
X73952Y264904D01*
X73989Y264875D01*
X74051Y264854D01*
X74110Y264823D01*
X74164Y264815D01*
X74201Y264803D01*
X74241Y264804D01*
X74295Y264796D01*
X78105Y264796D01*
X78170Y264807D01*
G37*
D10*
X12700Y558800D03*
X222250Y33020D03*
D11*
X203200Y101600D03*
D12*
X25400Y25400D03*
X203200Y25400D03*
D13*
X215900Y139700D03*
X215900Y165100D03*
X215900Y190500D03*
X215900Y215900D03*
X215900Y241300D03*
X215900Y266700D03*
X215900Y292100D03*
X215900Y317500D03*
X215900Y342900D03*
X215900Y368300D03*
X215900Y393700D03*
X215900Y419100D03*
X215900Y444500D03*
X215900Y469900D03*
X215900Y495300D03*
X215900Y520700D03*
X12700Y241300D03*
X12700Y266700D03*
X12700Y292100D03*
X12700Y317500D03*
X12700Y342900D03*
X12700Y368300D03*
X12700Y393700D03*
X12700Y419100D03*
X12700Y444500D03*
X12700Y469900D03*
X12700Y495300D03*
X12700Y520700D03*
D14*
X85400Y49050D03*
X143200Y49050D03*
D15*
X81407Y266700D03*
X70993Y266700D03*
D16*
X178880Y154970D03*
X178880Y97970D03*
D17*
X47380Y81970D03*
X37380Y213470D03*
D18*
X75880Y166870D03*
X79880Y155870D03*
X75880Y144870D03*
X73880Y133870D03*
X75880Y122870D03*
X73880Y111870D03*
X75880Y100870D03*
X75880Y89870D03*
D11*
X218440Y562610D03*
X132080Y516890D03*
X90170Y400050D03*
D10*
X246380Y558800D03*
X455930Y33020D03*
D11*
X436880Y101600D03*
D12*
X259080Y25400D03*
X436880Y25400D03*
D13*
X449580Y139700D03*
X449580Y165100D03*
X449580Y190500D03*
X449580Y215900D03*
X449580Y241300D03*
X449580Y266700D03*
X449580Y292100D03*
X449580Y317500D03*
X449580Y342900D03*
X449580Y368300D03*
X449580Y393700D03*
X449580Y419100D03*
X449580Y444500D03*
X449580Y469900D03*
X449580Y495300D03*
X449580Y520700D03*
X246380Y241300D03*
X246380Y266700D03*
X246380Y292100D03*
X246380Y317500D03*
X246380Y342900D03*
X246380Y368300D03*
X246380Y393700D03*
X246380Y419100D03*
X246380Y444500D03*
X246380Y469900D03*
X246380Y495300D03*
X246380Y520700D03*
D14*
X319080Y49050D03*
X376880Y49050D03*
D15*
X315087Y266700D03*
X304673Y266700D03*
D16*
X412560Y154970D03*
X412560Y97970D03*
D17*
X281060Y81970D03*
X271060Y213470D03*
D18*
X309560Y166870D03*
X313560Y155870D03*
X309560Y144870D03*
X307560Y133870D03*
X309560Y122870D03*
X307560Y111870D03*
X309560Y100870D03*
X309560Y89870D03*
D11*
X452120Y562610D03*
X365760Y516890D03*
X323850Y400050D03*
D10*
X480060Y558800D03*
X689610Y33020D03*
D11*
X670560Y101600D03*
D12*
X492760Y25400D03*
X670560Y25400D03*
D13*
X683260Y139700D03*
X683260Y165100D03*
X683260Y190500D03*
X683260Y215900D03*
X683260Y241300D03*
X683260Y266700D03*
X683260Y292100D03*
X683260Y317500D03*
X683260Y342900D03*
X683260Y368300D03*
X683260Y393700D03*
X683260Y419100D03*
X683260Y444500D03*
X683260Y469900D03*
X683260Y495300D03*
X683260Y520700D03*
X480060Y241300D03*
X480060Y266700D03*
X480060Y292100D03*
X480060Y317500D03*
X480060Y342900D03*
X480060Y368300D03*
X480060Y393700D03*
X480060Y419100D03*
X480060Y444500D03*
X480060Y469900D03*
X480060Y495300D03*
X480060Y520700D03*
D14*
X552760Y49050D03*
X610560Y49050D03*
D15*
X548767Y266700D03*
X538353Y266700D03*
D16*
X646240Y154970D03*
X646240Y97970D03*
D17*
X514740Y81970D03*
X504740Y213470D03*
D18*
X543240Y166870D03*
X547240Y155870D03*
X543240Y144870D03*
X541240Y133870D03*
X543240Y122870D03*
X541240Y111870D03*
X543240Y100870D03*
X543240Y89870D03*
D11*
X685800Y562610D03*
X599440Y516890D03*
X557530Y400050D03*
D10*
X713740Y558800D03*
X923290Y33020D03*
D11*
X904240Y101600D03*
D12*
X726440Y25400D03*
X904240Y25400D03*
D13*
X916940Y139700D03*
X916940Y165100D03*
X916940Y190500D03*
X916940Y215900D03*
X916940Y241300D03*
X916940Y266700D03*
X916940Y292100D03*
X916940Y317500D03*
X916940Y342900D03*
X916940Y368300D03*
X916940Y393700D03*
X916940Y419100D03*
X916940Y444500D03*
X916940Y469900D03*
X916940Y495300D03*
X916940Y520700D03*
X713740Y241300D03*
X713740Y266700D03*
X713740Y292100D03*
X713740Y317500D03*
X713740Y342900D03*
X713740Y368300D03*
X713740Y393700D03*
X713740Y419100D03*
X713740Y444500D03*
X713740Y469900D03*
X713740Y495300D03*
X713740Y520700D03*
D14*
X786440Y49050D03*
X844240Y49050D03*
D15*
X782447Y266700D03*
X772033Y266700D03*
D16*
X879920Y154970D03*
X879920Y97970D03*
D17*
X748420Y81970D03*
X738420Y213470D03*
D18*
X776920Y166870D03*
X780920Y155870D03*
X776920Y144870D03*
X774920Y133870D03*
X776920Y122870D03*
X774920Y111870D03*
X776920Y100870D03*
X776920Y89870D03*
D11*
X919480Y562610D03*
X833120Y516890D03*
X791210Y400050D03*
D10*
X947420Y558800D03*
X1156970Y33020D03*
D11*
X1137920Y101600D03*
D12*
X960120Y25400D03*
X1137920Y25400D03*
D13*
X1150620Y139700D03*
X1150620Y165100D03*
X1150620Y190500D03*
X1150620Y215900D03*
X1150620Y241300D03*
X1150620Y266700D03*
X1150620Y292100D03*
X1150620Y317500D03*
X1150620Y342900D03*
X1150620Y368300D03*
X1150620Y393700D03*
X1150620Y419100D03*
X1150620Y444500D03*
X1150620Y469900D03*
X1150620Y495300D03*
X1150620Y520700D03*
X947420Y241300D03*
X947420Y266700D03*
X947420Y292100D03*
X947420Y317500D03*
X947420Y342900D03*
X947420Y368300D03*
X947420Y393700D03*
X947420Y419100D03*
X947420Y444500D03*
X947420Y469900D03*
X947420Y495300D03*
X947420Y520700D03*
D14*
X1020120Y49050D03*
X1077920Y49050D03*
D15*
X1016127Y266700D03*
X1005713Y266700D03*
D16*
X1113600Y154970D03*
X1113600Y97970D03*
D17*
X982100Y81970D03*
X972100Y213470D03*
D18*
X1010600Y166870D03*
X1014600Y155870D03*
X1010600Y144870D03*
X1008600Y133870D03*
X1010600Y122870D03*
X1008600Y111870D03*
X1010600Y100870D03*
X1010600Y89870D03*
D11*
X1153160Y562610D03*
X1066800Y516890D03*
X1024890Y400050D03*
D10*
X12700Y1173480D03*
X222250Y647700D03*
D11*
X203200Y716280D03*
D12*
X25400Y640080D03*
X203200Y640080D03*
D13*
X215900Y754380D03*
X215900Y779780D03*
X215900Y805180D03*
X215900Y830580D03*
X215900Y855980D03*
X215900Y881380D03*
X215900Y906780D03*
X215900Y932180D03*
X215900Y957580D03*
X215900Y982980D03*
X215900Y1008380D03*
X215900Y1033780D03*
X215900Y1059180D03*
X215900Y1084580D03*
X215900Y1109980D03*
X215900Y1135380D03*
X12700Y855980D03*
X12700Y881380D03*
X12700Y906780D03*
X12700Y932180D03*
X12700Y957580D03*
X12700Y982980D03*
X12700Y1008380D03*
X12700Y1033780D03*
X12700Y1059180D03*
X12700Y1084580D03*
X12700Y1109980D03*
X12700Y1135380D03*
D14*
X85400Y663730D03*
X143200Y663730D03*
D15*
X81407Y881380D03*
X70993Y881380D03*
D16*
X178880Y769650D03*
X178880Y712650D03*
D17*
X47380Y696650D03*
X37380Y828150D03*
D18*
X75880Y781550D03*
X79880Y770550D03*
X75880Y759550D03*
X73880Y748550D03*
X75880Y737550D03*
X73880Y726550D03*
X75880Y715550D03*
X75880Y704550D03*
D11*
X218440Y1177290D03*
X132080Y1131570D03*
X90170Y1014730D03*
D10*
X246380Y1173480D03*
X455930Y647700D03*
D11*
X436880Y716280D03*
D12*
X259080Y640080D03*
X436880Y640080D03*
D13*
X449580Y754380D03*
X449580Y779780D03*
X449580Y805180D03*
X449580Y830580D03*
X449580Y855980D03*
X449580Y881380D03*
X449580Y906780D03*
X449580Y932180D03*
X449580Y957580D03*
X449580Y982980D03*
X449580Y1008380D03*
X449580Y1033780D03*
X449580Y1059180D03*
X449580Y1084580D03*
X449580Y1109980D03*
X449580Y1135380D03*
X246380Y855980D03*
X246380Y881380D03*
X246380Y906780D03*
X246380Y932180D03*
X246380Y957580D03*
X246380Y982980D03*
X246380Y1008380D03*
X246380Y1033780D03*
X246380Y1059180D03*
X246380Y1084580D03*
X246380Y1109980D03*
X246380Y1135380D03*
D14*
X319080Y663730D03*
X376880Y663730D03*
D15*
X315087Y881380D03*
X304673Y881380D03*
D16*
X412560Y769650D03*
X412560Y712650D03*
D17*
X281060Y696650D03*
X271060Y828150D03*
D18*
X309560Y781550D03*
X313560Y770550D03*
X309560Y759550D03*
X307560Y748550D03*
X309560Y737550D03*
X307560Y726550D03*
X309560Y715550D03*
X309560Y704550D03*
D11*
X452120Y1177290D03*
X365760Y1131570D03*
X323850Y1014730D03*
D10*
X480060Y1173480D03*
X689610Y647700D03*
D11*
X670560Y716280D03*
D12*
X492760Y640080D03*
X670560Y640080D03*
D13*
X683260Y754380D03*
X683260Y779780D03*
X683260Y805180D03*
X683260Y830580D03*
X683260Y855980D03*
X683260Y881380D03*
X683260Y906780D03*
X683260Y932180D03*
X683260Y957580D03*
X683260Y982980D03*
X683260Y1008380D03*
X683260Y1033780D03*
X683260Y1059180D03*
X683260Y1084580D03*
X683260Y1109980D03*
X683260Y1135380D03*
X480060Y855980D03*
X480060Y881380D03*
X480060Y906780D03*
X480060Y932180D03*
X480060Y957580D03*
X480060Y982980D03*
X480060Y1008380D03*
X480060Y1033780D03*
X480060Y1059180D03*
X480060Y1084580D03*
X480060Y1109980D03*
X480060Y1135380D03*
D14*
X552760Y663730D03*
X610560Y663730D03*
D15*
X548767Y881380D03*
X538353Y881380D03*
D16*
X646240Y769650D03*
X646240Y712650D03*
D17*
X514740Y696650D03*
X504740Y828150D03*
D18*
X543240Y781550D03*
X547240Y770550D03*
X543240Y759550D03*
X541240Y748550D03*
X543240Y737550D03*
X541240Y726550D03*
X543240Y715550D03*
X543240Y704550D03*
D11*
X685800Y1177290D03*
X599440Y1131570D03*
X557530Y1014730D03*
D10*
X713740Y1173480D03*
X923290Y647700D03*
D11*
X904240Y716280D03*
D12*
X726440Y640080D03*
X904240Y640080D03*
D13*
X916940Y754380D03*
X916940Y779780D03*
X916940Y805180D03*
X916940Y830580D03*
X916940Y855980D03*
X916940Y881380D03*
X916940Y906780D03*
X916940Y932180D03*
X916940Y957580D03*
X916940Y982980D03*
X916940Y1008380D03*
X916940Y1033780D03*
X916940Y1059180D03*
X916940Y1084580D03*
X916940Y1109980D03*
X916940Y1135380D03*
X713740Y855980D03*
X713740Y881380D03*
X713740Y906780D03*
X713740Y932180D03*
X713740Y957580D03*
X713740Y982980D03*
X713740Y1008380D03*
X713740Y1033780D03*
X713740Y1059180D03*
X713740Y1084580D03*
X713740Y1109980D03*
X713740Y1135380D03*
D14*
X786440Y663730D03*
X844240Y663730D03*
D15*
X782447Y881380D03*
X772033Y881380D03*
D16*
X879920Y769650D03*
X879920Y712650D03*
D17*
X748420Y696650D03*
X738420Y828150D03*
D18*
X776920Y781550D03*
X780920Y770550D03*
X776920Y759550D03*
X774920Y748550D03*
X776920Y737550D03*
X774920Y726550D03*
X776920Y715550D03*
X776920Y704550D03*
D11*
X919480Y1177290D03*
X833120Y1131570D03*
X791210Y1014730D03*
D10*
X947420Y1173480D03*
X1156970Y647700D03*
D11*
X1137920Y716280D03*
D12*
X960120Y640080D03*
X1137920Y640080D03*
D13*
X1150620Y754380D03*
X1150620Y779780D03*
X1150620Y805180D03*
X1150620Y830580D03*
X1150620Y855980D03*
X1150620Y881380D03*
X1150620Y906780D03*
X1150620Y932180D03*
X1150620Y957580D03*
X1150620Y982980D03*
X1150620Y1008380D03*
X1150620Y1033780D03*
X1150620Y1059180D03*
X1150620Y1084580D03*
X1150620Y1109980D03*
X1150620Y1135380D03*
X947420Y855980D03*
X947420Y881380D03*
X947420Y906780D03*
X947420Y932180D03*
X947420Y957580D03*
X947420Y982980D03*
X947420Y1008380D03*
X947420Y1033780D03*
X947420Y1059180D03*
X947420Y1084580D03*
X947420Y1109980D03*
X947420Y1135380D03*
D14*
X1020120Y663730D03*
X1077920Y663730D03*
D15*
X1016127Y881380D03*
X1005713Y881380D03*
D16*
X1113600Y769650D03*
X1113600Y712650D03*
D17*
X982100Y696650D03*
X972100Y828150D03*
D18*
X1010600Y781550D03*
X1014600Y770550D03*
X1010600Y759550D03*
X1008600Y748550D03*
X1010600Y737550D03*
X1008600Y726550D03*
X1010600Y715550D03*
X1010600Y704550D03*
D11*
X1153160Y1177290D03*
X1066800Y1131570D03*
X1024890Y1014730D03*
D19*
X68580Y1245235D03*
X1094105Y1245235D03*
D20*
X59525Y-46355D02*
X59528Y-46133D01*
X59536Y-45911D01*
X59550Y-45689D01*
X59569Y-45467D01*
X59593Y-45247D01*
X59623Y-45026D01*
X59658Y-44807D01*
X59699Y-44588D01*
X59745Y-44371D01*
X59796Y-44155D01*
X59853Y-43940D01*
X59915Y-43726D01*
X59982Y-43515D01*
X60054Y-43304D01*
X60132Y-43096D01*
X60214Y-42890D01*
X60302Y-42686D01*
X60394Y-42483D01*
X60492Y-42284D01*
X60594Y-42087D01*
X60701Y-41892D01*
X60813Y-41700D01*
X60930Y-41511D01*
X61051Y-41324D01*
X61177Y-41141D01*
X61307Y-40961D01*
X61442Y-40784D01*
X61580Y-40611D01*
X61723Y-40441D01*
X61871Y-40274D01*
X62022Y-40111D01*
X62177Y-39952D01*
X62336Y-39797D01*
X62499Y-39646D01*
X62666Y-39498D01*
X62836Y-39355D01*
X63009Y-39217D01*
X63186Y-39082D01*
X63366Y-38952D01*
X63549Y-38826D01*
X63736Y-38705D01*
X63925Y-38588D01*
X64117Y-38476D01*
X64312Y-38369D01*
X64509Y-38267D01*
X64708Y-38169D01*
X64911Y-38077D01*
X65115Y-37989D01*
X65321Y-37907D01*
X65529Y-37829D01*
X65740Y-37757D01*
X65951Y-37690D01*
X66165Y-37628D01*
X66380Y-37571D01*
X66596Y-37520D01*
X66813Y-37474D01*
X67032Y-37433D01*
X67251Y-37398D01*
X67472Y-37368D01*
X67692Y-37344D01*
X67914Y-37325D01*
X68136Y-37311D01*
X68358Y-37303D01*
X68580Y-37300D01*
X68802Y-37303D01*
X69024Y-37311D01*
X69246Y-37325D01*
X69468Y-37344D01*
X69688Y-37368D01*
X69909Y-37398D01*
X70128Y-37433D01*
X70347Y-37474D01*
X70564Y-37520D01*
X70780Y-37571D01*
X70995Y-37628D01*
X71209Y-37690D01*
X71420Y-37757D01*
X71631Y-37829D01*
X71839Y-37907D01*
X72045Y-37989D01*
X72249Y-38077D01*
X72452Y-38169D01*
X72651Y-38267D01*
X72848Y-38369D01*
X73043Y-38476D01*
X73235Y-38588D01*
X73424Y-38705D01*
X73611Y-38826D01*
X73794Y-38952D01*
X73974Y-39082D01*
X74151Y-39217D01*
X74324Y-39355D01*
X74494Y-39498D01*
X74661Y-39646D01*
X74824Y-39797D01*
X74983Y-39952D01*
X75138Y-40111D01*
X75289Y-40274D01*
X75437Y-40441D01*
X75580Y-40611D01*
X75718Y-40784D01*
X75853Y-40961D01*
X75983Y-41141D01*
X76109Y-41324D01*
X76230Y-41511D01*
X76347Y-41700D01*
X76459Y-41892D01*
X76566Y-42087D01*
X76668Y-42284D01*
X76766Y-42483D01*
X76858Y-42686D01*
X76946Y-42890D01*
X77028Y-43096D01*
X77106Y-43304D01*
X77178Y-43515D01*
X77245Y-43726D01*
X77307Y-43940D01*
X77364Y-44155D01*
X77415Y-44371D01*
X77461Y-44588D01*
X77502Y-44807D01*
X77537Y-45026D01*
X77567Y-45247D01*
X77591Y-45467D01*
X77610Y-45689D01*
X77624Y-45911D01*
X77632Y-46133D01*
X77635Y-46355D01*
X77632Y-46577D01*
X77624Y-46799D01*
X77610Y-47021D01*
X77591Y-47243D01*
X77567Y-47463D01*
X77537Y-47684D01*
X77502Y-47903D01*
X77461Y-48122D01*
X77415Y-48339D01*
X77364Y-48555D01*
X77307Y-48770D01*
X77245Y-48984D01*
X77178Y-49195D01*
X77106Y-49406D01*
X77028Y-49614D01*
X76946Y-49820D01*
X76858Y-50024D01*
X76766Y-50227D01*
X76668Y-50426D01*
X76566Y-50623D01*
X76459Y-50818D01*
X76347Y-51010D01*
X76230Y-51199D01*
X76109Y-51386D01*
X75983Y-51569D01*
X75853Y-51749D01*
X75718Y-51926D01*
X75580Y-52099D01*
X75437Y-52269D01*
X75289Y-52436D01*
X75138Y-52599D01*
X74983Y-52758D01*
X74824Y-52913D01*
X74661Y-53064D01*
X74494Y-53212D01*
X74324Y-53355D01*
X74151Y-53493D01*
X73974Y-53628D01*
X73794Y-53758D01*
X73611Y-53884D01*
X73424Y-54005D01*
X73235Y-54122D01*
X73043Y-54234D01*
X72848Y-54341D01*
X72651Y-54443D01*
X72452Y-54541D01*
X72249Y-54633D01*
X72045Y-54721D01*
X71839Y-54803D01*
X71631Y-54881D01*
X71420Y-54953D01*
X71209Y-55020D01*
X70995Y-55082D01*
X70780Y-55139D01*
X70564Y-55190D01*
X70347Y-55236D01*
X70128Y-55277D01*
X69909Y-55312D01*
X69688Y-55342D01*
X69468Y-55366D01*
X69246Y-55385D01*
X69024Y-55399D01*
X68802Y-55407D01*
X68580Y-55410D01*
X68358Y-55407D01*
X68136Y-55399D01*
X67914Y-55385D01*
X67692Y-55366D01*
X67472Y-55342D01*
X67251Y-55312D01*
X67032Y-55277D01*
X66813Y-55236D01*
X66596Y-55190D01*
X66380Y-55139D01*
X66165Y-55082D01*
X65951Y-55020D01*
X65740Y-54953D01*
X65529Y-54881D01*
X65321Y-54803D01*
X65115Y-54721D01*
X64911Y-54633D01*
X64708Y-54541D01*
X64509Y-54443D01*
X64312Y-54341D01*
X64117Y-54234D01*
X63925Y-54122D01*
X63736Y-54005D01*
X63549Y-53884D01*
X63366Y-53758D01*
X63186Y-53628D01*
X63009Y-53493D01*
X62836Y-53355D01*
X62666Y-53212D01*
X62499Y-53064D01*
X62336Y-52913D01*
X62177Y-52758D01*
X62022Y-52599D01*
X61871Y-52436D01*
X61723Y-52269D01*
X61580Y-52099D01*
X61442Y-51926D01*
X61307Y-51749D01*
X61177Y-51569D01*
X61051Y-51386D01*
X60930Y-51199D01*
X60813Y-51010D01*
X60701Y-50818D01*
X60594Y-50623D01*
X60492Y-50426D01*
X60394Y-50227D01*
X60302Y-50024D01*
X60214Y-49820D01*
X60132Y-49614D01*
X60054Y-49406D01*
X59982Y-49195D01*
X59915Y-48984D01*
X59853Y-48770D01*
X59796Y-48555D01*
X59745Y-48339D01*
X59699Y-48122D01*
X59658Y-47903D01*
X59623Y-47684D01*
X59593Y-47463D01*
X59569Y-47243D01*
X59550Y-47021D01*
X59536Y-46799D01*
X59528Y-46577D01*
X59525Y-46355D01*
D21*
X68580Y-46355D03*
M02*
