M48
;GenerationSoftware,Autodesk,EAGLE,9.6.2*%
;CreationDate,2021-02-14T22:09:35Z*%
FMAT,2
ICI,OFF
METRIC,TZ,000.000
T5C0.305
T4C0.400
T3C0.650
T2C1.016
T1C3.048
%
G90
M71
T1
X49276Y64008
X67056Y64008
X2540Y2540
X20320Y2540
X2540Y64008
X20320Y64008
X25908Y2540
X43688Y2540
X96012Y64008
X113792Y64008
X49276Y2540
X67056Y2540
X25908Y64008
X43688Y64008
X72644Y2540
X90424Y2540
X72644Y64008
X90424Y64008
X96012Y2540
X113792Y2540
T2
X21590Y21590
X71374Y36830
X71374Y95758
X71374Y98298
X71374Y100838
X71374Y103378
X71374Y105918
X71374Y108458
X71374Y110998
X71374Y113538
X115062Y75438
X115062Y77978
X115062Y80518
X115062Y83058
X115062Y85598
X115062Y88138
X115062Y90678
X115062Y93218
X115062Y95758
X115062Y98298
X115062Y100838
X115062Y103378
X21590Y13970
X21590Y16510
X21590Y19050
X24638Y24130
X21590Y24130
X21590Y26670
X21590Y29210
X21590Y31750
X21590Y34290
X21590Y36830
X21590Y39370
X21590Y41910
X21590Y44450
X21590Y46990
X21590Y49530
X21590Y52070
X1270Y24130
X1270Y26670
X1270Y29210
X1270Y31750
X1270Y34290
X1270Y36830
X1270Y39370
X1270Y41910
X1270Y44450
X1270Y46990
X1270Y49530
X1270Y52070
X115062Y105918
X115062Y108458
X115062Y110998
X115062Y113538
X44958Y13970
X44958Y16510
X44958Y19050
X44958Y21590
X44958Y24130
X44958Y26670
X44958Y29210
X44958Y31750
X44958Y34290
X44958Y36830
X44958Y39370
X44958Y41910
X44958Y44450
X44958Y46990
X44958Y49530
X44958Y52070
X94742Y85598
X24638Y26670
X24638Y29210
X24638Y31750
X24638Y34290
X24638Y36830
X24638Y39370
X24638Y41910
X24638Y44450
X24638Y46990
X24638Y49530
X24638Y52070
X94742Y88138
X94742Y90678
X94742Y93218
X94742Y95758
X68326Y13970
X68326Y16510
X68326Y19050
X68326Y21590
X68326Y24130
X68326Y26670
X68326Y29210
X68326Y31750
X68326Y34290
X68326Y36830
X68326Y39370
X68326Y41910
X68326Y44450
X68326Y46990
X68326Y49530
X68326Y52070
X48006Y24130
X48006Y26670
X48006Y29210
X48006Y31750
X48006Y34290
X48006Y36830
X48006Y39370
X48006Y41910
X48006Y44450
X48006Y46990
X48006Y49530
X48006Y52070
X94742Y98298
X115062Y41910
X94742Y100838
X94742Y103378
X91694Y13970
X91694Y16510
X91694Y19050
X91694Y21590
X91694Y24130
X91694Y26670
X91694Y29210
X91694Y31750
X91694Y34290
X91694Y36830
X91694Y39370
X91694Y41910
X91694Y44450
X91694Y46990
X91694Y49530
X91694Y52070
X71374Y24130
X71374Y26670
X71374Y29210
X71374Y31750
X71374Y34290
X71374Y39370
X71374Y41910
X71374Y44450
X71374Y46990
X71374Y49530
X71374Y52070
X94742Y105918
X94742Y108458
X94742Y110998
X94742Y113538
X115062Y13970
X115062Y16510
X115062Y19050
X115062Y21590
X115062Y24130
X115062Y26670
X115062Y29210
X115062Y31750
X115062Y34290
X115062Y36830
X115062Y39370
X1270Y105918
X115062Y44450
X115062Y46990
X115062Y49530
X115062Y52070
X94742Y24130
X94742Y26670
X94742Y29210
X94742Y31750
X94742Y34290
X94742Y36830
X94742Y39370
X94742Y41910
X94742Y44450
X94742Y46990
X94742Y49530
X94742Y52070
X21590Y75438
X21590Y77978
X21590Y80518
X21590Y83058
X21590Y85598
X21590Y88138
X21590Y90678
X21590Y93218
X21590Y95758
X21590Y98298
X21590Y100838
X21590Y103378
X21590Y105918
X21590Y108458
X21590Y110998
X21590Y113538
X1270Y85598
X1270Y88138
X1270Y90678
X1270Y93218
X1270Y95758
X1270Y98298
X1270Y100838
X1270Y103378
X1270Y108458
X1270Y110998
X1270Y113538
X44958Y75438
X44958Y77978
X44958Y80518
X44958Y83058
X44958Y85598
X44958Y88138
X44958Y90678
X44958Y93218
X44958Y95758
X44958Y98298
X44958Y100838
X44958Y103378
X44958Y105918
X44958Y108458
X44958Y110998
X44958Y113538
X24638Y85598
X24638Y88138
X24638Y90678
X24638Y93218
X24638Y95758
X24638Y98298
X24638Y100838
X24638Y103378
X24638Y105918
X24638Y108458
X24638Y110998
X24638Y113538
X68326Y75438
X68326Y77978
X68326Y80518
X68326Y83058
X68326Y85598
X68326Y88138
X68326Y90678
X68326Y93218
X68326Y95758
X68326Y98298
X68326Y100838
X68326Y103378
X68326Y105918
X68326Y108458
X68326Y110998
X68326Y113538
X48006Y85598
X48006Y88138
X48006Y90678
X48006Y93218
X48006Y95758
X48006Y98298
X48006Y100838
X48006Y103378
X48006Y105918
X48006Y108458
X48006Y110998
X48006Y113538
X91694Y75438
X91694Y77978
X91694Y80518
X91694Y83058
X91694Y85598
X91694Y88138
X91694Y90678
X91694Y93218
X91694Y95758
X91694Y98298
X91694Y100838
X91694Y103378
X91694Y105918
X91694Y108458
X91694Y110998
X91694Y113538
X71374Y85598
X71374Y88138
X71374Y90678
X71374Y93218
T3
X8540Y4905
X14320Y4905
X31908Y4905
X37688Y4905
X55276Y4905
X61056Y4905
X78644Y4905
X84424Y4905
X102012Y4905
X107792Y4905
X8540Y66373
X14320Y66373
X31908Y66373
X37688Y66373
X55276Y66373
X61056Y66373
X78644Y66373
X84424Y66373
X102012Y66373
X107792Y66373
T4
X7112Y1255
X15748Y1255
X15748Y5435
X7112Y5435
X100584Y66903
X30480Y1255
X39116Y1255
X39116Y5435
X30480Y5435
X53848Y1255
X62484Y5435
X53848Y5435
X77216Y1255
X85852Y1255
X85852Y5435
X77216Y5435
X109220Y5435
X7112Y62723
X15748Y62723
X15748Y66903
X7112Y66903
X100584Y5435
X30480Y62723
X39116Y62723
X39116Y66903
X30480Y66903
X77216Y62723
X85852Y62723
X85852Y66903
X77216Y66903
X62484Y1255
X100584Y1255
X53848Y62723
X62484Y62723
X62484Y66903
X53848Y66903
X109220Y1255
X100584Y62723
X109220Y62723
X109220Y66903
T5
X61214Y10795
X61976Y16129
X50546Y26670
X51816Y34290
X60198Y34290
X60198Y23622
X60960Y52324
X61214Y34925
X65151Y37084
X53594Y37465
X53594Y43180
X64516Y41910
X61976Y41910
X61976Y49530
X56007Y50673
X56604Y38735
X55626Y38735
X68326Y57277
X81026Y8509
X81534Y24130
X80010Y50000
X80010Y52832
X88265Y53048
X92329Y55245
X84201Y18288
X81788Y11316
X76327Y13335
X76962Y36195
X81534Y36195
X89154Y13970
X89535Y24384
X84328Y48260
X83566Y24384
X74422Y16764
X82931Y15240
X73914Y10414
X73787Y12700
X76073Y6604
X75565Y2667
X87757Y2540
X92329Y6350
X87757Y8001
X76073Y11430
X85344Y20701
X87757Y21082
X82423Y26289
X84963Y31115
X89154Y27940
X81280Y22860
X78359Y22860
X76454Y21717
X76454Y29210
X74930Y33020
X81534Y43180
X81534Y41910
X82804Y41910
X82804Y43180
X82804Y44450
X81534Y44450
X81534Y45720
X82804Y45720
X88392Y50927
X74549Y50927
X77978Y4191
X85090Y4318
X85344Y8509
X87884Y13843
X84074Y17272
X87122Y13589
X87122Y7366
X80645Y4318
X80772Y26162
X74549Y29210
X87884Y6350
X80480Y18161
X76454Y25400
X73406Y22860
X74803Y35052
X83058Y35052
X83058Y28194
X88519Y34417
X87757Y19901
X90043Y14605
X90043Y19939
X89408Y9057
X88616Y38481
X87757Y25146
X87884Y39624
X87884Y27051
X77216Y44450
X77788Y29718
X77724Y45720
X77851Y30480
X87757Y47460
X87249Y34925
X84836Y51435
X84963Y35687
X88392Y52070
X80645Y39713
X86741Y46990
X85979Y8890
X87084Y45720
X86614Y9525
X86322Y48260
X85979Y10287
X76200Y30988
X75311Y49530
X76835Y49530
X75438Y35687
X74803Y39751
X85344Y40005
X85344Y34290
X87376Y36322
X86868Y38227
X85852Y44577
X85217Y10414
X85852Y52070
X75311Y30988
X75946Y52070
X81788Y5080
X83439Y8376
X82931Y5080
X82931Y3505
X79959Y4953
X79825Y3498
X77762Y28956
X84582Y10795
X85344Y16129
X73914Y26670
X75184Y34290
X83566Y34290
X83566Y23622
X84328Y52324
X84582Y34925
X88519Y37084
X76962Y37465
X76962Y43180
X87884Y41910
X85344Y41910
X85344Y49530
X79375Y50673
X79972Y38735
X78994Y38735
X91694Y57277
X104394Y8509
X104902Y24130
X103378Y50000
X103378Y52832
X111633Y53048
X115697Y55245
X107569Y18288
X105156Y11316
X99695Y13335
X100330Y36195
X104902Y36195
X112522Y13970
X112903Y24384
X107696Y48260
X106934Y24384
X97790Y16764
X106299Y15240
X97282Y10414
X97155Y12700
X99441Y6604
X98933Y2667
X111125Y2540
X115697Y6350
X111125Y8001
X99441Y11430
X108712Y20701
X111125Y21082
X105791Y26289
X108331Y31115
X112522Y27940
X104648Y22860
X101727Y22860
X99822Y21717
X99822Y29210
X98298Y33020
X104902Y43180
X104902Y41910
X106172Y41910
X106172Y43180
X106172Y44450
X104902Y44450
X104902Y45720
X106172Y45720
X111760Y50927
X97917Y50927
X101346Y4191
X108458Y4318
X108712Y8509
X111252Y13843
X107442Y17272
X110490Y13589
X110490Y7366
X104013Y4318
X104140Y26162
X97917Y29210
X111252Y6350
X103848Y18161
X99822Y25400
X96774Y22860
X98171Y35052
X106426Y35052
X106426Y28194
X111887Y34417
X111125Y19901
X113411Y14605
X113411Y19939
X112776Y9057
X111984Y38481
X111125Y25146
X111252Y39624
X111252Y27051
X100584Y44450
X101156Y29718
X101092Y45720
X101219Y30480
X111125Y47460
X110617Y34925
X108204Y51435
X108331Y35687
X111760Y52070
X104013Y39713
X110109Y46990
X109347Y8890
X110452Y45720
X109982Y9525
X109690Y48260
X109347Y10287
X99568Y30988
X98679Y49530
X100203Y49530
X98806Y35687
X98171Y39751
X108712Y40005
X108712Y34290
X110744Y36322
X110236Y38227
X109220Y44577
X108585Y10414
X109220Y52070
X98679Y30988
X99314Y52070
X105156Y5080
X106807Y8376
X106299Y5080
X106299Y3505
X103327Y4953
X103193Y3498
X101130Y28956
X107950Y10795
X108712Y16129
X97282Y26670
X98552Y34290
X106934Y34290
X106934Y23622
X107696Y52324
X107950Y34925
X111887Y37084
X100330Y37465
X100330Y43180
X111252Y41910
X108712Y41910
X108712Y49530
X102743Y50673
X103340Y38735
X102362Y38735
X115062Y57277
X10922Y69977
X11430Y85598
X9906Y111468
X9906Y114300
X18161Y114516
X22225Y116713
X14097Y79756
X11684Y72784
X6223Y74803
X6858Y97663
X11430Y97663
X19050Y75438
X19431Y85852
X14224Y109728
X13462Y85852
X4318Y78232
X12827Y76708
X3810Y71882
X3683Y74168
X5969Y68072
X5461Y64135
X17653Y64008
X22225Y67818
X17653Y69469
X5969Y72898
X15240Y82169
X17653Y82550
X12319Y87757
X14859Y92583
X19050Y89408
X11176Y84328
X8255Y84328
X6350Y83185
X6350Y90678
X4826Y94488
X11430Y104648
X11430Y103378
X12700Y103378
X12700Y104648
X12700Y105918
X11430Y105918
X11430Y107188
X12700Y107188
X18288Y112395
X4445Y112395
X7874Y65659
X14986Y65786
X15240Y69977
X17780Y75311
X13970Y78740
X17018Y75057
X17018Y68834
X10541Y65786
X10668Y87630
X4445Y90678
X17780Y67818
X10376Y79629
X6350Y86868
X3302Y84328
X4699Y96520
X12954Y96520
X12954Y89662
X18415Y95885
X17653Y81369
X19939Y76073
X19939Y81407
X19304Y70525
X18512Y99949
X17653Y86614
X17780Y101092
X17780Y88519
X7112Y105918
X7684Y91186
X7620Y107188
X7747Y91948
X17653Y108928
X17145Y96393
X14732Y112903
X14859Y97155
X18288Y113538
X10541Y101181
X16637Y108458
X15875Y70358
X16980Y107188
X16510Y70993
X16218Y109728
X15875Y71755
X6096Y92456
X5207Y110998
X6731Y110998
X5334Y97155
X4699Y101219
X15240Y101473
X15240Y95758
X17272Y97790
X16764Y99695
X15748Y106045
X15113Y71882
X15748Y113538
X5207Y92456
X5842Y113538
X11684Y66548
X13335Y69844
X12827Y66548
X12827Y64973
X9855Y66421
X9721Y64966
X7658Y90424
X14478Y72263
X15240Y77597
X3810Y88138
X5080Y95758
X13462Y95758
X13462Y85090
X14224Y113792
X14478Y96393
X18415Y98552
X6858Y98933
X6858Y104648
X17780Y103378
X15240Y103378
X15240Y110998
X9271Y112141
X9868Y100203
X8890Y100203
X21590Y118745
X34290Y69977
X34798Y85598
X33274Y111468
X33274Y114300
X41529Y114516
X45593Y116713
X37465Y79756
X35052Y72784
X29591Y74803
X30226Y97663
X34798Y97663
X42418Y75438
X42799Y85852
X37592Y109728
X36830Y85852
X27686Y78232
X36195Y76708
X27178Y71882
X27051Y74168
X29337Y68072
X28829Y64135
X41021Y64008
X45593Y67818
X41021Y69469
X29337Y72898
X38608Y82169
X41021Y82550
X35687Y87757
X38227Y92583
X42418Y89408
X34544Y84328
X31623Y84328
X29718Y83185
X29718Y90678
X28194Y94488
X34798Y104648
X34798Y103378
X36068Y103378
X36068Y104648
X36068Y105918
X34798Y105918
X34798Y107188
X36068Y107188
X41656Y112395
X27813Y112395
X31242Y65659
X38354Y65786
X38608Y69977
X41148Y75311
X37338Y78740
X40386Y75057
X40386Y68834
X33909Y65786
X34036Y87630
X40513Y34925
X41148Y67818
X33744Y79629
X29718Y86868
X26670Y84328
X28067Y96520
X36322Y96520
X36322Y89662
X41783Y95885
X41021Y81369
X43307Y76073
X43307Y81407
X42672Y70525
X41880Y99949
X41021Y86614
X41148Y101092
X41148Y88519
X30480Y105918
X31052Y91186
X30988Y107188
X31115Y91948
X41021Y108928
X40513Y96393
X38100Y112903
X38227Y97155
X41656Y113538
X33909Y101181
X40005Y108458
X39243Y70358
X40348Y107188
X39878Y70993
X39586Y109728
X39243Y71755
X29464Y92456
X28575Y110998
X30099Y110998
X28702Y97155
X28067Y101219
X38608Y101473
X38608Y95758
X40640Y97790
X40132Y99695
X39116Y106045
X38481Y71882
X39116Y113538
X28575Y92456
X29210Y113538
X35052Y66548
X36703Y69844
X36195Y66548
X36195Y64973
X33223Y66421
X33089Y64966
X31026Y90424
X37846Y72263
X38608Y77597
X27178Y88138
X28448Y95758
X36830Y95758
X36830Y85090
X37592Y113792
X37846Y96393
X41783Y98552
X30226Y98933
X30226Y104648
X41148Y103378
X38608Y103378
X38608Y110998
X32639Y112141
X33236Y100203
X32258Y100203
X44958Y118745
X57658Y69977
X58166Y85598
X56642Y111468
X56642Y114300
X64897Y114516
X68961Y116713
X60833Y79756
X58420Y72784
X52959Y74803
X53594Y97663
X58166Y97663
X65786Y75438
X66167Y85852
X60960Y109728
X60198Y85852
X51054Y78232
X59563Y76708
X50546Y71882
X50419Y74168
X52705Y68072
X52197Y64135
X64389Y64008
X68961Y67818
X64389Y69469
X52705Y72898
X61976Y82169
X64389Y82550
X59055Y87757
X61595Y92583
X65786Y89408
X57912Y84328
X54991Y84328
X53086Y83185
X53086Y90678
X51562Y94488
X58166Y104648
X58166Y103378
X59436Y103378
X59436Y104648
X59436Y105918
X58166Y105918
X58166Y107188
X59436Y107188
X65024Y112395
X51181Y112395
X54610Y65659
X61722Y65786
X61976Y69977
X64516Y75311
X60706Y78740
X63754Y75057
X63754Y68834
X57277Y65786
X57404Y87630
X51181Y90678
X64516Y67818
X57112Y79629
X53086Y86868
X50038Y84328
X51435Y96520
X59690Y96520
X59690Y89662
X65151Y95885
X64389Y81369
X66675Y76073
X66675Y81407
X66040Y70525
X65248Y99949
X64389Y86614
X64516Y101092
X64516Y88519
X53848Y105918
X54420Y91186
X54356Y107188
X54483Y91948
X64389Y108928
X63881Y96393
X61468Y112903
X61595Y97155
X65024Y113538
X57277Y101181
X63373Y108458
X62611Y70358
X63716Y107188
X63246Y70993
X62954Y109728
X62611Y71755
X52832Y92456
X51943Y110998
X53467Y110998
X52070Y97155
X51435Y101219
X61976Y101473
X61976Y95758
X64008Y97790
X63500Y99695
X62484Y106045
X61849Y71882
X62484Y113538
X51943Y92456
X52578Y113538
X58420Y66548
X60071Y69844
X59563Y66548
X59563Y64973
X56591Y66421
X56457Y64966
X54394Y90424
X61214Y72263
X61976Y77597
X50546Y88138
X51816Y95758
X60198Y95758
X60198Y85090
X60960Y113792
X61214Y96393
X65151Y98552
X53594Y98933
X53594Y104648
X64516Y103378
X61976Y103378
X61976Y110998
X56007Y112141
X56604Y100203
X55626Y100203
X68326Y118745
X81026Y69977
X81534Y85598
X80010Y111468
X80010Y114300
X88265Y114516
X92329Y116713
X84201Y79756
X81788Y72784
X76327Y74803
X76962Y97663
X81534Y97663
X89154Y75438
X89535Y85852
X84328Y109728
X83566Y85852
X74422Y78232
X82931Y76708
X73914Y71882
X73787Y74168
X76073Y68072
X75565Y64135
X87757Y64008
X92329Y67818
X87757Y69469
X76073Y72898
X85344Y82169
X87757Y82550
X82423Y87757
X84963Y92583
X89154Y89408
X81280Y84328
X78359Y84328
X76454Y83185
X76454Y90678
X74930Y94488
X81534Y104648
X81534Y103378
X82804Y103378
X82804Y104648
X82804Y105918
X81534Y105918
X81534Y107188
X82804Y107188
X88392Y112395
X74549Y112395
X77978Y65659
X85090Y65786
X85344Y69977
X87884Y75311
X84074Y78740
X87122Y75057
X87122Y68834
X80645Y65786
X80772Y87630
X74549Y90678
X87884Y67818
X80480Y79629
X76454Y86868
X73406Y84328
X74803Y96520
X83058Y96520
X83058Y89662
X88519Y95885
X87757Y81369
X90043Y76073
X90043Y81407
X89408Y70525
X88616Y99949
X87757Y86614
X87884Y101092
X87884Y88519
X77216Y105918
X77788Y91186
X77724Y107188
X77851Y91948
X87757Y108928
X87249Y96393
X84836Y112903
X84963Y97155
X88392Y113538
X80645Y101181
X86741Y108458
X85979Y70358
X87084Y107188
X86614Y70993
X86322Y109728
X85979Y71755
X76200Y92456
X75311Y110998
X76835Y110998
X75438Y97155
X74803Y101219
X85344Y101473
X85344Y95758
X87376Y97790
X86868Y99695
X85852Y106045
X85217Y71882
X85852Y113538
X75311Y92456
X75946Y113538
X81788Y66548
X83439Y69844
X82931Y66548
X82931Y64973
X79959Y66421
X79825Y64966
X77762Y90424
X84582Y72263
X85344Y77597
X73914Y88138
X75184Y95758
X83566Y95758
X83566Y85090
X84328Y113792
X84582Y96393
X88519Y98552
X76962Y98933
X76962Y104648
X87884Y103378
X85344Y103378
X85344Y110998
X79375Y112141
X79972Y100203
X78994Y100203
X91694Y118745
X104394Y69977
X104902Y85598
X103378Y111468
X103378Y114300
X111633Y114516
X115697Y116713
X107569Y79756
X105156Y72784
X99695Y74803
X100330Y97663
X104902Y97663
X112522Y75438
X112903Y85852
X107696Y109728
X106934Y85852
X97790Y78232
X106299Y76708
X97282Y71882
X97155Y74168
X99441Y68072
X98933Y64135
X111125Y64008
X115697Y67818
X111125Y69469
X99441Y72898
X108712Y82169
X111125Y82550
X105791Y87757
X108331Y92583
X112522Y89408
X104648Y84328
X101727Y84328
X99822Y83185
X99822Y90678
X98298Y94488
X104902Y104648
X104902Y103378
X106172Y103378
X106172Y104648
X106172Y105918
X104902Y105918
X104902Y107188
X106172Y107188
X111760Y112395
X97917Y112395
X101346Y65659
X108458Y65786
X108712Y69977
X111252Y75311
X107442Y78740
X110490Y75057
X110490Y68834
X104013Y65786
X104140Y87630
X97917Y90678
X111252Y67818
X103848Y79629
X99822Y86868
X96774Y84328
X98171Y96520
X106426Y96520
X106426Y89662
X111887Y95885
X111125Y81369
X113411Y76073
X113411Y81407
X112776Y70525
X111984Y99949
X111125Y86614
X111252Y101092
X111252Y88519
X100584Y105918
X101156Y91186
X101092Y107188
X101219Y91948
X111125Y108928
X110617Y96393
X108204Y112903
X108331Y97155
X111760Y113538
X104013Y101181
X10922Y8509
X109347Y70358
X110452Y107188
X109982Y70993
X109690Y109728
X109347Y71755
X99568Y92456
X98679Y110998
X100203Y110998
X98806Y97155
X98171Y101219
X108712Y101473
X108712Y95758
X110744Y97790
X110236Y99695
X109220Y106045
X108585Y71882
X109220Y113538
X98679Y92456
X99314Y113538
X105156Y66548
X106807Y69844
X106299Y66548
X106299Y64973
X103327Y66421
X103193Y64966
X101130Y90424
X107950Y72263
X108712Y77597
X97282Y88138
X98552Y95758
X106934Y95758
X106934Y85090
X107696Y113792
X107950Y96393
X111887Y98552
X100330Y98933
X100330Y104648
X111252Y103378
X108712Y103378
X108712Y110998
X102743Y112141
X103340Y100203
X102362Y100203
X115062Y118745
X11430Y24130
X9906Y50000
X9906Y52832
X18161Y53048
X22225Y55245
X14097Y18288
X11684Y11316
X6223Y13335
X6858Y36195
X11430Y36195
X19050Y13970
X19431Y24384
X14224Y48260
X13462Y24384
X4318Y16764
X12827Y15240
X3810Y10414
X3683Y12700
X5969Y6604
X5461Y2667
X17653Y2540
X22225Y6350
X17653Y8001
X5969Y11430
X15240Y20701
X17653Y21082
X12319Y26289
X14859Y31115
X19050Y27940
X11176Y22860
X8255Y22860
X6350Y21717
X6350Y29210
X4826Y33020
X11430Y43180
X11430Y41910
X12700Y41910
X12700Y43180
X12700Y44450
X11430Y44450
X11430Y45720
X12700Y45720
X18288Y50927
X4445Y50927
X7874Y4191
X14986Y4318
X15240Y8509
X17780Y13843
X13970Y17272
X17018Y13589
X17018Y7366
X10541Y4318
X10668Y26162
X4445Y29210
X17780Y6350
X10376Y18161
X6350Y25400
X3302Y22860
X4699Y35052
X12954Y35052
X12954Y28194
X18415Y34417
X17653Y19901
X19939Y14605
X19939Y19939
X19304Y9057
X18512Y38481
X17653Y25146
X17780Y39624
X17780Y27051
X7112Y44450
X7684Y29718
X7620Y45720
X7747Y30480
X17653Y47460
X17145Y34925
X14732Y51435
X14859Y35687
X18288Y52070
X10541Y39713
X16637Y46990
X15875Y8890
X16980Y45720
X16510Y9525
X16218Y48260
X15875Y10287
X6096Y30988
X5207Y49530
X6731Y49530
X5334Y35687
X4699Y39751
X15240Y40005
X15240Y34290
X17272Y36322
X16764Y38227
X15748Y44577
X15113Y10414
X15748Y52070
X5207Y30988
X5842Y52070
X11684Y5080
X13335Y8376
X12827Y5080
X12827Y3505
X9855Y4953
X9721Y3498
X7658Y28956
X14478Y10795
X15240Y16129
X3810Y26670
X5080Y34290
X13462Y34290
X13462Y23622
X14224Y52324
X14478Y34925
X18415Y37084
X6858Y37465
X6858Y43180
X17780Y41910
X15240Y41910
X15240Y49530
X9271Y50673
X9868Y38735
X8890Y38735
X21590Y57277
X34290Y8509
X34798Y24130
X33274Y50000
X33274Y52832
X41529Y53048
X45593Y55245
X37465Y18288
X35052Y11316
X29591Y13335
X30226Y36195
X34798Y36195
X42418Y13970
X42799Y24384
X37592Y48260
X36830Y24384
X27686Y16764
X36195Y15240
X27178Y10414
X27051Y12700
X29337Y6604
X28829Y2667
X41021Y2540
X45593Y6350
X41021Y8001
X29337Y11430
X38608Y20701
X41021Y21082
X35687Y26289
X38227Y31115
X42418Y27940
X34544Y22860
X31623Y22860
X27813Y90678
X29718Y21717
X29718Y29210
X28194Y33020
X34798Y43180
X34798Y41910
X36068Y41910
X36068Y43180
X36068Y44450
X34798Y44450
X34798Y45720
X36068Y45720
X41656Y50927
X27813Y50927
X31242Y4191
X38354Y4318
X38608Y8509
X41148Y13843
X37338Y17272
X40386Y13589
X40386Y7366
X33909Y4318
X34036Y26162
X27813Y29210
X41148Y6350
X33744Y18161
X29718Y25400
X26670Y22860
X28067Y35052
X36322Y35052
X36322Y28194
X41783Y34417
X41021Y19901
X43307Y14605
X43307Y19939
X42672Y9057
X41880Y38481
X41021Y25146
X41148Y39624
X41148Y27051
X30480Y44450
X31052Y29718
X30988Y45720
X31115Y30480
X41021Y47460
X38100Y51435
X38227Y35687
X41656Y52070
X33909Y39713
X40005Y46990
X39243Y8890
X40348Y45720
X39878Y9525
X39586Y48260
X39243Y10287
X29464Y30988
X28575Y49530
X30099Y49530
X28702Y35687
X28067Y39751
X38608Y40005
X38608Y34290
X40640Y36322
X40132Y38227
X39116Y44577
X38481Y10414
X39116Y52070
X28575Y30988
X29210Y52070
X35052Y5080
X36703Y8376
X36195Y5080
X36195Y3505
X33223Y4953
X33089Y3498
X31026Y28956
X37846Y10795
X38608Y16129
X27178Y26670
X28448Y34290
X36830Y34290
X36830Y23622
X37592Y52324
X37846Y34925
X41783Y37084
X30226Y37465
X30226Y43180
X41148Y41910
X38608Y41910
X38608Y49530
X32639Y50673
X33236Y38735
X32258Y38735
X44958Y57277
X57658Y8509
X58166Y24130
X56642Y50000
X56642Y52832
X64897Y53048
X68961Y55245
X60833Y18288
X58420Y11316
X52959Y13335
X53594Y36195
X58166Y36195
X65786Y13970
X66167Y24384
X60960Y48260
X60198Y24384
X51054Y16764
X59563Y15240
X50546Y10414
X50419Y12700
X52705Y6604
X52197Y2667
X64389Y2540
X68961Y6350
X64389Y8001
X52705Y11430
X61976Y20701
X64389Y21082
X59055Y26289
X61595Y31115
X65786Y27940
X57912Y22860
X54991Y22860
X53086Y21717
X53086Y29210
X51562Y33020
X58166Y43180
X58166Y41910
X59436Y41910
X59436Y43180
X59436Y44450
X58166Y44450
X58166Y45720
X59436Y45720
X65024Y50927
X51181Y50927
X54610Y4191
X61722Y4318
X61976Y8509
X64516Y13843
X60706Y17272
X63754Y13589
X63754Y7366
X57277Y4318
X57404Y26162
X51181Y29210
X64516Y6350
X57112Y18161
X53086Y25400
X50038Y22860
X51435Y35052
X59690Y35052
X59690Y28194
X65151Y34417
X64389Y19901
X66675Y14605
X66675Y19939
X66040Y9057
X65248Y38481
X64389Y25146
X64516Y39624
X64516Y27051
X53848Y44450
X54420Y29718
X54356Y45720
X54483Y30480
X64389Y47460
X63881Y34925
X61468Y51435
X61595Y35687
X65024Y52070
X57277Y39713
X63373Y46990
X62611Y8890
X63716Y45720
X63246Y9525
X62954Y48260
X62611Y10287
X52832Y30988
X51943Y49530
X53467Y49530
X52070Y35687
X51435Y39751
X61976Y40005
X61976Y34290
X64008Y36322
X63500Y38227
X62484Y44577
X61849Y10414
X62484Y52070
X51943Y30988
X52578Y52070
X58420Y5080
X60071Y8376
X59563Y5080
X59563Y3505
X56591Y4953
X56457Y3498
X54394Y28956
X110109Y108458
M30