G04 EAGLE Gerber RS-274X export*
G75*
%MOMM*%
%FSLAX34Y34*%
%LPD*%
%INSolderpaste Top*%
%IPPOS*%
%AMOC8*
5,1,8,0,0,1.08239X$1,22.5*%
G01*
%ADD10R,0.600000X0.600000*%
%ADD11R,0.550000X1.200000*%
%ADD12C,0.300000*%
%ADD13R,1.100000X1.000000*%
%ADD14R,0.660000X0.300000*%
%ADD15R,2.000000X1.200000*%
%ADD16R,1.350000X0.600000*%
%ADD17R,0.900000X1.000000*%
%ADD18R,1.500000X0.900000*%
%ADD19R,0.900000X1.500000*%
%ADD20R,6.000000X6.000000*%
%ADD21R,0.900000X0.800000*%
%ADD22R,0.300000X1.000000*%
%ADD23R,0.600000X1.000000*%
%ADD24R,0.630000X0.830000*%
%ADD25R,0.600000X1.200000*%
%ADD26R,0.250000X0.637500*%
%ADD27R,0.500000X0.640000*%
%ADD28R,1.200000X0.550000*%
%ADD29R,0.700000X0.700000*%
%ADD30R,4.600000X1.000000*%
%ADD31R,3.400000X1.600000*%

G36*
X157300Y43951D02*
X157300Y43951D01*
X157301Y43951D01*
X158369Y43970D01*
X158376Y43975D01*
X158380Y43971D01*
X159417Y44227D01*
X159422Y44234D01*
X159428Y44231D01*
X160382Y44712D01*
X160386Y44719D01*
X160391Y44718D01*
X161215Y45399D01*
X161216Y45407D01*
X161222Y45407D01*
X161873Y46254D01*
X161873Y46262D01*
X161879Y46263D01*
X162326Y47234D01*
X162324Y47242D01*
X162329Y47244D01*
X162548Y48290D01*
X162545Y48297D01*
X162549Y48300D01*
X162549Y60300D01*
X162546Y60305D01*
X162549Y60308D01*
X162369Y61403D01*
X162363Y61409D01*
X162366Y61414D01*
X161947Y62442D01*
X161940Y62446D01*
X161942Y62451D01*
X161305Y63360D01*
X161297Y63363D01*
X161297Y63368D01*
X160474Y64112D01*
X160466Y64113D01*
X160465Y64119D01*
X159497Y64661D01*
X159488Y64660D01*
X159486Y64666D01*
X158422Y64979D01*
X158417Y64977D01*
X158413Y64977D01*
X158411Y64981D01*
X157303Y65049D01*
X157297Y65045D01*
X157293Y65049D01*
X156185Y64879D01*
X156179Y64873D01*
X156174Y64876D01*
X155132Y64464D01*
X155128Y64457D01*
X155123Y64459D01*
X154198Y63825D01*
X154196Y63817D01*
X154190Y63818D01*
X153430Y62995D01*
X153429Y62986D01*
X153423Y62986D01*
X152866Y62014D01*
X152867Y62006D01*
X152861Y62004D01*
X152534Y60932D01*
X152537Y60924D01*
X152532Y60921D01*
X152451Y59804D01*
X152452Y59801D01*
X152451Y59800D01*
X152451Y47800D01*
X152456Y47793D01*
X152452Y47789D01*
X152671Y46845D01*
X152677Y46839D01*
X152675Y46834D01*
X153099Y45962D01*
X153106Y45959D01*
X153104Y45953D01*
X153711Y45197D01*
X153719Y45195D01*
X153719Y45189D01*
X154479Y44588D01*
X154488Y44588D01*
X154489Y44582D01*
X155364Y44164D01*
X155372Y44166D01*
X155374Y44161D01*
X156320Y43949D01*
X156327Y43952D01*
X156331Y43947D01*
X157300Y43951D01*
G37*
G36*
X1092020Y43951D02*
X1092020Y43951D01*
X1092021Y43951D01*
X1093089Y43970D01*
X1093096Y43975D01*
X1093100Y43971D01*
X1094137Y44227D01*
X1094142Y44234D01*
X1094148Y44231D01*
X1095102Y44712D01*
X1095106Y44719D01*
X1095111Y44718D01*
X1095935Y45399D01*
X1095936Y45407D01*
X1095942Y45407D01*
X1096593Y46254D01*
X1096593Y46262D01*
X1096599Y46263D01*
X1097046Y47234D01*
X1097044Y47242D01*
X1097049Y47244D01*
X1097268Y48290D01*
X1097265Y48297D01*
X1097269Y48300D01*
X1097269Y60300D01*
X1097266Y60305D01*
X1097269Y60308D01*
X1097089Y61403D01*
X1097083Y61409D01*
X1097086Y61414D01*
X1096667Y62442D01*
X1096660Y62446D01*
X1096662Y62451D01*
X1096025Y63360D01*
X1096017Y63363D01*
X1096017Y63368D01*
X1095194Y64112D01*
X1095186Y64113D01*
X1095185Y64119D01*
X1094217Y64661D01*
X1094208Y64660D01*
X1094206Y64666D01*
X1093142Y64979D01*
X1093137Y64977D01*
X1093133Y64977D01*
X1093131Y64981D01*
X1092023Y65049D01*
X1092017Y65045D01*
X1092013Y65049D01*
X1090905Y64879D01*
X1090899Y64873D01*
X1090894Y64876D01*
X1089852Y64464D01*
X1089848Y64457D01*
X1089843Y64459D01*
X1088918Y63825D01*
X1088916Y63817D01*
X1088910Y63818D01*
X1088150Y62995D01*
X1088149Y62986D01*
X1088143Y62986D01*
X1087586Y62014D01*
X1087587Y62006D01*
X1087581Y62004D01*
X1087254Y60932D01*
X1087257Y60924D01*
X1087252Y60921D01*
X1087171Y59804D01*
X1087172Y59801D01*
X1087171Y59800D01*
X1087171Y47800D01*
X1087176Y47793D01*
X1087172Y47789D01*
X1087391Y46845D01*
X1087397Y46839D01*
X1087395Y46834D01*
X1087819Y45962D01*
X1087826Y45959D01*
X1087824Y45953D01*
X1088431Y45197D01*
X1088439Y45195D01*
X1088439Y45189D01*
X1089199Y44588D01*
X1089208Y44588D01*
X1089209Y44582D01*
X1090084Y44164D01*
X1090092Y44166D01*
X1090094Y44161D01*
X1091040Y43949D01*
X1091047Y43952D01*
X1091051Y43947D01*
X1092020Y43951D01*
G37*
G36*
X858340Y43951D02*
X858340Y43951D01*
X858341Y43951D01*
X859409Y43970D01*
X859416Y43975D01*
X859420Y43971D01*
X860457Y44227D01*
X860462Y44234D01*
X860468Y44231D01*
X861422Y44712D01*
X861426Y44719D01*
X861431Y44718D01*
X862255Y45399D01*
X862256Y45407D01*
X862262Y45407D01*
X862913Y46254D01*
X862913Y46262D01*
X862919Y46263D01*
X863366Y47234D01*
X863364Y47242D01*
X863369Y47244D01*
X863588Y48290D01*
X863585Y48297D01*
X863589Y48300D01*
X863589Y60300D01*
X863586Y60305D01*
X863589Y60308D01*
X863409Y61403D01*
X863403Y61409D01*
X863406Y61414D01*
X862987Y62442D01*
X862980Y62446D01*
X862982Y62451D01*
X862345Y63360D01*
X862337Y63363D01*
X862337Y63368D01*
X861514Y64112D01*
X861506Y64113D01*
X861505Y64119D01*
X860537Y64661D01*
X860528Y64660D01*
X860526Y64666D01*
X859462Y64979D01*
X859457Y64977D01*
X859453Y64977D01*
X859451Y64981D01*
X858343Y65049D01*
X858337Y65045D01*
X858333Y65049D01*
X857225Y64879D01*
X857219Y64873D01*
X857214Y64876D01*
X856172Y64464D01*
X856168Y64457D01*
X856163Y64459D01*
X855238Y63825D01*
X855236Y63817D01*
X855230Y63818D01*
X854470Y62995D01*
X854469Y62986D01*
X854463Y62986D01*
X853906Y62014D01*
X853907Y62006D01*
X853901Y62004D01*
X853574Y60932D01*
X853577Y60924D01*
X853572Y60921D01*
X853491Y59804D01*
X853492Y59801D01*
X853491Y59800D01*
X853491Y47800D01*
X853496Y47793D01*
X853492Y47789D01*
X853711Y46845D01*
X853717Y46839D01*
X853715Y46834D01*
X854139Y45962D01*
X854146Y45959D01*
X854144Y45953D01*
X854751Y45197D01*
X854759Y45195D01*
X854759Y45189D01*
X855519Y44588D01*
X855528Y44588D01*
X855529Y44582D01*
X856404Y44164D01*
X856412Y44166D01*
X856414Y44161D01*
X857360Y43949D01*
X857367Y43952D01*
X857371Y43947D01*
X858340Y43951D01*
G37*
G36*
X624660Y43951D02*
X624660Y43951D01*
X624661Y43951D01*
X625729Y43970D01*
X625736Y43975D01*
X625740Y43971D01*
X626777Y44227D01*
X626782Y44234D01*
X626788Y44231D01*
X627742Y44712D01*
X627746Y44719D01*
X627751Y44718D01*
X628575Y45399D01*
X628576Y45407D01*
X628582Y45407D01*
X629233Y46254D01*
X629233Y46262D01*
X629239Y46263D01*
X629686Y47234D01*
X629684Y47242D01*
X629689Y47244D01*
X629908Y48290D01*
X629905Y48297D01*
X629909Y48300D01*
X629909Y60300D01*
X629906Y60305D01*
X629909Y60308D01*
X629729Y61403D01*
X629723Y61409D01*
X629726Y61414D01*
X629307Y62442D01*
X629300Y62446D01*
X629302Y62451D01*
X628665Y63360D01*
X628657Y63363D01*
X628657Y63368D01*
X627834Y64112D01*
X627826Y64113D01*
X627825Y64119D01*
X626857Y64661D01*
X626848Y64660D01*
X626846Y64666D01*
X625782Y64979D01*
X625777Y64977D01*
X625773Y64977D01*
X625771Y64981D01*
X624663Y65049D01*
X624657Y65045D01*
X624653Y65049D01*
X623545Y64879D01*
X623539Y64873D01*
X623534Y64876D01*
X622492Y64464D01*
X622488Y64457D01*
X622483Y64459D01*
X621558Y63825D01*
X621556Y63817D01*
X621550Y63818D01*
X620790Y62995D01*
X620789Y62986D01*
X620783Y62986D01*
X620226Y62014D01*
X620227Y62006D01*
X620221Y62004D01*
X619894Y60932D01*
X619897Y60924D01*
X619892Y60921D01*
X619811Y59804D01*
X619812Y59801D01*
X619811Y59800D01*
X619811Y47800D01*
X619816Y47793D01*
X619812Y47789D01*
X620031Y46845D01*
X620037Y46839D01*
X620035Y46834D01*
X620459Y45962D01*
X620466Y45959D01*
X620464Y45953D01*
X621071Y45197D01*
X621079Y45195D01*
X621079Y45189D01*
X621839Y44588D01*
X621848Y44588D01*
X621849Y44582D01*
X622724Y44164D01*
X622732Y44166D01*
X622734Y44161D01*
X623680Y43949D01*
X623687Y43952D01*
X623691Y43947D01*
X624660Y43951D01*
G37*
G36*
X390980Y43951D02*
X390980Y43951D01*
X390981Y43951D01*
X392049Y43970D01*
X392056Y43975D01*
X392060Y43971D01*
X393097Y44227D01*
X393102Y44234D01*
X393108Y44231D01*
X394062Y44712D01*
X394066Y44719D01*
X394071Y44718D01*
X394895Y45399D01*
X394896Y45407D01*
X394902Y45407D01*
X395553Y46254D01*
X395553Y46262D01*
X395559Y46263D01*
X396006Y47234D01*
X396004Y47242D01*
X396009Y47244D01*
X396228Y48290D01*
X396225Y48297D01*
X396229Y48300D01*
X396229Y60300D01*
X396226Y60305D01*
X396229Y60308D01*
X396049Y61403D01*
X396043Y61409D01*
X396046Y61414D01*
X395627Y62442D01*
X395620Y62446D01*
X395622Y62451D01*
X394985Y63360D01*
X394977Y63363D01*
X394977Y63368D01*
X394154Y64112D01*
X394146Y64113D01*
X394145Y64119D01*
X393177Y64661D01*
X393168Y64660D01*
X393166Y64666D01*
X392102Y64979D01*
X392097Y64977D01*
X392093Y64977D01*
X392091Y64981D01*
X390983Y65049D01*
X390977Y65045D01*
X390973Y65049D01*
X389865Y64879D01*
X389859Y64873D01*
X389854Y64876D01*
X388812Y64464D01*
X388808Y64457D01*
X388803Y64459D01*
X387878Y63825D01*
X387876Y63817D01*
X387870Y63818D01*
X387110Y62995D01*
X387109Y62986D01*
X387103Y62986D01*
X386546Y62014D01*
X386547Y62006D01*
X386541Y62004D01*
X386214Y60932D01*
X386217Y60924D01*
X386212Y60921D01*
X386131Y59804D01*
X386132Y59801D01*
X386131Y59800D01*
X386131Y47800D01*
X386136Y47793D01*
X386132Y47789D01*
X386351Y46845D01*
X386357Y46839D01*
X386355Y46834D01*
X386779Y45962D01*
X386786Y45959D01*
X386784Y45953D01*
X387391Y45197D01*
X387399Y45195D01*
X387399Y45189D01*
X388159Y44588D01*
X388168Y44588D01*
X388169Y44582D01*
X389044Y44164D01*
X389052Y44166D01*
X389054Y44161D01*
X390000Y43949D01*
X390007Y43952D01*
X390011Y43947D01*
X390980Y43951D01*
G37*
G36*
X1092020Y658631D02*
X1092020Y658631D01*
X1092021Y658631D01*
X1093089Y658650D01*
X1093096Y658655D01*
X1093100Y658651D01*
X1094137Y658907D01*
X1094142Y658914D01*
X1094148Y658911D01*
X1095102Y659392D01*
X1095106Y659399D01*
X1095111Y659398D01*
X1095935Y660079D01*
X1095936Y660087D01*
X1095942Y660087D01*
X1096593Y660934D01*
X1096593Y660942D01*
X1096599Y660943D01*
X1097046Y661914D01*
X1097044Y661922D01*
X1097049Y661924D01*
X1097268Y662970D01*
X1097265Y662977D01*
X1097269Y662980D01*
X1097269Y674980D01*
X1097266Y674985D01*
X1097269Y674988D01*
X1097089Y676083D01*
X1097083Y676089D01*
X1097086Y676094D01*
X1096667Y677122D01*
X1096660Y677126D01*
X1096662Y677131D01*
X1096025Y678040D01*
X1096017Y678043D01*
X1096017Y678048D01*
X1095194Y678792D01*
X1095186Y678793D01*
X1095185Y678799D01*
X1094217Y679341D01*
X1094208Y679340D01*
X1094206Y679346D01*
X1093142Y679659D01*
X1093137Y679657D01*
X1093133Y679657D01*
X1093131Y679661D01*
X1092023Y679729D01*
X1092017Y679725D01*
X1092013Y679729D01*
X1090905Y679559D01*
X1090899Y679553D01*
X1090894Y679556D01*
X1089852Y679144D01*
X1089848Y679137D01*
X1089843Y679139D01*
X1088918Y678505D01*
X1088916Y678497D01*
X1088910Y678498D01*
X1088150Y677675D01*
X1088149Y677666D01*
X1088143Y677666D01*
X1087586Y676694D01*
X1087587Y676686D01*
X1087581Y676684D01*
X1087254Y675612D01*
X1087257Y675604D01*
X1087252Y675601D01*
X1087171Y674484D01*
X1087172Y674481D01*
X1087171Y674480D01*
X1087171Y662480D01*
X1087176Y662473D01*
X1087172Y662469D01*
X1087391Y661525D01*
X1087397Y661519D01*
X1087395Y661514D01*
X1087819Y660642D01*
X1087826Y660639D01*
X1087824Y660633D01*
X1088431Y659877D01*
X1088439Y659875D01*
X1088439Y659869D01*
X1089199Y659268D01*
X1089208Y659268D01*
X1089209Y659262D01*
X1090084Y658844D01*
X1090092Y658846D01*
X1090094Y658841D01*
X1091040Y658629D01*
X1091047Y658632D01*
X1091051Y658627D01*
X1092020Y658631D01*
G37*
G36*
X624660Y658631D02*
X624660Y658631D01*
X624661Y658631D01*
X625729Y658650D01*
X625736Y658655D01*
X625740Y658651D01*
X626777Y658907D01*
X626782Y658914D01*
X626788Y658911D01*
X627742Y659392D01*
X627746Y659399D01*
X627751Y659398D01*
X628575Y660079D01*
X628576Y660087D01*
X628582Y660087D01*
X629233Y660934D01*
X629233Y660942D01*
X629239Y660943D01*
X629686Y661914D01*
X629684Y661922D01*
X629689Y661924D01*
X629908Y662970D01*
X629905Y662977D01*
X629909Y662980D01*
X629909Y674980D01*
X629906Y674985D01*
X629909Y674988D01*
X629729Y676083D01*
X629723Y676089D01*
X629726Y676094D01*
X629307Y677122D01*
X629300Y677126D01*
X629302Y677131D01*
X628665Y678040D01*
X628657Y678043D01*
X628657Y678048D01*
X627834Y678792D01*
X627826Y678793D01*
X627825Y678799D01*
X626857Y679341D01*
X626848Y679340D01*
X626846Y679346D01*
X625782Y679659D01*
X625777Y679657D01*
X625773Y679657D01*
X625771Y679661D01*
X624663Y679729D01*
X624657Y679725D01*
X624653Y679729D01*
X623545Y679559D01*
X623539Y679553D01*
X623534Y679556D01*
X622492Y679144D01*
X622488Y679137D01*
X622483Y679139D01*
X621558Y678505D01*
X621556Y678497D01*
X621550Y678498D01*
X620790Y677675D01*
X620789Y677666D01*
X620783Y677666D01*
X620226Y676694D01*
X620227Y676686D01*
X620221Y676684D01*
X619894Y675612D01*
X619897Y675604D01*
X619892Y675601D01*
X619811Y674484D01*
X619812Y674481D01*
X619811Y674480D01*
X619811Y662480D01*
X619816Y662473D01*
X619812Y662469D01*
X620031Y661525D01*
X620037Y661519D01*
X620035Y661514D01*
X620459Y660642D01*
X620466Y660639D01*
X620464Y660633D01*
X621071Y659877D01*
X621079Y659875D01*
X621079Y659869D01*
X621839Y659268D01*
X621848Y659268D01*
X621849Y659262D01*
X622724Y658844D01*
X622732Y658846D01*
X622734Y658841D01*
X623680Y658629D01*
X623687Y658632D01*
X623691Y658627D01*
X624660Y658631D01*
G37*
G36*
X858340Y658631D02*
X858340Y658631D01*
X858341Y658631D01*
X859409Y658650D01*
X859416Y658655D01*
X859420Y658651D01*
X860457Y658907D01*
X860462Y658914D01*
X860468Y658911D01*
X861422Y659392D01*
X861426Y659399D01*
X861431Y659398D01*
X862255Y660079D01*
X862256Y660087D01*
X862262Y660087D01*
X862913Y660934D01*
X862913Y660942D01*
X862919Y660943D01*
X863366Y661914D01*
X863364Y661922D01*
X863369Y661924D01*
X863588Y662970D01*
X863585Y662977D01*
X863589Y662980D01*
X863589Y674980D01*
X863586Y674985D01*
X863589Y674988D01*
X863409Y676083D01*
X863403Y676089D01*
X863406Y676094D01*
X862987Y677122D01*
X862980Y677126D01*
X862982Y677131D01*
X862345Y678040D01*
X862337Y678043D01*
X862337Y678048D01*
X861514Y678792D01*
X861506Y678793D01*
X861505Y678799D01*
X860537Y679341D01*
X860528Y679340D01*
X860526Y679346D01*
X859462Y679659D01*
X859457Y679657D01*
X859453Y679657D01*
X859451Y679661D01*
X858343Y679729D01*
X858337Y679725D01*
X858333Y679729D01*
X857225Y679559D01*
X857219Y679553D01*
X857214Y679556D01*
X856172Y679144D01*
X856168Y679137D01*
X856163Y679139D01*
X855238Y678505D01*
X855236Y678497D01*
X855230Y678498D01*
X854470Y677675D01*
X854469Y677666D01*
X854463Y677666D01*
X853906Y676694D01*
X853907Y676686D01*
X853901Y676684D01*
X853574Y675612D01*
X853577Y675604D01*
X853572Y675601D01*
X853491Y674484D01*
X853492Y674481D01*
X853491Y674480D01*
X853491Y662480D01*
X853496Y662473D01*
X853492Y662469D01*
X853711Y661525D01*
X853717Y661519D01*
X853715Y661514D01*
X854139Y660642D01*
X854146Y660639D01*
X854144Y660633D01*
X854751Y659877D01*
X854759Y659875D01*
X854759Y659869D01*
X855519Y659268D01*
X855528Y659268D01*
X855529Y659262D01*
X856404Y658844D01*
X856412Y658846D01*
X856414Y658841D01*
X857360Y658629D01*
X857367Y658632D01*
X857371Y658627D01*
X858340Y658631D01*
G37*
G36*
X390980Y658631D02*
X390980Y658631D01*
X390981Y658631D01*
X392049Y658650D01*
X392056Y658655D01*
X392060Y658651D01*
X393097Y658907D01*
X393102Y658914D01*
X393108Y658911D01*
X394062Y659392D01*
X394066Y659399D01*
X394071Y659398D01*
X394895Y660079D01*
X394896Y660087D01*
X394902Y660087D01*
X395553Y660934D01*
X395553Y660942D01*
X395559Y660943D01*
X396006Y661914D01*
X396004Y661922D01*
X396009Y661924D01*
X396228Y662970D01*
X396225Y662977D01*
X396229Y662980D01*
X396229Y674980D01*
X396226Y674985D01*
X396229Y674988D01*
X396049Y676083D01*
X396043Y676089D01*
X396046Y676094D01*
X395627Y677122D01*
X395620Y677126D01*
X395622Y677131D01*
X394985Y678040D01*
X394977Y678043D01*
X394977Y678048D01*
X394154Y678792D01*
X394146Y678793D01*
X394145Y678799D01*
X393177Y679341D01*
X393168Y679340D01*
X393166Y679346D01*
X392102Y679659D01*
X392097Y679657D01*
X392093Y679657D01*
X392091Y679661D01*
X390983Y679729D01*
X390977Y679725D01*
X390973Y679729D01*
X389865Y679559D01*
X389859Y679553D01*
X389854Y679556D01*
X388812Y679144D01*
X388808Y679137D01*
X388803Y679139D01*
X387878Y678505D01*
X387876Y678497D01*
X387870Y678498D01*
X387110Y677675D01*
X387109Y677666D01*
X387103Y677666D01*
X386546Y676694D01*
X386547Y676686D01*
X386541Y676684D01*
X386214Y675612D01*
X386217Y675604D01*
X386212Y675601D01*
X386131Y674484D01*
X386132Y674481D01*
X386131Y674480D01*
X386131Y662480D01*
X386136Y662473D01*
X386132Y662469D01*
X386351Y661525D01*
X386357Y661519D01*
X386355Y661514D01*
X386779Y660642D01*
X386786Y660639D01*
X386784Y660633D01*
X387391Y659877D01*
X387399Y659875D01*
X387399Y659869D01*
X388159Y659268D01*
X388168Y659268D01*
X388169Y659262D01*
X389044Y658844D01*
X389052Y658846D01*
X389054Y658841D01*
X390000Y658629D01*
X390007Y658632D01*
X390011Y658627D01*
X390980Y658631D01*
G37*
G36*
X157300Y658631D02*
X157300Y658631D01*
X157301Y658631D01*
X158369Y658650D01*
X158376Y658655D01*
X158380Y658651D01*
X159417Y658907D01*
X159422Y658914D01*
X159428Y658911D01*
X160382Y659392D01*
X160386Y659399D01*
X160391Y659398D01*
X161215Y660079D01*
X161216Y660087D01*
X161222Y660087D01*
X161873Y660934D01*
X161873Y660942D01*
X161879Y660943D01*
X162326Y661914D01*
X162324Y661922D01*
X162329Y661924D01*
X162548Y662970D01*
X162545Y662977D01*
X162549Y662980D01*
X162549Y674980D01*
X162546Y674985D01*
X162549Y674988D01*
X162369Y676083D01*
X162363Y676089D01*
X162366Y676094D01*
X161947Y677122D01*
X161940Y677126D01*
X161942Y677131D01*
X161305Y678040D01*
X161297Y678043D01*
X161297Y678048D01*
X160474Y678792D01*
X160466Y678793D01*
X160465Y678799D01*
X159497Y679341D01*
X159488Y679340D01*
X159486Y679346D01*
X158422Y679659D01*
X158417Y679657D01*
X158413Y679657D01*
X158411Y679661D01*
X157303Y679729D01*
X157297Y679725D01*
X157293Y679729D01*
X156185Y679559D01*
X156179Y679553D01*
X156174Y679556D01*
X155132Y679144D01*
X155128Y679137D01*
X155123Y679139D01*
X154198Y678505D01*
X154196Y678497D01*
X154190Y678498D01*
X153430Y677675D01*
X153429Y677666D01*
X153423Y677666D01*
X152866Y676694D01*
X152867Y676686D01*
X152861Y676684D01*
X152534Y675612D01*
X152537Y675604D01*
X152532Y675601D01*
X152451Y674484D01*
X152452Y674481D01*
X152451Y674480D01*
X152451Y662480D01*
X152456Y662473D01*
X152452Y662469D01*
X152671Y661525D01*
X152677Y661519D01*
X152675Y661514D01*
X153099Y660642D01*
X153106Y660639D01*
X153104Y660633D01*
X153711Y659877D01*
X153719Y659875D01*
X153719Y659869D01*
X154479Y659268D01*
X154488Y659268D01*
X154489Y659262D01*
X155364Y658844D01*
X155372Y658846D01*
X155374Y658841D01*
X156320Y658629D01*
X156327Y658632D01*
X156331Y658627D01*
X157300Y658631D01*
G37*
G36*
X772921Y658640D02*
X772921Y658640D01*
X772928Y658645D01*
X772932Y658641D01*
X773984Y658891D01*
X773989Y658897D01*
X773994Y658894D01*
X774964Y659371D01*
X774967Y659379D01*
X774973Y659377D01*
X775812Y660058D01*
X775814Y660066D01*
X775820Y660066D01*
X776486Y660917D01*
X776487Y660925D01*
X776492Y660926D01*
X776953Y661903D01*
X776951Y661911D01*
X776957Y661914D01*
X777188Y662969D01*
X777185Y662977D01*
X777189Y662980D01*
X777189Y674980D01*
X777185Y674985D01*
X777189Y674988D01*
X776996Y676094D01*
X776990Y676099D01*
X776993Y676104D01*
X776560Y677139D01*
X776553Y677143D01*
X776555Y677148D01*
X775902Y678061D01*
X775894Y678063D01*
X775895Y678069D01*
X775056Y678813D01*
X775047Y678814D01*
X775047Y678819D01*
X774063Y679358D01*
X774055Y679357D01*
X774053Y679362D01*
X772974Y679669D01*
X772966Y679666D01*
X772963Y679671D01*
X771843Y679729D01*
X771838Y679726D01*
X771835Y679729D01*
X770789Y679611D01*
X770783Y679605D01*
X770778Y679609D01*
X769784Y679261D01*
X769780Y679254D01*
X769775Y679256D01*
X768883Y678696D01*
X768881Y678689D01*
X768875Y678689D01*
X768131Y677945D01*
X768129Y677937D01*
X768124Y677937D01*
X767564Y677045D01*
X767564Y677037D01*
X767559Y677036D01*
X767211Y676042D01*
X767214Y676034D01*
X767209Y676031D01*
X767091Y674986D01*
X767093Y674982D01*
X767091Y674980D01*
X767091Y662980D01*
X767094Y662975D01*
X767091Y662972D01*
X767249Y661976D01*
X767255Y661970D01*
X767252Y661965D01*
X767627Y661029D01*
X767634Y661025D01*
X767632Y661019D01*
X768206Y660190D01*
X768214Y660187D01*
X768213Y660182D01*
X768957Y659501D01*
X768966Y659500D01*
X768966Y659494D01*
X769843Y658996D01*
X769852Y658997D01*
X769854Y658992D01*
X770819Y658701D01*
X770827Y658704D01*
X770830Y658699D01*
X771837Y658631D01*
X771839Y658632D01*
X771840Y658631D01*
X772921Y658640D01*
G37*
G36*
X71881Y658640D02*
X71881Y658640D01*
X71888Y658645D01*
X71892Y658641D01*
X72944Y658891D01*
X72949Y658897D01*
X72954Y658894D01*
X73924Y659371D01*
X73927Y659379D01*
X73933Y659377D01*
X74772Y660058D01*
X74774Y660066D01*
X74780Y660066D01*
X75446Y660917D01*
X75447Y660925D01*
X75452Y660926D01*
X75913Y661903D01*
X75911Y661911D01*
X75917Y661914D01*
X76148Y662969D01*
X76145Y662977D01*
X76149Y662980D01*
X76149Y674980D01*
X76145Y674985D01*
X76149Y674988D01*
X75956Y676094D01*
X75950Y676099D01*
X75953Y676104D01*
X75520Y677139D01*
X75513Y677143D01*
X75515Y677148D01*
X74862Y678061D01*
X74854Y678063D01*
X74855Y678069D01*
X74016Y678813D01*
X74007Y678814D01*
X74007Y678819D01*
X73023Y679358D01*
X73015Y679357D01*
X73013Y679362D01*
X71934Y679669D01*
X71926Y679666D01*
X71923Y679671D01*
X70803Y679729D01*
X70798Y679726D01*
X70795Y679729D01*
X69749Y679611D01*
X69743Y679605D01*
X69738Y679609D01*
X68744Y679261D01*
X68740Y679254D01*
X68735Y679256D01*
X67843Y678696D01*
X67841Y678689D01*
X67835Y678689D01*
X67091Y677945D01*
X67089Y677937D01*
X67084Y677937D01*
X66524Y677045D01*
X66524Y677037D01*
X66519Y677036D01*
X66171Y676042D01*
X66174Y676034D01*
X66169Y676031D01*
X66051Y674986D01*
X66053Y674982D01*
X66051Y674980D01*
X66051Y662980D01*
X66054Y662975D01*
X66051Y662972D01*
X66209Y661976D01*
X66215Y661970D01*
X66212Y661965D01*
X66587Y661029D01*
X66594Y661025D01*
X66592Y661019D01*
X67166Y660190D01*
X67174Y660187D01*
X67173Y660182D01*
X67917Y659501D01*
X67926Y659500D01*
X67926Y659494D01*
X68803Y658996D01*
X68812Y658997D01*
X68814Y658992D01*
X69779Y658701D01*
X69787Y658704D01*
X69790Y658699D01*
X70797Y658631D01*
X70799Y658632D01*
X70800Y658631D01*
X71881Y658640D01*
G37*
G36*
X1006601Y658640D02*
X1006601Y658640D01*
X1006608Y658645D01*
X1006612Y658641D01*
X1007664Y658891D01*
X1007669Y658897D01*
X1007674Y658894D01*
X1008644Y659371D01*
X1008647Y659379D01*
X1008653Y659377D01*
X1009492Y660058D01*
X1009494Y660066D01*
X1009500Y660066D01*
X1010166Y660917D01*
X1010167Y660925D01*
X1010172Y660926D01*
X1010633Y661903D01*
X1010631Y661911D01*
X1010637Y661914D01*
X1010868Y662969D01*
X1010865Y662977D01*
X1010869Y662980D01*
X1010869Y674980D01*
X1010865Y674985D01*
X1010869Y674988D01*
X1010676Y676094D01*
X1010670Y676099D01*
X1010673Y676104D01*
X1010240Y677139D01*
X1010233Y677143D01*
X1010235Y677148D01*
X1009582Y678061D01*
X1009574Y678063D01*
X1009575Y678069D01*
X1008736Y678813D01*
X1008727Y678814D01*
X1008727Y678819D01*
X1007743Y679358D01*
X1007735Y679357D01*
X1007733Y679362D01*
X1006654Y679669D01*
X1006646Y679666D01*
X1006643Y679671D01*
X1005523Y679729D01*
X1005518Y679726D01*
X1005515Y679729D01*
X1004469Y679611D01*
X1004463Y679605D01*
X1004458Y679609D01*
X1003464Y679261D01*
X1003460Y679254D01*
X1003455Y679256D01*
X1002563Y678696D01*
X1002561Y678689D01*
X1002555Y678689D01*
X1001811Y677945D01*
X1001809Y677937D01*
X1001804Y677937D01*
X1001244Y677045D01*
X1001244Y677037D01*
X1001239Y677036D01*
X1000891Y676042D01*
X1000894Y676034D01*
X1000889Y676031D01*
X1000771Y674986D01*
X1000773Y674982D01*
X1000771Y674980D01*
X1000771Y662980D01*
X1000774Y662975D01*
X1000771Y662972D01*
X1000929Y661976D01*
X1000935Y661970D01*
X1000932Y661965D01*
X1001307Y661029D01*
X1001314Y661025D01*
X1001312Y661019D01*
X1001886Y660190D01*
X1001894Y660187D01*
X1001893Y660182D01*
X1002637Y659501D01*
X1002646Y659500D01*
X1002646Y659494D01*
X1003523Y658996D01*
X1003532Y658997D01*
X1003534Y658992D01*
X1004499Y658701D01*
X1004507Y658704D01*
X1004510Y658699D01*
X1005517Y658631D01*
X1005519Y658632D01*
X1005520Y658631D01*
X1006601Y658640D01*
G37*
G36*
X539241Y658640D02*
X539241Y658640D01*
X539248Y658645D01*
X539252Y658641D01*
X540304Y658891D01*
X540309Y658897D01*
X540314Y658894D01*
X541284Y659371D01*
X541287Y659379D01*
X541293Y659377D01*
X542132Y660058D01*
X542134Y660066D01*
X542140Y660066D01*
X542806Y660917D01*
X542807Y660925D01*
X542812Y660926D01*
X543273Y661903D01*
X543271Y661911D01*
X543277Y661914D01*
X543508Y662969D01*
X543505Y662977D01*
X543509Y662980D01*
X543509Y674980D01*
X543505Y674985D01*
X543509Y674988D01*
X543316Y676094D01*
X543310Y676099D01*
X543313Y676104D01*
X542880Y677139D01*
X542873Y677143D01*
X542875Y677148D01*
X542222Y678061D01*
X542214Y678063D01*
X542215Y678069D01*
X541376Y678813D01*
X541367Y678814D01*
X541367Y678819D01*
X540383Y679358D01*
X540375Y679357D01*
X540373Y679362D01*
X539294Y679669D01*
X539286Y679666D01*
X539283Y679671D01*
X538163Y679729D01*
X538158Y679726D01*
X538155Y679729D01*
X537109Y679611D01*
X537103Y679605D01*
X537098Y679609D01*
X536104Y679261D01*
X536100Y679254D01*
X536095Y679256D01*
X535203Y678696D01*
X535201Y678689D01*
X535195Y678689D01*
X534451Y677945D01*
X534449Y677937D01*
X534444Y677937D01*
X533884Y677045D01*
X533884Y677037D01*
X533879Y677036D01*
X533531Y676042D01*
X533534Y676034D01*
X533529Y676031D01*
X533411Y674986D01*
X533413Y674982D01*
X533411Y674980D01*
X533411Y662980D01*
X533414Y662975D01*
X533411Y662972D01*
X533569Y661976D01*
X533575Y661970D01*
X533572Y661965D01*
X533947Y661029D01*
X533954Y661025D01*
X533952Y661019D01*
X534526Y660190D01*
X534534Y660187D01*
X534533Y660182D01*
X535277Y659501D01*
X535286Y659500D01*
X535286Y659494D01*
X536163Y658996D01*
X536172Y658997D01*
X536174Y658992D01*
X537139Y658701D01*
X537147Y658704D01*
X537150Y658699D01*
X538157Y658631D01*
X538159Y658632D01*
X538160Y658631D01*
X539241Y658640D01*
G37*
G36*
X305561Y658640D02*
X305561Y658640D01*
X305568Y658645D01*
X305572Y658641D01*
X306624Y658891D01*
X306629Y658897D01*
X306634Y658894D01*
X307604Y659371D01*
X307607Y659379D01*
X307613Y659377D01*
X308452Y660058D01*
X308454Y660066D01*
X308460Y660066D01*
X309126Y660917D01*
X309127Y660925D01*
X309132Y660926D01*
X309593Y661903D01*
X309591Y661911D01*
X309597Y661914D01*
X309828Y662969D01*
X309825Y662977D01*
X309829Y662980D01*
X309829Y674980D01*
X309825Y674985D01*
X309829Y674988D01*
X309636Y676094D01*
X309630Y676099D01*
X309633Y676104D01*
X309200Y677139D01*
X309193Y677143D01*
X309195Y677148D01*
X308542Y678061D01*
X308534Y678063D01*
X308535Y678069D01*
X307696Y678813D01*
X307687Y678814D01*
X307687Y678819D01*
X306703Y679358D01*
X306695Y679357D01*
X306693Y679362D01*
X305614Y679669D01*
X305606Y679666D01*
X305603Y679671D01*
X304483Y679729D01*
X304478Y679726D01*
X304475Y679729D01*
X303429Y679611D01*
X303423Y679605D01*
X303418Y679609D01*
X302424Y679261D01*
X302420Y679254D01*
X302415Y679256D01*
X301523Y678696D01*
X301521Y678689D01*
X301515Y678689D01*
X300771Y677945D01*
X300769Y677937D01*
X300764Y677937D01*
X300204Y677045D01*
X300204Y677037D01*
X300199Y677036D01*
X299851Y676042D01*
X299854Y676034D01*
X299849Y676031D01*
X299731Y674986D01*
X299733Y674982D01*
X299731Y674980D01*
X299731Y662980D01*
X299734Y662975D01*
X299731Y662972D01*
X299889Y661976D01*
X299895Y661970D01*
X299892Y661965D01*
X300267Y661029D01*
X300274Y661025D01*
X300272Y661019D01*
X300846Y660190D01*
X300854Y660187D01*
X300853Y660182D01*
X301597Y659501D01*
X301606Y659500D01*
X301606Y659494D01*
X302483Y658996D01*
X302492Y658997D01*
X302494Y658992D01*
X303459Y658701D01*
X303467Y658704D01*
X303470Y658699D01*
X304477Y658631D01*
X304479Y658632D01*
X304480Y658631D01*
X305561Y658640D01*
G37*
G36*
X71881Y43960D02*
X71881Y43960D01*
X71888Y43965D01*
X71892Y43961D01*
X72944Y44211D01*
X72949Y44217D01*
X72954Y44214D01*
X73924Y44691D01*
X73927Y44699D01*
X73933Y44697D01*
X74772Y45378D01*
X74774Y45386D01*
X74780Y45386D01*
X75446Y46237D01*
X75447Y46245D01*
X75452Y46246D01*
X75913Y47223D01*
X75911Y47231D01*
X75917Y47234D01*
X76148Y48289D01*
X76145Y48297D01*
X76149Y48300D01*
X76149Y60300D01*
X76145Y60305D01*
X76149Y60308D01*
X75956Y61414D01*
X75950Y61419D01*
X75953Y61424D01*
X75520Y62459D01*
X75513Y62463D01*
X75515Y62468D01*
X74862Y63381D01*
X74854Y63383D01*
X74855Y63389D01*
X74016Y64133D01*
X74007Y64134D01*
X74007Y64139D01*
X73023Y64678D01*
X73015Y64677D01*
X73013Y64682D01*
X71934Y64989D01*
X71926Y64986D01*
X71923Y64991D01*
X70803Y65049D01*
X70798Y65046D01*
X70795Y65049D01*
X69749Y64931D01*
X69743Y64925D01*
X69738Y64929D01*
X68744Y64581D01*
X68740Y64574D01*
X68735Y64576D01*
X67843Y64016D01*
X67841Y64009D01*
X67835Y64009D01*
X67091Y63265D01*
X67089Y63257D01*
X67084Y63257D01*
X66524Y62365D01*
X66524Y62357D01*
X66519Y62356D01*
X66171Y61362D01*
X66174Y61354D01*
X66169Y61351D01*
X66051Y60306D01*
X66053Y60302D01*
X66051Y60300D01*
X66051Y48300D01*
X66054Y48295D01*
X66051Y48292D01*
X66209Y47296D01*
X66215Y47290D01*
X66212Y47285D01*
X66587Y46349D01*
X66594Y46345D01*
X66592Y46339D01*
X67166Y45510D01*
X67174Y45507D01*
X67173Y45502D01*
X67917Y44821D01*
X67926Y44820D01*
X67926Y44814D01*
X68803Y44316D01*
X68812Y44317D01*
X68814Y44312D01*
X69779Y44021D01*
X69787Y44024D01*
X69790Y44019D01*
X70797Y43951D01*
X70799Y43952D01*
X70800Y43951D01*
X71881Y43960D01*
G37*
G36*
X539241Y43960D02*
X539241Y43960D01*
X539248Y43965D01*
X539252Y43961D01*
X540304Y44211D01*
X540309Y44217D01*
X540314Y44214D01*
X541284Y44691D01*
X541287Y44699D01*
X541293Y44697D01*
X542132Y45378D01*
X542134Y45386D01*
X542140Y45386D01*
X542806Y46237D01*
X542807Y46245D01*
X542812Y46246D01*
X543273Y47223D01*
X543271Y47231D01*
X543277Y47234D01*
X543508Y48289D01*
X543505Y48297D01*
X543509Y48300D01*
X543509Y60300D01*
X543505Y60305D01*
X543509Y60308D01*
X543316Y61414D01*
X543310Y61419D01*
X543313Y61424D01*
X542880Y62459D01*
X542873Y62463D01*
X542875Y62468D01*
X542222Y63381D01*
X542214Y63383D01*
X542215Y63389D01*
X541376Y64133D01*
X541367Y64134D01*
X541367Y64139D01*
X540383Y64678D01*
X540375Y64677D01*
X540373Y64682D01*
X539294Y64989D01*
X539286Y64986D01*
X539283Y64991D01*
X538163Y65049D01*
X538158Y65046D01*
X538155Y65049D01*
X537109Y64931D01*
X537103Y64925D01*
X537098Y64929D01*
X536104Y64581D01*
X536100Y64574D01*
X536095Y64576D01*
X535203Y64016D01*
X535201Y64009D01*
X535195Y64009D01*
X534451Y63265D01*
X534449Y63257D01*
X534444Y63257D01*
X533884Y62365D01*
X533884Y62357D01*
X533879Y62356D01*
X533531Y61362D01*
X533534Y61354D01*
X533529Y61351D01*
X533411Y60306D01*
X533413Y60302D01*
X533411Y60300D01*
X533411Y48300D01*
X533414Y48295D01*
X533411Y48292D01*
X533569Y47296D01*
X533575Y47290D01*
X533572Y47285D01*
X533947Y46349D01*
X533954Y46345D01*
X533952Y46339D01*
X534526Y45510D01*
X534534Y45507D01*
X534533Y45502D01*
X535277Y44821D01*
X535286Y44820D01*
X535286Y44814D01*
X536163Y44316D01*
X536172Y44317D01*
X536174Y44312D01*
X537139Y44021D01*
X537147Y44024D01*
X537150Y44019D01*
X538157Y43951D01*
X538159Y43952D01*
X538160Y43951D01*
X539241Y43960D01*
G37*
G36*
X772921Y43960D02*
X772921Y43960D01*
X772928Y43965D01*
X772932Y43961D01*
X773984Y44211D01*
X773989Y44217D01*
X773994Y44214D01*
X774964Y44691D01*
X774967Y44699D01*
X774973Y44697D01*
X775812Y45378D01*
X775814Y45386D01*
X775820Y45386D01*
X776486Y46237D01*
X776487Y46245D01*
X776492Y46246D01*
X776953Y47223D01*
X776951Y47231D01*
X776957Y47234D01*
X777188Y48289D01*
X777185Y48297D01*
X777189Y48300D01*
X777189Y60300D01*
X777185Y60305D01*
X777189Y60308D01*
X776996Y61414D01*
X776990Y61419D01*
X776993Y61424D01*
X776560Y62459D01*
X776553Y62463D01*
X776555Y62468D01*
X775902Y63381D01*
X775894Y63383D01*
X775895Y63389D01*
X775056Y64133D01*
X775047Y64134D01*
X775047Y64139D01*
X774063Y64678D01*
X774055Y64677D01*
X774053Y64682D01*
X772974Y64989D01*
X772966Y64986D01*
X772963Y64991D01*
X771843Y65049D01*
X771838Y65046D01*
X771835Y65049D01*
X770789Y64931D01*
X770783Y64925D01*
X770778Y64929D01*
X769784Y64581D01*
X769780Y64574D01*
X769775Y64576D01*
X768883Y64016D01*
X768881Y64009D01*
X768875Y64009D01*
X768131Y63265D01*
X768129Y63257D01*
X768124Y63257D01*
X767564Y62365D01*
X767564Y62357D01*
X767559Y62356D01*
X767211Y61362D01*
X767214Y61354D01*
X767209Y61351D01*
X767091Y60306D01*
X767093Y60302D01*
X767091Y60300D01*
X767091Y48300D01*
X767094Y48295D01*
X767091Y48292D01*
X767249Y47296D01*
X767255Y47290D01*
X767252Y47285D01*
X767627Y46349D01*
X767634Y46345D01*
X767632Y46339D01*
X768206Y45510D01*
X768214Y45507D01*
X768213Y45502D01*
X768957Y44821D01*
X768966Y44820D01*
X768966Y44814D01*
X769843Y44316D01*
X769852Y44317D01*
X769854Y44312D01*
X770819Y44021D01*
X770827Y44024D01*
X770830Y44019D01*
X771837Y43951D01*
X771839Y43952D01*
X771840Y43951D01*
X772921Y43960D01*
G37*
G36*
X1006601Y43960D02*
X1006601Y43960D01*
X1006608Y43965D01*
X1006612Y43961D01*
X1007664Y44211D01*
X1007669Y44217D01*
X1007674Y44214D01*
X1008644Y44691D01*
X1008647Y44699D01*
X1008653Y44697D01*
X1009492Y45378D01*
X1009494Y45386D01*
X1009500Y45386D01*
X1010166Y46237D01*
X1010167Y46245D01*
X1010172Y46246D01*
X1010633Y47223D01*
X1010631Y47231D01*
X1010637Y47234D01*
X1010868Y48289D01*
X1010865Y48297D01*
X1010869Y48300D01*
X1010869Y60300D01*
X1010865Y60305D01*
X1010869Y60308D01*
X1010676Y61414D01*
X1010670Y61419D01*
X1010673Y61424D01*
X1010240Y62459D01*
X1010233Y62463D01*
X1010235Y62468D01*
X1009582Y63381D01*
X1009574Y63383D01*
X1009575Y63389D01*
X1008736Y64133D01*
X1008727Y64134D01*
X1008727Y64139D01*
X1007743Y64678D01*
X1007735Y64677D01*
X1007733Y64682D01*
X1006654Y64989D01*
X1006646Y64986D01*
X1006643Y64991D01*
X1005523Y65049D01*
X1005518Y65046D01*
X1005515Y65049D01*
X1004469Y64931D01*
X1004463Y64925D01*
X1004458Y64929D01*
X1003464Y64581D01*
X1003460Y64574D01*
X1003455Y64576D01*
X1002563Y64016D01*
X1002561Y64009D01*
X1002555Y64009D01*
X1001811Y63265D01*
X1001809Y63257D01*
X1001804Y63257D01*
X1001244Y62365D01*
X1001244Y62357D01*
X1001239Y62356D01*
X1000891Y61362D01*
X1000894Y61354D01*
X1000889Y61351D01*
X1000771Y60306D01*
X1000773Y60302D01*
X1000771Y60300D01*
X1000771Y48300D01*
X1000774Y48295D01*
X1000771Y48292D01*
X1000929Y47296D01*
X1000935Y47290D01*
X1000932Y47285D01*
X1001307Y46349D01*
X1001314Y46345D01*
X1001312Y46339D01*
X1001886Y45510D01*
X1001894Y45507D01*
X1001893Y45502D01*
X1002637Y44821D01*
X1002646Y44820D01*
X1002646Y44814D01*
X1003523Y44316D01*
X1003532Y44317D01*
X1003534Y44312D01*
X1004499Y44021D01*
X1004507Y44024D01*
X1004510Y44019D01*
X1005517Y43951D01*
X1005519Y43952D01*
X1005520Y43951D01*
X1006601Y43960D01*
G37*
G36*
X305561Y43960D02*
X305561Y43960D01*
X305568Y43965D01*
X305572Y43961D01*
X306624Y44211D01*
X306629Y44217D01*
X306634Y44214D01*
X307604Y44691D01*
X307607Y44699D01*
X307613Y44697D01*
X308452Y45378D01*
X308454Y45386D01*
X308460Y45386D01*
X309126Y46237D01*
X309127Y46245D01*
X309132Y46246D01*
X309593Y47223D01*
X309591Y47231D01*
X309597Y47234D01*
X309828Y48289D01*
X309825Y48297D01*
X309829Y48300D01*
X309829Y60300D01*
X309825Y60305D01*
X309829Y60308D01*
X309636Y61414D01*
X309630Y61419D01*
X309633Y61424D01*
X309200Y62459D01*
X309193Y62463D01*
X309195Y62468D01*
X308542Y63381D01*
X308534Y63383D01*
X308535Y63389D01*
X307696Y64133D01*
X307687Y64134D01*
X307687Y64139D01*
X306703Y64678D01*
X306695Y64677D01*
X306693Y64682D01*
X305614Y64989D01*
X305606Y64986D01*
X305603Y64991D01*
X304483Y65049D01*
X304478Y65046D01*
X304475Y65049D01*
X303429Y64931D01*
X303423Y64925D01*
X303418Y64929D01*
X302424Y64581D01*
X302420Y64574D01*
X302415Y64576D01*
X301523Y64016D01*
X301521Y64009D01*
X301515Y64009D01*
X300771Y63265D01*
X300769Y63257D01*
X300764Y63257D01*
X300204Y62365D01*
X300204Y62357D01*
X300199Y62356D01*
X299851Y61362D01*
X299854Y61354D01*
X299849Y61351D01*
X299731Y60306D01*
X299733Y60302D01*
X299731Y60300D01*
X299731Y48300D01*
X299734Y48295D01*
X299731Y48292D01*
X299889Y47296D01*
X299895Y47290D01*
X299892Y47285D01*
X300267Y46349D01*
X300274Y46345D01*
X300272Y46339D01*
X300846Y45510D01*
X300854Y45507D01*
X300853Y45502D01*
X301597Y44821D01*
X301606Y44820D01*
X301606Y44814D01*
X302483Y44316D01*
X302492Y44317D01*
X302494Y44312D01*
X303459Y44021D01*
X303467Y44024D01*
X303470Y44019D01*
X304477Y43951D01*
X304479Y43952D01*
X304480Y43951D01*
X305561Y43960D01*
G37*
G36*
X625164Y619135D02*
X625164Y619135D01*
X625167Y619131D01*
X626243Y619286D01*
X626248Y619292D01*
X626253Y619289D01*
X627267Y619679D01*
X627271Y619686D01*
X627277Y619685D01*
X628179Y620291D01*
X628181Y620299D01*
X628187Y620298D01*
X628931Y621090D01*
X628932Y621098D01*
X628938Y621098D01*
X629487Y622036D01*
X629486Y622044D01*
X629492Y622046D01*
X629819Y623082D01*
X629816Y623090D01*
X629821Y623093D01*
X629909Y624176D01*
X629907Y624179D01*
X629909Y624180D01*
X629909Y630180D01*
X629906Y630184D01*
X629909Y630186D01*
X629759Y631319D01*
X629753Y631325D01*
X629756Y631330D01*
X629358Y632400D01*
X629351Y632404D01*
X629353Y632410D01*
X628726Y633365D01*
X628718Y633368D01*
X628719Y633373D01*
X627896Y634165D01*
X627888Y634166D01*
X627887Y634172D01*
X626908Y634761D01*
X626900Y634760D01*
X626898Y634765D01*
X625813Y635121D01*
X625805Y635119D01*
X625802Y635123D01*
X624665Y635229D01*
X624656Y635224D01*
X624651Y635228D01*
X623514Y635021D01*
X623508Y635015D01*
X623503Y635018D01*
X622441Y634563D01*
X622437Y634556D01*
X622431Y634558D01*
X621496Y633878D01*
X621494Y633870D01*
X621488Y633871D01*
X620728Y633000D01*
X620728Y632992D01*
X620722Y632991D01*
X620175Y631972D01*
X620176Y631964D01*
X620171Y631962D01*
X620167Y631949D01*
X620154Y631900D01*
X620153Y631900D01*
X620154Y631900D01*
X620140Y631851D01*
X620126Y631801D01*
X620113Y631752D01*
X620099Y631703D01*
X620086Y631654D01*
X620072Y631604D01*
X620059Y631555D01*
X620045Y631506D01*
X620031Y631457D01*
X620018Y631407D01*
X620004Y631358D01*
X619991Y631309D01*
X619977Y631260D01*
X619964Y631210D01*
X619950Y631161D01*
X619937Y631112D01*
X619936Y631112D01*
X619923Y631063D01*
X619909Y631013D01*
X619864Y630848D01*
X619867Y630840D01*
X619862Y630837D01*
X619811Y629682D01*
X619812Y629681D01*
X619811Y629680D01*
X619811Y623680D01*
X619815Y623674D01*
X619812Y623671D01*
X620024Y622590D01*
X620030Y622585D01*
X620027Y622580D01*
X620474Y621574D01*
X620481Y621570D01*
X620479Y621564D01*
X621139Y620683D01*
X621147Y620680D01*
X621147Y620675D01*
X621986Y619962D01*
X621994Y619962D01*
X621995Y619956D01*
X622972Y619448D01*
X622980Y619449D01*
X622982Y619444D01*
X624047Y619166D01*
X624055Y619169D01*
X624058Y619165D01*
X625159Y619131D01*
X625164Y619135D01*
G37*
G36*
X858844Y619135D02*
X858844Y619135D01*
X858847Y619131D01*
X859923Y619286D01*
X859928Y619292D01*
X859933Y619289D01*
X860947Y619679D01*
X860951Y619686D01*
X860957Y619685D01*
X861859Y620291D01*
X861861Y620299D01*
X861867Y620298D01*
X862611Y621090D01*
X862612Y621098D01*
X862618Y621098D01*
X863167Y622036D01*
X863166Y622044D01*
X863172Y622046D01*
X863499Y623082D01*
X863496Y623090D01*
X863501Y623093D01*
X863589Y624176D01*
X863587Y624179D01*
X863589Y624180D01*
X863589Y630180D01*
X863586Y630184D01*
X863589Y630186D01*
X863439Y631319D01*
X863433Y631325D01*
X863436Y631330D01*
X863038Y632400D01*
X863031Y632404D01*
X863033Y632410D01*
X862406Y633365D01*
X862398Y633368D01*
X862399Y633373D01*
X861576Y634165D01*
X861568Y634166D01*
X861567Y634172D01*
X860588Y634761D01*
X860580Y634760D01*
X860578Y634765D01*
X859493Y635121D01*
X859485Y635119D01*
X859482Y635123D01*
X858345Y635229D01*
X858336Y635224D01*
X858331Y635228D01*
X857194Y635021D01*
X857188Y635015D01*
X857183Y635018D01*
X856121Y634563D01*
X856117Y634556D01*
X856111Y634558D01*
X855176Y633878D01*
X855174Y633870D01*
X855168Y633871D01*
X854408Y633000D01*
X854408Y632992D01*
X854402Y632991D01*
X853855Y631972D01*
X853856Y631964D01*
X853851Y631962D01*
X853847Y631949D01*
X853834Y631900D01*
X853833Y631900D01*
X853834Y631900D01*
X853820Y631851D01*
X853806Y631801D01*
X853793Y631752D01*
X853779Y631703D01*
X853766Y631654D01*
X853752Y631604D01*
X853739Y631555D01*
X853725Y631506D01*
X853711Y631457D01*
X853698Y631407D01*
X853684Y631358D01*
X853671Y631309D01*
X853657Y631260D01*
X853644Y631210D01*
X853630Y631161D01*
X853617Y631112D01*
X853616Y631112D01*
X853603Y631063D01*
X853589Y631013D01*
X853544Y630848D01*
X853547Y630840D01*
X853542Y630837D01*
X853491Y629682D01*
X853492Y629681D01*
X853491Y629680D01*
X853491Y623680D01*
X853495Y623674D01*
X853492Y623671D01*
X853704Y622590D01*
X853710Y622585D01*
X853707Y622580D01*
X854154Y621574D01*
X854161Y621570D01*
X854159Y621564D01*
X854819Y620683D01*
X854827Y620680D01*
X854827Y620675D01*
X855666Y619962D01*
X855674Y619962D01*
X855675Y619956D01*
X856652Y619448D01*
X856660Y619449D01*
X856662Y619444D01*
X857727Y619166D01*
X857735Y619169D01*
X857738Y619165D01*
X858839Y619131D01*
X858844Y619135D01*
G37*
G36*
X157804Y619135D02*
X157804Y619135D01*
X157807Y619131D01*
X158883Y619286D01*
X158888Y619292D01*
X158893Y619289D01*
X159907Y619679D01*
X159911Y619686D01*
X159917Y619685D01*
X160819Y620291D01*
X160821Y620299D01*
X160827Y620298D01*
X161571Y621090D01*
X161572Y621098D01*
X161578Y621098D01*
X162127Y622036D01*
X162126Y622044D01*
X162132Y622046D01*
X162459Y623082D01*
X162456Y623090D01*
X162461Y623093D01*
X162549Y624176D01*
X162547Y624179D01*
X162549Y624180D01*
X162549Y630180D01*
X162546Y630184D01*
X162549Y630186D01*
X162399Y631319D01*
X162393Y631325D01*
X162396Y631330D01*
X161998Y632400D01*
X161991Y632404D01*
X161993Y632410D01*
X161366Y633365D01*
X161358Y633368D01*
X161359Y633373D01*
X160536Y634165D01*
X160528Y634166D01*
X160527Y634172D01*
X159548Y634761D01*
X159540Y634760D01*
X159538Y634765D01*
X158453Y635121D01*
X158445Y635119D01*
X158442Y635123D01*
X157305Y635229D01*
X157296Y635224D01*
X157291Y635228D01*
X156154Y635021D01*
X156148Y635015D01*
X156143Y635018D01*
X155081Y634563D01*
X155077Y634556D01*
X155071Y634558D01*
X154136Y633878D01*
X154134Y633870D01*
X154128Y633871D01*
X153368Y633000D01*
X153368Y632992D01*
X153362Y632991D01*
X152815Y631972D01*
X152816Y631964D01*
X152811Y631962D01*
X152807Y631949D01*
X152794Y631900D01*
X152793Y631900D01*
X152794Y631900D01*
X152780Y631851D01*
X152766Y631801D01*
X152753Y631752D01*
X152739Y631703D01*
X152726Y631654D01*
X152712Y631604D01*
X152699Y631555D01*
X152685Y631506D01*
X152671Y631457D01*
X152658Y631407D01*
X152644Y631358D01*
X152631Y631309D01*
X152617Y631260D01*
X152604Y631210D01*
X152590Y631161D01*
X152577Y631112D01*
X152576Y631112D01*
X152563Y631063D01*
X152549Y631013D01*
X152504Y630848D01*
X152507Y630840D01*
X152502Y630837D01*
X152451Y629682D01*
X152452Y629681D01*
X152451Y629680D01*
X152451Y623680D01*
X152455Y623674D01*
X152452Y623671D01*
X152664Y622590D01*
X152670Y622585D01*
X152667Y622580D01*
X153114Y621574D01*
X153121Y621570D01*
X153119Y621564D01*
X153779Y620683D01*
X153787Y620680D01*
X153787Y620675D01*
X154626Y619962D01*
X154634Y619962D01*
X154635Y619956D01*
X155612Y619448D01*
X155620Y619449D01*
X155622Y619444D01*
X156687Y619166D01*
X156695Y619169D01*
X156698Y619165D01*
X157799Y619131D01*
X157804Y619135D01*
G37*
G36*
X391484Y619135D02*
X391484Y619135D01*
X391487Y619131D01*
X392563Y619286D01*
X392568Y619292D01*
X392573Y619289D01*
X393587Y619679D01*
X393591Y619686D01*
X393597Y619685D01*
X394499Y620291D01*
X394501Y620299D01*
X394507Y620298D01*
X395251Y621090D01*
X395252Y621098D01*
X395258Y621098D01*
X395807Y622036D01*
X395806Y622044D01*
X395812Y622046D01*
X396139Y623082D01*
X396136Y623090D01*
X396141Y623093D01*
X396229Y624176D01*
X396227Y624179D01*
X396229Y624180D01*
X396229Y630180D01*
X396226Y630184D01*
X396229Y630186D01*
X396079Y631319D01*
X396073Y631325D01*
X396076Y631330D01*
X395678Y632400D01*
X395671Y632404D01*
X395673Y632410D01*
X395046Y633365D01*
X395038Y633368D01*
X395039Y633373D01*
X394216Y634165D01*
X394208Y634166D01*
X394207Y634172D01*
X393228Y634761D01*
X393220Y634760D01*
X393218Y634765D01*
X392133Y635121D01*
X392125Y635119D01*
X392122Y635123D01*
X390985Y635229D01*
X390976Y635224D01*
X390971Y635228D01*
X389834Y635021D01*
X389828Y635015D01*
X389823Y635018D01*
X388761Y634563D01*
X388757Y634556D01*
X388751Y634558D01*
X387816Y633878D01*
X387814Y633870D01*
X387808Y633871D01*
X387048Y633000D01*
X387048Y632992D01*
X387042Y632991D01*
X386495Y631972D01*
X386496Y631964D01*
X386491Y631962D01*
X386487Y631949D01*
X386474Y631900D01*
X386473Y631900D01*
X386474Y631900D01*
X386460Y631851D01*
X386446Y631801D01*
X386433Y631752D01*
X386419Y631703D01*
X386406Y631654D01*
X386392Y631604D01*
X386379Y631555D01*
X386365Y631506D01*
X386351Y631457D01*
X386338Y631407D01*
X386324Y631358D01*
X386311Y631309D01*
X386297Y631260D01*
X386284Y631210D01*
X386270Y631161D01*
X386257Y631112D01*
X386256Y631112D01*
X386243Y631063D01*
X386229Y631013D01*
X386184Y630848D01*
X386187Y630840D01*
X386182Y630837D01*
X386131Y629682D01*
X386132Y629681D01*
X386131Y629680D01*
X386131Y623680D01*
X386135Y623674D01*
X386132Y623671D01*
X386344Y622590D01*
X386350Y622585D01*
X386347Y622580D01*
X386794Y621574D01*
X386801Y621570D01*
X386799Y621564D01*
X387459Y620683D01*
X387467Y620680D01*
X387467Y620675D01*
X388306Y619962D01*
X388314Y619962D01*
X388315Y619956D01*
X389292Y619448D01*
X389300Y619449D01*
X389302Y619444D01*
X390367Y619166D01*
X390375Y619169D01*
X390378Y619165D01*
X391479Y619131D01*
X391484Y619135D01*
G37*
G36*
X1092524Y619135D02*
X1092524Y619135D01*
X1092527Y619131D01*
X1093603Y619286D01*
X1093608Y619292D01*
X1093613Y619289D01*
X1094627Y619679D01*
X1094631Y619686D01*
X1094637Y619685D01*
X1095539Y620291D01*
X1095541Y620299D01*
X1095547Y620298D01*
X1096291Y621090D01*
X1096292Y621098D01*
X1096298Y621098D01*
X1096847Y622036D01*
X1096846Y622044D01*
X1096852Y622046D01*
X1097179Y623082D01*
X1097176Y623090D01*
X1097181Y623093D01*
X1097269Y624176D01*
X1097267Y624179D01*
X1097269Y624180D01*
X1097269Y630180D01*
X1097266Y630184D01*
X1097269Y630186D01*
X1097119Y631319D01*
X1097113Y631325D01*
X1097116Y631330D01*
X1096718Y632400D01*
X1096711Y632404D01*
X1096713Y632410D01*
X1096086Y633365D01*
X1096078Y633368D01*
X1096079Y633373D01*
X1095256Y634165D01*
X1095248Y634166D01*
X1095247Y634172D01*
X1094268Y634761D01*
X1094260Y634760D01*
X1094258Y634765D01*
X1093173Y635121D01*
X1093165Y635119D01*
X1093162Y635123D01*
X1092025Y635229D01*
X1092016Y635224D01*
X1092011Y635228D01*
X1090874Y635021D01*
X1090868Y635015D01*
X1090863Y635018D01*
X1089801Y634563D01*
X1089797Y634556D01*
X1089791Y634558D01*
X1088856Y633878D01*
X1088854Y633870D01*
X1088848Y633871D01*
X1088088Y633000D01*
X1088088Y632992D01*
X1088082Y632991D01*
X1087535Y631972D01*
X1087536Y631964D01*
X1087531Y631962D01*
X1087527Y631949D01*
X1087514Y631900D01*
X1087513Y631900D01*
X1087514Y631900D01*
X1087500Y631851D01*
X1087486Y631801D01*
X1087473Y631752D01*
X1087459Y631703D01*
X1087446Y631654D01*
X1087432Y631604D01*
X1087419Y631555D01*
X1087405Y631506D01*
X1087391Y631457D01*
X1087378Y631407D01*
X1087364Y631358D01*
X1087351Y631309D01*
X1087337Y631260D01*
X1087324Y631210D01*
X1087310Y631161D01*
X1087297Y631112D01*
X1087296Y631112D01*
X1087283Y631063D01*
X1087269Y631013D01*
X1087224Y630848D01*
X1087227Y630840D01*
X1087222Y630837D01*
X1087171Y629682D01*
X1087172Y629681D01*
X1087171Y629680D01*
X1087171Y623680D01*
X1087175Y623674D01*
X1087172Y623671D01*
X1087384Y622590D01*
X1087390Y622585D01*
X1087387Y622580D01*
X1087834Y621574D01*
X1087841Y621570D01*
X1087839Y621564D01*
X1088499Y620683D01*
X1088507Y620680D01*
X1088507Y620675D01*
X1089346Y619962D01*
X1089354Y619962D01*
X1089355Y619956D01*
X1090332Y619448D01*
X1090340Y619449D01*
X1090342Y619444D01*
X1091407Y619166D01*
X1091415Y619169D01*
X1091418Y619165D01*
X1092519Y619131D01*
X1092524Y619135D01*
G37*
G36*
X625164Y4455D02*
X625164Y4455D01*
X625167Y4451D01*
X626243Y4606D01*
X626248Y4612D01*
X626253Y4609D01*
X627267Y4999D01*
X627271Y5006D01*
X627277Y5005D01*
X628179Y5611D01*
X628181Y5619D01*
X628187Y5618D01*
X628931Y6410D01*
X628932Y6418D01*
X628938Y6418D01*
X629487Y7356D01*
X629486Y7364D01*
X629492Y7366D01*
X629819Y8402D01*
X629816Y8410D01*
X629821Y8413D01*
X629909Y9496D01*
X629907Y9499D01*
X629909Y9500D01*
X629909Y15500D01*
X629906Y15504D01*
X629909Y15506D01*
X629759Y16639D01*
X629753Y16645D01*
X629756Y16650D01*
X629358Y17720D01*
X629351Y17724D01*
X629353Y17730D01*
X628726Y18685D01*
X628718Y18688D01*
X628719Y18693D01*
X627896Y19485D01*
X627888Y19486D01*
X627887Y19492D01*
X626908Y20081D01*
X626900Y20080D01*
X626898Y20085D01*
X625813Y20441D01*
X625805Y20439D01*
X625802Y20443D01*
X624665Y20549D01*
X624656Y20544D01*
X624651Y20548D01*
X623514Y20341D01*
X623508Y20335D01*
X623503Y20338D01*
X622441Y19883D01*
X622437Y19876D01*
X622431Y19878D01*
X621496Y19198D01*
X621494Y19190D01*
X621488Y19191D01*
X620728Y18320D01*
X620728Y18312D01*
X620722Y18311D01*
X620175Y17292D01*
X620176Y17284D01*
X620171Y17282D01*
X620167Y17269D01*
X620154Y17220D01*
X620153Y17220D01*
X620154Y17220D01*
X620140Y17171D01*
X620126Y17121D01*
X620113Y17072D01*
X620099Y17023D01*
X620086Y16974D01*
X620072Y16924D01*
X620059Y16875D01*
X620045Y16826D01*
X620031Y16777D01*
X620018Y16727D01*
X620004Y16678D01*
X619991Y16629D01*
X619977Y16580D01*
X619964Y16530D01*
X619950Y16481D01*
X619937Y16432D01*
X619936Y16432D01*
X619923Y16383D01*
X619909Y16333D01*
X619864Y16168D01*
X619867Y16160D01*
X619862Y16157D01*
X619811Y15002D01*
X619812Y15001D01*
X619811Y15000D01*
X619811Y9000D01*
X619815Y8994D01*
X619812Y8991D01*
X620024Y7910D01*
X620030Y7905D01*
X620027Y7900D01*
X620474Y6894D01*
X620481Y6890D01*
X620479Y6884D01*
X621139Y6003D01*
X621147Y6000D01*
X621147Y5995D01*
X621986Y5282D01*
X621994Y5282D01*
X621995Y5276D01*
X622972Y4768D01*
X622980Y4769D01*
X622982Y4764D01*
X624047Y4486D01*
X624055Y4489D01*
X624058Y4485D01*
X625159Y4451D01*
X625164Y4455D01*
G37*
G36*
X391484Y4455D02*
X391484Y4455D01*
X391487Y4451D01*
X392563Y4606D01*
X392568Y4612D01*
X392573Y4609D01*
X393587Y4999D01*
X393591Y5006D01*
X393597Y5005D01*
X394499Y5611D01*
X394501Y5619D01*
X394507Y5618D01*
X395251Y6410D01*
X395252Y6418D01*
X395258Y6418D01*
X395807Y7356D01*
X395806Y7364D01*
X395812Y7366D01*
X396139Y8402D01*
X396136Y8410D01*
X396141Y8413D01*
X396229Y9496D01*
X396227Y9499D01*
X396229Y9500D01*
X396229Y15500D01*
X396226Y15504D01*
X396229Y15506D01*
X396079Y16639D01*
X396073Y16645D01*
X396076Y16650D01*
X395678Y17720D01*
X395671Y17724D01*
X395673Y17730D01*
X395046Y18685D01*
X395038Y18688D01*
X395039Y18693D01*
X394216Y19485D01*
X394208Y19486D01*
X394207Y19492D01*
X393228Y20081D01*
X393220Y20080D01*
X393218Y20085D01*
X392133Y20441D01*
X392125Y20439D01*
X392122Y20443D01*
X390985Y20549D01*
X390976Y20544D01*
X390971Y20548D01*
X389834Y20341D01*
X389828Y20335D01*
X389823Y20338D01*
X388761Y19883D01*
X388757Y19876D01*
X388751Y19878D01*
X387816Y19198D01*
X387814Y19190D01*
X387808Y19191D01*
X387048Y18320D01*
X387048Y18312D01*
X387042Y18311D01*
X386495Y17292D01*
X386496Y17284D01*
X386491Y17282D01*
X386487Y17269D01*
X386474Y17220D01*
X386473Y17220D01*
X386474Y17220D01*
X386460Y17171D01*
X386446Y17121D01*
X386433Y17072D01*
X386419Y17023D01*
X386406Y16974D01*
X386392Y16924D01*
X386379Y16875D01*
X386365Y16826D01*
X386351Y16777D01*
X386338Y16727D01*
X386324Y16678D01*
X386311Y16629D01*
X386297Y16580D01*
X386284Y16530D01*
X386270Y16481D01*
X386257Y16432D01*
X386256Y16432D01*
X386243Y16383D01*
X386229Y16333D01*
X386184Y16168D01*
X386187Y16160D01*
X386182Y16157D01*
X386131Y15002D01*
X386132Y15001D01*
X386131Y15000D01*
X386131Y9000D01*
X386135Y8994D01*
X386132Y8991D01*
X386344Y7910D01*
X386350Y7905D01*
X386347Y7900D01*
X386794Y6894D01*
X386801Y6890D01*
X386799Y6884D01*
X387459Y6003D01*
X387467Y6000D01*
X387467Y5995D01*
X388306Y5282D01*
X388314Y5282D01*
X388315Y5276D01*
X389292Y4768D01*
X389300Y4769D01*
X389302Y4764D01*
X390367Y4486D01*
X390375Y4489D01*
X390378Y4485D01*
X391479Y4451D01*
X391484Y4455D01*
G37*
G36*
X858844Y4455D02*
X858844Y4455D01*
X858847Y4451D01*
X859923Y4606D01*
X859928Y4612D01*
X859933Y4609D01*
X860947Y4999D01*
X860951Y5006D01*
X860957Y5005D01*
X861859Y5611D01*
X861861Y5619D01*
X861867Y5618D01*
X862611Y6410D01*
X862612Y6418D01*
X862618Y6418D01*
X863167Y7356D01*
X863166Y7364D01*
X863172Y7366D01*
X863499Y8402D01*
X863496Y8410D01*
X863501Y8413D01*
X863589Y9496D01*
X863587Y9499D01*
X863589Y9500D01*
X863589Y15500D01*
X863586Y15504D01*
X863589Y15506D01*
X863439Y16639D01*
X863433Y16645D01*
X863436Y16650D01*
X863038Y17720D01*
X863031Y17724D01*
X863033Y17730D01*
X862406Y18685D01*
X862398Y18688D01*
X862399Y18693D01*
X861576Y19485D01*
X861568Y19486D01*
X861567Y19492D01*
X860588Y20081D01*
X860580Y20080D01*
X860578Y20085D01*
X859493Y20441D01*
X859485Y20439D01*
X859482Y20443D01*
X858345Y20549D01*
X858336Y20544D01*
X858331Y20548D01*
X857194Y20341D01*
X857188Y20335D01*
X857183Y20338D01*
X856121Y19883D01*
X856117Y19876D01*
X856111Y19878D01*
X855176Y19198D01*
X855174Y19190D01*
X855168Y19191D01*
X854408Y18320D01*
X854408Y18312D01*
X854402Y18311D01*
X853855Y17292D01*
X853856Y17284D01*
X853851Y17282D01*
X853847Y17269D01*
X853834Y17220D01*
X853833Y17220D01*
X853834Y17220D01*
X853820Y17171D01*
X853806Y17121D01*
X853793Y17072D01*
X853779Y17023D01*
X853766Y16974D01*
X853752Y16924D01*
X853739Y16875D01*
X853725Y16826D01*
X853711Y16777D01*
X853698Y16727D01*
X853684Y16678D01*
X853671Y16629D01*
X853657Y16580D01*
X853644Y16530D01*
X853630Y16481D01*
X853617Y16432D01*
X853616Y16432D01*
X853603Y16383D01*
X853589Y16333D01*
X853544Y16168D01*
X853547Y16160D01*
X853542Y16157D01*
X853491Y15002D01*
X853492Y15001D01*
X853491Y15000D01*
X853491Y9000D01*
X853495Y8994D01*
X853492Y8991D01*
X853704Y7910D01*
X853710Y7905D01*
X853707Y7900D01*
X854154Y6894D01*
X854161Y6890D01*
X854159Y6884D01*
X854819Y6003D01*
X854827Y6000D01*
X854827Y5995D01*
X855666Y5282D01*
X855674Y5282D01*
X855675Y5276D01*
X856652Y4768D01*
X856660Y4769D01*
X856662Y4764D01*
X857727Y4486D01*
X857735Y4489D01*
X857738Y4485D01*
X858839Y4451D01*
X858844Y4455D01*
G37*
G36*
X157804Y4455D02*
X157804Y4455D01*
X157807Y4451D01*
X158883Y4606D01*
X158888Y4612D01*
X158893Y4609D01*
X159907Y4999D01*
X159911Y5006D01*
X159917Y5005D01*
X160819Y5611D01*
X160821Y5619D01*
X160827Y5618D01*
X161571Y6410D01*
X161572Y6418D01*
X161578Y6418D01*
X162127Y7356D01*
X162126Y7364D01*
X162132Y7366D01*
X162459Y8402D01*
X162456Y8410D01*
X162461Y8413D01*
X162549Y9496D01*
X162547Y9499D01*
X162549Y9500D01*
X162549Y15500D01*
X162546Y15504D01*
X162549Y15506D01*
X162399Y16639D01*
X162393Y16645D01*
X162396Y16650D01*
X161998Y17720D01*
X161991Y17724D01*
X161993Y17730D01*
X161366Y18685D01*
X161358Y18688D01*
X161359Y18693D01*
X160536Y19485D01*
X160528Y19486D01*
X160527Y19492D01*
X159548Y20081D01*
X159540Y20080D01*
X159538Y20085D01*
X158453Y20441D01*
X158445Y20439D01*
X158442Y20443D01*
X157305Y20549D01*
X157296Y20544D01*
X157291Y20548D01*
X156154Y20341D01*
X156148Y20335D01*
X156143Y20338D01*
X155081Y19883D01*
X155077Y19876D01*
X155071Y19878D01*
X154136Y19198D01*
X154134Y19190D01*
X154128Y19191D01*
X153368Y18320D01*
X153368Y18312D01*
X153362Y18311D01*
X152815Y17292D01*
X152816Y17284D01*
X152811Y17282D01*
X152807Y17269D01*
X152794Y17220D01*
X152793Y17220D01*
X152794Y17220D01*
X152780Y17171D01*
X152766Y17121D01*
X152753Y17072D01*
X152739Y17023D01*
X152726Y16974D01*
X152712Y16924D01*
X152699Y16875D01*
X152685Y16826D01*
X152671Y16777D01*
X152658Y16727D01*
X152644Y16678D01*
X152631Y16629D01*
X152617Y16580D01*
X152604Y16530D01*
X152590Y16481D01*
X152577Y16432D01*
X152576Y16432D01*
X152563Y16383D01*
X152549Y16333D01*
X152504Y16168D01*
X152507Y16160D01*
X152502Y16157D01*
X152451Y15002D01*
X152452Y15001D01*
X152451Y15000D01*
X152451Y9000D01*
X152455Y8994D01*
X152452Y8991D01*
X152664Y7910D01*
X152670Y7905D01*
X152667Y7900D01*
X153114Y6894D01*
X153121Y6890D01*
X153119Y6884D01*
X153779Y6003D01*
X153787Y6000D01*
X153787Y5995D01*
X154626Y5282D01*
X154634Y5282D01*
X154635Y5276D01*
X155612Y4768D01*
X155620Y4769D01*
X155622Y4764D01*
X156687Y4486D01*
X156695Y4489D01*
X156698Y4485D01*
X157799Y4451D01*
X157804Y4455D01*
G37*
G36*
X1092524Y4455D02*
X1092524Y4455D01*
X1092527Y4451D01*
X1093603Y4606D01*
X1093608Y4612D01*
X1093613Y4609D01*
X1094627Y4999D01*
X1094631Y5006D01*
X1094637Y5005D01*
X1095539Y5611D01*
X1095541Y5619D01*
X1095547Y5618D01*
X1096291Y6410D01*
X1096292Y6418D01*
X1096298Y6418D01*
X1096847Y7356D01*
X1096846Y7364D01*
X1096852Y7366D01*
X1097179Y8402D01*
X1097176Y8410D01*
X1097181Y8413D01*
X1097269Y9496D01*
X1097267Y9499D01*
X1097269Y9500D01*
X1097269Y15500D01*
X1097266Y15504D01*
X1097269Y15506D01*
X1097119Y16639D01*
X1097113Y16645D01*
X1097116Y16650D01*
X1096718Y17720D01*
X1096711Y17724D01*
X1096713Y17730D01*
X1096086Y18685D01*
X1096078Y18688D01*
X1096079Y18693D01*
X1095256Y19485D01*
X1095248Y19486D01*
X1095247Y19492D01*
X1094268Y20081D01*
X1094260Y20080D01*
X1094258Y20085D01*
X1093173Y20441D01*
X1093165Y20439D01*
X1093162Y20443D01*
X1092025Y20549D01*
X1092016Y20544D01*
X1092011Y20548D01*
X1090874Y20341D01*
X1090868Y20335D01*
X1090863Y20338D01*
X1089801Y19883D01*
X1089797Y19876D01*
X1089791Y19878D01*
X1088856Y19198D01*
X1088854Y19190D01*
X1088848Y19191D01*
X1088088Y18320D01*
X1088088Y18312D01*
X1088082Y18311D01*
X1087535Y17292D01*
X1087536Y17284D01*
X1087531Y17282D01*
X1087527Y17269D01*
X1087514Y17220D01*
X1087513Y17220D01*
X1087514Y17220D01*
X1087500Y17171D01*
X1087486Y17121D01*
X1087473Y17072D01*
X1087459Y17023D01*
X1087446Y16974D01*
X1087432Y16924D01*
X1087419Y16875D01*
X1087405Y16826D01*
X1087391Y16777D01*
X1087378Y16727D01*
X1087364Y16678D01*
X1087351Y16629D01*
X1087337Y16580D01*
X1087324Y16530D01*
X1087310Y16481D01*
X1087297Y16432D01*
X1087296Y16432D01*
X1087283Y16383D01*
X1087269Y16333D01*
X1087224Y16168D01*
X1087227Y16160D01*
X1087222Y16157D01*
X1087171Y15002D01*
X1087172Y15001D01*
X1087171Y15000D01*
X1087171Y9000D01*
X1087175Y8994D01*
X1087172Y8991D01*
X1087384Y7910D01*
X1087390Y7905D01*
X1087387Y7900D01*
X1087834Y6894D01*
X1087841Y6890D01*
X1087839Y6884D01*
X1088499Y6003D01*
X1088507Y6000D01*
X1088507Y5995D01*
X1089346Y5282D01*
X1089354Y5282D01*
X1089355Y5276D01*
X1090332Y4768D01*
X1090340Y4769D01*
X1090342Y4764D01*
X1091407Y4486D01*
X1091415Y4489D01*
X1091418Y4485D01*
X1092519Y4451D01*
X1092524Y4455D01*
G37*
G36*
X772342Y619135D02*
X772342Y619135D01*
X772347Y619131D01*
X773434Y619276D01*
X773440Y619282D01*
X773445Y619279D01*
X774473Y619663D01*
X774478Y619669D01*
X774483Y619668D01*
X775400Y620270D01*
X775403Y620278D01*
X775409Y620277D01*
X776169Y621069D01*
X776170Y621077D01*
X776176Y621078D01*
X776740Y622019D01*
X776740Y622022D01*
X776741Y622023D01*
X776740Y622025D01*
X776739Y622027D01*
X776745Y622029D01*
X777086Y623072D01*
X777084Y623080D01*
X777088Y623083D01*
X777189Y624176D01*
X777187Y624178D01*
X777189Y624180D01*
X777189Y630180D01*
X777187Y630183D01*
X777189Y630185D01*
X777088Y631277D01*
X777083Y631283D01*
X777086Y631288D01*
X776745Y632331D01*
X776738Y632336D01*
X776740Y632341D01*
X776176Y633282D01*
X776168Y633285D01*
X776169Y633291D01*
X775409Y634083D01*
X775401Y634084D01*
X775400Y634090D01*
X774483Y634693D01*
X774475Y634692D01*
X774473Y634698D01*
X773445Y635081D01*
X773437Y635079D01*
X773434Y635084D01*
X772347Y635229D01*
X772339Y635225D01*
X772335Y635229D01*
X771198Y635123D01*
X771192Y635118D01*
X771187Y635121D01*
X770102Y634765D01*
X770097Y634758D01*
X770092Y634761D01*
X769113Y634172D01*
X769110Y634164D01*
X769104Y634165D01*
X768281Y633373D01*
X768280Y633365D01*
X768274Y633365D01*
X767647Y632410D01*
X767648Y632402D01*
X767642Y632400D01*
X767244Y631330D01*
X767246Y631322D01*
X767241Y631319D01*
X767091Y630186D01*
X767094Y630182D01*
X767091Y630180D01*
X767091Y624180D01*
X767094Y624176D01*
X767091Y624174D01*
X767241Y623041D01*
X767247Y623035D01*
X767244Y623030D01*
X767642Y621960D01*
X767649Y621956D01*
X767647Y621950D01*
X768274Y620995D01*
X768282Y620992D01*
X768281Y620987D01*
X769104Y620195D01*
X769112Y620194D01*
X769113Y620188D01*
X770092Y619599D01*
X770100Y619600D01*
X770102Y619595D01*
X771187Y619239D01*
X771195Y619242D01*
X771198Y619237D01*
X772335Y619131D01*
X772342Y619135D01*
G37*
G36*
X538662Y619135D02*
X538662Y619135D01*
X538667Y619131D01*
X539754Y619276D01*
X539760Y619282D01*
X539765Y619279D01*
X540793Y619663D01*
X540798Y619669D01*
X540803Y619668D01*
X541720Y620270D01*
X541723Y620278D01*
X541729Y620277D01*
X542489Y621069D01*
X542490Y621077D01*
X542496Y621078D01*
X543060Y622019D01*
X543060Y622022D01*
X543061Y622023D01*
X543060Y622025D01*
X543059Y622027D01*
X543065Y622029D01*
X543406Y623072D01*
X543404Y623080D01*
X543408Y623083D01*
X543509Y624176D01*
X543507Y624178D01*
X543509Y624180D01*
X543509Y630180D01*
X543507Y630183D01*
X543509Y630185D01*
X543408Y631277D01*
X543403Y631283D01*
X543406Y631288D01*
X543065Y632331D01*
X543058Y632336D01*
X543060Y632341D01*
X542496Y633282D01*
X542488Y633285D01*
X542489Y633291D01*
X541729Y634083D01*
X541721Y634084D01*
X541720Y634090D01*
X540803Y634693D01*
X540795Y634692D01*
X540793Y634698D01*
X539765Y635081D01*
X539757Y635079D01*
X539754Y635084D01*
X538667Y635229D01*
X538659Y635225D01*
X538655Y635229D01*
X537518Y635123D01*
X537512Y635118D01*
X537507Y635121D01*
X536422Y634765D01*
X536417Y634758D01*
X536412Y634761D01*
X535433Y634172D01*
X535430Y634164D01*
X535424Y634165D01*
X534601Y633373D01*
X534600Y633365D01*
X534594Y633365D01*
X533967Y632410D01*
X533968Y632402D01*
X533962Y632400D01*
X533564Y631330D01*
X533566Y631322D01*
X533561Y631319D01*
X533411Y630186D01*
X533414Y630182D01*
X533411Y630180D01*
X533411Y624180D01*
X533414Y624176D01*
X533411Y624174D01*
X533561Y623041D01*
X533567Y623035D01*
X533564Y623030D01*
X533962Y621960D01*
X533969Y621956D01*
X533967Y621950D01*
X534594Y620995D01*
X534602Y620992D01*
X534601Y620987D01*
X535424Y620195D01*
X535432Y620194D01*
X535433Y620188D01*
X536412Y619599D01*
X536420Y619600D01*
X536422Y619595D01*
X537507Y619239D01*
X537515Y619242D01*
X537518Y619237D01*
X538655Y619131D01*
X538662Y619135D01*
G37*
G36*
X1006022Y619135D02*
X1006022Y619135D01*
X1006027Y619131D01*
X1007114Y619276D01*
X1007120Y619282D01*
X1007125Y619279D01*
X1008153Y619663D01*
X1008158Y619669D01*
X1008163Y619668D01*
X1009080Y620270D01*
X1009083Y620278D01*
X1009089Y620277D01*
X1009849Y621069D01*
X1009850Y621077D01*
X1009856Y621078D01*
X1010420Y622019D01*
X1010420Y622022D01*
X1010421Y622023D01*
X1010420Y622025D01*
X1010419Y622027D01*
X1010425Y622029D01*
X1010766Y623072D01*
X1010764Y623080D01*
X1010768Y623083D01*
X1010869Y624176D01*
X1010867Y624178D01*
X1010869Y624180D01*
X1010869Y630180D01*
X1010867Y630183D01*
X1010869Y630185D01*
X1010768Y631277D01*
X1010763Y631283D01*
X1010766Y631288D01*
X1010425Y632331D01*
X1010418Y632336D01*
X1010420Y632341D01*
X1009856Y633282D01*
X1009848Y633285D01*
X1009849Y633291D01*
X1009089Y634083D01*
X1009081Y634084D01*
X1009080Y634090D01*
X1008163Y634693D01*
X1008155Y634692D01*
X1008153Y634698D01*
X1007125Y635081D01*
X1007117Y635079D01*
X1007114Y635084D01*
X1006027Y635229D01*
X1006019Y635225D01*
X1006015Y635229D01*
X1004878Y635123D01*
X1004872Y635118D01*
X1004867Y635121D01*
X1003782Y634765D01*
X1003777Y634758D01*
X1003772Y634761D01*
X1002793Y634172D01*
X1002790Y634164D01*
X1002784Y634165D01*
X1001961Y633373D01*
X1001960Y633365D01*
X1001954Y633365D01*
X1001327Y632410D01*
X1001328Y632402D01*
X1001322Y632400D01*
X1000924Y631330D01*
X1000926Y631322D01*
X1000921Y631319D01*
X1000771Y630186D01*
X1000774Y630182D01*
X1000771Y630180D01*
X1000771Y624180D01*
X1000774Y624176D01*
X1000771Y624174D01*
X1000921Y623041D01*
X1000927Y623035D01*
X1000924Y623030D01*
X1001322Y621960D01*
X1001329Y621956D01*
X1001327Y621950D01*
X1001954Y620995D01*
X1001962Y620992D01*
X1001961Y620987D01*
X1002784Y620195D01*
X1002792Y620194D01*
X1002793Y620188D01*
X1003772Y619599D01*
X1003780Y619600D01*
X1003782Y619595D01*
X1004867Y619239D01*
X1004875Y619242D01*
X1004878Y619237D01*
X1006015Y619131D01*
X1006022Y619135D01*
G37*
G36*
X71302Y619135D02*
X71302Y619135D01*
X71307Y619131D01*
X72394Y619276D01*
X72400Y619282D01*
X72405Y619279D01*
X73433Y619663D01*
X73438Y619669D01*
X73443Y619668D01*
X74360Y620270D01*
X74363Y620278D01*
X74369Y620277D01*
X75129Y621069D01*
X75130Y621077D01*
X75136Y621078D01*
X75700Y622019D01*
X75700Y622022D01*
X75701Y622023D01*
X75700Y622025D01*
X75699Y622027D01*
X75705Y622029D01*
X76046Y623072D01*
X76044Y623080D01*
X76048Y623083D01*
X76149Y624176D01*
X76147Y624178D01*
X76149Y624180D01*
X76149Y630180D01*
X76147Y630183D01*
X76149Y630185D01*
X76048Y631277D01*
X76043Y631283D01*
X76046Y631288D01*
X75705Y632331D01*
X75698Y632336D01*
X75700Y632341D01*
X75136Y633282D01*
X75128Y633285D01*
X75129Y633291D01*
X74369Y634083D01*
X74361Y634084D01*
X74360Y634090D01*
X73443Y634693D01*
X73435Y634692D01*
X73433Y634698D01*
X72405Y635081D01*
X72397Y635079D01*
X72394Y635084D01*
X71307Y635229D01*
X71299Y635225D01*
X71295Y635229D01*
X70158Y635123D01*
X70152Y635118D01*
X70147Y635121D01*
X69062Y634765D01*
X69057Y634758D01*
X69052Y634761D01*
X68073Y634172D01*
X68070Y634164D01*
X68064Y634165D01*
X67241Y633373D01*
X67240Y633365D01*
X67234Y633365D01*
X66607Y632410D01*
X66608Y632402D01*
X66602Y632400D01*
X66204Y631330D01*
X66206Y631322D01*
X66201Y631319D01*
X66051Y630186D01*
X66054Y630182D01*
X66051Y630180D01*
X66051Y624180D01*
X66054Y624176D01*
X66051Y624174D01*
X66201Y623041D01*
X66207Y623035D01*
X66204Y623030D01*
X66602Y621960D01*
X66609Y621956D01*
X66607Y621950D01*
X67234Y620995D01*
X67242Y620992D01*
X67241Y620987D01*
X68064Y620195D01*
X68072Y620194D01*
X68073Y620188D01*
X69052Y619599D01*
X69060Y619600D01*
X69062Y619595D01*
X70147Y619239D01*
X70155Y619242D01*
X70158Y619237D01*
X71295Y619131D01*
X71302Y619135D01*
G37*
G36*
X304982Y619135D02*
X304982Y619135D01*
X304987Y619131D01*
X306074Y619276D01*
X306080Y619282D01*
X306085Y619279D01*
X307113Y619663D01*
X307118Y619669D01*
X307123Y619668D01*
X308040Y620270D01*
X308043Y620278D01*
X308049Y620277D01*
X308809Y621069D01*
X308810Y621077D01*
X308816Y621078D01*
X309380Y622019D01*
X309380Y622022D01*
X309381Y622023D01*
X309380Y622025D01*
X309379Y622027D01*
X309385Y622029D01*
X309726Y623072D01*
X309724Y623080D01*
X309728Y623083D01*
X309829Y624176D01*
X309827Y624178D01*
X309829Y624180D01*
X309829Y630180D01*
X309827Y630183D01*
X309829Y630185D01*
X309728Y631277D01*
X309723Y631283D01*
X309726Y631288D01*
X309385Y632331D01*
X309378Y632336D01*
X309380Y632341D01*
X308816Y633282D01*
X308808Y633285D01*
X308809Y633291D01*
X308049Y634083D01*
X308041Y634084D01*
X308040Y634090D01*
X307123Y634693D01*
X307115Y634692D01*
X307113Y634698D01*
X306085Y635081D01*
X306077Y635079D01*
X306074Y635084D01*
X304987Y635229D01*
X304979Y635225D01*
X304975Y635229D01*
X303838Y635123D01*
X303832Y635118D01*
X303827Y635121D01*
X302742Y634765D01*
X302737Y634758D01*
X302732Y634761D01*
X301753Y634172D01*
X301750Y634164D01*
X301744Y634165D01*
X300921Y633373D01*
X300920Y633365D01*
X300914Y633365D01*
X300287Y632410D01*
X300288Y632402D01*
X300282Y632400D01*
X299884Y631330D01*
X299886Y631322D01*
X299881Y631319D01*
X299731Y630186D01*
X299734Y630182D01*
X299731Y630180D01*
X299731Y624180D01*
X299734Y624176D01*
X299731Y624174D01*
X299881Y623041D01*
X299887Y623035D01*
X299884Y623030D01*
X300282Y621960D01*
X300289Y621956D01*
X300287Y621950D01*
X300914Y620995D01*
X300922Y620992D01*
X300921Y620987D01*
X301744Y620195D01*
X301752Y620194D01*
X301753Y620188D01*
X302732Y619599D01*
X302740Y619600D01*
X302742Y619595D01*
X303827Y619239D01*
X303835Y619242D01*
X303838Y619237D01*
X304975Y619131D01*
X304982Y619135D01*
G37*
G36*
X772342Y4455D02*
X772342Y4455D01*
X772347Y4451D01*
X773434Y4596D01*
X773440Y4602D01*
X773445Y4599D01*
X774473Y4983D01*
X774478Y4989D01*
X774483Y4988D01*
X775400Y5590D01*
X775403Y5598D01*
X775409Y5597D01*
X776169Y6389D01*
X776170Y6397D01*
X776176Y6398D01*
X776740Y7339D01*
X776740Y7342D01*
X776741Y7343D01*
X776740Y7345D01*
X776739Y7347D01*
X776745Y7349D01*
X777086Y8392D01*
X777084Y8400D01*
X777088Y8403D01*
X777189Y9496D01*
X777187Y9498D01*
X777189Y9500D01*
X777189Y15500D01*
X777187Y15503D01*
X777189Y15505D01*
X777088Y16597D01*
X777083Y16603D01*
X777086Y16608D01*
X776745Y17651D01*
X776738Y17656D01*
X776740Y17661D01*
X776176Y18602D01*
X776168Y18605D01*
X776169Y18611D01*
X775409Y19403D01*
X775401Y19404D01*
X775400Y19410D01*
X774483Y20013D01*
X774475Y20012D01*
X774473Y20018D01*
X773445Y20401D01*
X773437Y20399D01*
X773434Y20404D01*
X772347Y20549D01*
X772339Y20545D01*
X772335Y20549D01*
X771198Y20443D01*
X771192Y20438D01*
X771187Y20441D01*
X770102Y20085D01*
X770097Y20078D01*
X770092Y20081D01*
X769113Y19492D01*
X769110Y19484D01*
X769104Y19485D01*
X768281Y18693D01*
X768280Y18685D01*
X768274Y18685D01*
X767647Y17730D01*
X767648Y17722D01*
X767642Y17720D01*
X767244Y16650D01*
X767246Y16642D01*
X767241Y16639D01*
X767091Y15506D01*
X767094Y15502D01*
X767091Y15500D01*
X767091Y9500D01*
X767094Y9496D01*
X767091Y9494D01*
X767241Y8361D01*
X767247Y8355D01*
X767244Y8350D01*
X767642Y7280D01*
X767649Y7276D01*
X767647Y7270D01*
X768274Y6315D01*
X768282Y6312D01*
X768281Y6307D01*
X769104Y5515D01*
X769112Y5514D01*
X769113Y5508D01*
X770092Y4919D01*
X770100Y4920D01*
X770102Y4915D01*
X771187Y4559D01*
X771195Y4562D01*
X771198Y4557D01*
X772335Y4451D01*
X772342Y4455D01*
G37*
G36*
X71302Y4455D02*
X71302Y4455D01*
X71307Y4451D01*
X72394Y4596D01*
X72400Y4602D01*
X72405Y4599D01*
X73433Y4983D01*
X73438Y4989D01*
X73443Y4988D01*
X74360Y5590D01*
X74363Y5598D01*
X74369Y5597D01*
X75129Y6389D01*
X75130Y6397D01*
X75136Y6398D01*
X75700Y7339D01*
X75700Y7342D01*
X75701Y7343D01*
X75700Y7345D01*
X75699Y7347D01*
X75705Y7349D01*
X76046Y8392D01*
X76044Y8400D01*
X76048Y8403D01*
X76149Y9496D01*
X76147Y9498D01*
X76149Y9500D01*
X76149Y15500D01*
X76147Y15503D01*
X76149Y15505D01*
X76048Y16597D01*
X76043Y16603D01*
X76046Y16608D01*
X75705Y17651D01*
X75698Y17656D01*
X75700Y17661D01*
X75136Y18602D01*
X75128Y18605D01*
X75129Y18611D01*
X74369Y19403D01*
X74361Y19404D01*
X74360Y19410D01*
X73443Y20013D01*
X73435Y20012D01*
X73433Y20018D01*
X72405Y20401D01*
X72397Y20399D01*
X72394Y20404D01*
X71307Y20549D01*
X71299Y20545D01*
X71295Y20549D01*
X70158Y20443D01*
X70152Y20438D01*
X70147Y20441D01*
X69062Y20085D01*
X69057Y20078D01*
X69052Y20081D01*
X68073Y19492D01*
X68070Y19484D01*
X68064Y19485D01*
X67241Y18693D01*
X67240Y18685D01*
X67234Y18685D01*
X66607Y17730D01*
X66608Y17722D01*
X66602Y17720D01*
X66204Y16650D01*
X66206Y16642D01*
X66201Y16639D01*
X66051Y15506D01*
X66054Y15502D01*
X66051Y15500D01*
X66051Y9500D01*
X66054Y9496D01*
X66051Y9494D01*
X66201Y8361D01*
X66207Y8355D01*
X66204Y8350D01*
X66602Y7280D01*
X66609Y7276D01*
X66607Y7270D01*
X67234Y6315D01*
X67242Y6312D01*
X67241Y6307D01*
X68064Y5515D01*
X68072Y5514D01*
X68073Y5508D01*
X69052Y4919D01*
X69060Y4920D01*
X69062Y4915D01*
X70147Y4559D01*
X70155Y4562D01*
X70158Y4557D01*
X71295Y4451D01*
X71302Y4455D01*
G37*
G36*
X304982Y4455D02*
X304982Y4455D01*
X304987Y4451D01*
X306074Y4596D01*
X306080Y4602D01*
X306085Y4599D01*
X307113Y4983D01*
X307118Y4989D01*
X307123Y4988D01*
X308040Y5590D01*
X308043Y5598D01*
X308049Y5597D01*
X308809Y6389D01*
X308810Y6397D01*
X308816Y6398D01*
X309380Y7339D01*
X309380Y7342D01*
X309381Y7343D01*
X309380Y7345D01*
X309379Y7347D01*
X309385Y7349D01*
X309726Y8392D01*
X309724Y8400D01*
X309728Y8403D01*
X309829Y9496D01*
X309827Y9498D01*
X309829Y9500D01*
X309829Y15500D01*
X309827Y15503D01*
X309829Y15505D01*
X309728Y16597D01*
X309723Y16603D01*
X309726Y16608D01*
X309385Y17651D01*
X309378Y17656D01*
X309380Y17661D01*
X308816Y18602D01*
X308808Y18605D01*
X308809Y18611D01*
X308049Y19403D01*
X308041Y19404D01*
X308040Y19410D01*
X307123Y20013D01*
X307115Y20012D01*
X307113Y20018D01*
X306085Y20401D01*
X306077Y20399D01*
X306074Y20404D01*
X304987Y20549D01*
X304979Y20545D01*
X304975Y20549D01*
X303838Y20443D01*
X303832Y20438D01*
X303827Y20441D01*
X302742Y20085D01*
X302737Y20078D01*
X302732Y20081D01*
X301753Y19492D01*
X301750Y19484D01*
X301744Y19485D01*
X300921Y18693D01*
X300920Y18685D01*
X300914Y18685D01*
X300287Y17730D01*
X300288Y17722D01*
X300282Y17720D01*
X299884Y16650D01*
X299886Y16642D01*
X299881Y16639D01*
X299731Y15506D01*
X299734Y15502D01*
X299731Y15500D01*
X299731Y9500D01*
X299734Y9496D01*
X299731Y9494D01*
X299881Y8361D01*
X299887Y8355D01*
X299884Y8350D01*
X300282Y7280D01*
X300289Y7276D01*
X300287Y7270D01*
X300914Y6315D01*
X300922Y6312D01*
X300921Y6307D01*
X301744Y5515D01*
X301752Y5514D01*
X301753Y5508D01*
X302732Y4919D01*
X302740Y4920D01*
X302742Y4915D01*
X303827Y4559D01*
X303835Y4562D01*
X303838Y4557D01*
X304975Y4451D01*
X304982Y4455D01*
G37*
G36*
X538662Y4455D02*
X538662Y4455D01*
X538667Y4451D01*
X539754Y4596D01*
X539760Y4602D01*
X539765Y4599D01*
X540793Y4983D01*
X540798Y4989D01*
X540803Y4988D01*
X541720Y5590D01*
X541723Y5598D01*
X541729Y5597D01*
X542489Y6389D01*
X542490Y6397D01*
X542496Y6398D01*
X543060Y7339D01*
X543060Y7342D01*
X543061Y7343D01*
X543060Y7345D01*
X543059Y7347D01*
X543065Y7349D01*
X543406Y8392D01*
X543404Y8400D01*
X543408Y8403D01*
X543509Y9496D01*
X543507Y9498D01*
X543509Y9500D01*
X543509Y15500D01*
X543507Y15503D01*
X543509Y15505D01*
X543408Y16597D01*
X543403Y16603D01*
X543406Y16608D01*
X543065Y17651D01*
X543058Y17656D01*
X543060Y17661D01*
X542496Y18602D01*
X542488Y18605D01*
X542489Y18611D01*
X541729Y19403D01*
X541721Y19404D01*
X541720Y19410D01*
X540803Y20013D01*
X540795Y20012D01*
X540793Y20018D01*
X539765Y20401D01*
X539757Y20399D01*
X539754Y20404D01*
X538667Y20549D01*
X538659Y20545D01*
X538655Y20549D01*
X537518Y20443D01*
X537512Y20438D01*
X537507Y20441D01*
X536422Y20085D01*
X536417Y20078D01*
X536412Y20081D01*
X535433Y19492D01*
X535430Y19484D01*
X535424Y19485D01*
X534601Y18693D01*
X534600Y18685D01*
X534594Y18685D01*
X533967Y17730D01*
X533968Y17722D01*
X533962Y17720D01*
X533564Y16650D01*
X533566Y16642D01*
X533561Y16639D01*
X533411Y15506D01*
X533414Y15502D01*
X533411Y15500D01*
X533411Y9500D01*
X533414Y9496D01*
X533411Y9494D01*
X533561Y8361D01*
X533567Y8355D01*
X533564Y8350D01*
X533962Y7280D01*
X533969Y7276D01*
X533967Y7270D01*
X534594Y6315D01*
X534602Y6312D01*
X534601Y6307D01*
X535424Y5515D01*
X535432Y5514D01*
X535433Y5508D01*
X536412Y4919D01*
X536420Y4920D01*
X536422Y4915D01*
X537507Y4559D01*
X537515Y4562D01*
X537518Y4557D01*
X538655Y4451D01*
X538662Y4455D01*
G37*
G36*
X1006022Y4455D02*
X1006022Y4455D01*
X1006027Y4451D01*
X1007114Y4596D01*
X1007120Y4602D01*
X1007125Y4599D01*
X1008153Y4983D01*
X1008158Y4989D01*
X1008163Y4988D01*
X1009080Y5590D01*
X1009083Y5598D01*
X1009089Y5597D01*
X1009849Y6389D01*
X1009850Y6397D01*
X1009856Y6398D01*
X1010420Y7339D01*
X1010420Y7342D01*
X1010421Y7343D01*
X1010420Y7345D01*
X1010419Y7347D01*
X1010425Y7349D01*
X1010766Y8392D01*
X1010764Y8400D01*
X1010768Y8403D01*
X1010869Y9496D01*
X1010867Y9498D01*
X1010869Y9500D01*
X1010869Y15500D01*
X1010867Y15503D01*
X1010869Y15505D01*
X1010768Y16597D01*
X1010763Y16603D01*
X1010766Y16608D01*
X1010425Y17651D01*
X1010418Y17656D01*
X1010420Y17661D01*
X1009856Y18602D01*
X1009848Y18605D01*
X1009849Y18611D01*
X1009089Y19403D01*
X1009081Y19404D01*
X1009080Y19410D01*
X1008163Y20013D01*
X1008155Y20012D01*
X1008153Y20018D01*
X1007125Y20401D01*
X1007117Y20399D01*
X1007114Y20404D01*
X1006027Y20549D01*
X1006019Y20545D01*
X1006015Y20549D01*
X1004878Y20443D01*
X1004872Y20438D01*
X1004867Y20441D01*
X1003782Y20085D01*
X1003777Y20078D01*
X1003772Y20081D01*
X1002793Y19492D01*
X1002790Y19484D01*
X1002784Y19485D01*
X1001961Y18693D01*
X1001960Y18685D01*
X1001954Y18685D01*
X1001327Y17730D01*
X1001328Y17722D01*
X1001322Y17720D01*
X1000924Y16650D01*
X1000926Y16642D01*
X1000921Y16639D01*
X1000771Y15506D01*
X1000774Y15502D01*
X1000771Y15500D01*
X1000771Y9500D01*
X1000774Y9496D01*
X1000771Y9494D01*
X1000921Y8361D01*
X1000927Y8355D01*
X1000924Y8350D01*
X1001322Y7280D01*
X1001329Y7276D01*
X1001327Y7270D01*
X1001954Y6315D01*
X1001962Y6312D01*
X1001961Y6307D01*
X1002784Y5515D01*
X1002792Y5514D01*
X1002793Y5508D01*
X1003772Y4919D01*
X1003780Y4920D01*
X1003782Y4915D01*
X1004867Y4559D01*
X1004875Y4562D01*
X1004878Y4557D01*
X1006015Y4451D01*
X1006022Y4455D01*
G37*
D10*
X88900Y210900D03*
X88900Y220900D03*
X109300Y254000D03*
X119300Y254000D03*
D11*
X54000Y228299D03*
X63500Y228299D03*
X73000Y228299D03*
X73000Y254301D03*
X54000Y254301D03*
D10*
X71200Y203200D03*
X81200Y203200D03*
X119300Y152400D03*
X109300Y152400D03*
D12*
X119570Y288600D02*
X119570Y295600D01*
X126570Y295600D01*
X126570Y288600D01*
X119570Y288600D01*
X119570Y291450D02*
X126570Y291450D01*
X126570Y294300D02*
X119570Y294300D01*
X102030Y295600D02*
X102030Y288600D01*
X102030Y295600D02*
X109030Y295600D01*
X109030Y288600D01*
X102030Y288600D01*
X102030Y291450D02*
X109030Y291450D01*
X109030Y294300D02*
X102030Y294300D01*
D10*
X83900Y292100D03*
X93900Y292100D03*
D11*
X104800Y215599D03*
X114300Y215599D03*
X123800Y215599D03*
X123800Y241601D03*
X104800Y241601D03*
D13*
X72000Y266700D03*
X55000Y266700D03*
X194700Y63500D03*
X211700Y63500D03*
D10*
X195500Y82550D03*
X185500Y82550D03*
X185500Y120650D03*
X195500Y120650D03*
D14*
X181300Y108100D03*
X199700Y101600D03*
X199700Y95100D03*
X199700Y108100D03*
X181300Y101600D03*
X181300Y95100D03*
D15*
X14050Y116900D03*
X14050Y60900D03*
D16*
X50800Y103900D03*
X50800Y93900D03*
X50800Y83900D03*
X50800Y73900D03*
D10*
X177800Y147400D03*
X177800Y157400D03*
X88900Y236300D03*
X88900Y246300D03*
D12*
X119570Y307650D02*
X119570Y314650D01*
X126570Y314650D01*
X126570Y307650D01*
X119570Y307650D01*
X119570Y310500D02*
X126570Y310500D01*
X126570Y313350D02*
X119570Y313350D01*
X102030Y314650D02*
X102030Y307650D01*
X102030Y314650D02*
X109030Y314650D01*
X109030Y307650D01*
X102030Y307650D01*
X102030Y310500D02*
X109030Y310500D01*
X109030Y313350D02*
X102030Y313350D01*
D10*
X83900Y311150D03*
X93900Y311150D03*
X144700Y228600D03*
X134700Y228600D03*
D17*
X144600Y199010D03*
X144600Y215010D03*
X185600Y215010D03*
X185600Y199010D03*
X144600Y243460D03*
X144600Y259460D03*
X185600Y259460D03*
X185600Y243460D03*
D18*
X31920Y508800D03*
X31920Y496100D03*
X31920Y483400D03*
X31920Y470700D03*
X31920Y458000D03*
X31920Y445300D03*
X31920Y432600D03*
X31920Y419900D03*
X31920Y407200D03*
X31920Y394500D03*
X31920Y381800D03*
X31920Y369100D03*
X31920Y356400D03*
X31920Y343700D03*
D19*
X57150Y328800D03*
X69850Y328800D03*
X82550Y328800D03*
X95250Y328800D03*
X107950Y328800D03*
X120650Y328800D03*
X133350Y328800D03*
X146050Y328800D03*
X158750Y328800D03*
X171450Y328800D03*
D18*
X196680Y343700D03*
X196680Y356400D03*
X196680Y369100D03*
X196680Y381800D03*
X196680Y394500D03*
X196680Y407200D03*
X196680Y419900D03*
X196680Y432600D03*
X196680Y445300D03*
X196680Y458000D03*
X196680Y470700D03*
X196680Y483400D03*
X196680Y496100D03*
X196680Y508800D03*
D20*
X114300Y431800D03*
D21*
X124300Y181000D03*
X124300Y200000D03*
X103300Y190500D03*
D22*
X121800Y60100D03*
X116800Y60100D03*
D23*
X146550Y60100D03*
X138800Y60100D03*
D22*
X131800Y60100D03*
X126800Y60100D03*
X106800Y60100D03*
X111800Y60100D03*
D23*
X82050Y60100D03*
X89800Y60100D03*
D22*
X96800Y60100D03*
X101800Y60100D03*
D10*
X165100Y26750D03*
X165100Y36750D03*
X63500Y26750D03*
X63500Y36750D03*
D24*
X125800Y165100D03*
X102800Y165100D03*
D25*
X69850Y73600D03*
X82550Y73600D03*
X95250Y73600D03*
X107950Y73600D03*
X120650Y73600D03*
X133350Y73600D03*
X146050Y73600D03*
X158750Y73600D03*
X158750Y129600D03*
X146050Y129600D03*
X133350Y129600D03*
X120650Y129600D03*
X107950Y129600D03*
X95250Y129600D03*
X82550Y129600D03*
X69850Y129600D03*
D10*
X55800Y127000D03*
X45800Y127000D03*
X83900Y273050D03*
X93900Y273050D03*
D12*
X119570Y269550D02*
X119570Y276550D01*
X126570Y276550D01*
X126570Y269550D01*
X119570Y269550D01*
X119570Y272400D02*
X126570Y272400D01*
X126570Y275250D02*
X119570Y275250D01*
X102030Y276550D02*
X102030Y269550D01*
X102030Y276550D02*
X109030Y276550D01*
X109030Y269550D01*
X102030Y269550D01*
X102030Y272400D02*
X109030Y272400D01*
X109030Y275250D02*
X102030Y275250D01*
D26*
X56000Y281913D03*
X61000Y302288D03*
X56000Y302288D03*
X66000Y302288D03*
X71000Y302288D03*
X61000Y281913D03*
X66000Y281913D03*
X71000Y281913D03*
D27*
X66900Y292100D03*
X60100Y292100D03*
D10*
X83900Y254000D03*
X93900Y254000D03*
X157400Y172720D03*
X147400Y172720D03*
D28*
X139399Y161900D03*
X139399Y152400D03*
X139399Y142900D03*
X165401Y142900D03*
X165401Y161900D03*
D10*
X71200Y152400D03*
X81200Y152400D03*
D29*
X211670Y562870D03*
X222670Y562870D03*
X222670Y544570D03*
X211670Y544570D03*
D10*
X222170Y535940D03*
X212170Y535940D03*
D30*
X72560Y167800D03*
X72560Y187800D03*
D31*
X20560Y143800D03*
X20560Y211800D03*
D10*
X322580Y210900D03*
X322580Y220900D03*
X342980Y254000D03*
X352980Y254000D03*
D11*
X287680Y228299D03*
X297180Y228299D03*
X306680Y228299D03*
X306680Y254301D03*
X287680Y254301D03*
D10*
X304880Y203200D03*
X314880Y203200D03*
X352980Y152400D03*
X342980Y152400D03*
D12*
X353250Y288600D02*
X353250Y295600D01*
X360250Y295600D01*
X360250Y288600D01*
X353250Y288600D01*
X353250Y291450D02*
X360250Y291450D01*
X360250Y294300D02*
X353250Y294300D01*
X335710Y295600D02*
X335710Y288600D01*
X335710Y295600D02*
X342710Y295600D01*
X342710Y288600D01*
X335710Y288600D01*
X335710Y291450D02*
X342710Y291450D01*
X342710Y294300D02*
X335710Y294300D01*
D10*
X317580Y292100D03*
X327580Y292100D03*
D11*
X338480Y215599D03*
X347980Y215599D03*
X357480Y215599D03*
X357480Y241601D03*
X338480Y241601D03*
D13*
X305680Y266700D03*
X288680Y266700D03*
X428380Y63500D03*
X445380Y63500D03*
D10*
X429180Y82550D03*
X419180Y82550D03*
X419180Y120650D03*
X429180Y120650D03*
D14*
X414980Y108100D03*
X433380Y101600D03*
X433380Y95100D03*
X433380Y108100D03*
X414980Y101600D03*
X414980Y95100D03*
D15*
X247730Y116900D03*
X247730Y60900D03*
D16*
X284480Y103900D03*
X284480Y93900D03*
X284480Y83900D03*
X284480Y73900D03*
D10*
X411480Y147400D03*
X411480Y157400D03*
X322580Y236300D03*
X322580Y246300D03*
D12*
X353250Y307650D02*
X353250Y314650D01*
X360250Y314650D01*
X360250Y307650D01*
X353250Y307650D01*
X353250Y310500D02*
X360250Y310500D01*
X360250Y313350D02*
X353250Y313350D01*
X335710Y314650D02*
X335710Y307650D01*
X335710Y314650D02*
X342710Y314650D01*
X342710Y307650D01*
X335710Y307650D01*
X335710Y310500D02*
X342710Y310500D01*
X342710Y313350D02*
X335710Y313350D01*
D10*
X317580Y311150D03*
X327580Y311150D03*
X378380Y228600D03*
X368380Y228600D03*
D17*
X378280Y199010D03*
X378280Y215010D03*
X419280Y215010D03*
X419280Y199010D03*
X378280Y243460D03*
X378280Y259460D03*
X419280Y259460D03*
X419280Y243460D03*
D18*
X265600Y508800D03*
X265600Y496100D03*
X265600Y483400D03*
X265600Y470700D03*
X265600Y458000D03*
X265600Y445300D03*
X265600Y432600D03*
X265600Y419900D03*
X265600Y407200D03*
X265600Y394500D03*
X265600Y381800D03*
X265600Y369100D03*
X265600Y356400D03*
X265600Y343700D03*
D19*
X290830Y328800D03*
X303530Y328800D03*
X316230Y328800D03*
X328930Y328800D03*
X341630Y328800D03*
X354330Y328800D03*
X367030Y328800D03*
X379730Y328800D03*
X392430Y328800D03*
X405130Y328800D03*
D18*
X430360Y343700D03*
X430360Y356400D03*
X430360Y369100D03*
X430360Y381800D03*
X430360Y394500D03*
X430360Y407200D03*
X430360Y419900D03*
X430360Y432600D03*
X430360Y445300D03*
X430360Y458000D03*
X430360Y470700D03*
X430360Y483400D03*
X430360Y496100D03*
X430360Y508800D03*
D20*
X347980Y431800D03*
D21*
X357980Y181000D03*
X357980Y200000D03*
X336980Y190500D03*
D22*
X355480Y60100D03*
X350480Y60100D03*
D23*
X380230Y60100D03*
X372480Y60100D03*
D22*
X365480Y60100D03*
X360480Y60100D03*
X340480Y60100D03*
X345480Y60100D03*
D23*
X315730Y60100D03*
X323480Y60100D03*
D22*
X330480Y60100D03*
X335480Y60100D03*
D10*
X398780Y26750D03*
X398780Y36750D03*
X297180Y26750D03*
X297180Y36750D03*
D24*
X359480Y165100D03*
X336480Y165100D03*
D25*
X303530Y73600D03*
X316230Y73600D03*
X328930Y73600D03*
X341630Y73600D03*
X354330Y73600D03*
X367030Y73600D03*
X379730Y73600D03*
X392430Y73600D03*
X392430Y129600D03*
X379730Y129600D03*
X367030Y129600D03*
X354330Y129600D03*
X341630Y129600D03*
X328930Y129600D03*
X316230Y129600D03*
X303530Y129600D03*
D10*
X289480Y127000D03*
X279480Y127000D03*
X317580Y273050D03*
X327580Y273050D03*
D12*
X353250Y269550D02*
X353250Y276550D01*
X360250Y276550D01*
X360250Y269550D01*
X353250Y269550D01*
X353250Y272400D02*
X360250Y272400D01*
X360250Y275250D02*
X353250Y275250D01*
X335710Y276550D02*
X335710Y269550D01*
X335710Y276550D02*
X342710Y276550D01*
X342710Y269550D01*
X335710Y269550D01*
X335710Y272400D02*
X342710Y272400D01*
X342710Y275250D02*
X335710Y275250D01*
D26*
X289680Y281913D03*
X294680Y302288D03*
X289680Y302288D03*
X299680Y302288D03*
X304680Y302288D03*
X294680Y281913D03*
X299680Y281913D03*
X304680Y281913D03*
D27*
X300580Y292100D03*
X293780Y292100D03*
D10*
X317580Y254000D03*
X327580Y254000D03*
X391080Y172720D03*
X381080Y172720D03*
D28*
X373079Y161900D03*
X373079Y152400D03*
X373079Y142900D03*
X399081Y142900D03*
X399081Y161900D03*
D10*
X304880Y152400D03*
X314880Y152400D03*
D29*
X445350Y562870D03*
X456350Y562870D03*
X456350Y544570D03*
X445350Y544570D03*
D10*
X455850Y535940D03*
X445850Y535940D03*
D30*
X306240Y167800D03*
X306240Y187800D03*
D31*
X254240Y143800D03*
X254240Y211800D03*
D10*
X556260Y210900D03*
X556260Y220900D03*
X576660Y254000D03*
X586660Y254000D03*
D11*
X521360Y228299D03*
X530860Y228299D03*
X540360Y228299D03*
X540360Y254301D03*
X521360Y254301D03*
D10*
X538560Y203200D03*
X548560Y203200D03*
X586660Y152400D03*
X576660Y152400D03*
D12*
X586930Y288600D02*
X586930Y295600D01*
X593930Y295600D01*
X593930Y288600D01*
X586930Y288600D01*
X586930Y291450D02*
X593930Y291450D01*
X593930Y294300D02*
X586930Y294300D01*
X569390Y295600D02*
X569390Y288600D01*
X569390Y295600D02*
X576390Y295600D01*
X576390Y288600D01*
X569390Y288600D01*
X569390Y291450D02*
X576390Y291450D01*
X576390Y294300D02*
X569390Y294300D01*
D10*
X551260Y292100D03*
X561260Y292100D03*
D11*
X572160Y215599D03*
X581660Y215599D03*
X591160Y215599D03*
X591160Y241601D03*
X572160Y241601D03*
D13*
X539360Y266700D03*
X522360Y266700D03*
X662060Y63500D03*
X679060Y63500D03*
D10*
X662860Y82550D03*
X652860Y82550D03*
X652860Y120650D03*
X662860Y120650D03*
D14*
X648660Y108100D03*
X667060Y101600D03*
X667060Y95100D03*
X667060Y108100D03*
X648660Y101600D03*
X648660Y95100D03*
D15*
X481410Y116900D03*
X481410Y60900D03*
D16*
X518160Y103900D03*
X518160Y93900D03*
X518160Y83900D03*
X518160Y73900D03*
D10*
X645160Y147400D03*
X645160Y157400D03*
X556260Y236300D03*
X556260Y246300D03*
D12*
X586930Y307650D02*
X586930Y314650D01*
X593930Y314650D01*
X593930Y307650D01*
X586930Y307650D01*
X586930Y310500D02*
X593930Y310500D01*
X593930Y313350D02*
X586930Y313350D01*
X569390Y314650D02*
X569390Y307650D01*
X569390Y314650D02*
X576390Y314650D01*
X576390Y307650D01*
X569390Y307650D01*
X569390Y310500D02*
X576390Y310500D01*
X576390Y313350D02*
X569390Y313350D01*
D10*
X551260Y311150D03*
X561260Y311150D03*
X612060Y228600D03*
X602060Y228600D03*
D17*
X611960Y199010D03*
X611960Y215010D03*
X652960Y215010D03*
X652960Y199010D03*
X611960Y243460D03*
X611960Y259460D03*
X652960Y259460D03*
X652960Y243460D03*
D18*
X499280Y508800D03*
X499280Y496100D03*
X499280Y483400D03*
X499280Y470700D03*
X499280Y458000D03*
X499280Y445300D03*
X499280Y432600D03*
X499280Y419900D03*
X499280Y407200D03*
X499280Y394500D03*
X499280Y381800D03*
X499280Y369100D03*
X499280Y356400D03*
X499280Y343700D03*
D19*
X524510Y328800D03*
X537210Y328800D03*
X549910Y328800D03*
X562610Y328800D03*
X575310Y328800D03*
X588010Y328800D03*
X600710Y328800D03*
X613410Y328800D03*
X626110Y328800D03*
X638810Y328800D03*
D18*
X664040Y343700D03*
X664040Y356400D03*
X664040Y369100D03*
X664040Y381800D03*
X664040Y394500D03*
X664040Y407200D03*
X664040Y419900D03*
X664040Y432600D03*
X664040Y445300D03*
X664040Y458000D03*
X664040Y470700D03*
X664040Y483400D03*
X664040Y496100D03*
X664040Y508800D03*
D20*
X581660Y431800D03*
D21*
X591660Y181000D03*
X591660Y200000D03*
X570660Y190500D03*
D22*
X589160Y60100D03*
X584160Y60100D03*
D23*
X613910Y60100D03*
X606160Y60100D03*
D22*
X599160Y60100D03*
X594160Y60100D03*
X574160Y60100D03*
X579160Y60100D03*
D23*
X549410Y60100D03*
X557160Y60100D03*
D22*
X564160Y60100D03*
X569160Y60100D03*
D10*
X632460Y26750D03*
X632460Y36750D03*
X530860Y26750D03*
X530860Y36750D03*
D24*
X593160Y165100D03*
X570160Y165100D03*
D25*
X537210Y73600D03*
X549910Y73600D03*
X562610Y73600D03*
X575310Y73600D03*
X588010Y73600D03*
X600710Y73600D03*
X613410Y73600D03*
X626110Y73600D03*
X626110Y129600D03*
X613410Y129600D03*
X600710Y129600D03*
X588010Y129600D03*
X575310Y129600D03*
X562610Y129600D03*
X549910Y129600D03*
X537210Y129600D03*
D10*
X523160Y127000D03*
X513160Y127000D03*
X551260Y273050D03*
X561260Y273050D03*
D12*
X586930Y269550D02*
X586930Y276550D01*
X593930Y276550D01*
X593930Y269550D01*
X586930Y269550D01*
X586930Y272400D02*
X593930Y272400D01*
X593930Y275250D02*
X586930Y275250D01*
X569390Y276550D02*
X569390Y269550D01*
X569390Y276550D02*
X576390Y276550D01*
X576390Y269550D01*
X569390Y269550D01*
X569390Y272400D02*
X576390Y272400D01*
X576390Y275250D02*
X569390Y275250D01*
D26*
X523360Y281913D03*
X528360Y302288D03*
X523360Y302288D03*
X533360Y302288D03*
X538360Y302288D03*
X528360Y281913D03*
X533360Y281913D03*
X538360Y281913D03*
D27*
X534260Y292100D03*
X527460Y292100D03*
D10*
X551260Y254000D03*
X561260Y254000D03*
X624760Y172720D03*
X614760Y172720D03*
D28*
X606759Y161900D03*
X606759Y152400D03*
X606759Y142900D03*
X632761Y142900D03*
X632761Y161900D03*
D10*
X538560Y152400D03*
X548560Y152400D03*
D29*
X679030Y562870D03*
X690030Y562870D03*
X690030Y544570D03*
X679030Y544570D03*
D10*
X689530Y535940D03*
X679530Y535940D03*
D30*
X539920Y167800D03*
X539920Y187800D03*
D31*
X487920Y143800D03*
X487920Y211800D03*
D10*
X789940Y210900D03*
X789940Y220900D03*
X810340Y254000D03*
X820340Y254000D03*
D11*
X755040Y228299D03*
X764540Y228299D03*
X774040Y228299D03*
X774040Y254301D03*
X755040Y254301D03*
D10*
X772240Y203200D03*
X782240Y203200D03*
X820340Y152400D03*
X810340Y152400D03*
D12*
X820610Y288600D02*
X820610Y295600D01*
X827610Y295600D01*
X827610Y288600D01*
X820610Y288600D01*
X820610Y291450D02*
X827610Y291450D01*
X827610Y294300D02*
X820610Y294300D01*
X803070Y295600D02*
X803070Y288600D01*
X803070Y295600D02*
X810070Y295600D01*
X810070Y288600D01*
X803070Y288600D01*
X803070Y291450D02*
X810070Y291450D01*
X810070Y294300D02*
X803070Y294300D01*
D10*
X784940Y292100D03*
X794940Y292100D03*
D11*
X805840Y215599D03*
X815340Y215599D03*
X824840Y215599D03*
X824840Y241601D03*
X805840Y241601D03*
D13*
X773040Y266700D03*
X756040Y266700D03*
X895740Y63500D03*
X912740Y63500D03*
D10*
X896540Y82550D03*
X886540Y82550D03*
X886540Y120650D03*
X896540Y120650D03*
D14*
X882340Y108100D03*
X900740Y101600D03*
X900740Y95100D03*
X900740Y108100D03*
X882340Y101600D03*
X882340Y95100D03*
D15*
X715090Y116900D03*
X715090Y60900D03*
D16*
X751840Y103900D03*
X751840Y93900D03*
X751840Y83900D03*
X751840Y73900D03*
D10*
X878840Y147400D03*
X878840Y157400D03*
X789940Y236300D03*
X789940Y246300D03*
D12*
X820610Y307650D02*
X820610Y314650D01*
X827610Y314650D01*
X827610Y307650D01*
X820610Y307650D01*
X820610Y310500D02*
X827610Y310500D01*
X827610Y313350D02*
X820610Y313350D01*
X803070Y314650D02*
X803070Y307650D01*
X803070Y314650D02*
X810070Y314650D01*
X810070Y307650D01*
X803070Y307650D01*
X803070Y310500D02*
X810070Y310500D01*
X810070Y313350D02*
X803070Y313350D01*
D10*
X784940Y311150D03*
X794940Y311150D03*
X845740Y228600D03*
X835740Y228600D03*
D17*
X845640Y199010D03*
X845640Y215010D03*
X886640Y215010D03*
X886640Y199010D03*
X845640Y243460D03*
X845640Y259460D03*
X886640Y259460D03*
X886640Y243460D03*
D18*
X732960Y508800D03*
X732960Y496100D03*
X732960Y483400D03*
X732960Y470700D03*
X732960Y458000D03*
X732960Y445300D03*
X732960Y432600D03*
X732960Y419900D03*
X732960Y407200D03*
X732960Y394500D03*
X732960Y381800D03*
X732960Y369100D03*
X732960Y356400D03*
X732960Y343700D03*
D19*
X758190Y328800D03*
X770890Y328800D03*
X783590Y328800D03*
X796290Y328800D03*
X808990Y328800D03*
X821690Y328800D03*
X834390Y328800D03*
X847090Y328800D03*
X859790Y328800D03*
X872490Y328800D03*
D18*
X897720Y343700D03*
X897720Y356400D03*
X897720Y369100D03*
X897720Y381800D03*
X897720Y394500D03*
X897720Y407200D03*
X897720Y419900D03*
X897720Y432600D03*
X897720Y445300D03*
X897720Y458000D03*
X897720Y470700D03*
X897720Y483400D03*
X897720Y496100D03*
X897720Y508800D03*
D20*
X815340Y431800D03*
D21*
X825340Y181000D03*
X825340Y200000D03*
X804340Y190500D03*
D22*
X822840Y60100D03*
X817840Y60100D03*
D23*
X847590Y60100D03*
X839840Y60100D03*
D22*
X832840Y60100D03*
X827840Y60100D03*
X807840Y60100D03*
X812840Y60100D03*
D23*
X783090Y60100D03*
X790840Y60100D03*
D22*
X797840Y60100D03*
X802840Y60100D03*
D10*
X866140Y26750D03*
X866140Y36750D03*
X764540Y26750D03*
X764540Y36750D03*
D24*
X826840Y165100D03*
X803840Y165100D03*
D25*
X770890Y73600D03*
X783590Y73600D03*
X796290Y73600D03*
X808990Y73600D03*
X821690Y73600D03*
X834390Y73600D03*
X847090Y73600D03*
X859790Y73600D03*
X859790Y129600D03*
X847090Y129600D03*
X834390Y129600D03*
X821690Y129600D03*
X808990Y129600D03*
X796290Y129600D03*
X783590Y129600D03*
X770890Y129600D03*
D10*
X756840Y127000D03*
X746840Y127000D03*
X784940Y273050D03*
X794940Y273050D03*
D12*
X820610Y269550D02*
X820610Y276550D01*
X827610Y276550D01*
X827610Y269550D01*
X820610Y269550D01*
X820610Y272400D02*
X827610Y272400D01*
X827610Y275250D02*
X820610Y275250D01*
X803070Y276550D02*
X803070Y269550D01*
X803070Y276550D02*
X810070Y276550D01*
X810070Y269550D01*
X803070Y269550D01*
X803070Y272400D02*
X810070Y272400D01*
X810070Y275250D02*
X803070Y275250D01*
D26*
X757040Y281913D03*
X762040Y302288D03*
X757040Y302288D03*
X767040Y302288D03*
X772040Y302288D03*
X762040Y281913D03*
X767040Y281913D03*
X772040Y281913D03*
D27*
X767940Y292100D03*
X761140Y292100D03*
D10*
X784940Y254000D03*
X794940Y254000D03*
X858440Y172720D03*
X848440Y172720D03*
D28*
X840439Y161900D03*
X840439Y152400D03*
X840439Y142900D03*
X866441Y142900D03*
X866441Y161900D03*
D10*
X772240Y152400D03*
X782240Y152400D03*
D29*
X912710Y562870D03*
X923710Y562870D03*
X923710Y544570D03*
X912710Y544570D03*
D10*
X923210Y535940D03*
X913210Y535940D03*
D30*
X773600Y167800D03*
X773600Y187800D03*
D31*
X721600Y143800D03*
X721600Y211800D03*
D10*
X1023620Y210900D03*
X1023620Y220900D03*
X1044020Y254000D03*
X1054020Y254000D03*
D11*
X988720Y228299D03*
X998220Y228299D03*
X1007720Y228299D03*
X1007720Y254301D03*
X988720Y254301D03*
D10*
X1005920Y203200D03*
X1015920Y203200D03*
X1054020Y152400D03*
X1044020Y152400D03*
D12*
X1054290Y288600D02*
X1054290Y295600D01*
X1061290Y295600D01*
X1061290Y288600D01*
X1054290Y288600D01*
X1054290Y291450D02*
X1061290Y291450D01*
X1061290Y294300D02*
X1054290Y294300D01*
X1036750Y295600D02*
X1036750Y288600D01*
X1036750Y295600D02*
X1043750Y295600D01*
X1043750Y288600D01*
X1036750Y288600D01*
X1036750Y291450D02*
X1043750Y291450D01*
X1043750Y294300D02*
X1036750Y294300D01*
D10*
X1018620Y292100D03*
X1028620Y292100D03*
D11*
X1039520Y215599D03*
X1049020Y215599D03*
X1058520Y215599D03*
X1058520Y241601D03*
X1039520Y241601D03*
D13*
X1006720Y266700D03*
X989720Y266700D03*
X1129420Y63500D03*
X1146420Y63500D03*
D10*
X1130220Y82550D03*
X1120220Y82550D03*
X1120220Y120650D03*
X1130220Y120650D03*
D14*
X1116020Y108100D03*
X1134420Y101600D03*
X1134420Y95100D03*
X1134420Y108100D03*
X1116020Y101600D03*
X1116020Y95100D03*
D15*
X948770Y116900D03*
X948770Y60900D03*
D16*
X985520Y103900D03*
X985520Y93900D03*
X985520Y83900D03*
X985520Y73900D03*
D10*
X1112520Y147400D03*
X1112520Y157400D03*
X1023620Y236300D03*
X1023620Y246300D03*
D12*
X1054290Y307650D02*
X1054290Y314650D01*
X1061290Y314650D01*
X1061290Y307650D01*
X1054290Y307650D01*
X1054290Y310500D02*
X1061290Y310500D01*
X1061290Y313350D02*
X1054290Y313350D01*
X1036750Y314650D02*
X1036750Y307650D01*
X1036750Y314650D02*
X1043750Y314650D01*
X1043750Y307650D01*
X1036750Y307650D01*
X1036750Y310500D02*
X1043750Y310500D01*
X1043750Y313350D02*
X1036750Y313350D01*
D10*
X1018620Y311150D03*
X1028620Y311150D03*
X1079420Y228600D03*
X1069420Y228600D03*
D17*
X1079320Y199010D03*
X1079320Y215010D03*
X1120320Y215010D03*
X1120320Y199010D03*
X1079320Y243460D03*
X1079320Y259460D03*
X1120320Y259460D03*
X1120320Y243460D03*
D18*
X966640Y508800D03*
X966640Y496100D03*
X966640Y483400D03*
X966640Y470700D03*
X966640Y458000D03*
X966640Y445300D03*
X966640Y432600D03*
X966640Y419900D03*
X966640Y407200D03*
X966640Y394500D03*
X966640Y381800D03*
X966640Y369100D03*
X966640Y356400D03*
X966640Y343700D03*
D19*
X991870Y328800D03*
X1004570Y328800D03*
X1017270Y328800D03*
X1029970Y328800D03*
X1042670Y328800D03*
X1055370Y328800D03*
X1068070Y328800D03*
X1080770Y328800D03*
X1093470Y328800D03*
X1106170Y328800D03*
D18*
X1131400Y343700D03*
X1131400Y356400D03*
X1131400Y369100D03*
X1131400Y381800D03*
X1131400Y394500D03*
X1131400Y407200D03*
X1131400Y419900D03*
X1131400Y432600D03*
X1131400Y445300D03*
X1131400Y458000D03*
X1131400Y470700D03*
X1131400Y483400D03*
X1131400Y496100D03*
X1131400Y508800D03*
D20*
X1049020Y431800D03*
D21*
X1059020Y181000D03*
X1059020Y200000D03*
X1038020Y190500D03*
D22*
X1056520Y60100D03*
X1051520Y60100D03*
D23*
X1081270Y60100D03*
X1073520Y60100D03*
D22*
X1066520Y60100D03*
X1061520Y60100D03*
X1041520Y60100D03*
X1046520Y60100D03*
D23*
X1016770Y60100D03*
X1024520Y60100D03*
D22*
X1031520Y60100D03*
X1036520Y60100D03*
D10*
X1099820Y26750D03*
X1099820Y36750D03*
X998220Y26750D03*
X998220Y36750D03*
D24*
X1060520Y165100D03*
X1037520Y165100D03*
D25*
X1004570Y73600D03*
X1017270Y73600D03*
X1029970Y73600D03*
X1042670Y73600D03*
X1055370Y73600D03*
X1068070Y73600D03*
X1080770Y73600D03*
X1093470Y73600D03*
X1093470Y129600D03*
X1080770Y129600D03*
X1068070Y129600D03*
X1055370Y129600D03*
X1042670Y129600D03*
X1029970Y129600D03*
X1017270Y129600D03*
X1004570Y129600D03*
D10*
X990520Y127000D03*
X980520Y127000D03*
X1018620Y273050D03*
X1028620Y273050D03*
D12*
X1054290Y269550D02*
X1054290Y276550D01*
X1061290Y276550D01*
X1061290Y269550D01*
X1054290Y269550D01*
X1054290Y272400D02*
X1061290Y272400D01*
X1061290Y275250D02*
X1054290Y275250D01*
X1036750Y276550D02*
X1036750Y269550D01*
X1036750Y276550D02*
X1043750Y276550D01*
X1043750Y269550D01*
X1036750Y269550D01*
X1036750Y272400D02*
X1043750Y272400D01*
X1043750Y275250D02*
X1036750Y275250D01*
D26*
X990720Y281913D03*
X995720Y302288D03*
X990720Y302288D03*
X1000720Y302288D03*
X1005720Y302288D03*
X995720Y281913D03*
X1000720Y281913D03*
X1005720Y281913D03*
D27*
X1001620Y292100D03*
X994820Y292100D03*
D10*
X1018620Y254000D03*
X1028620Y254000D03*
X1092120Y172720D03*
X1082120Y172720D03*
D28*
X1074119Y161900D03*
X1074119Y152400D03*
X1074119Y142900D03*
X1100121Y142900D03*
X1100121Y161900D03*
D10*
X1005920Y152400D03*
X1015920Y152400D03*
D29*
X1146390Y562870D03*
X1157390Y562870D03*
X1157390Y544570D03*
X1146390Y544570D03*
D10*
X1156890Y535940D03*
X1146890Y535940D03*
D30*
X1007280Y167800D03*
X1007280Y187800D03*
D31*
X955280Y143800D03*
X955280Y211800D03*
D10*
X88900Y825580D03*
X88900Y835580D03*
X109300Y868680D03*
X119300Y868680D03*
D11*
X54000Y842979D03*
X63500Y842979D03*
X73000Y842979D03*
X73000Y868981D03*
X54000Y868981D03*
D10*
X71200Y817880D03*
X81200Y817880D03*
X119300Y767080D03*
X109300Y767080D03*
D12*
X119570Y903280D02*
X119570Y910280D01*
X126570Y910280D01*
X126570Y903280D01*
X119570Y903280D01*
X119570Y906130D02*
X126570Y906130D01*
X126570Y908980D02*
X119570Y908980D01*
X102030Y910280D02*
X102030Y903280D01*
X102030Y910280D02*
X109030Y910280D01*
X109030Y903280D01*
X102030Y903280D01*
X102030Y906130D02*
X109030Y906130D01*
X109030Y908980D02*
X102030Y908980D01*
D10*
X83900Y906780D03*
X93900Y906780D03*
D11*
X104800Y830279D03*
X114300Y830279D03*
X123800Y830279D03*
X123800Y856281D03*
X104800Y856281D03*
D13*
X72000Y881380D03*
X55000Y881380D03*
X194700Y678180D03*
X211700Y678180D03*
D10*
X195500Y697230D03*
X185500Y697230D03*
X185500Y735330D03*
X195500Y735330D03*
D14*
X181300Y722780D03*
X199700Y716280D03*
X199700Y709780D03*
X199700Y722780D03*
X181300Y716280D03*
X181300Y709780D03*
D15*
X14050Y731580D03*
X14050Y675580D03*
D16*
X50800Y718580D03*
X50800Y708580D03*
X50800Y698580D03*
X50800Y688580D03*
D10*
X177800Y762080D03*
X177800Y772080D03*
X88900Y850980D03*
X88900Y860980D03*
D12*
X119570Y922330D02*
X119570Y929330D01*
X126570Y929330D01*
X126570Y922330D01*
X119570Y922330D01*
X119570Y925180D02*
X126570Y925180D01*
X126570Y928030D02*
X119570Y928030D01*
X102030Y929330D02*
X102030Y922330D01*
X102030Y929330D02*
X109030Y929330D01*
X109030Y922330D01*
X102030Y922330D01*
X102030Y925180D02*
X109030Y925180D01*
X109030Y928030D02*
X102030Y928030D01*
D10*
X83900Y925830D03*
X93900Y925830D03*
X144700Y843280D03*
X134700Y843280D03*
D17*
X144600Y813690D03*
X144600Y829690D03*
X185600Y829690D03*
X185600Y813690D03*
X144600Y858140D03*
X144600Y874140D03*
X185600Y874140D03*
X185600Y858140D03*
D18*
X31920Y1123480D03*
X31920Y1110780D03*
X31920Y1098080D03*
X31920Y1085380D03*
X31920Y1072680D03*
X31920Y1059980D03*
X31920Y1047280D03*
X31920Y1034580D03*
X31920Y1021880D03*
X31920Y1009180D03*
X31920Y996480D03*
X31920Y983780D03*
X31920Y971080D03*
X31920Y958380D03*
D19*
X57150Y943480D03*
X69850Y943480D03*
X82550Y943480D03*
X95250Y943480D03*
X107950Y943480D03*
X120650Y943480D03*
X133350Y943480D03*
X146050Y943480D03*
X158750Y943480D03*
X171450Y943480D03*
D18*
X196680Y958380D03*
X196680Y971080D03*
X196680Y983780D03*
X196680Y996480D03*
X196680Y1009180D03*
X196680Y1021880D03*
X196680Y1034580D03*
X196680Y1047280D03*
X196680Y1059980D03*
X196680Y1072680D03*
X196680Y1085380D03*
X196680Y1098080D03*
X196680Y1110780D03*
X196680Y1123480D03*
D20*
X114300Y1046480D03*
D21*
X124300Y795680D03*
X124300Y814680D03*
X103300Y805180D03*
D22*
X121800Y674780D03*
X116800Y674780D03*
D23*
X146550Y674780D03*
X138800Y674780D03*
D22*
X131800Y674780D03*
X126800Y674780D03*
X106800Y674780D03*
X111800Y674780D03*
D23*
X82050Y674780D03*
X89800Y674780D03*
D22*
X96800Y674780D03*
X101800Y674780D03*
D10*
X165100Y641430D03*
X165100Y651430D03*
X63500Y641430D03*
X63500Y651430D03*
D24*
X125800Y779780D03*
X102800Y779780D03*
D25*
X69850Y688280D03*
X82550Y688280D03*
X95250Y688280D03*
X107950Y688280D03*
X120650Y688280D03*
X133350Y688280D03*
X146050Y688280D03*
X158750Y688280D03*
X158750Y744280D03*
X146050Y744280D03*
X133350Y744280D03*
X120650Y744280D03*
X107950Y744280D03*
X95250Y744280D03*
X82550Y744280D03*
X69850Y744280D03*
D10*
X55800Y741680D03*
X45800Y741680D03*
X83900Y887730D03*
X93900Y887730D03*
D12*
X119570Y884230D02*
X119570Y891230D01*
X126570Y891230D01*
X126570Y884230D01*
X119570Y884230D01*
X119570Y887080D02*
X126570Y887080D01*
X126570Y889930D02*
X119570Y889930D01*
X102030Y891230D02*
X102030Y884230D01*
X102030Y891230D02*
X109030Y891230D01*
X109030Y884230D01*
X102030Y884230D01*
X102030Y887080D02*
X109030Y887080D01*
X109030Y889930D02*
X102030Y889930D01*
D26*
X56000Y896593D03*
X61000Y916968D03*
X56000Y916968D03*
X66000Y916968D03*
X71000Y916968D03*
X61000Y896593D03*
X66000Y896593D03*
X71000Y896593D03*
D27*
X66900Y906780D03*
X60100Y906780D03*
D10*
X83900Y868680D03*
X93900Y868680D03*
X157400Y787400D03*
X147400Y787400D03*
D28*
X139399Y776580D03*
X139399Y767080D03*
X139399Y757580D03*
X165401Y757580D03*
X165401Y776580D03*
D10*
X71200Y767080D03*
X81200Y767080D03*
D29*
X211670Y1177550D03*
X222670Y1177550D03*
X222670Y1159250D03*
X211670Y1159250D03*
D10*
X222170Y1150620D03*
X212170Y1150620D03*
D30*
X72560Y782480D03*
X72560Y802480D03*
D31*
X20560Y758480D03*
X20560Y826480D03*
D10*
X322580Y825580D03*
X322580Y835580D03*
X342980Y868680D03*
X352980Y868680D03*
D11*
X287680Y842979D03*
X297180Y842979D03*
X306680Y842979D03*
X306680Y868981D03*
X287680Y868981D03*
D10*
X304880Y817880D03*
X314880Y817880D03*
X352980Y767080D03*
X342980Y767080D03*
D12*
X353250Y903280D02*
X353250Y910280D01*
X360250Y910280D01*
X360250Y903280D01*
X353250Y903280D01*
X353250Y906130D02*
X360250Y906130D01*
X360250Y908980D02*
X353250Y908980D01*
X335710Y910280D02*
X335710Y903280D01*
X335710Y910280D02*
X342710Y910280D01*
X342710Y903280D01*
X335710Y903280D01*
X335710Y906130D02*
X342710Y906130D01*
X342710Y908980D02*
X335710Y908980D01*
D10*
X317580Y906780D03*
X327580Y906780D03*
D11*
X338480Y830279D03*
X347980Y830279D03*
X357480Y830279D03*
X357480Y856281D03*
X338480Y856281D03*
D13*
X305680Y881380D03*
X288680Y881380D03*
X428380Y678180D03*
X445380Y678180D03*
D10*
X429180Y697230D03*
X419180Y697230D03*
X419180Y735330D03*
X429180Y735330D03*
D14*
X414980Y722780D03*
X433380Y716280D03*
X433380Y709780D03*
X433380Y722780D03*
X414980Y716280D03*
X414980Y709780D03*
D15*
X247730Y731580D03*
X247730Y675580D03*
D16*
X284480Y718580D03*
X284480Y708580D03*
X284480Y698580D03*
X284480Y688580D03*
D10*
X411480Y762080D03*
X411480Y772080D03*
X322580Y850980D03*
X322580Y860980D03*
D12*
X353250Y922330D02*
X353250Y929330D01*
X360250Y929330D01*
X360250Y922330D01*
X353250Y922330D01*
X353250Y925180D02*
X360250Y925180D01*
X360250Y928030D02*
X353250Y928030D01*
X335710Y929330D02*
X335710Y922330D01*
X335710Y929330D02*
X342710Y929330D01*
X342710Y922330D01*
X335710Y922330D01*
X335710Y925180D02*
X342710Y925180D01*
X342710Y928030D02*
X335710Y928030D01*
D10*
X317580Y925830D03*
X327580Y925830D03*
X378380Y843280D03*
X368380Y843280D03*
D17*
X378280Y813690D03*
X378280Y829690D03*
X419280Y829690D03*
X419280Y813690D03*
X378280Y858140D03*
X378280Y874140D03*
X419280Y874140D03*
X419280Y858140D03*
D18*
X265600Y1123480D03*
X265600Y1110780D03*
X265600Y1098080D03*
X265600Y1085380D03*
X265600Y1072680D03*
X265600Y1059980D03*
X265600Y1047280D03*
X265600Y1034580D03*
X265600Y1021880D03*
X265600Y1009180D03*
X265600Y996480D03*
X265600Y983780D03*
X265600Y971080D03*
X265600Y958380D03*
D19*
X290830Y943480D03*
X303530Y943480D03*
X316230Y943480D03*
X328930Y943480D03*
X341630Y943480D03*
X354330Y943480D03*
X367030Y943480D03*
X379730Y943480D03*
X392430Y943480D03*
X405130Y943480D03*
D18*
X430360Y958380D03*
X430360Y971080D03*
X430360Y983780D03*
X430360Y996480D03*
X430360Y1009180D03*
X430360Y1021880D03*
X430360Y1034580D03*
X430360Y1047280D03*
X430360Y1059980D03*
X430360Y1072680D03*
X430360Y1085380D03*
X430360Y1098080D03*
X430360Y1110780D03*
X430360Y1123480D03*
D20*
X347980Y1046480D03*
D21*
X357980Y795680D03*
X357980Y814680D03*
X336980Y805180D03*
D22*
X355480Y674780D03*
X350480Y674780D03*
D23*
X380230Y674780D03*
X372480Y674780D03*
D22*
X365480Y674780D03*
X360480Y674780D03*
X340480Y674780D03*
X345480Y674780D03*
D23*
X315730Y674780D03*
X323480Y674780D03*
D22*
X330480Y674780D03*
X335480Y674780D03*
D10*
X398780Y641430D03*
X398780Y651430D03*
X297180Y641430D03*
X297180Y651430D03*
D24*
X359480Y779780D03*
X336480Y779780D03*
D25*
X303530Y688280D03*
X316230Y688280D03*
X328930Y688280D03*
X341630Y688280D03*
X354330Y688280D03*
X367030Y688280D03*
X379730Y688280D03*
X392430Y688280D03*
X392430Y744280D03*
X379730Y744280D03*
X367030Y744280D03*
X354330Y744280D03*
X341630Y744280D03*
X328930Y744280D03*
X316230Y744280D03*
X303530Y744280D03*
D10*
X289480Y741680D03*
X279480Y741680D03*
X317580Y887730D03*
X327580Y887730D03*
D12*
X353250Y884230D02*
X353250Y891230D01*
X360250Y891230D01*
X360250Y884230D01*
X353250Y884230D01*
X353250Y887080D02*
X360250Y887080D01*
X360250Y889930D02*
X353250Y889930D01*
X335710Y891230D02*
X335710Y884230D01*
X335710Y891230D02*
X342710Y891230D01*
X342710Y884230D01*
X335710Y884230D01*
X335710Y887080D02*
X342710Y887080D01*
X342710Y889930D02*
X335710Y889930D01*
D26*
X289680Y896593D03*
X294680Y916968D03*
X289680Y916968D03*
X299680Y916968D03*
X304680Y916968D03*
X294680Y896593D03*
X299680Y896593D03*
X304680Y896593D03*
D27*
X300580Y906780D03*
X293780Y906780D03*
D10*
X317580Y868680D03*
X327580Y868680D03*
X391080Y787400D03*
X381080Y787400D03*
D28*
X373079Y776580D03*
X373079Y767080D03*
X373079Y757580D03*
X399081Y757580D03*
X399081Y776580D03*
D10*
X304880Y767080D03*
X314880Y767080D03*
D29*
X445350Y1177550D03*
X456350Y1177550D03*
X456350Y1159250D03*
X445350Y1159250D03*
D10*
X455850Y1150620D03*
X445850Y1150620D03*
D30*
X306240Y782480D03*
X306240Y802480D03*
D31*
X254240Y758480D03*
X254240Y826480D03*
D10*
X556260Y825580D03*
X556260Y835580D03*
X576660Y868680D03*
X586660Y868680D03*
D11*
X521360Y842979D03*
X530860Y842979D03*
X540360Y842979D03*
X540360Y868981D03*
X521360Y868981D03*
D10*
X538560Y817880D03*
X548560Y817880D03*
X586660Y767080D03*
X576660Y767080D03*
D12*
X586930Y903280D02*
X586930Y910280D01*
X593930Y910280D01*
X593930Y903280D01*
X586930Y903280D01*
X586930Y906130D02*
X593930Y906130D01*
X593930Y908980D02*
X586930Y908980D01*
X569390Y910280D02*
X569390Y903280D01*
X569390Y910280D02*
X576390Y910280D01*
X576390Y903280D01*
X569390Y903280D01*
X569390Y906130D02*
X576390Y906130D01*
X576390Y908980D02*
X569390Y908980D01*
D10*
X551260Y906780D03*
X561260Y906780D03*
D11*
X572160Y830279D03*
X581660Y830279D03*
X591160Y830279D03*
X591160Y856281D03*
X572160Y856281D03*
D13*
X539360Y881380D03*
X522360Y881380D03*
X662060Y678180D03*
X679060Y678180D03*
D10*
X662860Y697230D03*
X652860Y697230D03*
X652860Y735330D03*
X662860Y735330D03*
D14*
X648660Y722780D03*
X667060Y716280D03*
X667060Y709780D03*
X667060Y722780D03*
X648660Y716280D03*
X648660Y709780D03*
D15*
X481410Y731580D03*
X481410Y675580D03*
D16*
X518160Y718580D03*
X518160Y708580D03*
X518160Y698580D03*
X518160Y688580D03*
D10*
X645160Y762080D03*
X645160Y772080D03*
X556260Y850980D03*
X556260Y860980D03*
D12*
X586930Y922330D02*
X586930Y929330D01*
X593930Y929330D01*
X593930Y922330D01*
X586930Y922330D01*
X586930Y925180D02*
X593930Y925180D01*
X593930Y928030D02*
X586930Y928030D01*
X569390Y929330D02*
X569390Y922330D01*
X569390Y929330D02*
X576390Y929330D01*
X576390Y922330D01*
X569390Y922330D01*
X569390Y925180D02*
X576390Y925180D01*
X576390Y928030D02*
X569390Y928030D01*
D10*
X551260Y925830D03*
X561260Y925830D03*
X612060Y843280D03*
X602060Y843280D03*
D17*
X611960Y813690D03*
X611960Y829690D03*
X652960Y829690D03*
X652960Y813690D03*
X611960Y858140D03*
X611960Y874140D03*
X652960Y874140D03*
X652960Y858140D03*
D18*
X499280Y1123480D03*
X499280Y1110780D03*
X499280Y1098080D03*
X499280Y1085380D03*
X499280Y1072680D03*
X499280Y1059980D03*
X499280Y1047280D03*
X499280Y1034580D03*
X499280Y1021880D03*
X499280Y1009180D03*
X499280Y996480D03*
X499280Y983780D03*
X499280Y971080D03*
X499280Y958380D03*
D19*
X524510Y943480D03*
X537210Y943480D03*
X549910Y943480D03*
X562610Y943480D03*
X575310Y943480D03*
X588010Y943480D03*
X600710Y943480D03*
X613410Y943480D03*
X626110Y943480D03*
X638810Y943480D03*
D18*
X664040Y958380D03*
X664040Y971080D03*
X664040Y983780D03*
X664040Y996480D03*
X664040Y1009180D03*
X664040Y1021880D03*
X664040Y1034580D03*
X664040Y1047280D03*
X664040Y1059980D03*
X664040Y1072680D03*
X664040Y1085380D03*
X664040Y1098080D03*
X664040Y1110780D03*
X664040Y1123480D03*
D20*
X581660Y1046480D03*
D21*
X591660Y795680D03*
X591660Y814680D03*
X570660Y805180D03*
D22*
X589160Y674780D03*
X584160Y674780D03*
D23*
X613910Y674780D03*
X606160Y674780D03*
D22*
X599160Y674780D03*
X594160Y674780D03*
X574160Y674780D03*
X579160Y674780D03*
D23*
X549410Y674780D03*
X557160Y674780D03*
D22*
X564160Y674780D03*
X569160Y674780D03*
D10*
X632460Y641430D03*
X632460Y651430D03*
X530860Y641430D03*
X530860Y651430D03*
D24*
X593160Y779780D03*
X570160Y779780D03*
D25*
X537210Y688280D03*
X549910Y688280D03*
X562610Y688280D03*
X575310Y688280D03*
X588010Y688280D03*
X600710Y688280D03*
X613410Y688280D03*
X626110Y688280D03*
X626110Y744280D03*
X613410Y744280D03*
X600710Y744280D03*
X588010Y744280D03*
X575310Y744280D03*
X562610Y744280D03*
X549910Y744280D03*
X537210Y744280D03*
D10*
X523160Y741680D03*
X513160Y741680D03*
X551260Y887730D03*
X561260Y887730D03*
D12*
X586930Y884230D02*
X586930Y891230D01*
X593930Y891230D01*
X593930Y884230D01*
X586930Y884230D01*
X586930Y887080D02*
X593930Y887080D01*
X593930Y889930D02*
X586930Y889930D01*
X569390Y891230D02*
X569390Y884230D01*
X569390Y891230D02*
X576390Y891230D01*
X576390Y884230D01*
X569390Y884230D01*
X569390Y887080D02*
X576390Y887080D01*
X576390Y889930D02*
X569390Y889930D01*
D26*
X523360Y896593D03*
X528360Y916968D03*
X523360Y916968D03*
X533360Y916968D03*
X538360Y916968D03*
X528360Y896593D03*
X533360Y896593D03*
X538360Y896593D03*
D27*
X534260Y906780D03*
X527460Y906780D03*
D10*
X551260Y868680D03*
X561260Y868680D03*
X624760Y787400D03*
X614760Y787400D03*
D28*
X606759Y776580D03*
X606759Y767080D03*
X606759Y757580D03*
X632761Y757580D03*
X632761Y776580D03*
D10*
X538560Y767080D03*
X548560Y767080D03*
D29*
X679030Y1177550D03*
X690030Y1177550D03*
X690030Y1159250D03*
X679030Y1159250D03*
D10*
X689530Y1150620D03*
X679530Y1150620D03*
D30*
X539920Y782480D03*
X539920Y802480D03*
D31*
X487920Y758480D03*
X487920Y826480D03*
D10*
X789940Y825580D03*
X789940Y835580D03*
X810340Y868680D03*
X820340Y868680D03*
D11*
X755040Y842979D03*
X764540Y842979D03*
X774040Y842979D03*
X774040Y868981D03*
X755040Y868981D03*
D10*
X772240Y817880D03*
X782240Y817880D03*
X820340Y767080D03*
X810340Y767080D03*
D12*
X820610Y903280D02*
X820610Y910280D01*
X827610Y910280D01*
X827610Y903280D01*
X820610Y903280D01*
X820610Y906130D02*
X827610Y906130D01*
X827610Y908980D02*
X820610Y908980D01*
X803070Y910280D02*
X803070Y903280D01*
X803070Y910280D02*
X810070Y910280D01*
X810070Y903280D01*
X803070Y903280D01*
X803070Y906130D02*
X810070Y906130D01*
X810070Y908980D02*
X803070Y908980D01*
D10*
X784940Y906780D03*
X794940Y906780D03*
D11*
X805840Y830279D03*
X815340Y830279D03*
X824840Y830279D03*
X824840Y856281D03*
X805840Y856281D03*
D13*
X773040Y881380D03*
X756040Y881380D03*
X895740Y678180D03*
X912740Y678180D03*
D10*
X896540Y697230D03*
X886540Y697230D03*
X886540Y735330D03*
X896540Y735330D03*
D14*
X882340Y722780D03*
X900740Y716280D03*
X900740Y709780D03*
X900740Y722780D03*
X882340Y716280D03*
X882340Y709780D03*
D15*
X715090Y731580D03*
X715090Y675580D03*
D16*
X751840Y718580D03*
X751840Y708580D03*
X751840Y698580D03*
X751840Y688580D03*
D10*
X878840Y762080D03*
X878840Y772080D03*
X789940Y850980D03*
X789940Y860980D03*
D12*
X820610Y922330D02*
X820610Y929330D01*
X827610Y929330D01*
X827610Y922330D01*
X820610Y922330D01*
X820610Y925180D02*
X827610Y925180D01*
X827610Y928030D02*
X820610Y928030D01*
X803070Y929330D02*
X803070Y922330D01*
X803070Y929330D02*
X810070Y929330D01*
X810070Y922330D01*
X803070Y922330D01*
X803070Y925180D02*
X810070Y925180D01*
X810070Y928030D02*
X803070Y928030D01*
D10*
X784940Y925830D03*
X794940Y925830D03*
X845740Y843280D03*
X835740Y843280D03*
D17*
X845640Y813690D03*
X845640Y829690D03*
X886640Y829690D03*
X886640Y813690D03*
X845640Y858140D03*
X845640Y874140D03*
X886640Y874140D03*
X886640Y858140D03*
D18*
X732960Y1123480D03*
X732960Y1110780D03*
X732960Y1098080D03*
X732960Y1085380D03*
X732960Y1072680D03*
X732960Y1059980D03*
X732960Y1047280D03*
X732960Y1034580D03*
X732960Y1021880D03*
X732960Y1009180D03*
X732960Y996480D03*
X732960Y983780D03*
X732960Y971080D03*
X732960Y958380D03*
D19*
X758190Y943480D03*
X770890Y943480D03*
X783590Y943480D03*
X796290Y943480D03*
X808990Y943480D03*
X821690Y943480D03*
X834390Y943480D03*
X847090Y943480D03*
X859790Y943480D03*
X872490Y943480D03*
D18*
X897720Y958380D03*
X897720Y971080D03*
X897720Y983780D03*
X897720Y996480D03*
X897720Y1009180D03*
X897720Y1021880D03*
X897720Y1034580D03*
X897720Y1047280D03*
X897720Y1059980D03*
X897720Y1072680D03*
X897720Y1085380D03*
X897720Y1098080D03*
X897720Y1110780D03*
X897720Y1123480D03*
D20*
X815340Y1046480D03*
D21*
X825340Y795680D03*
X825340Y814680D03*
X804340Y805180D03*
D22*
X822840Y674780D03*
X817840Y674780D03*
D23*
X847590Y674780D03*
X839840Y674780D03*
D22*
X832840Y674780D03*
X827840Y674780D03*
X807840Y674780D03*
X812840Y674780D03*
D23*
X783090Y674780D03*
X790840Y674780D03*
D22*
X797840Y674780D03*
X802840Y674780D03*
D10*
X866140Y641430D03*
X866140Y651430D03*
X764540Y641430D03*
X764540Y651430D03*
D24*
X826840Y779780D03*
X803840Y779780D03*
D25*
X770890Y688280D03*
X783590Y688280D03*
X796290Y688280D03*
X808990Y688280D03*
X821690Y688280D03*
X834390Y688280D03*
X847090Y688280D03*
X859790Y688280D03*
X859790Y744280D03*
X847090Y744280D03*
X834390Y744280D03*
X821690Y744280D03*
X808990Y744280D03*
X796290Y744280D03*
X783590Y744280D03*
X770890Y744280D03*
D10*
X756840Y741680D03*
X746840Y741680D03*
X784940Y887730D03*
X794940Y887730D03*
D12*
X820610Y884230D02*
X820610Y891230D01*
X827610Y891230D01*
X827610Y884230D01*
X820610Y884230D01*
X820610Y887080D02*
X827610Y887080D01*
X827610Y889930D02*
X820610Y889930D01*
X803070Y891230D02*
X803070Y884230D01*
X803070Y891230D02*
X810070Y891230D01*
X810070Y884230D01*
X803070Y884230D01*
X803070Y887080D02*
X810070Y887080D01*
X810070Y889930D02*
X803070Y889930D01*
D26*
X757040Y896593D03*
X762040Y916968D03*
X757040Y916968D03*
X767040Y916968D03*
X772040Y916968D03*
X762040Y896593D03*
X767040Y896593D03*
X772040Y896593D03*
D27*
X767940Y906780D03*
X761140Y906780D03*
D10*
X784940Y868680D03*
X794940Y868680D03*
X858440Y787400D03*
X848440Y787400D03*
D28*
X840439Y776580D03*
X840439Y767080D03*
X840439Y757580D03*
X866441Y757580D03*
X866441Y776580D03*
D10*
X772240Y767080D03*
X782240Y767080D03*
D29*
X912710Y1177550D03*
X923710Y1177550D03*
X923710Y1159250D03*
X912710Y1159250D03*
D10*
X923210Y1150620D03*
X913210Y1150620D03*
D30*
X773600Y782480D03*
X773600Y802480D03*
D31*
X721600Y758480D03*
X721600Y826480D03*
D10*
X1023620Y825580D03*
X1023620Y835580D03*
X1044020Y868680D03*
X1054020Y868680D03*
D11*
X988720Y842979D03*
X998220Y842979D03*
X1007720Y842979D03*
X1007720Y868981D03*
X988720Y868981D03*
D10*
X1005920Y817880D03*
X1015920Y817880D03*
X1054020Y767080D03*
X1044020Y767080D03*
D12*
X1054290Y903280D02*
X1054290Y910280D01*
X1061290Y910280D01*
X1061290Y903280D01*
X1054290Y903280D01*
X1054290Y906130D02*
X1061290Y906130D01*
X1061290Y908980D02*
X1054290Y908980D01*
X1036750Y910280D02*
X1036750Y903280D01*
X1036750Y910280D02*
X1043750Y910280D01*
X1043750Y903280D01*
X1036750Y903280D01*
X1036750Y906130D02*
X1043750Y906130D01*
X1043750Y908980D02*
X1036750Y908980D01*
D10*
X1018620Y906780D03*
X1028620Y906780D03*
D11*
X1039520Y830279D03*
X1049020Y830279D03*
X1058520Y830279D03*
X1058520Y856281D03*
X1039520Y856281D03*
D13*
X1006720Y881380D03*
X989720Y881380D03*
X1129420Y678180D03*
X1146420Y678180D03*
D10*
X1130220Y697230D03*
X1120220Y697230D03*
X1120220Y735330D03*
X1130220Y735330D03*
D14*
X1116020Y722780D03*
X1134420Y716280D03*
X1134420Y709780D03*
X1134420Y722780D03*
X1116020Y716280D03*
X1116020Y709780D03*
D15*
X948770Y731580D03*
X948770Y675580D03*
D16*
X985520Y718580D03*
X985520Y708580D03*
X985520Y698580D03*
X985520Y688580D03*
D10*
X1112520Y762080D03*
X1112520Y772080D03*
X1023620Y850980D03*
X1023620Y860980D03*
D12*
X1054290Y922330D02*
X1054290Y929330D01*
X1061290Y929330D01*
X1061290Y922330D01*
X1054290Y922330D01*
X1054290Y925180D02*
X1061290Y925180D01*
X1061290Y928030D02*
X1054290Y928030D01*
X1036750Y929330D02*
X1036750Y922330D01*
X1036750Y929330D02*
X1043750Y929330D01*
X1043750Y922330D01*
X1036750Y922330D01*
X1036750Y925180D02*
X1043750Y925180D01*
X1043750Y928030D02*
X1036750Y928030D01*
D10*
X1018620Y925830D03*
X1028620Y925830D03*
X1079420Y843280D03*
X1069420Y843280D03*
D17*
X1079320Y813690D03*
X1079320Y829690D03*
X1120320Y829690D03*
X1120320Y813690D03*
X1079320Y858140D03*
X1079320Y874140D03*
X1120320Y874140D03*
X1120320Y858140D03*
D18*
X966640Y1123480D03*
X966640Y1110780D03*
X966640Y1098080D03*
X966640Y1085380D03*
X966640Y1072680D03*
X966640Y1059980D03*
X966640Y1047280D03*
X966640Y1034580D03*
X966640Y1021880D03*
X966640Y1009180D03*
X966640Y996480D03*
X966640Y983780D03*
X966640Y971080D03*
X966640Y958380D03*
D19*
X991870Y943480D03*
X1004570Y943480D03*
X1017270Y943480D03*
X1029970Y943480D03*
X1042670Y943480D03*
X1055370Y943480D03*
X1068070Y943480D03*
X1080770Y943480D03*
X1093470Y943480D03*
X1106170Y943480D03*
D18*
X1131400Y958380D03*
X1131400Y971080D03*
X1131400Y983780D03*
X1131400Y996480D03*
X1131400Y1009180D03*
X1131400Y1021880D03*
X1131400Y1034580D03*
X1131400Y1047280D03*
X1131400Y1059980D03*
X1131400Y1072680D03*
X1131400Y1085380D03*
X1131400Y1098080D03*
X1131400Y1110780D03*
X1131400Y1123480D03*
D20*
X1049020Y1046480D03*
D21*
X1059020Y795680D03*
X1059020Y814680D03*
X1038020Y805180D03*
D22*
X1056520Y674780D03*
X1051520Y674780D03*
D23*
X1081270Y674780D03*
X1073520Y674780D03*
D22*
X1066520Y674780D03*
X1061520Y674780D03*
X1041520Y674780D03*
X1046520Y674780D03*
D23*
X1016770Y674780D03*
X1024520Y674780D03*
D22*
X1031520Y674780D03*
X1036520Y674780D03*
D10*
X1099820Y641430D03*
X1099820Y651430D03*
X998220Y641430D03*
X998220Y651430D03*
D24*
X1060520Y779780D03*
X1037520Y779780D03*
D25*
X1004570Y688280D03*
X1017270Y688280D03*
X1029970Y688280D03*
X1042670Y688280D03*
X1055370Y688280D03*
X1068070Y688280D03*
X1080770Y688280D03*
X1093470Y688280D03*
X1093470Y744280D03*
X1080770Y744280D03*
X1068070Y744280D03*
X1055370Y744280D03*
X1042670Y744280D03*
X1029970Y744280D03*
X1017270Y744280D03*
X1004570Y744280D03*
D10*
X990520Y741680D03*
X980520Y741680D03*
X1018620Y887730D03*
X1028620Y887730D03*
D12*
X1054290Y884230D02*
X1054290Y891230D01*
X1061290Y891230D01*
X1061290Y884230D01*
X1054290Y884230D01*
X1054290Y887080D02*
X1061290Y887080D01*
X1061290Y889930D02*
X1054290Y889930D01*
X1036750Y891230D02*
X1036750Y884230D01*
X1036750Y891230D02*
X1043750Y891230D01*
X1043750Y884230D01*
X1036750Y884230D01*
X1036750Y887080D02*
X1043750Y887080D01*
X1043750Y889930D02*
X1036750Y889930D01*
D26*
X990720Y896593D03*
X995720Y916968D03*
X990720Y916968D03*
X1000720Y916968D03*
X1005720Y916968D03*
X995720Y896593D03*
X1000720Y896593D03*
X1005720Y896593D03*
D27*
X1001620Y906780D03*
X994820Y906780D03*
D10*
X1018620Y868680D03*
X1028620Y868680D03*
X1092120Y787400D03*
X1082120Y787400D03*
D28*
X1074119Y776580D03*
X1074119Y767080D03*
X1074119Y757580D03*
X1100121Y757580D03*
X1100121Y776580D03*
D10*
X1005920Y767080D03*
X1015920Y767080D03*
D29*
X1146390Y1177550D03*
X1157390Y1177550D03*
X1157390Y1159250D03*
X1146390Y1159250D03*
D10*
X1156890Y1150620D03*
X1146890Y1150620D03*
D30*
X1007280Y782480D03*
X1007280Y802480D03*
D31*
X955280Y758480D03*
X955280Y826480D03*
M02*
